<svg xmlns="http://www.w3.org/2000/svg" xmlns:xlink="http://www.w3.org/1999/xlink" width="45.324" height="22.346" viewBox="0 0 45.324 22.346">
  <defs>
    <clipPath id="clip-path">
      <rect id="Rectangle_41" data-name="Rectangle 41" width="43.695" height="17.877" fill="none"/>
    </clipPath>
  </defs>
  <g id="pijl" transform="matrix(-0.995, 0.105, -0.105, -0.995, 45.324, 17.779)">
    <g id="Artwork_1" data-name="Artwork 1" transform="translate(0 0)" clip-path="url(#clip-path)">
      <path id="Path_618" data-name="Path 618" d="M0,.1C.158.262-.158.578.158.262S.158-.054,0,.1" transform="translate(62.537 11.74)" fill="#0a3974"/>
      <path id="Path_619" data-name="Path 619" d="M.673,3.119c.449,1.263,1.122,0,1.682.79s0-.632.112-.474a2.029,2.029,0,0,0,2.019-.316h0c.112-.158.224.474.449.474s0-.158,0-.316.224.158.336.474,0-.474.112-.632v.474c.224.948.449,0,.785.474a.658.658,0,0,1,0-.316c.449.632,1.009.474,1.458.79a2.436,2.436,0,0,1,0-.632.639.639,0,0,0,.336.632c.112-.474.224.474.336.158h0c.112.474.224-.316.224.316V4.067c0,.632.112-.316.224,0h0c.112.158.112-.158.224,0h0c.224.158.336-.158.336.316s-.224-.158-.112-.79a2.861,2.861,0,0,0,2.019.474V3.593c.112.158.224.158.336.316V3.593c.112-.158.112.632.224.316a1.1,1.1,0,0,1,0-.474c.112.316.224.316.449.474a.882.882,0,0,1,0-.316c.112.474.224-.158.336.158V3.593c.224-.316.112.632.224.474a.883.883,0,0,1,0-.316c.112.474.449.316.561.474h0c.224,0,.336-.158.561.158s0-.79.112-.632a.943.943,0,0,1,.224.948c-.112.632.449-.316.561-.158s.224-.948.112-.948V3.277c0-.316-.112.158-.112-.158h.336c.112.316.224,1.105.449,1.105s0-.632,0-.79l.336,1.105c.112,0,0-.474.112-.316a1.136,1.136,0,0,0,.112.316s.224.158.336-.474-.112-.158,0-.316h.224c.112-.158.224.316.112.632s0-.316-.112-.158.224.474.336.474a1.771,1.771,0,0,1,0-.474,1.733,1.733,0,0,0,.561.79c0,.316-.112-.474-.112-.316a.353.353,0,0,0,.673,0c.224-.474,0,.316,0,.316s.112-.474.224-.316.112,0,.224.158,0-.158,0-.158.561.632.785.158.112.632.224.474h0c0-.158.224,0,.224-.316s-.449-.316-.336,0,.224.632.224.158.224.474.336.158-.112-.474,0-.474,0,.158.224.316h.112c0,.316.112,0,.112.316s.224.158.224-.474V4.7c.112,0,.112.474.224.632h0c0,.632.112,0,.224.474s.336,0,.449-.474.224.474.336.316V5.172c.112-.158.112,0,.224.158l.224-.632a1.93,1.93,0,0,1,.112.79c0,.158.336.474.449-.158s-.112-.316-.112-.474.224.474.336.158v.632c.112-.316.224.316.224-.316s.224-.158.224.316.673.316.785-.79.112,0,.112.316-.112-.158-.112,0v.316c0,.158.112-.158.112-.632s.224.948.449.79,0-.316.112-.316V5.8a1.961,1.961,0,0,0,.112-.948c0-.474.224,0,.224.316V4.541c-.112.316.112.316.112.316h0c0-.158.112,0,.112,0a.809.809,0,0,1-.112.474v.316c0-.316.112-.316.224-.316s.112.316.112.316.112,0,.112-.316-.112.158-.112,0,0-.474.112-.316,0,.79.112.474V5.172h.112v.316h0c0,.316.224.158.224.474l.224-.316h0c.112-.158.224,0,.224.158h.224c.112-.316,0-1.263.112-.948s.224.632.112.79.449.316.673-.158,0,.158.112.316.673.474.9-.316,0-.316,0-.474.112-.316.112.158,0,.474-.112.632a.283.283,0,0,0,.312.141.4.4,0,0,0,.249-.3.43.43,0,0,0,0,.316c0-.474.112-.632.224-.474h0c0,.158,0,.632.112.316V5.646c.112.316.224.632.336.474V5.646s.112.316,0,.474.336-.316.336-.632c.162.733.708,1.153,1.234.948h0c.112-.158,0,.474.112.316a.95.95,0,0,0,0-.79c-.112-.316.224.474.336.474s-.112-.158-.112.158.224-.158.224.158a2.882,2.882,0,0,0,0-.632h.112c.112-.474-.224-.948-.112-1.579h.112c.112-.474-.224-.474,0-.632a2.378,2.378,0,0,1,.112,1.105c.224.158.112,1.105.336,1.105s-.112,0-.112-.474.224.158.224,0a1.075,1.075,0,0,0,0,.79c.112-.158-.112-.474.112-.474s.112.474,0,.632.112-.158.224.316-.112-.948,0-1.263.224.632.112,1.105a1.315,1.315,0,0,0,0-.632c.112-.316.224.79.224,0h0c.112,0,.224.632.224,0s.224,0,.112.474-.112-.316-.224.316.112,0,.224.158V6.436c0,.158.112,0,.112.316a.658.658,0,0,1,0-.316v.316c.112.158,0-.632.224-.474V5.962s.112-.316.112-.158v.948c.112.158,0-.316.112,0V6.436c0-.158.112-.632.224-.474a1,1,0,0,1,.112.79c-.112.158.112-.158.112-.474s0,.316.112.632l.224-.948V5.33h.224c-.112-.474,0-.316,0-.79h.112c-.112.79.224,1.105.112,1.737s.224-1.579.449-.474.112.79-.112.474.112.632.224.474a1.779,1.779,0,0,0,0-1.105c-.112-.474-.112.158-.112.158s0-.632.112-.632.224.158.224.474-.112,0-.112.316.224-.474.224.316-.112.316-.112.632h.112V6.594c.224-.158.112.474.224.474V6.436c0-.474-.224.158-.224-.474s.112.316.224.158H36.9s.112-.948.224-.474,0,.316,0,.474l.336.474c0-.474.224,0,.112-.632s-.336.316-.449-.158-.112.158-.224-.632.112-.632.224-1.105h.336c.011.263.011.527,0,.79.224-.158.336.158.449.474s0-.632,0-.632h.561c-.112.632.224.158.112.632a1.488,1.488,0,0,0-.112.948c.112,0,0-.316,0-.474s.112-.474.224,0,0-.79-.112-1.263,0-.316.112-.316l.449.632c.224-.474.449,0,.673,0s0-.79.112-.948-3.7-.79-3.7-.948A3.386,3.386,0,0,0,36,2.172c-.112-.316-.449,0-.673-.316v.316c-.224-.632-.449,0-.673,0s-.112.474-.112.474-.224-.474-.336-.79l-.449.316c-.561-.79-1.009-.316-1.57-.632v.316c-.561-.79-1.122,0-1.57-.474v.632c-.112.158-.336-.158-.336-.632s-.336-.316-.449.158-.224-.316-.336-.316a.509.509,0,0,1-.673,0h.112V1.7s-.336.158-.224-.632-.673-.316-.9.316,0-.316-.112-.316-.561.474-.673,0,.112.316,0,.316,0-.316-.112-.316-.785.474-1.234.316a4.085,4.085,0,0,0-2.019-.316h0c-.224-.632-.449.632-.673-.316s-.224,0-.112.316-.449.316-.673-.158h.112c-.224.316-.449-.158-.673.158v.316c-.112.316-.224-.632-.336.158s0-.316,0-.316-1.122-.158-1.794-.316,0,1.263-.336.632,0-.316,0-.158-.224.79-.336.474a1.019,1.019,0,0,1-.112-.474c0-.158-.336.632-.561.316v.316c-.224-.632-.561-.316-.673-1.105L13.683.277A18.288,18.288,0,0,0,9.87.435c-.336.632-.336.632-.673.316s0,.158,0,.158-.224,0-.224-.474H7.514c.112,0,.112.474,0,.474V.593h0A.6.6,0,0,1,7.4.119C6.169-.355,4.935.751,3.7.593A1.163,1.163,0,0,1,2.692.435,2.545,2.545,0,0,1,0,1.224S.112,2.488.561,2.8" transform="translate(3.632 7.041)" fill="#0a3974"/>
      <path id="Path_620" data-name="Path 620" d="M.07,0c0,.316-.158.474,0,.79A6.633,6.633,0,0,0,.07,0" transform="translate(62.151 11.844)" fill="#0a3974"/>
      <path id="Path_621" data-name="Path 621" d="M0,.158H0L.158.316s0-.158,0-.316" transform="translate(58.273 14.213)" fill="#0a3974"/>
      <path id="Path_622" data-name="Path 622" d="M0,0A.474.474,0,0,0,.317.474Z" transform="translate(57.167 14.529)" fill="#0a3974"/>
      <path id="Path_623" data-name="Path 623" d="M.07,0a.219.219,0,0,0,0,.316A.947.947,0,0,0,.07,0" transform="translate(56.15 15.476)" fill="#0a3974"/>
      <path id="Path_624" data-name="Path 624" d="M0,0V.316C0,.158.158.474.158,0" transform="translate(56.22 15.003)" fill="#0a3974"/>
      <path id="Path_625" data-name="Path 625" d="M.158.07S0-.088,0,.07s.316.316.158,0" transform="translate(54.009 15.564)" fill="#0a3974"/>
      <path id="Path_626" data-name="Path 626" d="M.2,0H.042a.316.316,0,0,0,0,.316Z" transform="translate(52.861 15.318)" fill="#0a3974"/>
      <path id="Path_627" data-name="Path 627" d="M0,0V0Z" transform="translate(35.532 14.371)" fill="#0a3974"/>
      <path id="Path_628" data-name="Path 628" d="M.223.043C.065-.115.223.2.065.359s0-.316.158-.316" transform="translate(27.571 14.328)" fill="#0a3974"/>
      <path id="Path_629" data-name="Path 629" d="M0,.474H0v0Z" transform="translate(23.53 12.792)" fill="#0a3974"/>
      <path id="Path_630" data-name="Path 630" d="M0,0C.158,0,.158.316.158.158H0" transform="translate(18.003 0)" fill="#0a3974"/>
      <path id="Path_631" data-name="Path 631" d="M1.737,10.739c.948.79.474-.316,1.105,0s-.474-.474-.316-.474.79-.158.474-.948h.316l.316.316L3.316,9.16l.316.316c.632.79.158-.158.632.158H4.106c.474.316.632.158.948.158l-.316-.474.474.474c-.316-.316.316.316.316,0h0c.316.316-.158-.316.316.158V9.16C6.317,9.633,5.685,8.844,6,9H6c.158.158,0-.158,0-.158H6c.158,0,0-.316.316.158L5.843,8.37c.632.158.79,0,.948-.158V8.054h.316V7.9c0-.158.316.474.316.158L6.317,7.738l.474.316H6.633c.316.316,0-.158.316,0H6.791c-.158-.316.316.474.316.316V7.58c.316.316.316.158.474.316h0c.158,0,.158-.158.316,0s-.474-.632-.316-.474a2.218,2.218,0,0,1,.632.632c.316.474,0-.316.158-.316L7.9,7.107V6.633h0l.79.79-.474-.632L9,7.58s-.316-.316-.158-.316l.316.316s.158,0-.158-.474V6.949h.158l.316.474H9.317l.316.316-.316-.316.158.316V7.422c-.158-.316.474.316.316-.158V7.58l-.158-.316h0c.158.158.474.316.474,0l.316.474V7.264c-.158-.158.158,0,0-.316s-.316-.158-.158,0,.474.474.158,0,.316.316.158,0l-.316-.474h.316v.316c-.158-.316.158.158-.158-.474L10.107,6l.474.474h-.158c.316.632,0-.158.316.316s.158-.158,0-.474h.316c0-.158,0,0,.158,0L10.9,5.685l.474.632c-.316-.632.316.316.158-.316l-.316-.474c-.316-.632.316.316.316,0L11.844,6c-.158-.316.316.158,0-.316s0-.158.316.316.474.158,0-.79h.158c.158.316-.158-.158,0,0h.158L12.16,4.58c-.158-.316.632.79.632.474V6l.316.316-.474-.79.316.316V5.527h0v.316l.316.316-.158-.316h0c0-.158-.158-.474,0-.316s.316.632.316.474V5.527h0v.316h0l.316.474V6h0c0-.158,0-.158.158.158h.158c-.158-.316-.632-1.105-.316-.79l.474.79c0-.316.316.158.158-.316v.316c0-.158.474.158.158-.474l-.316-.474c.158.316-.158-.316.158.158l.316.474c.158.158.316,0,.158-.158V6c-.316-.474-.158-.474-.158-.474h0L15,5.843h0a1.9,1.9,0,0,0-.158-.632c.632.79.79.632.948.474h0l-.316-.632c0-.316.316.316.316.316s-.158-.158,0,.158,0-.316.158.158L15.792,4.58h.158c-.158-.474-.632-.79-.79-1.421h0c-.158-.474-.316-.474-.316-.632l.474.948c.158,0,.474.948.632.948l-.316-.316c-.158-.316.158.158.158,0l.316.632c0-.158-.158-.316-.158-.474l.316.632c.316.474,0-.158.158.158a8.686,8.686,0,0,1-.474-1.105l.632.948-.316-.632c0-.316.474.632,0-.158h0s.316.474,0-.158.158,0,.316.316-.158-.316,0,.316.158,0,.158.158h-.158V4.9c.158.158-.316-.632-.158-.474h-.158s-.158-.316,0-.158l.474.948c.158.158-.158-.316,0,0V4.58a1.591,1.591,0,0,0-.158-.474l.316.632V4.264l.316.474-.316-.79-.316-.474h0l-.316-.79h.158a14.675,14.675,0,0,0,.79,1.579c.316.632-.632-1.579-.158-.632s.316.632.158.474.316.632.316.316l-.474-.948c.158.158,0,.158,0,.158L16.74,3l.316.316.158.316c.158.316-.158-.474.158.158v.632h0c0-.158.158.474.316.316V4.264c-.158-.474,0,.158-.316-.474s.158.316.158.158h-.158s-.474-.948,0-.474l.316.474L18,4.264c-.316-.474,0-.158-.158-.632s0,.316-.316-.158,0,.158-.316-.474-.158-.632-.316-.948h.158l.316.632L17.845,3l-.316-.474c.158,0,.158,0,.316-.158s.158.158.316.632l.316.79V3.474c.158.316-.158-.474.158,0A6.317,6.317,0,0,1,18,2.369c.158.158-.158-.316-.158-.316l.474.474c-.158-.474.158-.158.316-.158l-.316-.79s.158.632.158.316h0c0,.158,0-.474.316.316l-.316-.474h.158V1.105c-.158-.474.158,0,.158,0v.316c.158.158.158-.158.316,0V1.105h.158c-.158-.316-.158-.474,0-.316L18.793,0l.316.632c.158.316,0,.158-.158,0h.158L18.793,0h-.158V.474C18.477.158,18.319,0,18.319.158S18,0,18,.158l.474.79v.158L18,.158V.474L17.371,0l-.316.316V.632C16.74,0,16.74.474,16.582.316s-.316-.158-.158.316-.632-.316-.79,0l.316.474c-.158-.316.158.316,0,.158S15.634.79,15.476.632s-.158,0-.474-.158V.632c-.316-.474-.158,0-.316.158v.474L14.213.632s-.158.158,0,.474-.632,0-.948-.316v.316c-.632-.632-.474.158-.948,0l.316.632q0,.237-.474-.474c-.316-.474-.316-.158-.158.316l-.316-.316c0,.316,0,.316-.316.158h0V1.9c-.158-.158,0,.316-.474-.474s-.474-.158-.316.474V1.421c-.158,0,0,.474-.316.158h0c-.316-.316-.158.632-.316.632A3.274,3.274,0,0,0,9,2.527h.158c-.474-.474.158.632-.474,0s0,.158.158.316,0,.474-.316,0h0c0,.316-.316,0-.158.316h.158c.158.316-.474-.474,0,.158v.158c-.158.316-.632.158-.948.158s.632,1.105.158.632H7.58c-.158-.158.316.79.158.474l-.316-.474c0,.316.316.632,0,.474H7.58c-.474-.474-.316-.158-.948-.79L4.58,4.422c-.474.474-1.105.632-1.421,1.263s.316.632,0,.474h.158l-.474-.316-.632.316.316.316H2.369l-.316-.316c-.79,0-.632,1.263-1.105,1.579S.632,7.9.474,8.054.632,9.633,0,9.475a6.475,6.475,0,0,0,1.263,1.105" transform="translate(-0.474 0.158)" fill="#0a3974"/>
      <path id="Path_632" data-name="Path 632" d="M0,0,.316.632,0,0" transform="translate(17.845 0)" fill="#0a3974"/>
      <path id="Path_633" data-name="Path 633" d="M0,0H0" transform="translate(17.845 3.001)" fill="#0a3974"/>
      <path id="Path_634" data-name="Path 634" d="M0,0,.316.316Z" transform="translate(17.529 3.316)" fill="#0a3974"/>
      <path id="Path_635" data-name="Path 635" d="M0,0H0" transform="translate(17.687 4.264)" fill="#0a3974"/>
      <path id="Path_636" data-name="Path 636" d="M.046,0V.316C-.112.158.2.474.046,0" transform="translate(17.326 3.948)" fill="#0a3974"/>
      <path id="Path_637" data-name="Path 637" d="M.07.07h0" transform="translate(16.985 4.668)" fill="#0a3974"/>
      <path id="Path_638" data-name="Path 638" d="M0,0Z" transform="translate(16.74 4.58)" fill="#0a3974"/>
      <path id="Path_639" data-name="Path 639" d="M0,0,.158.158,0,0Z" transform="translate(11.055 6.633)" fill="#0a3974"/>
      <path id="Path_640" data-name="Path 640" d="M0,0H0" transform="translate(9.002 8.054)" fill="#0a3974"/>
      <path id="Path_641" data-name="Path 641" d="M.316.316h0L0,0Z" transform="translate(6.791 7.58)" fill="#0a3974"/>
      <path id="Path_642" data-name="Path 642" d="M.07.293c0-.158.158-.474,0-.158s0,.316,0,.158" transform="translate(1.193 12.025)" fill="#0a3974"/>
      <path id="Path_643" data-name="Path 643" d="M13.107,7.6c.316-1.105-.316-.158-.316-.948v.474c.158-.948-.316-.474-.79,0h0c-.158.158.158-.474,0-.474V6.97c.158-.316,0-.158,0-.474l-.316.474h0c.316-.948-.158,0-.158-.474v.316c0-.632-.158-.632-.316-.79v.632a1.263,1.263,0,0,0,.158-.632c-.158.474,0-.474,0-.158h0c.158-.474-.158.316,0-.316v.316c.158-.632-.158.316-.158,0h0c0-.158-.158.158,0-.316s0,.158-.158.79-.316-.474-.474-.632V6.18c-.158.158.158-.474,0-.316h0a.79.79,0,0,0,0-.474v.316c.158-.474-.158,0,0-.158v.316c-.158.316.158-.632,0-.474v.316c.158-.474,0-.316,0-.632h0c0-.158-.158,0-.158-.158s-.158.632-.316.632,0-.316.158-.948-.158.316-.158,0a6.793,6.793,0,0,0-.158.79v.316A5.843,5.843,0,0,0,10.107,4.6v.79L8.686,4.285V4.127s0-.158-.158.316V4.6h0a1.574,1.574,0,0,1,.158-.632c.158-.316-.158.316,0,.158s0-.474,0-.474v.632a2.842,2.842,0,0,0,0-.79v.316c-.158.316,0-.632-.316,0h0V3.653h0c0-.158,0-.632-.158-.316a2.211,2.211,0,0,0,.158-.474V3.5c0-.474,0,.474.158,0s0-.632,0-.158,0-.474-.158-.158v.158h0c.158-.316,0,0,0-.316s0-.158-.158.316V3.179h0c.158-.632,0,0,0-.474s-.158,0-.316.474,0-.474,0-.316h0c-.158.158,0,0,0-.158l-.316.632V2.864c-.158.632,0-.474-.158.158a1.737,1.737,0,0,1-.158.474c-.158.632,0-.474-.158-.158V2.706c-.158.316,0-.316-.158.158s-.158.158,0-.316-.158-.316-.474.632,0,0,0-.316h0V2.706a1.579,1.579,0,0,0-.158.632c-.158.316.158-.948,0-.79V2.39A4.106,4.106,0,0,0,6,3.337V3.5c.158-.316,0-.158,0-.316H6V2.548c0-.158-.158.316-.158.316V2.706h0c0,.158-.158.474-.158.158s.158-.79,0-.474v.316H5.527V2.548h0c0,.158-.158,0,0-.158h0V2.074c0-.316-.316,1.263-.316.79a3.632,3.632,0,0,1,.158-.79c-.158.158,0-.316-.316.158V2.074c-.158.158-.158-.474-.316.158v.474c0-.316-.158.316,0-.158V1.916c0-.158-.158-.158-.158.158V1.758c-.158.474-.158.632-.158.316h0c0-.158.158-.632,0-.316v.316A1.263,1.263,0,0,1,4.58,1.6l-.316.632c.158-.948,0-1.105-.158-.948h0c-.158.158,0-.474,0-.316v.79c-.158.158,0-.474,0-.474V1.126c0-.316-.158.158,0-.158V1.6h0c-.158.474-.158.948-.316,1.579h0c-.158.474,0,.474-.158.632A6.949,6.949,0,0,1,3.79,2.706c0-.158.158-1.105.158-1.105v.474c0,.474,0-.158-.158-.158a3,3,0,0,0,.158-.79c-.158.158,0,.474-.158.474A2.842,2.842,0,0,1,3.948.969c.158-.632-.158.158,0-.316q-.13.56-.316,1.105c.158-.474,0-.632.158-1.105v.632c-.158.316,0-.79-.158,0h0s0-.632-.158,0,0,0,0-.474,0,.316.158-.316,0,0,0-.158h0a.79.79,0,0,1,0-.316h0c0-.158-.158.632-.158.474V.811H2.369V.495c0-.158-.158.316,0,0v.948a2.843,2.843,0,0,1,.158-.79V.495l-.316.79v.632h0c0,.474-.158.316-.158.79s0-.158,0-.158.158-1.105.316-1.737-.316,1.737-.316.632.158-.632.158-.474.158-.632,0-.474-.158.632-.158,1.105V1.442a3.316,3.316,0,0,1-.158.632V1.6c0-.316,0,0,.158-.316s-.158.474,0-.316.158-.316.158-.632h0V.653c-.158.158,0-.474,0-.474V.653c0,.474.158-.158,0,.474s0-.316,0-.158h0s-.158.948-.158.474A3,3,0,0,1,2.211.969V.495c0-.158-.158,0-.158.632s.158-.316.158.316v.632a4.738,4.738,0,0,0-.316.948V2.074c-.158.158-.158-.158,0-.474a2.527,2.527,0,0,0-.158.632H.79c.158-.632,0-.158,0-.632A3.79,3.79,0,0,0,.948.811v.316c0-.316-.158.474,0,0A8.211,8.211,0,0,1,.79,2.39c0-.316,0,.316-.158.316a2.527,2.527,0,0,0,0-.632c-.158.474-.158,0-.158,0v.948s.158-.632,0-.316h0c0-.158-.158.316,0-.474v.948c-.158.474,0,0-.158-.158V2.706c0-.316-.158,0-.158-.158v.316h0c0,.316-.158.474-.158.316v.79a1.717,1.717,0,0,1,.158-.79c.158-.316.158-.158,0,.158s0,0,0-.158a6.158,6.158,0,0,0,0,.79h0v.316a3.945,3.945,0,0,1,0-.474q0,.711,0,.474c0-.158,0,.316.158.158a8.209,8.209,0,0,0,0-.948H.474a9,9,0,0,0-.158.948V3.969c0,.158,0,.632,0,.632H.632V3.969c0,.632.158.316.158.632s.158.316.316-.158.158.474.316.474V4.285c0,.316,0-.316.158-.158a3.474,3.474,0,0,0-.158.79c.158-.316.158,0,.158.474V5.075c0,.632.158.158.158,0V4.6a4.422,4.422,0,0,0,0,.79V5.232c0,.79.316.316.316.79V5.548c0,.79.316.158.474.632V5.548c.158-.158,0,.158,0,.632s0,.316.158-.158,0,.316,0,.474.158-.158.158,0h0V6.022c0,.158.158-.158,0,.632S3,7.128,3.158,6.5v.316c.158,0,.316-.316.316,0h0c0,.474.316-.316.474-.158a2.18,2.18,0,0,0,.632.474h0c-.158.632.316-.474.158.316V6.97c0,.474.316-.316.158.158s0,0,0-.158.158.158.316-.158V6.654c.158-.316-.158.632.158,0V6.97c.316-.158.316.316.474.474s.316-1.263.316-.632h0c0,.158.316-.79.158-.474v.474c.158-.316.316-.632.316-.316h0c-.158.632,0,.316,0,1.105l1.105.948c.474,0,.79.474,1.263.158s.316-.474.316-.316h0l-.158.474h.474v.158h0V9.5c.158.632.948-.316,1.263,0s.158,0,.316.158.948-.948,1.105-.316a8.844,8.844,0,0,0,.474-1.579" transform="translate(1.895 8.349)" fill="#0a3974"/>
      <path id="Path_644" data-name="Path 644" d="M0,.79A4.264,4.264,0,0,0,.158,0V.79" transform="translate(1.263 11.686)" fill="#0a3974"/>
      <path id="Path_645" data-name="Path 645" d="M0,.2H0V.36" transform="translate(2.685 9.747)" fill="#0a3974"/>
      <path id="Path_646" data-name="Path 646" d="M0,.474A.79.79,0,0,0,0,0Z" transform="translate(3.001 9.475)" fill="#0a3974"/>
      <path id="Path_647" data-name="Path 647" d="M0,.316v0" transform="translate(3.474 8.686)" fill="#0a3974"/>
      <path id="Path_648" data-name="Path 648" d="M.158.158V0c0,.158,0-.158-.158.316" transform="translate(3.158 9.317)" fill="#0a3974"/>
      <path id="Path_649" data-name="Path 649" d="M0,.182H0" transform="translate(3.948 8.819)" fill="#0a3974"/>
      <path id="Path_650" data-name="Path 650" d="M0,0Z" transform="translate(4.264 9.317)" fill="#0a3974"/>
      <path id="Path_651" data-name="Path 651" d="M0,.158v0Z" transform="translate(8.37 11.055)" fill="#0a3974"/>
      <path id="Path_652" data-name="Path 652" d="M0,0H0" transform="translate(10.265 11.844)" fill="#0a3974"/>
      <path id="Path_653" data-name="Path 653" d="M.158,0h0L0,.316Z" transform="translate(10.897 13.266)" fill="#0a3974"/>
    </g>
  </g>
</svg>
