<svg xmlns="http://www.w3.org/2000/svg" xmlns:xlink="http://www.w3.org/1999/xlink" width="53.688" height="129.056" viewBox="0 0 53.688 129.056">
  <defs>
    <clipPath id="clip-path">
      <rect id="Rectangle_165" data-name="Rectangle 165" width="128.177" height="51.459" fill="none"/>
    </clipPath>
  </defs>
  <g id="pijl" transform="translate(53.688 0.898) rotate(91)" clip-path="url(#clip-path)">
    <path id="Path_2842" data-name="Path 2842" d="M.514,7.733C.191,8.187.836,9.1.191,8.187s0-.909.323-.455" transform="translate(-0.191 26.361)" fill="#60bcce"/>
    <path id="Path_2843" data-name="Path 2843" d="M117.923,14.7c-1.291,3.637-3.229,0-4.843,2.273s0-1.818-.323-1.364-3.874.909-5.812-.909h0c-.323-.455-.646,1.364-1.291,1.364s0-.455,0-.909-.646.455-.969,1.364,0-1.364-.323-1.818v1.364c-.646,2.728-1.291,0-2.26,1.364a1.893,1.893,0,0,0,0-.909c-1.291,1.818-2.906,1.364-4.2,2.273a7.012,7.012,0,0,0,0-1.818,1.839,1.839,0,0,1-.969,1.818c-.323-1.364-.646,1.364-.969.455h0c-.323,1.364-.646-.909-.646.909V17.432c0,1.818-.323-.909-.646,0h0c-.323.455-.323-.455-.646,0h0c-.646.455-.969-.455-.969.909s.646-.455.323-2.273a8.237,8.237,0,0,1-5.812,1.364V16.068c-.323.455-.646.455-.969.909v-.909c-.323-.455-.323,1.818-.646.909a3.163,3.163,0,0,0,0-1.364c-.323.909-.646.909-1.291,1.364a2.54,2.54,0,0,0,0-.909c-.323,1.364-.646-.455-.969.455v-.455c-.646-.909-.323,1.818-.646,1.364a2.54,2.54,0,0,0,0-.909c-.323,1.364-1.291.909-1.614,1.364h0c-.646,0-.969-.455-1.614.455s0-2.273-.323-1.818a2.715,2.715,0,0,0-.646,2.728c.323,1.818-1.291-.909-1.614-.455s-.646-2.728-.323-2.728v-.909c0-.909.323.455.323-.455h-.969c-.323.909-.646,3.182-1.291,3.182s0-1.818,0-2.273L74.013,18.8c-.323,0,0-1.364-.323-.909a3.271,3.271,0,0,1-.323.909s-.646.455-.969-1.364.323-.455,0-.909h-.646c-.323-.455-.646.909-.323,1.818s0-.909.323-.455-.646,1.364-.969,1.364a5.1,5.1,0,0,0,0-1.364,4.987,4.987,0,0,1-1.614,2.273c0,.909.323-1.364.323-.909a1.015,1.015,0,0,1-1.937,0c-.646-1.364,0,.909,0,.909s-.323-1.364-.646-.909-.323,0-.646.455,0-.455,0-.455S64.65,21.068,64,19.7s-.323,1.818-.646,1.364h0c0-.455-.646,0-.646-.909s1.291-.909.969,0-.646,1.818-.646.455-.646,1.364-.969.455.323-1.364,0-1.364,0,.455-.646.909H61.1c0,.909-.323,0-.323.909s-.646.455-.646-1.364V19.25c-.323,0-.323,1.364-.646,1.818h0c0,1.818-.323,0-.646,1.364s-.969,0-1.291-1.364-.646,1.364-.969.909V20.614c-.323-.455-.323,0-.646.455l-.646-1.818a5.555,5.555,0,0,0-.323,2.273c0,.455-.969,1.364-1.291-.455S54,20.159,54,19.7s-.646,1.364-.969.455v1.818c-.323-.909-.646.909-.646-.909s-.646-.455-.646.909-1.937.909-2.26-2.273-.323,0-.323.909.323-.455.323,0v.909c0,.455-.323-.455-.323-1.818s-.646,2.728-1.291,2.273,0-.909-.323-.909v1.364a5.643,5.643,0,0,1-.323-2.728c0-1.364-.646,0-.646.909V18.8c.323.909-.323.909-.323.909h0c0-.455-.323,0-.323,0a2.327,2.327,0,0,0,.323,1.364v.909c0-.909-.323-.909-.646-.909s-.323.909-.323.909-.323,0-.323-.909.323.455.323,0,0-1.364-.323-.909,0,2.273-.323,1.364v-.909H44.31v.909h0c0,.909-.646.455-.646,1.364l-.646-.909h0c-.323-.455-.646,0-.646.455h-.646c-.323-.909,0-3.637-.323-2.728s-.646,1.818-.323,2.273-1.291.909-1.937-.455,0,.455-.323.909-1.937,1.364-2.583-.909,0-.909,0-1.364-.323-.909-.323.455,0,1.364.323,1.818a.815.815,0,0,1-.9.405,1.147,1.147,0,0,1-.717-.86,1.238,1.238,0,0,1,0,.909c0-1.364-.323-1.818-.646-1.364h0c0,.455,0,1.818-.323.909v-.455c-.323.909-.646,1.818-.969,1.364V21.978s-.323.909,0,1.364-.969-.909-.969-1.818c-.466,2.111-2.039,3.318-3.552,2.728h0c-.323-.455,0,1.364-.323.909a2.733,2.733,0,0,1,0-2.273c.323-.909-.646,1.364-.969,1.364s.323-.455.323.455-.646-.455-.646.455a8.3,8.3,0,0,1,0-1.818h-.323c-.323-1.364.646-2.728.323-4.546h-.323c-.323-1.364.646-1.364,0-1.818a6.846,6.846,0,0,0-.323,3.182c-.646.455-.323,3.182-.969,3.182s.323,0,.323-1.364-.646.455-.646,0a3.094,3.094,0,0,1,0,2.273c-.323-.455.323-1.364-.323-1.364s-.323,1.364,0,1.818-.323-.455-.646.909.323-2.728,0-3.637S23,23.8,23.323,25.16a3.786,3.786,0,0,1,0-1.818c-.323-.909-.646,2.273-.646,0h0c-.323,0-.646,1.818-.646,0s-.646,0-.323,1.364.323-.909.646.909-.323,0-.646.455V24.25c0,.455-.323,0-.323.909a1.893,1.893,0,0,0,0-.909v.909c-.323.455,0-1.818-.646-1.364v-.909s-.323-.909-.323-.455V25.16c-.323.455,0-.909-.323,0V24.25c0-.455-.323-1.818-.646-1.364a2.866,2.866,0,0,0-.323,2.273c.323.455-.323-.455-.323-1.364s0,.909-.323,1.818l-.646-2.728V21.068h-.646c.323-1.364,0-.909,0-2.273h-.323c.323,2.273-.646,3.182-.323,5s-.646-4.546-1.291-1.364-.323,2.273.323,1.364-.323,1.818-.646,1.364a5.119,5.119,0,0,1,0-3.182c.323-1.364.323.455.323.455s0-1.818-.323-1.818-.646.455-.646,1.364.323,0,.323.909-.646-1.364-.646.909.323.909.323,1.818H13.96v-.909c-.646-.455-.323,1.364-.646,1.364V24.25c0-1.364.646.455.646-1.364s-.323.909-.646.455h.323s-.323-2.728-.646-1.364,0,.909,0,1.364l-.969,1.364c0-1.364-.646,0-.323-1.818s.969.909,1.291-.455.323.455.646-1.818-.323-1.818-.646-3.182h-.969c-.032.757-.032,1.516,0,2.273-.646-.455-.969.455-1.291,1.364s0-1.818,0-1.818H9.117c.323,1.818-.646.455-.323,1.818A4.284,4.284,0,0,1,9.117,23.8c-.323,0,0-.909,0-1.364s-.323-1.364-.646,0,0-2.273.323-3.637,0-.909-.323-.909L7.18,19.7c-.646-1.364-1.291,0-1.937,0s0-2.273-.323-2.728.323,1.818-.323.909h0c0,.455-.969-.909-.969,1.364V17.432H3.306V16.068c0-.455-.646,0-.969.455v.909c-.646.909-.969,0-1.614,0v-.455h0c0-.909-.323-1.818-.323-.909l.969-2.273c.323.455-.323,1.364,0,2.273s.646.455.646-.455H1.369c0-1.364.323-1.364.323-2.273H1.369c.323-.909.323-.909.646-.909s0,.909,0,1.364.323-1.818.646-1.364.646-.909,1.291-.455A9.445,9.445,0,0,1,3.306,14.7h.646A9.445,9.445,0,0,1,4.6,11.977v.909c.323-.455.323-1.818.646-1.364H7.5v.909c.323-1.818.969-.909,1.614-1.818s1.614-.909,1.937.909a5.322,5.322,0,0,1,4.2.909v1.364c.323-.909.323.909.323.455a9.746,9.746,0,0,1,.646-2.273c.323-.909,1.291,0,1.937-.909v.909c.646-1.818,1.291,0,1.937,0s.323,1.364.323,1.364.646-1.364.969-2.273l1.291.909c1.614-2.273,2.906-.909,4.52-1.818v.909c1.614-2.273,3.229,0,4.52-1.364v1.818c.323.455.969-.455.969-1.818s.969-.909,1.291.455.646-.909.969-.909a1.466,1.466,0,0,0,1.937,0h-.323v1.364s.969.455.646-1.818,1.937-.909,2.583.909,0-.909.323-.909,1.614,1.364,1.937,0-.323.909,0,.909,0-.909.323-.909,2.26,1.364,3.552.909a11.762,11.762,0,0,1,5.812-.909h0c.646-1.818,1.291,1.818,1.937-.909s.646,0,.323.909,1.291.909,1.937-.455H55.61c.646.909,1.291-.455,1.937.455V9.7c.323.909.646-1.818.969.455s0-.909,0-.909,3.229-.455,5.166-.909,0,3.637.969,1.818,0-.909,0-.455.646,2.273.969,1.364A2.932,2.932,0,0,0,65.941,9.7c0-.455.969,1.818,1.614.909v.909C68.2,9.7,69.17,10.613,69.493,8.34L80.47,6.522a52.651,52.651,0,0,1,10.977.455c.969,1.818.969,1.818,1.937.909s0,.455,0,.455.646,0,.646-1.364h4.2c-.323,0-.323,1.364,0,1.364V7.431h0a1.717,1.717,0,0,0,.323-1.364c3.551-1.364,7.1,1.818,10.655,1.364a3.349,3.349,0,0,0,2.906-.455,7.327,7.327,0,0,0,7.749,2.273s-.323,3.637-1.614,4.546" transform="translate(0.891 20.299)" fill="#60bcce"/>
    <path id="Path_2844" data-name="Path 2844" d="M.317,7.5c0,.909.323,1.364,0,2.273C.285,9.016.285,8.257.317,7.5" transform="translate(0.652 26.594)" fill="#60bcce"/>
    <path id="Path_2845" data-name="Path 2845" d="M3.023,9.455h0L2.7,9.909V9" transform="translate(6.017 31.913)" fill="#60bcce"/>
    <path id="Path_2846" data-name="Path 2846" d="M3.946,9.2A1.444,1.444,0,0,1,3.3,10.564Z" transform="translate(7.355 32.622)" fill="#60bcce"/>
    <path id="Path_2847" data-name="Path 2847" d="M4.119,9.8a.812.812,0,0,1,0,.909,3.827,3.827,0,0,1,0-.909" transform="translate(9.119 34.749)" fill="#60bcce"/>
    <path id="Path_2848" data-name="Path 2848" d="M4.323,9.5v.909c0-.455-.323.455-.323-.909" transform="translate(8.915 33.686)" fill="#60bcce"/>
    <path id="Path_2849" data-name="Path 2849" d="M5.462,10.058s.323-.455.323,0-.646.909-.323,0" transform="translate(11.972 34.946)" fill="#60bcce"/>
    <path id="Path_2850" data-name="Path 2850" d="M6.1,9.7h.323a1.238,1.238,0,0,1,0,.909Z" transform="translate(13.595 34.395)" fill="#60bcce"/>
    <path id="Path_2851" data-name="Path 2851" d="M17.2,9.1v0Z" transform="translate(38.333 32.267)" fill="#60bcce"/>
    <path id="Path_2852" data-name="Path 2852" d="M22.1,9.2c.323-.455,0,.455.323.909s0-.909-.323-.909" transform="translate(49.253 32.171)" fill="#60bcce"/>
    <path id="Path_2853" data-name="Path 2853" d="M24.8,9.464h0v0Z" transform="translate(55.27 28.721)" fill="#60bcce"/>
    <path id="Path_2854" data-name="Path 2854" d="M28.523,0C28.2,0,28.2.909,28.2.455h.323" transform="translate(62.848)" fill="#60bcce"/>
    <path id="Path_2855" data-name="Path 2855" d="M63.638,31.012c-1.937,2.273-.969-.909-2.26,0s.969-1.364.646-1.364-1.614-.455-.969-2.728h-.646l-.646.909.646-1.364-.646.909c-1.291,2.273-.323-.455-1.291.455h.323c-.969.909-1.291.455-1.937.455l.646-1.364-.969,1.364c.646-.909-.646.909-.646,0h0c-.646.909.323-.909-.646.455V26.466c-.969,1.364.323-.909-.323-.455h0c-.323.455,0-.455,0-.455h0c-.323,0,0-.909-.646.455l.969-1.818c-1.291.455-1.614,0-1.937-.455v-.455h-.646v-.455c0-.455-.646,1.364-.646.455l2.26-.909-.969.909h.323c-.646.909,0-.455-.646,0h.323c.323-.909-.646,1.364-.646.909V21.92c-.646.909-.646.455-.969.909h0c-.323,0-.323-.455-.646,0s.969-1.818.646-1.364A5.745,5.745,0,0,0,50.4,23.284c-.646,1.364,0-.909-.323-.909l.969-1.818V19.193h0l-1.614,2.273.969-1.818L48.786,21.92s.646-.909.323-.909l-.646.909s-.323,0,.323-1.364V20.1h-.323l-.646,1.364h.323l-.646.909.646-.909-.323.909v-.909c.323-.909-.969.909-.646-.455v.909l.323-.909h0c-.323.455-.969.909-.969,0l-.646,1.364V21.011c.323-.455-.323,0,0-.909s.646-.455.323,0-.969,1.364-.323,0-.646.909-.323,0l.646-1.364h-.646v.909c.323-.909-.323.455.323-1.364l.646-.909-.969,1.364h.323c-.646,1.818,0-.455-.646.909s-.323-.455,0-1.364h-.646c0-.455,0,0-.323,0l.646-1.818-.969,1.818c.646-1.818-.646.909-.323-.909l.646-1.364c.646-1.818-.646.909-.646,0l-.646,1.364c.323-.909-.646.455,0-.909s0-.455-.646.909-.969.455,0-2.273h-.323c-.323.909.323-.455,0,0h-.323l.646-1.818c.323-.909-1.291,2.273-1.291,1.364v2.728l-.646.909.969-2.273-.646.909V16.01h0v.909l-.646.909.323-.909h0c0-.455.323-1.364,0-.909s-.646,1.818-.646,1.364V16.01h0v.909h0L39.1,18.283v-.909h0c0-.455,0-.455-.323.455h-.323c.323-.909,1.291-3.182.646-2.273l-.969,2.273c0-.909-.646.455-.323-.909v.909c0-.455-.969.455-.323-1.364l.646-1.364c-.323.909.323-.909-.323.455l-.646,1.364c-.323.455-.646,0-.323-.455v.909c.646-1.364.323-1.364.323-1.364h0l-.646.909h0A7.322,7.322,0,0,1,36.84,15.1c-1.291,2.273-1.614,1.818-1.937,1.364h0l.646-1.818c0-.909-.646.909-.646.909s.323-.455,0,.455,0-.909-.323.455l.323-3.182H34.58c.323-1.364,1.291-2.273,1.614-4.091h0c.323-1.364.646-1.364.646-1.818L35.872,10.1c-.323,0-.969,2.728-1.291,2.728l.646-.909c.323-.909-.323.455-.323,0l-.646,1.818c0-.455.323-.909.323-1.364l-.646,1.818c-.646,1.364,0-.455-.323.455a31.205,31.205,0,0,0,.969-3.182l-1.291,2.728.646-1.818c0-.909-.969,1.818,0-.455h0s-.646,1.364,0-.455-.323,0-.646.909.323-.909,0,.909-.323,0-.323.455h.323v.455c-.323.455.646-1.818.323-1.364h.323s.323-.909,0-.455L32.966,15.1c-.323.455.323-.909,0,0V13.283a5.923,5.923,0,0,1,.323-1.364l-.646,1.818V12.374L32,13.738l.646-2.273.646-1.364h0l.646-2.273h-.323c-.646,2.273-.969,2.728-1.614,4.546s1.291-4.546.323-1.818-.646,1.818-.323,1.364-.646,1.818-.646.909L32.32,10.1c-.323.455,0,.455,0,.455l.646-1.818-.646.909L32,10.555c-.323.909.323-1.364-.323.455v1.818h0c0-.455-.323,1.364-.646.909V12.374c.323-1.364,0,.455.646-1.364s-.323.909-.323.455h.323s.969-2.728,0-1.364l-.646,1.364-.646.909c.646-1.364,0-.455.323-1.818s0,.909.646-.455,0,.455.646-1.364a23.38,23.38,0,0,0,.646-2.728H32.32l-.646,1.818-.969.909.646-1.364c-.323,0-.323,0-.646-.455s-.323.455-.646,1.818l-.646,2.273V10.1c-.323.909.323-1.364-.323,0a21.042,21.042,0,0,0,1.291-3.182c-.323.455.323-.909.323-.909l-.969,1.364c.323-1.364-.323-.455-.646-.455l.646-2.273s-.323,1.818-.323.909h0c0,.455,0-1.364-.646.909L29.414,5.1h-.323V3.282c.323-1.364-.323,0-.323,0v.909c-.323.455-.323-.455-.646,0V3.282H27.8c.323-.909.323-1.364,0-.909L28.769.1l-.646,1.818c-.323.909,0,.455.323,0h-.323L28.769.1h.323V1.464c.323-.909.646-1.364.646-.909s.646-.455.646,0l-.969,2.273v.455L30.383.555v.909L31.674.1l.646.909v.909c.646-1.818.646-.455.969-.909s.646-.455.323.909,1.291-.909,1.614,0L34.58,3.282c.323-.909-.323.909,0,.455s.646-1.364.969-1.818.323,0,.969-.455v.455c.646-1.364.323,0,.646.455V3.737l.969-1.818a1.539,1.539,0,0,1,0,1.364c-.323.909,1.291,0,1.937-.909v.909c1.291-1.818.969.455,1.937,0L41.36,5.1q0,.682.969-1.364c.646-1.364.646-.455.323.909l.646-.909c0,.909,0,.909.646.455h0V5.555c.323-.455,0,.909.969-1.364s.969-.455.646,1.364V4.191c.323,0,0,1.364.646.455h0c.646-.909.323,1.818.646,1.818a5.457,5.457,0,0,1,1.937.909h-.323c.969-1.364-.323,1.818.969,0s0,.455-.323.909,0,1.364.646,0h0c0,.909.646,0,.323.909h-.323c-.323.909.969-1.364,0,.455V10.1c.323.909,1.291.455,1.937.455s-1.291,3.182-.323,1.818h.323c.323-.455-.646,2.273-.323,1.364l.646-1.364c0,.909-.646,1.818,0,1.364h-.323c.969-1.364.646-.455,1.937-2.273l4.2,1.364c.969,1.364,2.26,1.818,2.906,3.637s-.646,1.818,0,1.364h-.323l.969-.909,1.291.909-.646.909h.323l.646-.909c1.614,0,1.291,3.637,2.26,4.546s.646.455.969.909-.323,4.546.969,4.091a16,16,0,0,1-2.583,3.182" transform="translate(61.956 0.355)" fill="#60bcce"/>
    <path id="Path_2856" data-name="Path 2856" d="M28.846,0,28.2,1.818,28.846,0" transform="translate(62.848)" fill="#60bcce"/>
    <path id="Path_2857" data-name="Path 2857" d="M28.4,1.9h0" transform="translate(63.294 6.737)" fill="#60bcce"/>
    <path id="Path_2858" data-name="Path 2858" d="M29.046,2.1l-.646.909Z" transform="translate(63.294 7.446)" fill="#60bcce"/>
    <path id="Path_2859" data-name="Path 2859" d="M28.5,2.7h0" transform="translate(63.516 9.574)" fill="#60bcce"/>
    <path id="Path_2860" data-name="Path 2860" d="M28.764,2.5v.909c.323-.455-.323.455,0-.909" transform="translate(63.898 8.865)" fill="#60bcce"/>
    <path id="Path_2861" data-name="Path 2861" d="M29.067,3.158h0" transform="translate(64.241 10.48)" fill="#60bcce"/>
    <path id="Path_2862" data-name="Path 2862" d="M29.1,2.9Z" transform="translate(64.854 10.283)" fill="#60bcce"/>
    <path id="Path_2863" data-name="Path 2863" d="M32.923,4.2l-.323.455.323-.455Z" transform="translate(72.654 14.893)" fill="#60bcce"/>
    <path id="Path_2864" data-name="Path 2864" d="M34,5.1h0" transform="translate(75.774 18.084)" fill="#60bcce"/>
    <path id="Path_2865" data-name="Path 2865" d="M35.2,5.709h0l.646-.909Z" transform="translate(78.448 17.02)" fill="#60bcce"/>
    <path id="Path_2866" data-name="Path 2866" d="M39,8.458C39,8,38.676,7.094,39,8s0,.909,0,.455" transform="translate(86.595 27)" fill="#60bcce"/>
    <path id="Path_2867" data-name="Path 2867" d="M30.325,27.167c-.646-3.182.646-.455.646-2.728V25.8c-.323-2.728.646-1.364,1.614,0h0c.323.455-.323-1.364,0-1.364v.909c-.323-.909,0-.455,0-1.364l.646,1.364h0c-.646-2.728.323,0,.323-1.364v.909c0-1.818.323-1.818.646-2.273V24.44a4.859,4.859,0,0,1-.323-1.818c.323,1.364,0-1.364,0-.455h0c-.323-1.364.323.909,0-.909v.909c-.323-1.818.323.909.323,0h0c0-.455.323.455,0-.909s0,.455.323,2.273.646-1.364.969-1.818v1.364c.323.455-.323-1.364,0-.909h0a3.164,3.164,0,0,1,0-1.364v.909c-.323-1.364.323,0,0-.455v.909c.323.909-.323-1.818,0-1.364v.909c-.323-1.364,0-.909,0-1.818h0c0-.455.323,0,.323-.455s.323,1.818.646,1.818,0-.909-.323-2.728.323.909.323,0q.209,1.122.323,2.273v.909a23.3,23.3,0,0,1-.323-3.182V20.8l2.906-3.182v-.455s0-.455.323.909v.455h0a6.124,6.124,0,0,0-.323-1.818c-.323-.909.323.909,0,.455s0-1.364,0-1.364v1.818a11.494,11.494,0,0,1,0-2.273v.909c.323.909,0-1.818.646,0h0V15.8h0c0-.455,0-1.818.323-.909a8.292,8.292,0,0,1-.323-1.364v1.818c0-1.364,0,1.364-.323,0s0-1.818,0-.455,0-1.364.323-.455v.455h0c-.323-.909,0,0,0-.909s0-.455.323.909v-.455h0c-.323-1.818,0,0,0-1.364s.323,0,.646,1.364,0-1.364,0-.909h0c.323.455,0,0,0-.455l.646,1.818V13.53c.323,1.818,0-1.364.323.455a6.508,6.508,0,0,0,.323,1.364c.323,1.818,0-1.364.323-.455V13.075c.323.909,0-.909.323.455s.323.455,0-.909.323-.909.969,1.818,0,0,0-.909h0v-.455a6.091,6.091,0,0,1,.323,1.818c.323.909-.323-2.728,0-2.273v-.455a15.393,15.393,0,0,1,.646,2.728v.455c-.323-.909,0-.455,0-.909h0V12.621c0-.455.323.909.323.909v-.455h0c0,.455.323,1.364.323.455s-.323-2.273,0-1.364v.909h.323v-.455h0c0,.455.323,0,0-.455h0v-.909c0-.909.646,3.637.646,2.273a14.279,14.279,0,0,0-.323-2.273c.323.455,0-.909.646.455v-.455c.323.455.323-1.364.646.455v1.364c0-.909.323.909,0-.455V10.8c0-.455.323-.455.323.455v-.909c.323,1.364.323,1.818.323.909h0c0-.455-.323-1.818,0-.909v.909a4.723,4.723,0,0,0-.323-1.364l.646,1.818c-.323-2.728,0-3.182.323-2.728h0c.323.455,0-1.364,0-.909v2.273c.323.455,0-1.364,0-1.364V8.529c0-.909.323.455,0-.455V9.893h0c.323,1.364.323,2.728.646,4.546h0c.323,1.364,0,1.364.323,1.818a27.724,27.724,0,0,0-.323-3.182c0-.455-.323-3.182-.323-3.182v1.364c0,1.364,0-.455.323-.455a11.79,11.79,0,0,1-.323-2.273c.323.455,0,1.364.323,1.364a11,11,0,0,0-.323-1.818c-.323-1.818.323.455,0-.909q.266,1.613.646,3.182c-.323-1.364,0-1.818-.323-3.182V8.984c.323.909,0-2.273.323,0h0s0-1.818.323,0,0,0,0-1.364,0,.909-.323-.909,0,0,0-.455h0a3.184,3.184,0,0,0,0-.909h0c0-.455.323,1.818.323,1.364V7.62h2.26V6.711c0-.455.323.909,0,0V9.438a11.166,11.166,0,0,0-.323-2.273V6.711L52.6,8.984V10.8h0c0,1.364.323.909.323,2.273v-.455s-.323-3.182-.646-5,.646,5,.646,1.818S52.6,7.62,52.6,8.075s-.323-1.818,0-1.364a8,8,0,0,1,.323,3.182V9.438a12.842,12.842,0,0,0,.323,1.818V9.893c0-.909,0,0-.323-.909s.323,1.364,0-.909S52.6,7.165,52.6,6.256h0v.909c.323.455,0-1.364,0-1.364V7.165c0,1.364-.323-.455,0,1.364s0-.909,0-.455h0s.323,2.728.323,1.364A11.257,11.257,0,0,0,52.6,8.075V6.711c0-.455.323,0,.323,1.818s-.323-.909-.323.909v1.818a17.768,17.768,0,0,1,.646,2.728V11.257c.323.455.323-.455,0-1.364a9.777,9.777,0,0,1,.323,1.818h1.937c-.323-1.818,0-.455,0-1.818a14.9,14.9,0,0,1-.323-2.273v.909c0-.909.323,1.364,0,0a32.874,32.874,0,0,0,.323,3.637c0-.909,0,.909.323.909a10.221,10.221,0,0,1,0-1.818c.323,1.364.323,0,.323,0v2.728s-.323-1.818,0-.909h0c0-.455.323.909,0-1.364v2.728c.323,1.364,0,0,.323-.455v-.909c0-.909.323,0,.323-.455v.909h0c0,.909.323,1.364.323.909v2.273a6.74,6.74,0,0,0-.323-2.273c-.323-.909-.323-.455,0,.455s0,0,0-.455c.035.757.035,1.516,0,2.273h0v.909c.019-.454.019-.91,0-1.364v1.364c0-.455,0,.909-.323.455q-.056-1.363,0-2.728h-.323q.213,1.351.323,2.728v.455h-.646V16.712c0,1.818-.323.909-.323,1.818s-.323.909-.646-.455-.323,1.364-.646,1.364V17.621c0,.909,0-.909-.323-.455a13.655,13.655,0,0,1,.323,2.273c-.323-.909-.323,0-.323,1.364v-.909c0,1.818-.323.455-.323,0V18.53a17.9,17.9,0,0,1,0,2.273v-.455c0,2.273-.646.909-.646,2.273V21.258c0,2.273-.646.455-.969,1.818V21.258c-.323-.455,0,.455,0,1.818s0,.909-.323-.455,0,.909,0,1.364-.323-.455-.323,0h0V22.621c0,.455-.323-.455,0,1.818s-.323,1.364-.646-.455v.909c-.323,0-.646-.909-.646,0h0c0,1.364-.646-.909-.969-.455A5.021,5.021,0,0,1,47.759,25.8h0c.323,1.818-.646-1.364-.323.909V25.349c0,1.364-.646-.909-.323.455s0,0,0-.455-.323.455-.646-.455V24.44c-.323-.909.323,1.818-.323,0v.909c-.646-.455-.646.909-.969,1.364s-.646-3.637-.646-1.818h0c0,.455-.646-2.273-.323-1.364v1.364c-.323-.909-.646-1.818-.646-.909h0c.323,1.818,0,.909,0,3.182L41.3,29.895c-.969,0-1.614,1.364-2.583.455s-.646-1.364-.646-.909h0L38.4,30.8h-.969v.455h0v1.364c-.323,1.818-1.937-.909-2.583,0s-.323,0-.646.455-1.937-2.728-2.26-.909a33.631,33.631,0,0,1-.969-4.546" transform="translate(67.18 18.746)" fill="#60bcce"/>
    <path id="Path_2868" data-name="Path 2868" d="M39.123,9.673A16.773,16.773,0,0,1,38.8,7.4V9.673" transform="translate(86.471 26.239)" fill="#60bcce"/>
    <path id="Path_2869" data-name="Path 2869" d="M38,6.754h0v.455" transform="translate(84.688 21.885)" fill="#60bcce"/>
    <path id="Path_2870" data-name="Path 2870" d="M37.851,7.364a3.164,3.164,0,0,1,0-1.364Z" transform="translate(84.191 21.275)" fill="#60bcce"/>
    <path id="Path_2871" data-name="Path 2871" d="M37.5,6.409v0" transform="translate(83.574 19.502)" fill="#60bcce"/>
    <path id="Path_2872" data-name="Path 2872" d="M37.6,6.355V5.9c0,.455,0-.455.323.909" transform="translate(83.797 20.921)" fill="#60bcce"/>
    <path id="Path_2873" data-name="Path 2873" d="M37.2,6.109h0" transform="translate(82.906 19.802)" fill="#60bcce"/>
    <path id="Path_2874" data-name="Path 2874" d="M37,5.9Z" transform="translate(82.46 20.921)" fill="#60bcce"/>
    <path id="Path_2875" data-name="Path 2875" d="M34.4,7.455v0Z" transform="translate(76.665 24.821)" fill="#60bcce"/>
    <path id="Path_2876" data-name="Path 2876" d="M33.2,7.5h0" transform="translate(73.991 26.594)" fill="#60bcce"/>
    <path id="Path_2877" data-name="Path 2877" d="M32.7,8.4h0l.323.909Z" transform="translate(72.877 29.785)" fill="#60bcce"/>
  </g>
</svg>
