<svg xmlns="http://www.w3.org/2000/svg" xmlns:xlink="http://www.w3.org/1999/xlink" width="143.437" height="143.715" viewBox="0 0 143.437 143.715">
  <defs>
    <clipPath id="clip-path">
      <rect id="Rectangle_49" data-name="Rectangle 49" width="115.056" height="13.49" fill="none"/>
    </clipPath>
    <clipPath id="clip-path-2">
      <rect id="Rectangle_50" data-name="Rectangle 50" width="115.056" height="13.491" fill="none"/>
    </clipPath>
  </defs>
  <g id="kruisje" transform="translate(0 36.702) rotate(-19)">
    <g id="streep" transform="translate(4.614 30.872) rotate(20)" clip-path="url(#clip-path)">
      <path id="Path_762" data-name="Path 762" d="M.576.2c-.31.31.31.93-.31.31s0-.62.31-.31" transform="translate(-0.265 5.068)" fill="#fff"/>
      <path id="Path_763" data-name="Path 763" d="M112.265,5.816c-1.241,2.481-3.1,0-4.652,1.551s0-1.24-.31-.93a7.559,7.559,0,0,1-5.582-.62h0c-.31-.31-.62.93-1.241.93s0-.31,0-.62-.62.31-.93.93,0-.93-.31-1.24v.93c-.62,1.861-1.241,0-2.171.93a.93.93,0,0,0,0-.62c-1.24,1.24-2.791.93-4.032,1.551a3.412,3.412,0,0,0,0-1.24,1.241,1.241,0,0,1-.93,1.24c-.31-.93-.62.93-.93.31h0c-.31.93-.62-.62-.62.62V7.987c0,1.24-.31-.62-.62,0h0c-.31.31-.31-.31-.62,0h0c-.62.31-.93-.31-.93.62s.62-.31.31-1.551a10.234,10.234,0,0,1-5.582.93v-.93c-.31.31-.62.31-.93.62v-.62c-.31-.31-.31,1.24-.62.62a1.55,1.55,0,0,0,0-.93c-.31.62-.62.62-.93.93a1.24,1.24,0,0,0,0-.62c-.31.93-.62-.31-.93.31v-.62c-.62-.62-.31,1.24-.62.93a1.241,1.241,0,0,0,0-.62c-.31.93-1.24.62-1.551.93h0c-.62,0-.93-.31-1.551.31s0-1.551-.31-1.24a1.54,1.54,0,0,0-.62,1.861c.31,1.24-1.241-.62-1.551-.31s-.31-1.551,0-1.551v-.93c0-.62.31.31.31-.31h-.93c-.31.62-.62,2.171-1.24,2.171s0-1.24,0-1.551l-.62,2.171c-.31,0,0-.93-.31-.62a1.861,1.861,0,0,1-.31.62s-.62.31-.93-.93.31-.31,0-.62h-.62c-.31-.31-.62.62-.31,1.24s0-.62.31-.31-.62.93-.93.93a2.481,2.481,0,0,0,0-.93,3.722,3.722,0,0,1-1.551,1.551c0,.62.31-.93.31-.62a1.129,1.129,0,0,1-1.861,0c-.62-.93,0,.62,0,.62s-.93-.31-.93,0-.31,0-.62.31,0-.31,0-.31-1.551,1.24-2.171.31-.31,1.24-.62.93v-.31c0-.31-.62,0-.62-.62s1.241-.62.93,0-.62,1.24-.62.31-.62.93-.93.31.31-.93,0-.93,0,.31-.62.62H58.3c0,.62-.31,0-.31.62s-.62.31-.62-.93v-.62c-.31,0-.31.93-.62,1.24h0c0,1.24-.31,0-.62.93s-.93,0-1.24-.93-.62.93-.93.62h.31c-.31-.31-.31,0-.62.31l-.62-1.24c-.31.31-.31,1.24-.31,1.551s-.93.93-1.24-.31.31-.62.31-.93-.62.93-.93.31v1.24c-.31-.62-.62.62-.62-.62s-.62-.31-.62.62-1.861.62-2.171-1.551-.31,0-.31.62.31-.31.31,0v.62c0,.31-.31-.31-.31-1.24s-.62,1.861-1.24,1.551,0-.62-.31-.62v.93c-.31-.31-.31-.93-.31-1.861s-.62,0-.62.62V8.917c.31.62-.31.62-.31.62h0c0-.31-.31,0-.31,0a1.24,1.24,0,0,0,.31.93v.62c0-.62-.31-.62-.62-.62s-.31.62-.31.62-.31,0-.31-.62.31.31.31,0,0-.93-.31-.62,0,1.551-.31.93v-.62h-.31v.62h0c0,.62-.62.31-.62.93l-.62-.62h0c-.31-.31-.62,0-.62.31h-.62c-.31-.62,0-2.481-.31-1.861a2.051,2.051,0,0,0-.31,1.861c.31.62-1.24.62-1.861-.31s0,.31-.31.62a1.549,1.549,0,0,1-2.481-.62c-.62-1.551,0-.62,0-.93s-.31-.62-.31.31,0,.93.31,1.24a.93.93,0,0,1-1.551-.31.62.62,0,0,1,0,.62c0-.93-.31-1.24-.62-.93h0c0,.31,0,1.24-.31.62v-.62c-.31.62-.62,1.24-.93.93v-1.24s-.31.62,0,.93-.93-.62-.93-1.24a2.791,2.791,0,0,1-3.411,1.861h0c-.31-.31,0,.93-.31.62a1.384,1.384,0,0,1,0-1.551c.31-.62-.62.93-.93.93s.31-.31.31.31-.62-.62-.62.31a4.032,4.032,0,0,1,0-1.24H24.5c-.31-.93.62-1.861.31-3.1h0c-.31-.93.62-.93,0-1.24a3.411,3.411,0,0,0-.31,2.171c-.62.31-.31,2.171-.93,2.171s.31,0,.31-.93-.62.31-.62,0a1.551,1.551,0,0,1,0,1.551c-.31-.31.31-.93-.31-.93s-.31.93,0,1.24-.31-.31-.62.62.31-1.861,0-2.481-.62,1.24-.31,2.171a1.861,1.861,0,0,1,0-1.24c-.31-.62-.62,1.551-.62,0h0c-.31,0-.62,1.24-.62,0s-.62,0-.31.93.31-.62.62.62-.31,0-.62.31v-.93c0,.31-.31,0-.31.62a.93.93,0,0,0,0-.62v.62c-.31.31,0-1.24-.62-.93v-.62s-.31-.62-.31-.31v1.861c-.31.31,0-.62-.31,0v-.93c0-.31-.31-1.24-.62-.93s-.62,1.24-.31,1.551-.31-.31-.31-.93,0,.62-.31,1.24l-.62-1.861v-.93h-.62c.31-.93,0-.62,0-1.551h-.62c.31,1.551-.62,2.171-.31,3.411s-.31-3.1-.93-.93-.31,1.551.31.93-.31,1.24-.62.93a2.543,2.543,0,0,1,0-2.171c.31-.93.31.31.31.31s0-1.24-.31-1.24-.62.31-.62.93.31,0,.31.62-.62-.93-.62.62.31.62.31,1.24h-.62v-.62c-.62-.31-.31.93-.62.93v-1.24c0-.93.62.31.62-.93s-.31.62-.62.31h.31s-.31-1.861-.62-.93,0,.62,0,.93l-1.551.62c0-.93-.62,0-.31-1.24s.93.62,1.24-.31.31.31.62-1.24-.31-1.24-.62-2.171h-.31a13.646,13.646,0,0,0,0,1.551c-.62-.31-.93.31-1.24.93s0-1.24,0-1.24H8.063c.31,1.24-.62.31-.31,1.24a2.171,2.171,0,0,1,.31,2.481c-.31,0,0-.62,0-.93s-.31-.93-.62,0,0-1.551.31-2.481,0-.62-.31-.62l-1.24.93c-.62-.93-1.24,0-1.861,0s0-1.551-.31-1.861.31,1.24-.31.62h0c0,.31-.93-.62-.93.93V7.987h0v-.93c0-.31-.62,0-.93.31v.62c-.62.62-.93,0-1.551,0v-.31h0c0-.62-.31-1.24-.31-.62L.93,5.506c.31.31-.31.93,0,1.551s.62.31.62-.31H.93c0-.93.31-.93.31-1.551H.93c.31-.62.31-.62.62-.62s0,.62,0,.93.31-1.24.62-.93.62-.62,1.24-.31a4.962,4.962,0,0,1-.62,1.861h.62a4.962,4.962,0,0,1,.62-1.861v.62c.31-.31.31-1.24.62-.93H6.823v.62c.31-1.24.93-.62,1.551-1.24s1.551-.62,1.861.62a6.513,6.513,0,0,1,3.721-.62v.93c.31-.62,0,.62.31.31s.31-.93.62-1.551,1.24,0,1.861-.62v.62c.62-1.24,1.24,0,1.861,0s.31.93.31.93.62-.93.93-1.551l1.24.62c1.551-1.551,2.791-.62,4.342-1.24V3.335c1.551-1.551,3.1,0,4.342-.93v1.24c.31.31.93-.31.62-1.24s.93-.62,1.24.31.62-.62.93-.62a1.551,1.551,0,0,0,1.861,0h-.31c0,.31,0,.93,0,.93s.93.31.62-1.24,1.861-.62,2.481.62,0-.62.31-.62,1.551.93,1.861,0-.31.62,0,.62,0-.62.31-.62,2.171.93,3.411.62a15.2,15.2,0,0,1,5.582-.62h0c.62-1.24,1.24,1.24,1.861-.62s.62,0,.31.62,1.24.62,1.861-.31h-.31c.62.62,1.24-.31,1.861.31v1.24c.31.62.62-1.24.93.31s0-.62,0-.62,3.1-.31,4.962-.62,0,2.481.93,1.24,0-.62,0-.31.62,1.551.93.93.31-.62.31-.93.93,1.24,1.551.62v.62c.62-1.24,1.551-.62,1.861-2.171L76.29.544a70.4,70.4,0,0,1,10.544.31c.93,1.24.93,1.24,1.861.62s0,.31,0,.31.62,0,.62-.93h3.721c-.31,0-.31.93,0,.93v-.62h0a.93.93,0,0,0,.31-.93c3.411-.93,6.823,1.24,9.924.93a4.032,4.032,0,0,0,2.791-.31A8.683,8.683,0,0,0,113.505,2.4s-.31,2.481-1.551,3.1" transform="translate(1.24 -0.234)" fill="#fff"/>
      <path id="Path_764" data-name="Path 764" d="M.023,0c0,.62.31.93,0,1.551A13.025,13.025,0,0,1,.023,0" transform="translate(0.907 4.962)" fill="#fff"/>
      <path id="Path_765" data-name="Path 765" d="M.31.31h0L0,.62S0,.31,0,0" transform="translate(8.373 9.924)" fill="#fff"/>
      <path id="Path_766" data-name="Path 766" d="M.62,0A.93.93,0,0,1,0,.93Z" transform="translate(9.924 10.544)" fill="#fff"/>
      <path id="Path_767" data-name="Path 767" d="M.026,0a.43.43,0,0,1,0,.62,1.861,1.861,0,0,1,0-.62" transform="translate(12.379 12.405)" fill="#fff"/>
      <path id="Path_768" data-name="Path 768" d="M.31,0V.62C.31.31,0,.93,0,0" transform="translate(12.405 11.475)" fill="#fff"/>
      <path id="Path_769" data-name="Path 769" d="M.087.138s.31-.31.31,0-.62.62-.31,0" transform="translate(16.66 12.577)" fill="#fff"/>
      <path id="Path_770" data-name="Path 770" d="M0,0H.31a.62.62,0,0,1,0,.62Z" transform="translate(18.607 12.095)" fill="#fff"/>
      <path id="Path_771" data-name="Path 771" d="M0,.31v0Z" transform="translate(53.031 9.924)" fill="#fff"/>
      <path id="Path_772" data-name="Path 772" d="M0,.085c.31-.31,0,.31.31.62s0-.62-.31-.62" transform="translate(68.227 10.149)" fill="#fff"/>
      <path id="Path_773" data-name="Path 773" d="M0,.93H0v0Z" transform="translate(76.29 7.133)" fill="#fff"/>
    </g>
    <g id="streep-2" data-name="streep" transform="translate(81.472 4.392) rotate(109)" clip-path="url(#clip-path-2)">
      <path id="Path_774" data-name="Path 774" d="M.576.576c-.31-.31.31-.93-.31-.31s0,.62.31.31" transform="translate(-0.265 7.643)" fill="#fff"/>
      <path id="Path_775" data-name="Path 775" d="M112.264,8.063c-1.241-2.481-3.1,0-4.652-1.551s0,1.24-.31.93a7.559,7.559,0,0,0-5.582.62h0c-.31.31-.62-.93-1.24-.93s0,.31,0,.62-.62-.31-.93-.93,0,.93-.31,1.24v-.93c-.62-1.861-1.24,0-2.171-.93a.93.93,0,0,1,0,.62c-1.24-1.24-2.791-.93-4.032-1.551a3.411,3.411,0,0,1,0,1.24,1.241,1.241,0,0,0-.93-1.24c-.31.93-.62-.93-.93-.31h0c-.31-.93-.62.62-.62-.62V5.892c0-1.24-.31.62-.62,0h0c-.31-.31-.31.31-.62,0h0c-.62-.31-.93.31-.93-.62s.62.31.31,1.551a10.234,10.234,0,0,0-5.582-.93v.93c-.31-.31-.62-.31-.93-.62v.62c-.31.31-.31-1.24-.62-.62a1.55,1.55,0,0,1,0,.93c-.31-.62-.62-.62-.93-.93a1.24,1.24,0,0,1,0,.62c-.31-.93-.62.31-.93-.31v.62c-.62.62-.31-1.24-.62-.93a1.24,1.24,0,0,1,0,.62c-.31-.93-1.24-.62-1.551-.93h0c-.62,0-.93.31-1.551-.31s0,1.551-.31,1.24a1.54,1.54,0,0,1-.62-1.861c.31-1.24-1.241.62-1.551.31s-.31,1.551,0,1.551v.93c0,.62.31-.31.31.31h-.93c-.31-.62-.62-2.171-1.24-2.171s0,1.24,0,1.551l-.62-2.171c-.31,0,0,.93-.31.62a1.861,1.861,0,0,0-.31-.62s-.62-.31-.93.93.31.31,0,.62h-.62c-.31.31-.62-.62-.31-1.24s0,.62.31.31-.62-.93-.93-.93a2.481,2.481,0,0,1,0,.93,3.721,3.721,0,0,0-1.551-1.551c0-.62.31.93.31.62a1.129,1.129,0,0,0-1.861,0c-.62.93,0-.62,0-.62s-.93.31-.93,0-.31,0-.62-.31,0,.31,0,.31-1.551-1.24-2.171-.31-.31-1.24-.62-.93v.31c0,.31-.62,0-.62.62s1.24.62.93,0-.62-1.24-.62-.31-.62-.93-.93-.31.31.93,0,.93,0-.31-.62-.62H58.3c0-.62-.31,0-.31-.62s-.62-.31-.62.93v.62c-.31,0-.31-.93-.62-1.24h0c0-1.24-.31,0-.62-.93s-.93,0-1.24.93-.62-.93-.93-.62h.31c-.31.31-.31,0-.62-.31l-.62,1.24c-.31-.31-.31-1.24-.31-1.551s-.93-.93-1.24.31.31.62.31.93-.62-.93-.93-.31V1.861c-.31.62-.62-.62-.62.62s-.62.31-.62-.62-1.861-.62-2.171,1.551-.31,0-.31-.62.31.31.31,0v-.62c0-.31-.31.31-.31,1.24s-.62-1.861-1.24-1.551,0,.62-.31.62v-.93c-.31.31-.31.93-.31,1.861s-.62,0-.62-.62V4.962c.31-.62-.31-.62-.31-.62h0c0,.31-.31,0-.31,0a1.24,1.24,0,0,1,.31-.93v-.62c0,.62-.31.62-.62.62s-.31-.62-.31-.62-.31,0-.31.62.31-.31.31,0,0,.93-.31.62,0-1.551-.31-.93v.62h-.31V3.1h0c0-.62-.62-.31-.62-.93l-.62.62h0c-.31.31-.62,0-.62-.31h-.62c-.31.62,0,2.481-.31,1.861a2.051,2.051,0,0,1-.31-1.861c.31-.62-1.24-.62-1.861.31s0-.31-.31-.62a1.549,1.549,0,0,0-2.481.62c-.62,1.551,0,.62,0,.93s-.31.62-.31-.31,0-.93.31-1.24a.93.93,0,0,0-1.551.31.62.62,0,0,0,0-.62c0,.93-.31,1.24-.62.93h0c0-.31,0-1.24-.31-.62v.62c-.31-.62-.62-1.24-.93-.93V3.1s-.31-.62,0-.93-.93.62-.93,1.24a2.791,2.791,0,0,0-3.411-1.861h0c-.31.31,0-.93-.31-.62a1.384,1.384,0,0,0,0,1.551c.31.62-.62-.93-.93-.93s.31.31.31-.31-.62.62-.62-.31a4.032,4.032,0,0,0,0,1.24H24.5c-.31.93.62,1.861.31,3.1h0c-.31.93.62.93,0,1.24a3.411,3.411,0,0,1-.31-2.171c-.62-.31-.31-2.171-.93-2.171s.31,0,.31.93-.62-.31-.62,0a1.551,1.551,0,0,0,0-1.551c-.31.31.31.93-.31.93s-.31-.93,0-1.24-.31.31-.62-.62.31,1.861,0,2.481-.62-1.24-.31-2.171a1.861,1.861,0,0,0,0,1.24c-.31.62-.62-1.551-.62,0h0c-.31,0-.62-1.24-.62,0s-.62,0-.31-.93.31.62.62-.62-.31,0-.62-.31v.93c0-.31-.31,0-.31-.62a.93.93,0,0,1,0,.62V.62c-.31-.31,0,1.24-.62.93v.62s-.31.62-.31.31V.62c-.31-.31,0,.62-.31,0v.93c0,.31-.31,1.24-.62.93s-.62-1.24-.31-1.551-.31.31-.31.93,0-.62-.31-1.24l-.62,1.861v.93h-.62c.31.93,0,.62,0,1.551h-.62c.31-1.551-.62-2.171-.31-3.411s-.31,3.1-.93.93-.31-1.551.31-.93-.31-1.24-.62-.93a2.543,2.543,0,0,0,0,2.171c.31.93.31-.31.31-.31s0,1.24-.31,1.24-.62-.31-.62-.93.31,0,.31-.62-.62.93-.62-.62.31-.62.31-1.24h-.62V.93c-.62.31-.31-.93-.62-.93V1.24c0,.93.62-.31.62.93s-.31-.62-.62-.31h.31s-.31,1.861-.62.93,0-.62,0-.93l-1.551-.62c0,.93-.62,0-.31,1.24s.93-.62,1.24.31.31-.31.62,1.24-.31,1.24-.62,2.171h-.31a13.646,13.646,0,0,1,0-1.551c-.62.31-.93-.31-1.24-.93s0,1.24,0,1.24H8.063c.31-1.24-.62-.31-.31-1.24a2.171,2.171,0,0,0,.31-2.481c-.31,0,0,.62,0,.93s-.31.93-.62,0,0,1.551.31,2.481,0,.62-.31.62L6.2,4.342c-.62.93-1.24,0-1.861,0s0,1.551-.31,1.861.31-1.24-.31-.62h0c0-.31-.93.62-.93-.93v1.24h0q0,.465,0,.93c0,.31-.62,0-.93-.31v-.62c-.62-.62-.93,0-1.551,0V6.2h0c0,.62-.31,1.24-.31.62L.93,8.373c.31-.31-.31-.93,0-1.551s.62-.31.62.31H.93c0,.93.31.93.31,1.551H.93c.31.62.31.62.62.62s0-.62,0-.93.31,1.24.62.93.62.62,1.24.31a4.962,4.962,0,0,0-.62-1.861h.62a4.962,4.962,0,0,0,.62,1.861v-.62c.31.31.31,1.24.62.93H6.823V9.3c.31,1.24.93.62,1.551,1.24s1.551.62,1.861-.62a6.513,6.513,0,0,0,3.721.62v-.93c.31.62,0-.62.31-.31s.31.93.62,1.551,1.24,0,1.861.62v-.62c.62,1.24,1.24,0,1.861,0s.31-.93.31-.93.62.93.93,1.551l1.24-.62c1.551,1.551,2.791.62,4.342,1.24V10.544c1.551,1.551,3.1,0,4.342.93v-1.24c.31-.31.93.31.62,1.24s.93.62,1.24-.31.62.62.93.62a1.551,1.551,0,0,1,1.861,0h-.31v-.93s.93-.31.62,1.24,1.861.62,2.481-.62,0,.62.31.62,1.551-.93,1.861,0-.31-.62,0-.62,0,.62.31.62,2.171-.93,3.411-.62a15.2,15.2,0,0,0,5.582.62h0c.62,1.24,1.24-1.24,1.861.62s.62,0,.31-.62,1.241-.62,1.861.31h-.31c.62-.62,1.24.31,1.861-.31v-1.24c.31-.62.62,1.24.93-.31s0,.62,0,.62,3.1.31,4.962.62,0-2.481.93-1.24,0,.62,0,.31.62-1.551.93-.93.31.62.31.93.93-1.24,1.551-.62v-.62c.62,1.24,1.551.62,1.861,2.171L76.29,13.335a70.4,70.4,0,0,0,10.544-.31c.93-1.24.93-1.24,1.861-.62s0-.31,0-.31.62,0,.62.93h3.721c-.31,0-.31-.93,0-.93v.62h0a.93.93,0,0,1,.31.93c3.411.93,6.823-1.24,9.924-.93a4.032,4.032,0,0,1,2.791.31,8.683,8.683,0,0,1,7.443-1.551s-.31-2.481-1.551-3.1" transform="translate(1.241 -0.155)" fill="#fff"/>
      <path id="Path_776" data-name="Path 776" d="M.023,1.551C.023.93.333.62.023,0a13.025,13.025,0,0,0,0,1.551" transform="translate(0.907 6.978)" fill="#fff"/>
      <path id="Path_777" data-name="Path 777" d="M.31.31h0L0,0S0,.31,0,.62" transform="translate(8.373 2.946)" fill="#fff"/>
      <path id="Path_778" data-name="Path 778" d="M.62.93A.93.93,0,0,0,0,0Z" transform="translate(9.924 2.016)" fill="#fff"/>
      <path id="Path_779" data-name="Path 779" d="M.026.62a.43.43,0,0,0,0-.62,1.861,1.861,0,0,0,0,.62" transform="translate(12.379 0.465)" fill="#fff"/>
      <path id="Path_780" data-name="Path 780" d="M.31.62V0C.31.31,0-.31,0,.62" transform="translate(12.405 1.396)" fill="#fff"/>
      <path id="Path_781" data-name="Path 781" d="M.087.358s.31.31.31,0-.62-.62-.31,0" transform="translate(16.66 0.417)" fill="#fff"/>
      <path id="Path_782" data-name="Path 782" d="M0,.62H.31A.62.62,0,0,0,.31,0Z" transform="translate(18.607 0.775)" fill="#fff"/>
      <path id="Path_783" data-name="Path 783" d="M0,.31v0Z" transform="translate(53.031 2.946)" fill="#fff"/>
      <path id="Path_784" data-name="Path 784" d="M0,.684c.31.31,0-.31.31-.62s0,.62-.31.62" transform="translate(68.227 2.573)" fill="#fff"/>
      <path id="Path_785" data-name="Path 785" d="M0,0H0V0Z" transform="translate(76.29 5.427)" fill="#fff"/>
    </g>
  </g>
</svg>
