<svg xmlns="http://www.w3.org/2000/svg" width="27.679" height="25.702" viewBox="0 0 27.679 25.702">
  <path id="Icon_ionic-ios-star" data-name="Icon ionic-ios-star" d="M28.879,12.272H19.79L17.029,4.03a1,1,0,0,0-1.878,0l-2.762,8.242H3.239a.991.991,0,0,0-.989.989.726.726,0,0,0,.019.167.95.95,0,0,0,.414.7l7.47,5.264L7.285,27.724a.991.991,0,0,0,.34,1.112.956.956,0,0,0,.556.241,1.211,1.211,0,0,0,.618-.222l7.291-5.2,7.291,5.2a1.158,1.158,0,0,0,.618.222.888.888,0,0,0,.55-.241.979.979,0,0,0,.34-1.112l-2.867-8.335,7.408-5.313.179-.154a1.036,1.036,0,0,0,.321-.661A1.046,1.046,0,0,0,28.879,12.272Z" transform="translate(-2.25 -3.375)" fill="#009ca4"/>
</svg>
