<svg id="instagram_logo" data-name="instagram logo" xmlns="http://www.w3.org/2000/svg" width="36" height="36.001" viewBox="0 0 36 36.001">
  <path id="Subtraction_2" data-name="Subtraction 2" d="M-4726,4901a17.894,17.894,0,0,1-7.006-1.415,17.932,17.932,0,0,1-5.721-3.858,17.934,17.934,0,0,1-3.858-5.721A17.891,17.891,0,0,1-4744,4883a17.9,17.9,0,0,1,1.415-7.007,17.941,17.941,0,0,1,3.858-5.722,17.937,17.937,0,0,1,5.721-3.858A17.894,17.894,0,0,1-4726,4865a17.891,17.891,0,0,1,7.006,1.415,17.934,17.934,0,0,1,5.721,3.858,17.941,17.941,0,0,1,3.858,5.722A17.892,17.892,0,0,1-4708,4883a17.891,17.891,0,0,1-1.415,7.006,17.934,17.934,0,0,1-3.858,5.721,17.934,17.934,0,0,1-5.721,3.858A17.891,17.891,0,0,1-4726,4901Zm-4.167-28a5.84,5.84,0,0,0-5.833,5.834v8.333a5.84,5.84,0,0,0,5.833,5.834h8.334a5.84,5.84,0,0,0,5.833-5.834v-8.333a5.84,5.84,0,0,0-5.833-5.834Zm8.334,18.333h-8.334a4.151,4.151,0,0,1-2.942-1.224,4.117,4.117,0,0,1-1.224-2.942v-8.333a4.155,4.155,0,0,1,1.224-2.943,4.119,4.119,0,0,1,2.942-1.223h8.334a4.156,4.156,0,0,1,2.942,1.223,4.124,4.124,0,0,1,1.224,2.943v8.333a4.153,4.153,0,0,1-1.224,2.942A4.119,4.119,0,0,1-4721.833,4891.333ZM-4726,4878a5.006,5.006,0,0,0-5,5,5.006,5.006,0,0,0,5,5,5.006,5.006,0,0,0,5-5A5.006,5.006,0,0,0-4726,4878Zm5.417-1.667a1.251,1.251,0,0,0-1.25,1.25,1.251,1.251,0,0,0,1.25,1.25,1.251,1.251,0,0,0,1.249-1.25A1.25,1.25,0,0,0-4720.583,4876.334Zm-5.417,10a3.337,3.337,0,0,1-3.333-3.333,3.337,3.337,0,0,1,3.333-3.334,3.338,3.338,0,0,1,3.333,3.334A3.338,3.338,0,0,1-4726,4886.334Z" transform="translate(4744 -4865)" fill="#0a3974"/>
</svg>
