<svg id="twitter_logo" data-name="twitter logo" xmlns="http://www.w3.org/2000/svg" width="36" height="36" viewBox="0 0 36 36">
  <path id="Subtraction_1" data-name="Subtraction 1" d="M-4683,4765a17.9,17.9,0,0,1-7.007-1.415,17.933,17.933,0,0,1-5.721-3.857,17.945,17.945,0,0,1-3.858-5.721A17.9,17.9,0,0,1-4701,4747a17.891,17.891,0,0,1,1.415-7.006,17.934,17.934,0,0,1,3.858-5.721,17.939,17.939,0,0,1,5.721-3.858A17.9,17.9,0,0,1-4683,4729a17.891,17.891,0,0,1,7.006,1.415,17.934,17.934,0,0,1,5.721,3.858,17.934,17.934,0,0,1,3.858,5.721A17.891,17.891,0,0,1-4665,4747a17.9,17.9,0,0,1-1.415,7.007,17.945,17.945,0,0,1-3.858,5.721,17.935,17.935,0,0,1-5.721,3.857A17.891,17.891,0,0,1-4683,4765Zm-11-10.6h0a13.218,13.218,0,0,0,7.166,2.094,13.448,13.448,0,0,0,5.7-1.208,12.561,12.561,0,0,0,4.163-3.118,13.739,13.739,0,0,0,3.421-8.955c0-.2,0-.4-.015-.607a9.978,9.978,0,0,0,2.342-2.412,9.34,9.34,0,0,1-2.688.722,4.654,4.654,0,0,0,2.052-2.572,9.225,9.225,0,0,1-2.962,1.126,4.688,4.688,0,0,0-3.411-1.473,4.673,4.673,0,0,0-4.667,4.667,5.23,5.23,0,0,0,.116,1.069,13.3,13.3,0,0,1-9.624-4.884,4.621,4.621,0,0,0-.636,2.356,4.663,4.663,0,0,0,2.081,3.887,4.7,4.7,0,0,1-2.109-.593v.059a4.68,4.68,0,0,0,1.069,2.979,4.688,4.688,0,0,0,2.674,1.6,4.95,4.95,0,0,1-1.229.159,5.955,5.955,0,0,1-.882-.072,4.682,4.682,0,0,0,4.365,3.237,9.3,9.3,0,0,1-5.795,1.993A9.585,9.585,0,0,1-4694,4754.4Z" transform="translate(4701 -4729)" fill="#0a3974"/>
</svg>
