<svg xmlns="http://www.w3.org/2000/svg" xmlns:xlink="http://www.w3.org/1999/xlink" width="708" height="10.1" viewBox="0 0 708 10.1">
  <defs>
    <clipPath id="clip-path">
      <rect id="Rectangle_43" data-name="Rectangle 43" width="708" height="10.1" fill="none"/>
    </clipPath>
  </defs>
  <g id="streep" clip-path="url(#clip-path)">
    <path id="Path_690" data-name="Path 690" d="M3.456,1.787c-1.908.232,1.908.7-1.908.232s0-.464,1.908-.232" transform="translate(-1.548 2.16)" fill="#0a3974"/>
    <path id="Path_691" data-name="Path 691" d="M691.225,4.279c-7.633,1.857-19.084,0-28.625,1.161s0-.929-1.908-.7-22.9.464-34.35-.464h0c-1.908-.232-3.817.7-7.633.7s0-.232,0-.464-3.817.232-5.725.7,0-.7-1.908-.929v.7c-3.817,1.393-7.633,0-13.359.7.437-.15.437-.314,0-.464-7.633.929-17.175.7-24.809,1.161.466-.307.466-.622,0-.929.113.434-2.266.82-5.725.929-1.908-.7-3.817.7-5.725.232h0c-1.908.7-3.817-.464-3.817.464V5.9c0,.929-1.908-.464-3.817,0h0c-1.908.232-1.908-.232-3.817,0h0c-3.817.232-5.725-.232-5.725.464s3.817-.232,1.908-1.161c-10.684.62-22.59.862-34.35.7v-.7c-1.908.232-3.817.232-5.725.464V5.208c-1.908-.232-1.908.929-3.817.464.586-.227.586-.47,0-.7a48.146,48.146,0,0,1-5.725.7c.323-.152.323-.312,0-.464-1.908.7-3.817-.232-5.725.232V4.975c-3.817-.464-1.908.929-3.817.7.323-.152.323-.312,0-.464-1.908.7-7.633.464-9.542.7h0a65.5,65.5,0,0,0-9.542.232c-3.817.464,0-1.161-1.908-.929s-5.725.464-3.817,1.393-7.633-.464-9.542-.232-1.908-1.161,0-1.161v-.7c0-.464,1.908.232,1.908-.232h-5.725c-1.908.464-3.817,1.625-7.633,1.625s0-.929,0-1.161l-3.817,1.625c-1.908,0,0-.7-1.908-.464a8.847,8.847,0,0,1-1.908.464s-3.817.232-5.725-.7,1.908-.232,0-.464h-3.817c-1.908-.232-3.817.464-1.908.929s0-.464,1.908-.232-3.817.7-5.725.7c.361-.23.361-.466,0-.7a65.186,65.186,0,0,1-9.542,1.161c0,.464,1.908-.7,1.908-.464s-7.633.7-11.45,0,0,.464,0,.464-5.725-.232-5.725,0-1.908,0-3.817.232,0-.232,0-.232-9.542.929-13.358.232-1.908.929-3.817.7V7.762c0-.232-3.817,0-3.817-.464s7.633-.464,5.725,0-3.817.929-3.817.232-3.817.7-5.725.232,1.908-.7,0-.7,0,.232-3.817.464h-1.908c0,.464-1.908,0-1.908.464s-3.817.232-3.817-.7V6.833c-1.908,0-1.908.7-3.817.929h0c0,.929-1.908,0-3.817.7s-5.725,0-7.633-.7-3.817.7-5.725.464h1.908c-1.908-.232-1.908,0-3.817.232l-3.817-.929c-1.908.232-1.908.929-1.908,1.161s-5.725.7-7.633-.232,1.908-.464,1.908-.7-3.817.7-5.725.232v.929c-1.908-.464-3.817.464-3.817-.464s-3.817-.232-3.817.464-11.45.464-13.358-1.161-1.908,0-1.908.464,1.908-.232,1.908,0V8.69c0,.232-1.908-.232-1.908-.929s-3.817,1.393-7.633,1.161,0-.464-1.908-.464v.7c-1.908-.232-1.908-.7-1.908-1.393s-3.817,0-3.817.464V6.6c1.908.464-1.908.464-1.908.464h0c0-.232-1.908,0-1.908,0-.177.254.513.506,1.908.7v.464c0-.464-1.908-.464-3.817-.464s-1.908.464-1.908.464-1.908,0-1.908-.464,1.908.232,1.908,0,0-.7-1.908-.464,0,1.161-1.908.7V7.529h-1.908v.464h0c0,.464-3.817.232-3.817.7l-3.817-.464h0c-1.908-.232-3.817,0-3.817.232h-3.817c-1.908-.464,0-1.857-1.908-1.393s-3.817.929-1.908,1.393-7.633.464-11.45-.232,0,.232-1.908.464-11.45.7-15.267-.464,0-.464,0-.7-1.908-.464-1.908.232,0,.7,1.908.929a37.938,37.938,0,0,1-5.3.207,18.924,18.924,0,0,1-4.24-.439c.682.144.682.321,0,.464,0-.7-1.908-.929-3.817-.7h0c0,.232,0,.929-1.908.464V8.226a16.162,16.162,0,0,1-5.725.7V7.994s-1.908.464,0,.7-5.725-.464-5.725-.929c-2.755,1.078-12.05,1.695-20.992,1.393h0c-1.908-.232,0,.7-1.908.464s-1.908-.7,0-1.161-3.817.7-5.725.7,1.908-.232,1.908.232-3.817-.464-3.817.232c-.394-.308-.394-.621,0-.929H151.16c-1.908-.7,3.817-1.393,1.908-2.322h0c-1.908-.7,3.817-.7,0-.929-2.089.5-2.76,1.073-1.908,1.625-3.817.232-1.908,1.625-5.725,1.625s1.908,0,1.908-.7-3.817.232-3.817,0c1.7.359,1.7.8,0,1.161-1.908-.232,1.908-.7-1.908-.7s-1.908.7,0,.929-1.908-.232-3.817.464,1.908-1.393,0-1.857-3.817.929-1.908,1.625c-.873-.3-.873-.628,0-.929-1.908-.464-3.817,1.161-3.817,0h0c-1.908,0-3.817.929-3.817,0s-3.817,0-1.908.7,1.908-.464,3.817.464-1.908,0-3.817.232v-.7c0,.232-1.908,0-1.908.464.437-.15.437-.314,0-.464v.464c-1.908.232,0-.929-3.817-.7V8.69s-1.908-.464-1.908-.232V9.851c-1.908.232,0-.464-1.908,0v-.7c0-.232-1.908-.929-3.817-.7s-3.817.929-1.908,1.161-1.908-.232-1.908-.7,0,.464-1.908.929l-3.817-1.393v-.7H99.635c1.908-.7,0-.464,0-1.161H95.818C97.726,7.762,92,8.226,93.909,9.155S92,6.833,88.184,8.458s-1.908,1.161,1.908.7-1.908.929-3.817.7-1.908-.929,0-1.625,1.908.232,1.908.232,0-.929-1.908-.929-3.817.232-3.817.7,1.908,0,1.908.464-3.817-.7-3.817.464,1.908.464,1.908.929H78.643V9.619c-3.817-.232-1.908.7-3.817.7V9.387c0-.7,3.817.232,3.817-.7s-1.908.464-3.817.232h1.908a4.562,4.562,0,0,0-3.817-.7c-1.908.7,0,.464,0,.7l-9.542.464c0-.7-3.817,0-1.908-.929s5.725.464,7.633-.232,1.908.232,3.817-.929S71.009,6.369,69.1,5.672H67.192a1.31,1.31,0,0,0,0,1.161,22.03,22.03,0,0,0-7.633.7c-1.908.464,0-.929,0-.929H50.017c1.908.929-3.817.232-1.908.929,3.8.508,4.561,1.251,1.908,1.857-1.908,0,0-.464,0-.7s-1.908-.7-3.817,0,0-1.161,1.908-1.857,0-.464-1.908-.464l-7.633.7c-3.817-.7-7.633,0-11.45,0s0-1.161-1.908-1.393,1.908.929-1.908.464h0c0,.232-5.725-.464-5.725.7V5.9h0v-.7c0-.232-3.817,0-5.725.232V5.9c-3.817.464-5.725,0-9.542,0V5.672h0C2.308,5.208.4,4.743.4,5.208L6.125,4.047c1.908.232-1.908.7,0,1.161s3.817.232,3.817-.232H6.125c0-.7,1.908-.7,1.908-1.161H6.125A10.775,10.775,0,0,1,9.942,3.35c1.908,0,0,.464,0,.7s1.908-.929,3.817-.7,3.817-.464,7.633-.232a8.961,8.961,0,0,1-3.817,1.393h3.817a8.961,8.961,0,0,1,3.817-1.393v.464c1.908-.232,1.908-.929,3.817-.7H42.384V3.35c1.908-.929,5.725-.464,9.542-.929s9.542-.464,11.45.464c7.09-.426,15.057-.588,22.9-.464v.7c1.908-.464,0,.464,1.908.232s1.908-.7,3.817-1.161,7.633,0,11.45-.464v.464c3.817-.929,7.633,0,11.45,0s1.908.7,1.908.7,3.817-.7,5.725-1.161l7.633.464c9.542-1.161,17.175-.464,26.717-.929V2.421c9.542-1.161,19.084,0,26.717-.7v.929c1.908.232,5.725-.232,3.817-.929s5.725-.464,7.633.232,3.817-.464,5.725-.464a70.7,70.7,0,0,0,11.45,0h-1.908v.7s5.725.232,3.817-.929S225.586.8,229.4,1.725s0-.464,1.908-.464,9.542.7,11.45,0-1.908.464,0,.464,0-.464,1.908-.464,13.358.7,20.992.464c11.113-.413,22.763-.571,34.35-.464h0c3.817-.929,7.633.929,11.45-.464s3.817,0,1.908.464,7.633.464,11.45-.232h-1.908c3.817.464,7.633-.232,11.45.232v.929c1.908.464,3.817-.929,5.725.232s0-.464,0-.464,19.084-.232,30.534-.464,0,1.857,5.725.929,0-.464,0-.232,3.817,1.161,5.725.7,1.908-.464,1.908-.7,5.725.929,9.542.464v.464c3.817-.929,9.542-.464,11.45-1.625L469.856.332C491.5.212,513.19.289,534.74.564c5.725.929,5.725.929,11.45.464s0,.232,0,.232,3.817,0,3.817-.7h22.9c-1.908,0-1.908.7,0,.7V.8h0c1.672-.169,2.411-.439,1.908-.7,20.992-.7,41.984.929,61.067.7,5.769.176,11.864.093,17.175-.232a391.109,391.109,0,0,0,45.8,1.161s-1.908,1.857-9.542,2.322" transform="translate(7.233 -0.1)" fill="#0a3974"/>
    <path id="Path_692" data-name="Path 692" d="M.435,1.6c0,.464,1.908.7,0,1.161a1.257,1.257,0,0,1,0-1.161" transform="translate(5.29 2.115)" fill="#0a3974"/>
    <path id="Path_693" data-name="Path 693" d="M4.608,3.432h0L2.7,3.664V3.2" transform="translate(48.826 4.23)" fill="#0a3974"/>
    <path id="Path_694" data-name="Path 694" d="M7.017,3.4c.144.31-1.412.594-3.817.7Z" transform="translate(57.867 4.494)" fill="#0a3974"/>
    <path id="Path_695" data-name="Path 695" d="M4.152,4c1.908.232,0,.464,0,.464-.214-.154-.214-.311,0-.464" transform="translate(72.182 5.287)" fill="#0a3974"/>
    <path id="Path_696" data-name="Path 696" d="M5.908,3.7v.464C5.908,3.932,4,4.4,4,3.7" transform="translate(72.334 4.891)" fill="#0a3974"/>
    <path id="Path_697" data-name="Path 697" d="M5.906,4.159s1.908-.232,1.908,0-3.817.464-1.908,0" transform="translate(97.145 5.361)" fill="#0a3974"/>
    <path id="Path_698" data-name="Path 698" d="M6,3.9H7.908c.682.144.682.321,0,.464Z" transform="translate(108.501 5.155)" fill="#0a3974"/>
    <path id="Path_699" data-name="Path 699" d="M17.1,3.432v0Z" transform="translate(309.229 4.23)" fill="#0a3974"/>
    <path id="Path_700" data-name="Path 700" d="M22,3.336c1.908-.232,0,.232,1.908.464s0-.464-1.908-.464" transform="translate(397.838 4.326)" fill="#0a3974"/>
    <path id="Path_701" data-name="Path 701" d="M24.6,3h0V3Z" transform="translate(444.856 3.04)" fill="#0a3974"/>
  </g>
</svg>
