<svg xmlns="http://www.w3.org/2000/svg" xmlns:xlink="http://www.w3.org/1999/xlink" width="184.617" height="21.646" viewBox="0 0 184.617 21.646">
  <defs>
    <clipPath id="clip-path">
      <rect id="Rectangle_43" data-name="Rectangle 43" width="184.617" height="21.646" fill="none"/>
    </clipPath>
  </defs>
  <g id="streep" clip-path="url(#clip-path)">
    <path id="Path_690" data-name="Path 690" d="M.838,1.961c-.5.5.5,1.493-.5.5s0-1,.5-.5" transform="translate(-0.34 6.498)" fill="#dc4e3e"/>
    <path id="Path_691" data-name="Path 691" d="M180.539,9.257c-1.99,3.981-4.976,0-7.464,2.488s0-1.99-.5-1.493-5.971,1-8.957-1h0c-.5-.5-1,1.493-1.99,1.493s0-.5,0-1-1,.5-1.493,1.493,0-1.493-.5-1.99v1.493c-1,2.986-1.99,0-3.483,1.493a1.493,1.493,0,0,0,0-1c-1.99,1.99-4.479,1.493-6.469,2.488a5.474,5.474,0,0,0,0-1.99,1.991,1.991,0,0,1-1.493,1.99c-.5-1.493-1,1.493-1.493.5h0c-.5,1.493-1-1-1,1V12.74c0,1.99-.5-1-1,0h0c-.5.5-.5-.5-1,0h0c-1,.5-1.493-.5-1.493,1s1-.5.5-2.488a16.422,16.422,0,0,1-8.957,1.493V11.247c-.5.5-1,.5-1.493,1v-1c-.5-.5-.5,1.99-1,1a2.488,2.488,0,0,0,0-1.493c-.5,1-1,1-1.493,1.493a1.99,1.99,0,0,0,0-1c-.5,1.493-1-.5-1.493.5v-1c-1-1-.5,1.99-1,1.493a1.99,1.99,0,0,0,0-1c-.5,1.493-1.99,1-2.488,1.493h0c-1,0-1.493-.5-2.488.5s0-2.488-.5-1.99a2.471,2.471,0,0,0-1,2.986c.5,1.99-1.99-1-2.488-.5s-.5-2.488,0-2.488V9.754c0-1,.5.5.5-.5h-1.493c-.5,1-1,3.483-1.99,3.483s0-1.99,0-2.488l-1,3.483c-.5,0,0-1.493-.5-1a2.986,2.986,0,0,1-.5,1s-1,.5-1.493-1.493.5-.5,0-1h-1c-.5-.5-1,1-.5,1.99s0-1,.5-.5-1,1.493-1.493,1.493a3.981,3.981,0,0,0,0-1.493,5.971,5.971,0,0,1-2.488,2.488c0,1,.5-1.493.5-1s-1.99,1.493-2.986,0,0,1,0,1-1.493-.5-1.493,0-.5,0-1,.5,0-.5,0-.5-2.488,1.99-3.483.5-.5,1.99-1,1.493v-.5c0-.5-1,0-1-1s1.99-1,1.493,0-1,1.99-1,.5-1,1.493-1.493.5.5-1.493,0-1.493,0,.5-1,1h-.5c0,1-.5,0-.5,1s-1,.5-1-1.493v-1c-.5,0-.5,1.493-1,1.99h0c0,1.99-.5,0-1,1.493s-1.493,0-1.99-1.493-1,1.493-1.493,1h.5c-.5-.5-.5,0-1,.5l-1-1.99c-.5.5-.5,1.99-.5,2.488S83.5,20.2,83,18.214s.5-1,.5-1.493-1,1.493-1.493.5v1.99c-.5-1-1,1-1-1s-1-.5-1,1-2.986,1-3.483-2.488-.5,0-.5,1,.5-.5.5,0v1c0,.5-.5-.5-.5-1.99s-1,2.986-1.99,2.488,0-1-.5-1v1.493c-.5-.5-.5-1.493-.5-2.986s-1,0-1,1V14.233c.5,1-.5,1-.5,1h0c0-.5-.5,0-.5,0a1.99,1.99,0,0,0,.5,1.493v1c0-1-.5-1-1-1s-.5,1-.5,1-.5,0-.5-1,.5.5.5,0,0-1.493-.5-1,0,2.488-.5,1.493v-1h-.5v1h0c0,1-1,.5-1,1.493l-1-1h0c-.5-.5-1,0-1,.5h-1c-.5-1,0-3.981-.5-2.986s-1,1.99-.5,2.986-1.99,1-2.986-.5,0,.5-.5,1a2.486,2.486,0,0,1-3.981-1c-1-2.488,0-1,0-1.493s-.5-1-.5.5,0,1.493.5,1.99a1.493,1.493,0,0,1-2.488-.5,1,1,0,0,1,0,1c0-1.493-.5-1.99-1-1.493h0c0,.5,0,1.99-.5,1v-1c-.5,1-1,1.99-1.493,1.493v-1.99s-.5,1,0,1.493-1.493-1-1.493-1.99a4.479,4.479,0,0,1-5.474,2.986h0c-.5-.5,0,1.493-.5,1a2.221,2.221,0,0,1,0-2.488c.5-1-1,1.493-1.493,1.493s.5-.5.5.5-1-1-1,.5a6.469,6.469,0,0,1,0-1.99H39.712c-.5-1.493,1-2.986.5-4.976h0c-.5-1.493,1-1.493,0-1.99a5.474,5.474,0,0,0-.5,3.483c-1,.5-.5,3.483-1.493,3.483s.5,0,.5-1.493-1,.5-1,0a2.488,2.488,0,0,1,0,2.488c-.5-.5.5-1.493-.5-1.493s-.5,1.493,0,1.99-.5-.5-1,1,.5-2.986,0-3.981-1,1.99-.5,3.483a2.986,2.986,0,0,1,0-1.99c-.5-1-1,2.488-1,0h0c-.5,0-1,1.99-1,0s-1,0-.5,1.493.5-1,1,1-.5,0-1,.5V20.2c0,.5-.5,0-.5,1a1.493,1.493,0,0,0,0-1v1c-.5.5,0-1.99-1-1.493v-1s-.5-1-.5-.5V21.2c-.5.5,0-1-.5,0V19.707c0-.5-.5-1.99-1-1.493s-1,1.99-.5,2.488-.5-.5-.5-1.493,0,1-.5,1.99l-1-2.986V16.721h-1c.5-1.493,0-1,0-2.488h-1c.5,2.488-1,3.483-.5,5.474s-.5-4.976-1.493-1.493-.5,2.488.5,1.493-.5,1.99-1,1.493-.5-1.99,0-3.483.5.5.5.5,0-1.99-.5-1.99-1,.5-1,1.493.5,0,.5,1-1-1.493-1,1,.5,1,.5,1.99h-1v-1c-1-.5-.5,1.493-1,1.493V20.2c0-1.493,1,.5,1-1.493s-.5,1-1,.5h.5s-.5-2.986-1-1.493,0,1,0,1.493l-2.488,1c0-1.493-1,0-.5-1.99s1.493,1,1.99-.5.5.5,1-1.99-.5-1.99-1-3.483h-.5a21.9,21.9,0,0,0,0,2.488c-1-.5-1.493.5-1.99,1.493s0-1.99,0-1.99H13.338c.5,1.99-1,.5-.5,1.99a3.483,3.483,0,0,1,.5,3.981c-.5,0,0-1,0-1.493s-.5-1.493-1,0,0-2.488.5-3.981,0-1-.5-1l-1.99,1.493c-1-1.493-1.99,0-2.986,0s0-2.488-.5-2.986.5,1.99-.5,1h0c0,.5-1.493-1-1.493,1.493V12.74h0V11.247c0-.5-1,0-1.493.5v1c-1,1-1.493,0-2.488,0v-.5h0c0-1-.5-1.99-.5-1L1.893,8.759c.5.5-.5,1.493,0,2.488s1,.5,1-.5h-1c0-1.493.5-1.493.5-2.488h-.5c.5-1,.5-1,1-1s0,1,0,1.493.5-1.99,1-1.493,1-1,1.99-.5a7.962,7.962,0,0,1-1,2.986h1a7.962,7.962,0,0,1,1-2.986v1c.5-.5.5-1.99,1-1.493h3.483v1c.5-1.99,1.493-1,2.488-1.99s2.488-1,2.986,1a10.45,10.45,0,0,1,5.971-1V6.768c.5-1,0,1,.5.5s.5-1.493,1-2.488,1.99,0,2.986-1v1c1-1.99,1.99,0,2.986,0s.5,1.493.5,1.493,1-1.493,1.493-2.488l1.99,1c2.488-2.488,4.479-1,6.967-1.99V5.276c2.488-2.488,4.976,0,6.967-1.493v1.99c.5.5,1.493-.5,1-1.99s1.493-1,1.99.5,1-1,1.493-1a2.488,2.488,0,0,0,2.986,0h-.5V4.778s1.493.5,1-1.99,2.986-1,3.981,1,0-1,.5-1,2.488,1.493,2.986,0-.5,1,0,1,0-1,.5-1,3.483,1.493,5.474,1a24.383,24.383,0,0,1,8.957-1h0c1-1.99,1.99,1.99,2.986-1s1,0,.5,1,1.99,1,2.986-.5h-.5c1,1,1.99-.5,2.986.5v1.99c.5,1,1-1.99,1.493.5s0-1,0-1,4.976-.5,7.962-1,0,3.981,1.493,1.99,0-1,0-.5,1,2.488,1.493,1.493.5-1,.5-1.493,1.493,1.99,2.488,1v1c1-1.99,2.488-1,2.986-3.483L122.815.8a112.96,112.96,0,0,1,16.919.5c1.493,1.99,1.493,1.99,2.986,1s0,.5,0,.5,1,0,1-1.493h5.971c-.5,0-.5,1.493,0,1.493v-1h0a1.493,1.493,0,0,0,.5-1.493c5.474-1.493,10.948,1.99,15.924,1.493a6.469,6.469,0,0,0,4.479-.5,13.933,13.933,0,0,0,11.943,2.488s-.5,3.981-2.488,4.976" transform="translate(1.59 -0.299)" fill="#dc4e3e"/>
    <path id="Path_692" data-name="Path 692" d="M.33,1.6c0,1,.5,1.493,0,2.488A20.9,20.9,0,0,1,.33,1.6" transform="translate(1.163 6.362)" fill="#dc4e3e"/>
    <path id="Path_693" data-name="Path 693" d="M3.2,3.7h0l-.5.5v-1" transform="translate(10.736 12.724)" fill="#dc4e3e"/>
    <path id="Path_694" data-name="Path 694" d="M4.2,3.4a1.493,1.493,0,0,1-1,1.493Z" transform="translate(12.724 13.519)" fill="#dc4e3e"/>
    <path id="Path_695" data-name="Path 695" d="M4.033,4a.689.689,0,0,1,0,1,2.986,2.986,0,0,1,0-1" transform="translate(15.871 15.905)" fill="#dc4e3e"/>
    <path id="Path_696" data-name="Path 696" d="M4.5,3.7v1c0-.5-.5.5-.5-1" transform="translate(15.905 14.712)" fill="#dc4e3e"/>
    <path id="Path_697" data-name="Path 697" d="M5.511,4.277s.5-.5.5,0-1,1-.5,0" transform="translate(21.36 16.126)" fill="#dc4e3e"/>
    <path id="Path_698" data-name="Path 698" d="M6,3.9h.5a1,1,0,0,1,0,1Z" transform="translate(23.857 15.507)" fill="#dc4e3e"/>
    <path id="Path_699" data-name="Path 699" d="M17.1,3.7v0Z" transform="translate(67.993 12.724)" fill="#dc4e3e"/>
    <path id="Path_700" data-name="Path 700" d="M22,3.408c.5-.5,0,.5.5,1s0-1-.5-1" transform="translate(87.476 13.013)" fill="#dc4e3e"/>
    <path id="Path_701" data-name="Path 701" d="M24.6,3.793h0v0Z" transform="translate(97.815 9.145)" fill="#dc4e3e"/>
  </g>
</svg>
