<svg xmlns="http://www.w3.org/2000/svg" xmlns:xlink="http://www.w3.org/1999/xlink" width="305.693" height="299.171" viewBox="0 0 305.693 299.171">
  <defs>
    <clipPath id="clip-path">
      <rect id="Rectangle_236" data-name="Rectangle 236" width="251.547" height="242.323" fill="none"/>
    </clipPath>
  </defs>
  <g id="bal" transform="matrix(0.966, 0.259, -0.259, 0.966, 62.718, 0)" clip-path="url(#clip-path)">
    <path id="Path_8640" data-name="Path 8640" d="M67.4,36.823c2.159-1.871-1.3.863,1.367-1.223A6.332,6.332,0,0,1,67.4,36.823" transform="translate(-18.904 -9.985)" fill="#dc4e3e"/>
    <path id="Path_8641" data-name="Path 8641" d="M57.562,20.085A78.717,78.717,0,0,1,70.73,12.314C75.622,9.939,80.8,7.925,85.48,6.2c1.079-.36-.216.36,2.3-.5a93.107,93.107,0,0,1,17.125-4.245A115.7,115.7,0,0,1,124.119.082h2.95a37.343,37.343,0,0,1,3.742,0c0,.072-.791.072-.216.144s4.317.144,5.324.072.863.288,2.015.432H139.3c3.814-.072,9.138,1.223,14.247,2.087-.288,0-.791-.072-.36.072a117.515,117.515,0,0,1,26.694,8.634c-.36-.072-.72-.144-.288.144s3.166,1.223,5.325,2.374c.863.72,3.813,1.943,6.26,3.6h-.216c1.943.935,2.662,1.8,4.245,2.59l1.079.935c.935.288,2.518,1.943,4.029,2.878h0c1.439.935,2.015,1.583,3.31,2.518V26.7c2.95,2.231,4.461,3.742,4.533,3.526s-.288-.072-.863-.576-1.223-.863-.5-.144a123.975,123.975,0,0,1,24.824,26.623,17.052,17.052,0,0,1,1.3,2.231l3.094,4.749c-.216-.36.288.72.576,1.3,1.007,1.943,1.439,2.015,2.446,4.173-.5-.863-.72-1.079-.648-.791s1.151,1.943,1.727,3.022l1.655,3.382c-.216-.36-.432-.863-.5-.72s.648,1.151.863,1.727l.648,1.655,1.3,3.238-.432-.791c1.151,3.6.648.935,1.655,4.029-.288-.72-.288-.432-.36-.576s.648,1.511.935,2.374l.935,2.806c.648,1.871,1.079,3.813,1.511,5.325l-.072-.144s.432,1.583.576,2.446l.5,2.518.5,2.59.432,2.662c.072,1.3-.36-.36.072,3.094a9.574,9.574,0,0,1,.432,2.662c.144,1.3.216,2.231.288,1.223.216,3.022.288,7.771.288,9.714-.144-1.367-.288,1.439-.36-1.007l-.144,1.871c-.144-.288,0-1.943-.144-1.367s.072,4.893,0,5.972a56.333,56.333,0,0,1-.072,8.2c.072-1.727-.36.935-.288-.216,0,1.727-.072,3.526-.072,5.253s-.216.216-.432,2.015a6.085,6.085,0,0,1,0,1.223c0,.5-.863,5.109-1.3,5.612s.36-2.015,0-.648-.432,2.374-.935,4.6h-.072c-.36,1.439-1.079,4.389-.5,2.806s-.288.36.216-1.151c-.072.5-.288,1.439-.5,2.518s-.648,2.231-1.007,3.382a2.663,2.663,0,0,0,.144-1.007,76.56,76.56,0,0,1-3.022,9.426c.144.072.288-1.3.5-1.727-1.8,4.029-3.454,8.562-5.468,11.656.288-.576.288-.216.288-.216a12.158,12.158,0,0,1-1.079,1.727,8.7,8.7,0,0,0-.791,1.223c-.144.072-.863,1.583-1.583,2.734s-.216.288.432-.791c-.5.863-1.727,3.022-3.382,5.324l-1.223,1.8-1.367,1.727-2.518,3.094a28.491,28.491,0,0,1-2.446,3.094l.144-.432c-.72.648-2.374,2.662-2.59,2.662-1.367,1.871,5.756-6.62,3.813-4.173-.648.5-2.662,3.382-2.374,2.734l-1.079,1.223-1.079,1.151a30.21,30.21,0,0,1-2.231,2.159c.432-.432,1.079-1.367-.144-.144l-1.3,1.367a5.614,5.614,0,0,1-1.007,1.007l-1.151,1.079c0,.216-2.087,1.8-1.079,1.151a19.5,19.5,0,0,0-1.8,1.511c-.791.648-1.511,1.223-1.511,1.007l.216-.432c-1.007.791-1.583,1.511-2.3,2.159l-.432.216c0,.216-.576.648-1.367,1.223a27.635,27.635,0,0,0-2.3,1.727l-3.885,2.59a32.6,32.6,0,0,1-3.166,1.8l-2.59,1.727c-.863.576-1.871,1.079-2.878,1.655l1.079-.72a23.955,23.955,0,0,0-2.806,1.655l-1.439.648-2.878,1.223c-1.871,1.007-1.151.863-1.3,1.007a29.43,29.43,0,0,0-3.6,1.655,31.443,31.443,0,0,1-4.029,1.727c.648-.36,2.734-1.367,1.151-.72a13.022,13.022,0,0,0-2.806,1.223,24.034,24.034,0,0,1-3.6,1.511h.791c-1.367.36-4.245,1.8-4.029,1.367-.935.432-3.526,1.079-3.094,1.223l-3.957,1.223-4.173,1.223-3.885,1.007-3.022.5c-.72.216-2.446.576-2.087.648s1.655-.5,2.087-.5a1.871,1.871,0,0,0-.792.288c-1.583.288-2.734.576-1.367,0a32.012,32.012,0,0,0-3.6.863,28.775,28.775,0,0,1-4.317,1.007c.216-.144-.144-.072-1.439.144l-2.446.5c-2.878.36-1.655,0-1.727-.216l-2.374.36-1.727.288h-1.871c1.367.072-1.223.216-1.943.36h.72a29,29,0,0,0-2.95.216,23.235,23.235,0,0,0,3.022-.072l-3.022.432c.36-.216-2.518,0-3.742,0a10.865,10.865,0,0,0-2.015.216c-.072-.072-2.3.072-1.223-.072s1.079.072,1.871-.072a11.87,11.87,0,0,0-2.734,0c-1.439.072.36.36-2.374.216l1.439-.144-2.59-.144-.144.144h-2.374a20.43,20.43,0,0,0-2.231,0l-3.957-.36h.216l-2.518-.216-2.3-.144h.072l-3.813-.36a2.3,2.3,0,0,1-1.367-.5c-.216-.144-.432-.288-1.583-.36s-3.31-.288-2.518,0l-2.878-.576-2.95-.648a37.2,37.2,0,0,1-5.54-1.511,6.189,6.189,0,0,1-1.3-.216l-4.1-1.223-4.1-1.439a49.073,49.073,0,0,1-7.123-3.094c1.511.576.144-.072.144-.216-1.3-.432-1.439-.791-1.943-.791s-.072.216,1.367.863a51.8,51.8,0,0,1-5.181-2.518,32.018,32.018,0,0,1-4.029-2.3c.791.576.144.216-.5-.144s-1.8-1.367-3.382-2.3h-.36l-.935-.791a8.562,8.562,0,0,1-2.231-1.439,1.223,1.223,0,0,0-.36-.432l-2.806-1.8-1.439-1.079-1.3-1.079-1.223-1.3c-.72-.576-1.943-1.439-.791-.36-.648-.576-1.3-1.151-1.8-1.655l-1.367-1.439a24.817,24.817,0,0,1-1.727-1.943l-1.871-1.583-1.871-1.871-1.943-2.015a27.682,27.682,0,0,1-1.943-2.159c-.576-.791-2.518-3.094-3.67-4.677l-3.238-4.677.216.144c-.935-1.727-.648-.791-1.3-1.943.432.5-.576-1.367.288-.144-1.3-2.446-2.015-2.95-2.878-4.533-.216-.144.791,1.223.432,1.007s-1.727-3.454-2.087-3.742.144-.216.36.072l-.863-1.439c-.72-1.943,2.59,3.957,1.871,1.943l-.791-1.583c-.5-1.367,2.159,3.526.36.072l-.648-1.007-.5-.72c-.216-.288-.36-.216-.072.432-1.511-3.166-1.151-1.3-2.734-4.749-.288-1.007,1.3,2.734,1.151,2.015a21.946,21.946,0,0,0-1.079-2.446c-.36-.791-.72-1.583-1.007-2.3.576,1.655-.144.36-.648-.72s.648,1.079-.36-1.439c-.288-.36-1.223-2.734-.576-.648-.576-.863-.863-2.734-1.511-4.1s1.3,2.518.432-.36c0,.288-.36-.576-.72-1.3s-.576-1.367-.5-.5c-.288-1.151-.144-1.3.216-.5-.36-1.655-1.439-3.813-1.223-4.461l-.36-.5c-.072-.5-.216-1.3-.288-2.159s-1.3-4.6-1.007-4.533-.72-3.814-.648-2.446.5,2.374.5,3.526a23.745,23.745,0,0,0-.863-4.173v-.216c-.144-.72-.432-2.374-.576-2.806s.144.216.144-.36l-.288-.72c-.432-2.95.216-.72-.216-3.6l.432,2.159c-.072-.5-.072-1.439-.288-2.806a4.3,4.3,0,0,0-.648-1.943c-.216-1.583.144-.72-.144-2.3l.648,2.159a14.857,14.857,0,0,0,0-3.6c-.144-2.159-.432-3.526-.432-1.3-.072-1.079,0-2.59.144-1.727-.144-2.446-.144.36-.288-1.8.072-.432.072-1.3.144-2.3S.36,127.51.5,126.719l.216,2.231V127.51c.216,1.871.144-.935.36.144a23,23,0,0,0-.072-3.166c-.216,1.439-.288.648-.432-.432S.5,121.61.288,122.042a10.793,10.793,0,0,1,.5-3.238,11.368,11.368,0,0,0,.288-3.382c-.144.648-.216-1.3-.36,1.223.288-2.446-.144-1.727.288-4.677-.072,2.159.576-2.3.432.863a10.505,10.505,0,0,0-.288,2.231c.216-1.007.288.216.576-2.3s.432-3.67.216-3.382-.36,2.374-.36,1.367c.432-3.094.72-3.526.648-4.893-.288,1.943-.5,2.374-.648,2.374l.288-2.3v.432a12.592,12.592,0,0,0,.288-2.374,8.562,8.562,0,0,1,.36-2.231l.576-1.583c.072.863-1.079,5.037-.648,4.461.432-2.231.432-3.022.935-5.181l-.216,1.583a26.335,26.335,0,0,0,1.223-4.749c.288-1.655,0-.432-.144-.5.791-3.6,1.079-4.677,1.727-6.979.072.576,1.223-4.029.72-1.439a38.364,38.364,0,0,0-2.015,7.627c.576-1.223-.72,2.806-.648,3.67.72-2.878.935-2.662,1.223-3.094a9.76,9.76,0,0,0,.432-2.087c.144-.5-.36.648-.5.648.36-1.583.863-3.166,1.223-4.533s.648-2.59.863-3.526.5-.648.072.576l1.943-5.684c.72-1.871,1.511-3.67,2.159-5.4-.576,1.079-.216.072.216-.935s.935-2.159.5-1.439c-.935,1.8-1.655,3.31-1.439,2.231s.072.072.36-.36a16.694,16.694,0,0,0,1.655-3.67c-1.367,3.31,0,.791,0,1.511.935-2.374.072.144,1.151-2.159.432-1.223,1.079-2.518,1.655-3.813a40.3,40.3,0,0,1,1.943-3.957c.72-1.223,2.087-3.526,3.238-5.4s2.3-3.813,3.166-5.109.648-.216,1.727-1.727-1.151,1.151.791-1.367l-.144.288c.288-.432,1.079-1.583,2.015-2.734a14.606,14.606,0,0,0,1.943-2.95l-.36.935a15.183,15.183,0,0,0,.935-1.3c.072.072.576-.432,0,.36l2.015-2.3,2.015-2.446-1.007.935L35.4,38.145l1.583-1.655,3.31-3.382v.216l1.439-1.511c-.288.432,1.223-.791,1.943-1.583l-3.67,3.957c-.576.5-.288.144,0-.216s.648-.791.288-.5a21.874,21.874,0,0,0-3.166,3.31,20.291,20.291,0,0,0,1.511-1.655c.432-.144-.863,1.223-1.439,1.943a14.39,14.39,0,0,0,1.151-1.223l-1.367,1.511-1.8,1.943c.863-1.151-.648.5-.288.072a30.952,30.952,0,0,1-3.022,3.742,22.3,22.3,0,0,0-2.231,2.734l-2.59,3.6A25.688,25.688,0,0,1,29.5,45.484l-1.3,1.583L26.982,48.65a22.161,22.161,0,0,1-2.015,3.6h-.216A15.47,15.47,0,0,0,23.6,54.262a24.535,24.535,0,0,1-1.439,2.374c-1.367,2.015-2.59,4.245-3.742,6.26a34.033,34.033,0,0,0-1.583,3.022L15.47,68.653h-.216c-.36,1.007-1.007,2.59-1.727,4.245l-1.079,2.518-.863,2.3L10.217,81.1,9.066,84.554c-.791,2.159-1.3,4.1-1.727,5.253a154.77,154.77,0,0,0-4.6,24.1V112.4c0,1.583-.216,1.007-.36,2.518.36-1.727-.072,2.159.072,3.238a22.362,22.362,0,0,1-.216,3.094c0,1.079-.144,2.159-.144,3.238,0,2.159,0,4.245.144,5.972l-.144.144c.216,1.727.216,3.67.288,5.684s.216,4.173.432,6.332a15.9,15.9,0,0,0,.144,2.59c.288,1.151.432,2.015.648,3.022l.863,3.813c.144.648.216,1.367.36,2.087l.5,2.374c.36,1.583.648,3.238,1.007,4.461,2.734,9.066,6.116,18.2,11.153,26.623l.216.72c1.367,1.943,2.59,4.173,4.1,6.188l2.231,3.166,2.374,3.022a84.831,84.831,0,0,0,9.57,10.361l-.791-.36a32.379,32.379,0,0,0,2.734,2.59c.863.648,1.439,1.007,1.223.72l3.31,2.734.863.648.791.576,1.223,1.007,2.374,1.583.935.576,1.151.72,5.181,3.31,5.253,2.734-1.079-.576c-.5-.216-.576-.072.5.5l1.583.791,1.871.863c1.151.5,1.871.72,1.079.216L68,231.41l4.245,1.511,2.159.791,2.159.648,3.957,1.3c-.36-.216.863.144,1.367.216l6.692,1.655,6.116,1.007c.72.144-1.151-.072.648.288s.072-.144,1.439,0l5.612.576,5.612.432,2.734.216h7.987a167.794,167.794,0,0,0,35.9-5.181h-.144a63.689,63.689,0,0,1,6.188-1.727,41.378,41.378,0,0,0,5.468-1.943l1.943-.576c.648-.216,1.079-.36.791-.216,1.439-.648,3.454-1.367,5.684-2.159a58.8,58.8,0,0,0,6.476-2.878l-1.007.5A122.221,122.221,0,0,0,191.9,219.9l-1.223.863a26.122,26.122,0,0,0,2.59-1.511,9.785,9.785,0,0,1,2.087-1.151c.863-.576.576-.576,0-.216a119.874,119.874,0,0,0,25.327-20.075c5.4-5.612.72.072,4.677-4.677.36-.36.144-.36.216-.36,1.367-1.943,2.59-2.662,3.454-4.029-.576.432.576-.935.5-1.079,2.878-3.814,3.526-4.461,5.4-7.771v.288a83.688,83.688,0,0,0,5.612-11.944,114.118,114.118,0,0,0,8.706-34.465c.288-2.95.5-5.9.576-8.778s.072-5.9,0-8.778-.288-5.828-.576-8.778a77.206,77.206,0,0,0-1.3-8.706l-.432-2.159c-.144-.72-.288-1.439-.5-2.159l-1.079-4.245c-.863-2.806-1.655-5.54-2.662-8.275a113.752,113.752,0,0,0-7.123-15.758,127.644,127.644,0,0,0-21.01-27.846c-1.871-2.015-2.878-3.166-4.029-4.173l-1.871-1.727-2.806-2.374c.216.144.5.36.216.072a24.373,24.373,0,0,0-3.957-2.878c-3.454-2.734-6.907-5.181-10.433-7.483a123.033,123.033,0,0,0-11.3-6.476c1.3.648,2.015.791.5,0L179.81,12.6l-.216-.216c-1.079-.432-2.3-.863-1.223-.288C157.649,3.392,134.983-.566,112.822,1.737l-4.245.432-4.677.72c-3.166.576-6.4,1.3-9.21,2.015a116.708,116.708,0,0,0-23.241,8.131,105.267,105.267,0,0,0-21.154,13.1,16.117,16.117,0,0,1,1.439-1.439,45.546,45.546,0,0,1,5.756-4.6" transform="translate(0 -0.01)" fill="#dc4e3e"/>
    <path id="Path_8642" data-name="Path 8642" d="M63.26,40.379c-.576.288-2.087,1.583-1.007.36.216-.072,1.079-.576,1.007-.36" transform="translate(-17.354 -11.31)" fill="#dc4e3e"/>
    <path id="Path_8643" data-name="Path 8643" d="M18.332,97.863a6.187,6.187,0,0,1-.432.791A16.189,16.189,0,0,1,18.62,97a2.662,2.662,0,0,0-.288.863" transform="translate(-5.02 -27.206)" fill="#dc4e3e"/>
    <path id="Path_8644" data-name="Path 8644" d="M11.3,113.977a30.293,30.293,0,0,1,1.511-4.677c-.288.791-.576,1.511-.791,2.3Z" transform="translate(-3.169 -30.656)" fill="#dc4e3e"/>
    <path id="Path_8645" data-name="Path 8645" d="M5.595,132.416c-.36,1.079-.36.72,0-.72.072-.072,0,.36,0,.72" transform="translate(-1.494 -36.935)" fill="#dc4e3e"/>
    <path id="Path_8646" data-name="Path 8646" d="M5.448,133.986A15.47,15.47,0,0,1,4.8,136c.072,0,.5-2.374.648-2.015" transform="translate(-1.346 -37.569)" fill="#dc4e3e"/>
    <path id="Path_8647" data-name="Path 8647" d="M.072,172.074A19.931,19.931,0,0,1,0,174.808c.072-.72-.072-3.238.072-2.734" transform="translate(0 -48.244)" fill="#dc4e3e"/>
    <path id="Path_8648" data-name="Path 8648" d="M.444,190a10.36,10.36,0,0,0,.072,1.079c0,.791-.144,0-.216-.648Z" transform="translate(-0.084 -53.29)" fill="#dc4e3e"/>
    <path id="Path_8649" data-name="Path 8649" d="M242.7,320.3l-1.3.576.144-.216Z" transform="translate(-67.706 -89.835)" fill="#dc4e3e"/>
    <path id="Path_8650" data-name="Path 8650" d="M341.5,222.779c.36-1.367.36-.863.5-1.079-.36,1.223,0-.5-.5,1.079" transform="translate(-95.781 -62.181)" fill="#dc4e3e"/>
    <path id="Path_8651" data-name="Path 8651" d="M348.344,147.3l.072.432-.216-.072Z" transform="translate(-97.66 -41.314)" fill="#dc4e3e"/>
    <path id="Path_8652" data-name="Path 8652" d="M108.092,11.6c-.288-.216,0,.288-.216-.072s.216-.072.216.072" transform="translate(-30.239 -3.186)" fill="#dc4e3e"/>
    <path id="Path_8653" data-name="Path 8653" d="M191.546,8.688c-.288,1.223-1.655,2.015-2.231,3.094s-.216-.216-.36.072a14.2,14.2,0,0,1-3.31,3.022v-.144c-.216.144-.288.576-.576.72s0-.144-.072-.144a1.135,1.135,0,0,0-.36.576h-.36v.288c-.072.648-.863.648-1.223,1.223s0-.144-.072-.144A6.332,6.332,0,0,1,181.76,18.4l-1.367,1.079c0-.072,0-.216-.144-.216s-.216.432-.432.648a1.959,1.959,0,0,1-.72.576h0c-.144.288-.432.072-.432.432h-.216c.072.288-.432.072-.5.288h.072c-.144.144-.288.072-.432.216h0c-.36.288-.648.288-.576.432s.36-.288,0-.36l-1.871,1.223-2.159.863h-.36c-.144.072-.5.216-.576.432h-.216c-.288,0-.144.36-.5.36s.072-.216,0-.216a7.064,7.064,0,0,0-.72.5c-.216.144.072-.072.072-.144s-.576.144-.791.36v-.144c-.5,0,0,.288-.432.36s0-.144,0-.144-.863.5-1.223.648a.072.072,0,0,0,0-.072,10.65,10.65,0,0,0-1.223.432c-.144,0-.072-.36-.432-.144s-.648.288-.36.5a3.67,3.67,0,0,0-1.151.288c.144-.144-.288-.288,0-.36h-.288c0-.144.216,0,.144-.144a2.374,2.374,0,0,1-.72.216,2.2,2.2,0,0,1-.863.72c-.432.144-.216-.288-.072-.36l-.5.648c-.144.072-.072-.216-.288-.072s-.072.144-.144.216-.648.216-.72-.072.216-.072.072-.144l-.576.216h0c-.216,0-.5.216-.288.288s-.072-.144.144-.072a1.079,1.079,0,0,1-.72.288.264.264,0,0,0,.072-.216,4.1,4.1,0,0,1-1.151.5c0,.144.144-.216.216-.216a2.791,2.791,0,0,1-1.583.216c-.5-.216.072.144.072.144s-.288-.144-.432-.072a.649.649,0,0,1-.36.072c-.144,0-.072-.072.072-.072a4.1,4.1,0,0,1-1.8.216c0,.072-.36.288-.432.288v-.144c-.144-.072-.432,0-.432-.144s1.079-.216.72-.072-.5.288-.432.072-.5.216-.791.072.216-.216,0-.216-.072.072-.432.144h0c0,.144-.36,0-.216.144s-.576.072-.5-.144v-.216c-.144,0-.288.216-.36.36H152.4c0,.36-.36,0-.576.216s-.863,0-1.007-.216a1.3,1.3,0,0,1-.791.144h.144c-.216-.072-.216,0-.432,0l-.576-.288c-.288.072-.216.288-.216.36a1.094,1.094,0,0,1-1.007-.144c-.288-.288.36-.144.144-.216s-.5.216-.863,0v.288c-.144-.144-.576.072-.5-.144s-.432-.144-.432.144-1.511-.072-1.871-.576-.288-.072-.288.072.216-.072.288,0h-.144c-.216-.072-.36-.144-.144-.288s-.5.36-1.007.216,0-.144-.144-.144l-.36.144c-.36-.072-.144-.288-.144-.432s-.432-.072-.5.072l-.216-.288c.144.216-.144.072-.288.144h.072c0-.072-.216-.072-.36-.072s.216.216.36.216h-.432c.072-.144-.288-.144-.432-.216s-.216.144-.288.072-.288-.072-.144-.144.144.144.216.072-.072-.216-.288-.144,0,.36-.36.144l.216-.144-.288-.144v.072s-.5-.072-.576.144l-.432-.216h0a.648.648,0,0,0-.576-.072h-.5c-.216-.144.072-.576-.288-.5s-.5.216-.36.288a2.426,2.426,0,0,1-1.367-.432h-.216c-.648-.216-1.439-.216-1.871-.648s.072-.144.072-.216-.144-.216-.288,0-.072.216.072.288a2.446,2.446,0,0,1-1.223-.432c.072.072,0,.144-.144.144s-.144-.36-.432-.36v-.072c-.072,0-.216.216-.36.072a.288.288,0,0,0,0-.144c-.288,0-.648.144-.863-.072l-.144-.288c-.144,0-.36.072-.144.144s-.648-.36-.72-.576a5.109,5.109,0,0,1-2.734-.576h.072c-.216-.144-.216.144-.288,0s-.072-.288.144-.288h-.72c-.216,0,.216,0,.072.144s-.36-.288-.5-.072.072-.216.144-.288h-.216c-.144-.288.72-.216.576-.576h-.216c-.072-.288.576-.072.144-.288s-.5.216-.36.36-.36.36-.791.216.36.144.36-.072-.432-.072-.576-.216-.072.288-.216.288.216-.144-.072-.288-.432.072-.216.216-.288-.216-.576-.072.5-.288.216-.5-.5.072-.432.36-.072-.216.072-.288-.576.072-.5-.288l-.144.144-.144-.288c-.144-.072-.648,0-.5-.288s-.432-.216-.36.072.36,0,.36.288-.36-.144-.5-.144v-.144c-.072,0-.288-.144-.36,0a.08.08,0,0,0,.072-.144l-.144.144c-.36-.072.072-.288-.288-.432h.288c-.072,0-.072-.216-.288-.216l-.432.288c-.216,0,0-.216-.216-.144h.288c.072,0-.072-.288-.288-.432s-.5.072-.288.216-.216-.216-.072-.288-.072.144-.288.144l-.36-.648h.216c.288-.072,0-.216.216-.36h-.36c.144.5-.576.216-.648.576s.072-.791-.576-.648-.288.216,0,.288-.36.144-.576-.144-.072-.432.36-.36.144.144.216.216.216-.288-.072-.432-.432-.216-.432,0,.288.144.072.216-.288-.432-.576-.216a.288.288,0,0,1,.144.432h-.144c-.36-.288-.216.144-.576-.144v-.288c.216-.144.5.432.576.072s-.432-.072-.576-.288h.216c-.072-.072.072-.5-.432-.5s-.144.072-.144.144l-.863-.288c.216-.144-.432-.288,0-.36s.576.576.863.432.288.216.5,0-.144-.432-.072-.648h-.288c-.144.144,0,.216-.072.36a1.511,1.511,0,0,0-1.007-.36.153.153,0,1,1,.216-.216,5.828,5.828,0,0,1-1.223-.791c.072.432-.432-.216-.432.072s.216.5.072.5.072-.072.072-.216a.323.323,0,0,0-.432-.288c-.288.072.288-.216.432-.36s.072-.144-.144-.288l-1.007-.36c-.216-.432-.935-.648-1.223-.863s.144-.36,0-.5,0,.36-.216,0h.072c-.144,0-.432-.576-.791-.36l.288-.144h-.216c.072-.072.072-.216.144-.144s-.432-.288-.648-.432v.216c-.432-.144-.576-.5-.935-.72l.144-.144h-.288c.144-.072,0-.288-.144-.288l.791.144c.072.216-.288,0-.288.216s.36.36.5.288l-.288-.144c.072-.216.288-.072.432-.072s-.144-.144-.144-.144a1.007,1.007,0,0,1,.5.288c-.216-.072,0,.144-.072.144a1.052,1.052,0,0,1,.576.216c.216.216.576.216.791.5a1.223,1.223,0,0,1-.72,0c.144.216.216.144.36.36a.935.935,0,0,1,.648-.072v.144c.288.072.36-.072.648.144l1.3,1.007v.144c.36-.072.791.36,1.151.432s1.151.576,1.223.935a25.182,25.182,0,0,1,2.662,1.367h-.288c.216-.072.072.144.216.216s.36-.072.5-.144a2.446,2.446,0,0,0,1.367.576v.144c.5-.072.863.36,1.3.648s.072.216.216.288a2.3,2.3,0,0,1,.935.072l.935.648c1.151.144,2.159.863,3.382,1.079v.216c1.223.072,2.446.863,3.454,1.079l-.216.216c.288.216.72.144.72-.072s.791.144.863.432.432,0,.648.072a3.958,3.958,0,0,0,1.367.5h-.144a.144.144,0,0,0,0,.216c.216,0,.791.288.648-.072s1.511.288,2.015.72.144-.072.216-.144a4.821,4.821,0,0,0,1.511.432c.072.072-.144.144.072.216s0-.144.216-.144,1.727.576,2.59.72,2.95.432,4.317.576h0c.5-.216,1.079.432,1.511.072s.432.072.288.216,1.007.288,1.583.072h-.144c.5.216,1.007,0,1.583.144l-.216.144c.216.144.5-.288.648.072s.072-.144,0-.144a8.778,8.778,0,0,0,1.943,0l1.943-.216c.935.144.072.576.791.288s0-.144.072-.072.5.36.648.144.144-.144.144-.288.72.288,1.151.072v.144c.5-.36,1.151-.216,1.511-.648l2.159-.36,2.087-.5c1.367-.288,2.662-.791,4.029-1.223A65.117,65.117,0,0,0,175.212,22a1.8,1.8,0,0,0,1.367-.5c0,.072-.072.072,0,.072s.432-.288.36-.5a28.062,28.062,0,0,0,2.59-1.655c-.144.144-.072.288.072.216v-.216h.072c.072-.072.144-.288,0-.288,2.087-1.655,4.533-2.95,6.4-4.821a9.5,9.5,0,0,0,1.583-1.583A15.47,15.47,0,0,0,191.834,8.4a1.439,1.439,0,0,1-.144,1.367" transform="translate(-30.515 -2.356)" fill="#dc4e3e"/>
    <path id="Path_8654" data-name="Path 8654" d="M108.5,12c0,.144.144.36-.144.36s.072-.288.144-.36" transform="translate(-30.36 -3.366)" fill="#dc4e3e"/>
    <path id="Path_8655" data-name="Path 8655" d="M114.744,18.9a.251.251,0,0,1,.072.144c0,.072-.216,0-.216-.072h.144" transform="translate(-32.142 -5.301)" fill="#dc4e3e"/>
    <path id="Path_8656" data-name="Path 8656" d="M116.476,20.144c-.072.072-.432-.072-.576-.144Z" transform="translate(-32.507 -5.609)" fill="#dc4e3e"/>
    <path id="Path_8657" data-name="Path 8657" d="M118.144,21.9c.072.144,0,.144-.144.072h.144" transform="translate(-33.096 -6.142)" fill="#dc4e3e"/>
    <path id="Path_8658" data-name="Path 8658" d="M118.487,21.7a.36.36,0,0,1,.144.216c.072-.072-.288-.144-.144-.216" transform="translate(-33.223 -6.086)" fill="#dc4e3e"/>
    <path id="Path_8659" data-name="Path 8659" d="M122.389,24.5c.072,0,.288.072.288.216s-.432-.072-.288-.144" transform="translate(-34.318 -6.872)" fill="#dc4e3e"/>
    <path id="Path_8660" data-name="Path 8660" d="M124.5,25.3h.144c.072.072-.072.144-.144.072Z" transform="translate(-34.919 -7.096)" fill="#dc4e3e"/>
    <path id="Path_8661" data-name="Path 8661" d="M162.816,36.072H162.6l.072-.072Z" transform="translate(-45.605 -10.097)" fill="#dc4e3e"/>
    <path id="Path_8662" data-name="Path 8662" d="M180.4,35.492c.144-.072.144.072.144.072s.072-.144-.144-.072" transform="translate(-50.597 -9.949)" fill="#dc4e3e"/>
    <path id="Path_8663" data-name="Path 8663" d="M189.372,32.716h0L189.3,32.5Z" transform="translate(-53.093 -9.115)" fill="#dc4e3e"/>
    <path id="Path_8664" data-name="Path 8664" d="M163.816,35.6c-.216-.791-.072.432-.216-.5a.576.576,0,0,1,.216.5" transform="translate(-45.885 -9.845)" fill="#dc4e3e"/>
    <path id="Path_8665" data-name="Path 8665" d="M137.4,246.331c.5-2.59,2.3-5.468,3.022-8.2.072-.288.216.216.432-.5a29.283,29.283,0,0,1,1.583-4.677c.648-1.727,1.439-3.454,2.159-4.965v.216a16.487,16.487,0,0,0,.5-2.015c.216-.648,0,.216.144.072a4.339,4.339,0,0,0,.288-1.511c0-.36.288-.144.432-.432v-.432c-.072-1.151.863-2.446,1.079-3.885,0,.072,0,.216.072.144.432-2.3,1.367-5.037,2.015-7.627.072.144.144.216.216.144s0-.935.144-1.655a6.462,6.462,0,0,1,.5-1.943h0c-.072-.648.36-.863.216-1.367l.288-.36c-.216-.36.36-.791.36-1.3h-.072c.072-.5.288-.648.36-1.079h.072c.216-1.007.5-1.511.288-1.583s-.144,1.007.216.5l1.079-4.965,1.223-4.965a2.2,2.2,0,0,1,.36-.648,11.44,11.44,0,0,0,.216-1.583c0,.144.144-.216.216-.36a6.436,6.436,0,0,1,.144-1.367c.216-.648.072.36.144.288a10.649,10.649,0,0,1,.216-2.015c0,.144,0,.288.072.288a6.657,6.657,0,0,0,.36-2.015v.288c.36-1.007-.216-.36.072-1.223,0,.216.072.144.144.216a19.931,19.931,0,0,1,.36-3.094h.072c.144-.935.432-1.871.5-2.878s.288.144.432-.791.216-1.655-.216-1.151a16.622,16.622,0,0,0,.5-2.662c.072.36.36-.36.288.36l.216-.5c.072.072-.144.5.072.36s.144-1.367.216-1.655a8.491,8.491,0,0,1-.144-2.3c0,.5.36-.216.36.144l-.288-1.511c.072-.36.216-.072.216-.576s-.072-.216-.144-.36.144-1.439.432-1.583,0,.576.144.216,0-.648.072-1.3h.072c.072-.432.072-1.223-.144-.791s.144-.072.072.36a5.037,5.037,0,0,1,.072-1.727c0,.216.072.216.144.288a19.211,19.211,0,0,1,0-2.734c-.144,0,.144.36.072.5.36-1.223.144-2.518.5-3.526,0,.144-.216.072-.144.072a1.229,1.229,0,0,0,.216-.935,3.454,3.454,0,0,1,0-.863c0-.36.072-.072,0,.216a20.579,20.579,0,0,1,.36-4.029,2.662,2.662,0,0,1-.144-1.079l.144.144c.144-.288.072-1.007.216-1.007s-.072,2.446-.144,1.583-.144-1.223.072-1.007a6.259,6.259,0,0,1,.144-1.727c-.072.144.144.5.216,0s-.072-.216,0-.935v-.5c-.144-.072.072-.72-.144-.432s0-1.223.288-1.079l.216.144a3.021,3.021,0,0,0-.216-.935v-.144c-.288-.072.072-.863-.072-1.3a4.262,4.262,0,0,1,.432-2.3,6.332,6.332,0,0,1,0-1.8.539.539,0,0,0,.072.36,1.871,1.871,0,0,0,.072-.935,8.851,8.851,0,0,0,.432-1.3c-.072-.576-.216-.432-.36-.432a4.664,4.664,0,0,1,.216-2.3c.288-.648.072.863.216.36s-.144-1.079.072-1.943l-.288.216c.216-.36-.072-1.3.216-1.151s.144-1.007-.144-.935a16.476,16.476,0,0,0,.216-2.374,4.605,4.605,0,0,1,.36-1.943c0-.216,0-.72-.072-.576s.072.5,0,.576-.072-.216-.072-.216.144-.791.288-.36c.216-.935-.36-1.007-.216-2.231.072.072.144,0,.144-.432l-.144-.72c.072-.791.288-.432.432-.432a3.31,3.31,0,0,0-.144-1.151l.216-.5c-.144.36-.072-.36-.144-.576v.216a2.231,2.231,0,0,0,0-.791c-.144.072-.144.576-.216.863s-.072-.576-.144-.863.144-.72.144-1.007-.144-.432-.144-.576,0-.648.144-.36-.072.288,0,.5.216-.216.144-.791-.36.072-.216-.648a1.727,1.727,0,0,0,.144.432v-.72h-.072c-.144-.216,0-1.079-.216-1.223s.144-.791.144-1.079h0a2.95,2.95,0,0,0-.072-1.367h0a3.382,3.382,0,0,0-.072-1.079c.144-.576.576-.216.432-.863s-.288-.935-.432-.72a24.056,24.056,0,0,1,.072-3.238c.216-1.007-.072-.072-.144-.36.072-1.583-.216-3.31.072-4.533.072.432.144,0,.288,0s.144-.432-.144-.576-.216,0-.288.432a12.231,12.231,0,0,1,0-2.878c-.072.288-.144.072-.144-.144a4.077,4.077,0,0,0,.144-1.151h-.144l.144-.36c-.072-.216-.288-.216-.144-.72l.144-.144a5.037,5.037,0,0,1-.288-1.871l.216-.5c0-.216-.144-.648-.216-.216a7.555,7.555,0,0,1,.216-1.943,30.22,30.22,0,0,1-.72-6.116h.144c.072-.5-.216-.288-.144-.648s.216-.432.36,0c.072-.791-.216-.935-.288-1.439s.144.36-.072.288.072-1.079-.144-1.151.216-.072.288.072l-.144-.432c.216-.576.5,1.3.791.648V84.51c.216-.432.288,1.151.36,0s-.432-.863-.5-.432c-.144-.935-.5-.432-.576-1.439s.072.863.216.648-.144-1.007-.144-1.439-.288.072-.36-.216.216.36.216-.432-.288-.791-.288-.216,0-.791-.216-1.151.5.72.5-.072-.36-1.007-.576-.576.144-.36.288-.144-.432-1.079-.072-1.3l-.216-.144.144-.576c-.072-.432-.36-1.3-.072-1.3s-.144-1.079-.288-.648.216.648,0,1.007-.144-.863-.216-1.151h.072c-.072-.216-.072-.648-.216-.791s.144.072.144-.072l-.216-.216c-.144-.791.288-.216.144-1.007l.216.576a3.958,3.958,0,0,0,0-.791l-.5-.5c-.144-.432.144-.216-.072-.648l.216.576c.072.072.216-.432.144-1.007s-.36-.935-.432-.36,0-.72.144-.5-.144.072-.288-.432.144-1.007.216-1.439l.36.576v-.432c.288.5.144-.288.36,0a2.878,2.878,0,0,0-.216-.863c-.288.863-.576-.863-.863-.576-.216-1.079.72-.791.072-1.871-.072.216-.36-.288-.216.36-.072-.72-.36-.432-.36-1.223.216.576.216-.648.5.144s0,.5,0,.648.36,0,.216-.648-.144-1.007-.288-.935.072.648-.144.432.072-1.007-.288-1.367-.072.72-.216.72l-.144-.648h.144c-.072-1.007-.288-.288-.36-1.223l.144-.5c.216.216.072,1.439.432,1.223a9.786,9.786,0,0,1-.288-1.439l.144.432a1.6,1.6,0,0,0,0-1.367c-.36-.863-.144-.072-.288-.072a5.972,5.972,0,0,1-.432-1.943c-.072-.648-.144-1.151.216-.5a4.389,4.389,0,0,0,.432,2.159c.216-.432.072.791.36,1.007s.216-.791.36-.935a1.942,1.942,0,0,0-.144-.576c-.216-.072-.144.216-.288.288a6.907,6.907,0,0,0-.36-2.446c.072-.288.216-.216.288.144a26.726,26.726,0,0,1-.432-3.238c-.216.72-.216-1.151-.432-.648s-.072,1.079-.288.791.144,0,.144-.144.144-.72-.144-1.079c.216.935.36.144.648.288s.144,0,.072-.72a22.809,22.809,0,0,1-.648-2.3,16.261,16.261,0,0,0-.576-3.382c0-.5.36-.216.288-.72s-.216.5-.216-.432h.072c-.072-.288-.072-1.655-.5-1.8l.288.216a1.223,1.223,0,0,0-.144-.432c.072,0,.144-.216.216,0a5.108,5.108,0,0,0-.36-1.727v.432c-.288-1.007-.288-1.655-.5-2.59h.144l-.216-.576c.144.144.144-.432,0-.72l.648,1.439c0,.432-.288-.432-.36-.144a1.943,1.943,0,0,0,.288,1.223,1.583,1.583,0,0,0-.216-.576c.216-.144.288.36.5.576s0-.432-.072-.5a4.534,4.534,0,0,1,.36,1.3c-.144-.36-.072.216-.216.072a6.96,6.96,0,0,1,.432,1.3c.072.72.36,1.367.5,2.159a3.885,3.885,0,0,1-.648-1.223c0,.576.072.576.072,1.151a2.231,2.231,0,0,1,.648,1.079h-.144a6.036,6.036,0,0,1,.5,1.367c.144.791.36,2.806.5,3.813h-.144c.432.5.432,1.943.648,2.662a12.318,12.318,0,0,1,.432,3.6c.432,2.3.791,4.389,1.079,6.836l-.288-.36c.216.432-.072.288,0,.72s.288.576.432.863a12.663,12.663,0,0,0,.576,3.454h-.144a12.2,12.2,0,0,1,.36,3.382,1.439,1.439,0,0,0-.144.72,9.354,9.354,0,0,1,.576,1.943,21.369,21.369,0,0,1,.072,2.59c.5,2.662.576,5.4.935,8.131l-.144.216c.5,2.662.432,5.972.648,8.275l-.288-.216c-.072.72.144,1.655.36,1.439s.216,1.8,0,2.231a8.345,8.345,0,0,0,.216,1.511,23.814,23.814,0,0,0,.072,3.454v-.36c-.072-.144-.216-.144-.216.216s0,1.943.288,1.367c-.144,1.511.216,3.454-.072,4.893.072-.144.144.216.216.36a29.362,29.362,0,0,0,0,3.742c-.072.216-.144-.36-.144.216s.144,0,.144.36c.144,2.087-.288,4.245-.216,6.188s.072,1.727.072,2.59v2.59l-.216,5.037h-.072c.216,1.079-.432,2.518-.072,3.454s-.072,1.007-.216.791c.144.863-.36,2.446-.144,3.67a.936.936,0,0,0,0-.288,12.448,12.448,0,0,0-.144,1.871,13.961,13.961,0,0,1-.216,1.871c0-.144,0-.36-.072-.432s.216,1.223-.144,1.511.144.216.144.072a44.522,44.522,0,0,0-.36,4.533c-.072,1.583-.144,3.094-.288,4.6s-.576.072-.5,1.8c-.072.144.144.144.072.144a2.418,2.418,0,0,0-.36,1.511c.144.5.072.288.216.36a7.582,7.582,0,0,0-.432,2.662h-.072c.216,1.3-.216,2.662,0,3.742-.432,3.382-.791,6.764-1.3,10s-.935,6.62-1.583,9.858l-.935,4.821-1.007,4.821c-.648,3.238-1.511,6.4-2.374,9.642a10.505,10.505,0,0,0-1.007,3.238c0-.072,0-.216-.072-.072a2.874,2.874,0,0,0-.144,1.367,23.946,23.946,0,0,1-.935,3.526l-1.007,3.526c.072-.36-.072-.648-.144-.144v.5h-.072c-.072.36-.072.72.144.432-.791,3.094-1.871,6.116-2.878,9.138l-3.238,8.922c-.576,1.367-1.3,3.382-1.8,4.893-2.015,4.389-3.885,8.275-5.684,12.808a4.729,4.729,0,0,1,.36-2.734" transform="translate(-38.537 -10.686)" fill="#dc4e3e"/>
    <path id="Path_8666" data-name="Path 8666" d="M164.062,37.1c-.072.216-.072.72-.288.36s.144-.36.288-.36" transform="translate(-45.915 -10.406)" fill="#dc4e3e"/>
    <path id="Path_8667" data-name="Path 8667" d="M166.044,57.7c.072,0,0,.216,0,.288a1.42,1.42,0,0,1-.144-.5c0-.144.072.144.144.216" transform="translate(-46.53 -16.112)" fill="#dc4e3e"/>
    <path id="Path_8668" data-name="Path 8668" d="M166.66,62.5a3.813,3.813,0,0,1-.36-1.3Z" transform="translate(-46.643 -17.165)" fill="#dc4e3e"/>
    <path id="Path_8669" data-name="Path 8669" d="M166.844,67.789c-.072.288-.144.216-.144-.144s.072.072.144.144" transform="translate(-46.755 -18.933)" fill="#dc4e3e"/>
    <path id="Path_8670" data-name="Path 8670" d="M167.261,68.2a1.223,1.223,0,0,1-.072.576c.072,0-.144-.648.072-.576" transform="translate(-46.884 -19.126)" fill="#dc4e3e"/>
    <path id="Path_8671" data-name="Path 8671" d="M168.176,78.795c0,.216.144.576.072.72s-.216-.863-.072-.72" transform="translate(-47.151 -22.096)" fill="#dc4e3e"/>
    <path id="Path_8672" data-name="Path 8672" d="M168.844,83.7a.791.791,0,0,0,0,.288c0,.216-.144,0-.144-.144Z" transform="translate(-47.316 -23.476)" fill="#dc4e3e"/>
    <path id="Path_8673" data-name="Path 8673" d="M171.3,173.632V173.2l.072.072Z" transform="translate(-48.045 -48.578)" fill="#dc4e3e"/>
    <path id="Path_8674" data-name="Path 8674" d="M167.244,213.1c0,.36-.144.288-.144.288s.144.144.144-.288" transform="translate(-46.867 -59.769)" fill="#dc4e3e"/>
    <path id="Path_8675" data-name="Path 8675" d="M164.6,234.172V234.1l.216.072Z" transform="translate(-46.166 -65.659)" fill="#dc4e3e"/>
    <path id="Path_8676" data-name="Path 8676" d="M199.832,31.116c-.648-.432.216.432-.432-.216a.576.576,0,0,1,.432.216" transform="translate(-55.926 -8.667)" fill="#dc4e3e"/>
    <path id="Path_8677" data-name="Path 8677" d="M259.718,221.832c.288-2.59,1.871-5.612,2.231-8.418.072-.288.288.144.432-.576a67.79,67.79,0,0,1,2.59-9.929v.216c.216-.576.072-1.439.288-2.087s.072.216.144.072a5.07,5.07,0,0,0,.072-1.511c-.072-.288.216-.216.36-.5l-.144-.432c-.288-1.151.5-2.518.5-4.029,0,.072.072.216.072.144.072-2.3.576-5.181.792-7.771.072.144.144.216.288.072s-.144-.935-.072-1.655a9.843,9.843,0,0,1,.144-2.015h.072c-.144-.648.216-.863,0-1.367l.216-.36c-.288-.288.216-.863.144-1.367h-.072c0-.5.144-.72.144-1.151h.072c0-1.007.216-1.583,0-1.583s0,1.007.288.432c0-3.382.216-6.836.288-10.217a2.3,2.3,0,0,1,.216-.72,11.436,11.436,0,0,0-.144-1.583c0,.144.144-.216.144-.432a3.033,3.033,0,0,1-.144-1.367c.144-.72.144.36.216.288a12.877,12.877,0,0,1-.216-2.015c.072.072.072.288.144.216a7.464,7.464,0,0,0-.144-2.015l.144.216c.144-1.079-.288-.288-.216-1.223.072.216.072.144.144.144a26.555,26.555,0,0,1-.36-3.022h.072c-.072-.935-.072-1.871-.216-2.878s.36.072.216-.863-.216-1.655-.5-1.079a18.782,18.782,0,0,0-.144-2.662c.144.36.288-.432.36.216l.144-.5c.144.072,0,.576.144.36s-.288-1.367-.288-1.655a8.489,8.489,0,0,1-.72-2.231c.144.5.288-.288.36,0l-.648-1.367c-.072-.36.216-.072.072-.576s-.144-.144-.216-.288-.288-1.439,0-1.583.144.576.144.144-.216-.648-.288-1.3h0c0-.432-.288-1.223-.36-.72s.144-.144.144.288a5.684,5.684,0,0,1-.432-1.655c.072.216.144.144.216.216a19.2,19.2,0,0,1-.792-2.59c-.144,0,.288.288.216.432,0-1.223-.648-2.446-.648-3.526.072.144-.144.144-.144.072a2.3,2.3,0,0,0-.072-.935,3.035,3.035,0,0,1-.216-.863c-.072-.432,0-.144.144.216a26.258,26.258,0,0,1-1.007-3.885,2.662,2.662,0,0,1-.5-1.007h.216c0-.288-.216-.935-.144-1.007s.72,2.3.36,1.511-.5-1.079-.288-.935a6.188,6.188,0,0,1-.432-1.655c0,.144.36.432.216-.072s-.144-.216-.36-.863l-.144-.36c-.144,0-.144-.72-.288-.36s-.432-1.151-.144-1.151h.216a7.585,7.585,0,0,0-.5-.791c-.144-.288,0-.144.072-.144a2.053,2.053,0,0,0-.576-1.151,4.071,4.071,0,0,1-.5-2.231,6.188,6.188,0,0,1-.648-1.655c.072.144.144.288.216.288a1.871,1.871,0,0,0-.288-.863,8.994,8.994,0,0,0-.072-1.367c-.288-.5-.36-.288-.5-.288a4.947,4.947,0,0,1-.72-2.159c0-.648.432.72.36.288a13.035,13.035,0,0,1-.72-1.8l-.144.288c0-.432-.576-1.151-.288-1.151s-.288-.935-.5-.791c-.288-1.367-1.367-3.094-1.223-4.1s-.288-.648-.36-.5.288.432.216.576-.144-.144-.216-.144-.216-.791.144-.432c-.216-.935-.791-.72-1.223-1.943.144,0,.144-.072-.072-.432l-.432-.576c-.288-.72.072-.5.216-.576a3.31,3.31,0,0,0-.576-1.007v-.576c0,.432-.216-.288-.36-.432l.144.144c.072-.072-.216-.5-.36-.72s.072.576.144.863-.288-.5-.5-.72-.144-.72-.288-1.007-.36-.36-.36-.432-.288-.576,0-.36.072.288.216.5.072-.288-.216-.72-.288.216-.5-.5l.36.288-.216-.648h-.144v-.072s-.5-.935-.791-1.007-.216-.72-.36-1.007h.072a2.878,2.878,0,0,0-.648-1.151h.072a3.741,3.741,0,0,0-.576-.863c-.144-.576.432-.432,0-.935s-.72-.648-.648-.432a27.661,27.661,0,0,1-1.511-2.878c-.288-1.007-.144,0-.288-.216a36.825,36.825,0,0,1-2.159-3.957c.288.36.144-.072.216-.144s-.072-.432-.36-.432-.216.144,0,.5a11.945,11.945,0,0,1-1.439-2.446c.072.288-.072.072-.216-.072s-.072-.648-.432-1.079h-.144v-.36c-.144-.144-.36,0-.5-.5a.288.288,0,0,0,.072-.216A5.181,5.181,0,0,1,241.3,75.48v-.5c-.144-.216-.5-.5-.288-.072a7.483,7.483,0,0,1-.791-1.8,18.777,18.777,0,0,1-2.015-2.231l-1.943-2.518h.144c-.216-.5-.288-.144-.5-.432s-.072-.432.288-.216-.72-.648-1.079-1.079.288.288.144.288-.5-.935-.791-.863.144-.144.288-.144l-.36-.288c-.144-.576,1.151.72,1.007.072l-.288-.288c-.072-.432.863.72.288-.144s-.863-.432-.648-.072c-.648-.72-.648-.072-1.3-.863s.576.648.576.36-.72-.72-.935-1.079-.216.216-.432,0,.36.144-.072-.432-.648-.5-.36,0-.432-.648-.863-.863.863.288.36-.36-.863-.648-.791-.144-.072-.432.144-.288-1.007-.648-.791-1.007h-.216l-.216-.576c-.288-.288-1.079-.791-.791-1.007s-.72-.791-.648-.36.576.432.576.791-.576-.576-.863-.791v-.144c-.144-.144-.432-.5-.648-.5s.144,0,.072-.144h-.288c-.576-.576.072-.36-.432-.935l.5.36a3.105,3.105,0,0,0-.432-.648h-.72c-.36-.288,0-.288-.432-.5l.5.288c.072,0-.072-.432-.5-.863s-.863-.5-.5,0-.432-.576-.144-.5-.072.144-.5-.216a2.465,2.465,0,0,1-.648-1.3l.576.288-.288-.288c.5.216-.072-.288.288-.216a2.807,2.807,0,0,0-.648-.576c.288.863-.935-.36-1.007.072-.863-.72.072-1.007-1.079-1.511.072.216-.5,0,.072.432s-.576-.072-1.007-.791-.216-.72.5-.216.288.432.36.5.288-.216-.216-.648-.72-.72-.791-.5.5.432.144.36-.576-.863-1.007-.863.36.576.288.648l-.5-.36h.144c-.648-.791-.36-.072-1.007-.791l-.144-.5c.288,0,.935,1.079,1.079.72s-.72-.5-1.079-.935l.36.288c-.144-.144,0-.648-.863-1.079s-.144,0-.288.072-1.079-.791-1.583-1.223-.791-.791-.144-.5a4.245,4.245,0,0,0,1.655,1.439c-.072-.432.576.576.935.5s-.36-.72-.36-1.007l-.5-.36c-.216.072,0,.288-.072.432a6.764,6.764,0,0,0-1.8-1.439c-.144-.288,0-.36.288-.072L213.884,43.1c.288.648-.863-.72-.72-.216s.576.863.288.791.072-.072,0-.216-.36-.648-.791-.72c.791.576.36-.144.648-.144s.144-.072-.432-.576l-1.943-1.367a15.758,15.758,0,0,0-2.59-2.159c-.288-.36.144-.36-.216-.72s.144.5-.432-.144h.072c-.216-.144-1.151-1.151-1.583-1.007h.36l-.36-.216c.072-.072-.072-.288.216-.144s-.935-.648-1.367-1.007l.216.36c-.863-.5-1.3-1.079-2.087-1.583l.144-.144-.5-.288c.216-.072-.144-.432-.5-.5l1.439.576c.288.36-.5-.144-.36.144a1.871,1.871,0,0,0,1.007.72l-.576-.36c.072-.216.432.072.72.144s-.288-.288-.36-.288a4.533,4.533,0,0,1,1.151.72c-.36-.144.072.216-.072.216a4.605,4.605,0,0,1,1.223.648c.576.5,1.151.72,1.8,1.367a3.813,3.813,0,0,1-1.3-.5c.36.432.432.36.791.791a2.231,2.231,0,0,1,1.151.36v.144c.5.36.648.144,1.3.72l2.878,2.59v.144c.648.144,1.511,1.223,2.231,1.655a15.9,15.9,0,0,0,1.511,1.367,4.821,4.821,0,0,1,1.079,1.151l2.59,2.231,2.446,2.446-.432-.144c.432.216.144.288.432.576s.576.288.863.432a14.608,14.608,0,0,0,2.518,2.446v.144a11.294,11.294,0,0,1,2.3,2.518,1.439,1.439,0,0,0,.36.648,9.283,9.283,0,0,1,1.583,1.223,24.322,24.322,0,0,1,1.583,2.087,29.07,29.07,0,0,1,2.734,3.022l2.59,3.166v.288a30.437,30.437,0,0,1,2.662,3.382c.863,1.151,1.583,2.374,2.3,3.238h-.36c.36.648,1.007,1.3,1.079,1.079s1.151,1.439,1.151,1.943a8.418,8.418,0,0,0,.935,1.223,23.743,23.743,0,0,0,1.8,2.95l-.144-.288c-.144-.072-.216-.072-.072.288s.935,1.655.935,1.079l.576,1.079L249,83.539a11.51,11.51,0,0,1,1.151,2.159c0-.144.216.144.36.288s1.151,2.446,1.8,3.31-.288-.216-.072.288.144-.072.36.288c1.079,1.8,1.727,3.885,2.662,5.612s1.511,3.094,2.231,4.677l1.007,2.374.935,2.3h-.072c.648.935.648,2.518,1.367,3.166s.288.935.144.791a13.406,13.406,0,0,0,1.3,3.454l-.144-.288a13.39,13.39,0,0,0,.576,1.727,14.105,14.105,0,0,1,.5,1.8c-.072-.144-.144-.36-.216-.36s.648,1.079.432,1.439.216.144.144,0l.648,2.159.648,2.231c.432,1.439.935,2.95,1.367,4.461s-.5.288.144,1.871c0,.144.144.072.072.144a2.346,2.346,0,0,0,.144,1.511c.288.432.216.288.288.288a9.152,9.152,0,0,0,.36,2.662h-.144c.576,1.151.72,2.59,1.223,3.526a161.319,161.319,0,0,1,2.734,19.931,150.09,150.09,0,0,1,0,19.787,10.578,10.578,0,0,0-.36,3.382c-.072-.072-.072-.216-.072-.072s-.072,1.223.144,1.367c-.288,2.446-.432,4.749-.72,7.267,0-.432-.144-.648-.216-.144v.5h-.072c0,.36.072.72.216.36-.576,6.4-2.159,12.52-3.6,18.708-.432,1.439-.863,3.526-1.223,5.109-1.583,4.533-3.022,8.634-4.461,13.311a4.56,4.56,0,0,1,.144-2.734" transform="translate(-56.74 -9.284)" fill="#dc4e3e"/>
    <path id="Path_8678" data-name="Path 8678" d="M201,32c.072.216.5.576,0,.432s-.144-.36,0-.432" transform="translate(-56.302 -8.975)" fill="#dc4e3e"/>
    <path id="Path_8679" data-name="Path 8679" d="M215.882,46.153l.144.216c-.144-.144-.36-.144-.432-.288s.144.072.288.072" transform="translate(-60.464 -12.91)" fill="#dc4e3e"/>
    <path id="Path_8680" data-name="Path 8680" d="M219.351,49.52a3.813,3.813,0,0,1-1.151-.72Z" transform="translate(-61.199 -13.687)" fill="#dc4e3e"/>
    <path id="Path_8681" data-name="Path 8681" d="M222.816,53.6c.144.288.072.216-.216,0h.216" transform="translate(-62.433 -15.033)" fill="#dc4e3e"/>
    <path id="Path_8682" data-name="Path 8682" d="M223.391,53.6a1.223,1.223,0,0,1,.36.5c.072-.072-.5-.432-.36-.5" transform="translate(-62.648 -15.033)" fill="#dc4e3e"/>
    <path id="Path_8683" data-name="Path 8683" d="M230.585,61.4c.144.144.432.36.5.576s-.72-.576-.5-.576" transform="translate(-64.662 -17.221)" fill="#dc4e3e"/>
    <path id="Path_8684" data-name="Path 8684" d="M234.1,64.8l.216.216c.072.216-.072.072-.216-.072Z" transform="translate(-65.659 -18.175)" fill="#dc4e3e"/>
    <path id="Path_8685" data-name="Path 8685" d="M280.344,140.588l-.144-.288h.072Z" transform="translate(-78.588 -39.35)" fill="#dc4e3e"/>
    <path id="Path_8686" data-name="Path 8686" d="M290.272,178.7c.144.36-.072.288-.072.36s.144.072.072-.36" transform="translate(-81.393 -50.12)" fill="#dc4e3e"/>
    <path id="Path_8687" data-name="Path 8687" d="M293.6,199.644V199.5h.216Z" transform="translate(-82.347 -55.954)" fill="#dc4e3e"/>
    <path id="Path_8688" data-name="Path 8688" d="M21.989,261.1c.072.72.216-.36.072.432a.432.432,0,0,1-.072-.432" transform="translate(-6.159 -73.231)" fill="#dc4e3e"/>
    <path id="Path_8689" data-name="Path 8689" d="M94.743,24.846c-1.151,2.015-3.6,3.813-4.965,5.9-.144.216-.144-.288-.576.288A40.3,40.3,0,0,1,83.086,37.8v-.216c-.432.36-.648,1.079-1.079,1.511s.072-.216-.072-.144a3.513,3.513,0,0,0-.72,1.151c-.072.288-.288,0-.5.216v.36c-.216,1.007-1.439,1.727-2.087,2.878,0-.072.072-.216-.072-.144a68.077,68.077,0,0,1-4.029,5.612c0-.144-.072-.288-.216-.216s-.288.791-.648,1.3a8.735,8.735,0,0,1-1.007,1.439h0c-.144.576-.576.576-.648,1.079l-.36.144c.072.36-.576.5-.72.935H71c-.216.36-.432.432-.648.791h-.072c-.432.791-.935,1.079-.72,1.223s.432-.791-.072-.5-1.583,2.518-2.446,3.742l-2.518,3.742a4.308,4.308,0,0,0-.5.432,8.994,8.994,0,0,0-.648,1.223l-.288.216c-.36.432-.144.648-.5,1.079s.072-.36-.072-.288a8.419,8.419,0,0,1-.791,1.655c0-.072.072-.216,0-.288a4.33,4.33,0,0,0-.863,1.511v-.288c-.648.72.072.36-.432,1.007s0-.144-.072-.216a16.909,16.909,0,0,1-1.223,2.446h0a16.5,16.5,0,0,0-1.3,2.231c-.36.863-.216-.288-.648.5s-.648,1.3-.144,1.007a14.75,14.75,0,0,0-1.3,2.015c.072-.36-.5.144-.144-.36l-.36.288c-.072-.144.288-.36.072-.36s-.5,1.079-.648,1.3a6.764,6.764,0,0,1-.576,2.015c.144-.432-.36.072-.288-.216l-.216,1.367c-.144.288-.216-.072-.36.36s0,.216,0,.36-.576,1.151-.863,1.151.216-.432-.072-.216-.216.576-.5,1.079h0c-.216.288-.432,1.007-.072.72s-.216,0,.072-.288a3.957,3.957,0,0,1-.5,1.439c.072-.216,0-.216-.072-.288a15.182,15.182,0,0,1-.791,2.3c.072.072-.072-.36.072-.432a9.926,9.926,0,0,1-1.511,2.806c-.648.72.216,0,.144,0a1.211,1.211,0,0,0-.5.72,2.155,2.155,0,0,1-.288.72c-.144.288-.072.072.072-.216a15.974,15.974,0,0,1-1.511,3.238,2.159,2.159,0,0,1-.216.935v-.144c-.216.144-.36.791-.5.791s.791-2.015.576-1.223-.216,1.079-.36.791a5.4,5.4,0,0,1-.648,1.367c.072-.144,0-.5-.216-.072s0,.216-.216.791v.36c.144.072-.288.576,0,.432s-.36,1.007-.576.863l-.144-.216a2.446,2.446,0,0,0-.072.863h-.144c.288.216-.36.72-.288,1.151a3.007,3.007,0,0,1-1.007,1.727,5.828,5.828,0,0,1-.5,1.511c0-.144.072-.288,0-.36a1.511,1.511,0,0,0-.288.72c0-.072-.432.576-.72.935s.144.432.216.5a3.719,3.719,0,0,1-.863,1.871c-.5.432.144-.72-.072-.36s-.144.935-.576,1.583h.288c-.288.216-.288,1.079-.5.935s-.432.791-.144.791-1.007,2.878-1.655,3.382-.216.576-.072.576.072-.432.216-.5,0,.216,0,.216-.288.648-.36.216c-.432.72.072,1.007-.432,1.943s-.144,0-.216.288v.648c-.288.648-.36.288-.5.216a2.59,2.59,0,0,0-.216,1.007l-.36.36c.288-.288,0,.36,0,.5v-.216a1.7,1.7,0,0,0-.216.72c0,.216.288-.432.432-.648s-.144.5-.072.791-.36.5-.432.791a1.07,1.07,0,0,0,0,.5c0,.072-.216.5-.216.216s.144-.216.144-.432-.288.144-.36.576.36,0,0,.648a1.367,1.367,0,0,0-.072-.36l-.288.576h.072c.072.216-.216.935-.144,1.151a8.7,8.7,0,0,1-.432.863h0a2.3,2.3,0,0,0-.288,1.151h0a2.95,2.95,0,0,0-.216.935c-.288.432-.648,0-.648.576s0,.863.216.72-.432,1.943-.935,2.734.072.072.072.36a15.924,15.924,0,0,1-1.223,3.813c.072-.432-.144-.072-.216-.072a.4.4,0,0,0-.072.5c.144.144.216.072.36-.288a9.5,9.5,0,0,1-.72,2.446c.144-.216.144,0,.144.144s-.432.432-.432.935h.144l-.216.216c0,.216.216.288,0,.648h-.144a4.245,4.245,0,0,1-.216,1.655l-.288.36c0,.216,0,.576.144.216a5.973,5.973,0,0,1-.72,1.583,13.167,13.167,0,0,1-.216,2.662c-.144.935-.36,1.871-.576,2.734h-.072c-.216.432.144.288,0,.576s-.288.288-.36-.072,0,.863-.072,1.3,0-.36.144-.216-.288.863-.144,1.007-.216,0-.288-.144v.432c-.36.432-.216-1.223-.576-.72v.36c-.288.288-.072-1.007-.288-.144s.288.863.432.5c-.072.863.432.5.216,1.367s.072-.72-.072-.576-.072.863-.216,1.223.288,0,.288.288-.144-.36-.288.288.072.72.288.216-.216.648-.072,1.079-.288-.72-.576-.072.072.935.432.576-.288.288-.36.072.144,1.007-.216,1.079l.144.144-.288.5c-.072.36.072,1.223-.216,1.079s-.144.935.144.648-.072-.576.288-.863-.072.72-.072,1.007h-.576a2.4,2.4,0,0,0,0,.72c.072.144-.144-.072-.144.072l.144.216c0,.72-.288.144-.36.791V161.7c0,.144-.216.36-.216.648l.36.576c0,.432-.216.144-.072.576l-.144-.5c-.072-.072-.288.288-.36.791s.144.863.288.36-.144.648-.288.36.144-.072.216.432-.36.791-.576,1.223l-.216-.576v.36c-.144-.5-.216.216-.36-.072a2.23,2.23,0,0,0,0,.792c.432-.648.36.863.72.72,0,1.007-.863.5-.432,1.583.072-.144.288.36.288-.288-.072.576.288.432.072,1.151-.072-.576-.36.5-.5-.288s.144-.432.144-.5-.288-.072-.36.5-.072.935.144.863.072-.576.216-.288-.288.863,0,1.223.216-.576.36-.576v.576l-.144-.144c-.216.863.216.288.072,1.151l-.288.36c-.216-.216.216-1.223-.144-1.151a9.786,9.786,0,0,1-.072,1.3q0-.216,0-.432c0-.144-.5.36-.288,1.151s.144.144.216.144a6.506,6.506,0,0,1,0,1.727c-.072.576-.144,1.007-.288.36a3.31,3.31,0,0,0,.072-1.943c-.288.288.072-.72-.144-.935s-.36.648-.576.791a1.583,1.583,0,0,0,.072.5c.144.072.216-.144.36-.144a5.325,5.325,0,0,0,.072,2.015c-.144.288-.288.144-.288-.144-.072.935-.144,2.015-.216,2.878.36-.576,0,1.007.288.648s.36-.863.432-.576-.144,0-.216.072a1.085,1.085,0,0,0-.072,1.007c0-.863-.36-.216-.576-.36s-.144-.072-.216.576a20.328,20.328,0,0,0,.144,2.087,13.815,13.815,0,0,0-.144,3.022c-.144.432-.36.144-.432.576s.288-.36.144.36h-.072c.072.216-.216,1.439.144,1.655l-.288-.216a.935.935,0,0,0,.072.432c-.072,0-.144.144-.216-.072a9.246,9.246,0,0,0,0,1.511l.144-.36c.072.863-.072,1.511,0,2.374h-.144v.5c-.144-.144-.288.36-.144.648l-.36-1.367c.072-.36.216.432.36.144a1.511,1.511,0,0,0-.072-1.151,1.223,1.223,0,0,0,.072.576c-.216.072-.216-.36-.36-.576s-.072.36,0,.432A3.31,3.31,0,0,1,22,189.618c.072.36.144-.216.216-.072a4.243,4.243,0,0,1-.144-1.223,17.484,17.484,0,0,1,0-1.943,3.166,3.166,0,0,1,.432,1.151c.144-.5,0-.5.144-1.007a1.8,1.8,0,0,1-.432-1.007h.144c-.072-.576-.288-.576-.216-1.3s.144-2.446.288-3.382h.144c-.288-.5,0-1.727-.072-2.446a9.12,9.12,0,0,1,.36-3.166c.288-.576.072-2.015.144-3.022s.144-2.015.288-3.094l.144.36c-.144-.432.144-.216.144-.648a1.543,1.543,0,0,0-.288-.863,10.865,10.865,0,0,0,.216-3.094h.144a9.146,9.146,0,0,1,.432-2.95,1.151,1.151,0,0,0,.288-.576,7.339,7.339,0,0,1-.072-1.8,19.211,19.211,0,0,1,.5-2.231c.072-2.374.72-4.749,1.007-7.123l.216-.144a23.888,23.888,0,0,1,.648-3.742c.288-1.223.648-2.446.791-3.454l.216.288c.216-.576.288-1.439,0-1.3s.216-1.583.576-1.943a5.756,5.756,0,0,0,.144-1.367,18.564,18.564,0,0,0,.791-2.95v.288c0,.144.144.216.216-.072s.5-1.583.072-1.3c.576-1.223.72-3.022,1.3-4.173-.144.072-.072-.216-.072-.36s.863-2.231,1.007-3.166.072.36.216-.144-.144-.072-.072-.36a54.919,54.919,0,0,1,1.871-5.181c.576-1.655.935-2.95,1.439-4.389s1.079-2.806,1.583-4.173h.072c.072-1.007,1.079-2.015,1.007-2.878s.36-.791.432-.576a9.291,9.291,0,0,0,1.223-3.022.791.791,0,0,0-.072.288c.576-1.007.791-1.943,1.367-3.022,0,.144-.072.36,0,.36s.144-1.151.576-1.223-.072-.216-.144-.072c1.223-2.3,2.159-4.965,3.238-7.411s.576.144,1.007-1.367c.144-.072-.072-.144,0-.144a2.3,2.3,0,0,0,.791-1.079c.072-.432,0-.288-.072-.36A16.6,16.6,0,0,0,47.4,90.036v.144c.216-1.151.935-2.159,1.079-3.166l2.087-4.029L52.65,79.1c1.367-2.59,2.878-5.109,4.389-7.7l2.374-3.67,2.374-3.67,2.446-3.6,1.3-1.8,1.367-1.8a7.483,7.483,0,0,0,1.871-2.374c0,.072-.072.144.072.072a1.9,1.9,0,0,0,.5-1.151l3.885-5.181c-.216.288-.144.576.072.216l.144-.432h.072c.144-.216.288-.576,0-.36,3.31-4.6,7.2-8.634,10.793-12.88.935-.935,2.087-2.374,3.022-3.526,3.022-2.95,5.828-5.612,8.634-8.85a3.51,3.51,0,0,1-1.079,2.231" transform="translate(-6.169 -6.283)" fill="#dc4e3e"/>
    <path id="Path_8690" data-name="Path 8690" d="M22,259.749c.144-.144.216-.648.36-.216s-.216.288-.36.216" transform="translate(-6.17 -72.744)" fill="#dc4e3e"/>
    <path id="Path_8691" data-name="Path 8691" d="M24.3,241.716l.072-.216a.825.825,0,0,1,0,.432c-.072.144-.072-.144-.072-.216" transform="translate(-6.815 -67.734)" fill="#dc4e3e"/>
    <path id="Path_8692" data-name="Path 8692" d="M24.7,237.1a3.166,3.166,0,0,1,.144,1.223Z" transform="translate(-6.928 -66.5)" fill="#dc4e3e"/>
    <path id="Path_8693" data-name="Path 8693" d="M25.7,232.831c.144-.288.144-.216.144.144s-.072-.072-.144-.144" transform="translate(-7.208 -65.253)" fill="#dc4e3e"/>
    <path id="Path_8694" data-name="Path 8694" d="M25.4,232.4a1.007,1.007,0,0,1,.144-.5c-.072,0,0,.576-.144.5" transform="translate(-7.124 -65.042)" fill="#dc4e3e"/>
    <path id="Path_8695" data-name="Path 8695" d="M26.8,223.042a1.069,1.069,0,0,1,.144-.648c.144-.144,0,.791-.144.648" transform="translate(-7.517 -62.371)" fill="#dc4e3e"/>
    <path id="Path_8696" data-name="Path 8696" d="M27.2,218.765a.648.648,0,0,0,0-.288c.072-.144.144,0,.144.216Z" transform="translate(-7.629 -61.261)" fill="#dc4e3e"/>
    <path id="Path_8697" data-name="Path 8697" d="M47.544,142.4l-.072.36-.072-.072Z" transform="translate(-13.294 -39.939)" fill="#dc4e3e"/>
    <path id="Path_8698" data-name="Path 8698" d="M62.6,110.893c.072-.36.216-.144.216-.216s-.072-.144-.216.216" transform="translate(-17.558 -31.025)" fill="#dc4e3e"/>
    <path id="Path_8699" data-name="Path 8699" d="M71.316,94.272l-.072.072L71.1,94.2Z" transform="translate(-19.942 -26.42)" fill="#dc4e3e"/>
  </g>
</svg>
