<svg xmlns="http://www.w3.org/2000/svg" xmlns:xlink="http://www.w3.org/1999/xlink" width="236.678" height="122.654" viewBox="0 0 236.678 122.654">
  <defs>
    <clipPath id="clip-path">
      <rect id="Rectangle_232" data-name="Rectangle 232" width="226.7" height="95.74" fill="none"/>
    </clipPath>
  </defs>
  <g id="bril" transform="translate(0 27.628) rotate(-7)" clip-path="url(#clip-path)">
    <path id="Path_8352" data-name="Path 8352" d="M11.4,44.5c.4-.4-.4,0,.2-.3a.3.3,0,0,1-.2.3" fill="#f7b93d"/>
    <path id="Path_8353" data-name="Path 8353" d="M13.2,43a3.4,3.4,0,0,1,1.2-1.1l1.5-.8L19.1,40c.2-.1,0,.4.6.2a5.1,5.1,0,0,1,1.7-.6l2-.2a15.1,15.1,0,0,1,4.1.5h-.2c.5.1,1.1-.2,1.6-.1s-.2.1-.1.2a2.633,2.633,0,0,0,1.2-.1c.3-.1.1.3.4.4l.3-.2c.9-.5,1.9.4,3.1.4s-.2.1-.1.1A22.1,22.1,0,0,1,39.5,42c-.1.1-.2.2-.2.3s.8-.1,1.3.1.9.1,1.5.5H42c.5-.1.6.4,1.1.3l.2.3c.4-.3.5.5.9.5h0c.4.1.4.3.8.5h0c.7.3,1,.7,1.2.5s-.7-.3-.5.2A18.2,18.2,0,0,1,51.9,50c.1.3.2.5.1.6a7.1,7.1,0,0,0,.9.8c-.1-.1,0,.2,0,.4s.6.2.8.7-.3-.1-.4,0,.7.8,1,1.2H54c.5.4.4,1,.8,1.3h-.3c.1.8.5,0,.6.8s-.2-.1-.2,0A6.2,6.2,0,0,1,56,57.9h0l.3,1.1a6.1,6.1,0,0,0,.3,1.1c0,.3-.5,0-.2.7s.3,1.2.7.7v1.1a3.3,3.3,0,0,0,.1,1c-.2-.3-.4.3-.5-.2l-.2.4c-.2-.1,0-.4-.2-.3a4.8,4.8,0,0,1,.1,1.3,3.7,3.7,0,0,1,.6,1.8c-.1-.4-.4.2-.5-.1l.6,1.2c0,.3-.3,0-.2.4s.1.2.2.3-.1,1.1-.5,1.2,0-.4-.2-.2a8.7,8.7,0,0,1-.1,1h0c-.1.3-.1,1,.2.7s-.2,0,0-.3a2.1,2.1,0,0,1-.1,1.4c0-.2-.1-.2-.2-.3a7.1,7.1,0,0,1-.2,2.2c.2.1-.2-.4-.1-.4a4.669,4.669,0,0,1-1.2,2.6c-.8.6.3,0,.2,0s-.4.3-.5.6a2.117,2.117,0,0,1-.3.7c-.2.3-.1,0,0-.2a8.1,8.1,0,0,1-.5,1.3A6.2,6.2,0,0,1,52.5,80c.1,0-.1.7-.3.9v-.2c-.2.1-.5.6-.7.5s1-1.6.8-1-.3,1-.5.7-.4.9-.9,1.1,0-.5-.2-.2-.1.2-.4.7l-.2.3c.1.2-.4.4-.1.4s-.7.7-.9.4v-.3a1.077,1.077,0,0,0-.2.8h-.2c.3.4-.5.4-.6.9s-1.3.9-1.7.8a3,3,0,0,1-1.1.9c.1-.1.2-.2.2-.3s-.4.2-.6.4H43.8c-.4.3-.1.5-.1.6a2.356,2.356,0,0,1-1.8.6c-.7-.2.5-.5.2-.4s-.7.6-1.4.6l.3.3c-.4-.1-.9.5-.9.1s-.8.1-.6.4-2.7.8-3.4.2-.5.1-.4.2.3-.2.5-.1a.2.2,0,0,0-.2.2c-.4,0-.6,0-.3-.4s-.7.7-1.7.6,0-.2-.3-.2l-.5.3c-.6,0-.4-.3-.4-.6s-.7,0-.9.2l-.4-.3c.3.2-.3.1-.4.2h.2c-.1-.1-.4,0-.6,0s.4.2.7.3l-.7.2c.1-.2-.5-.2-.8-.2a.433.433,0,0,0-.4.2s-.5-.1-.2-.2.2.1.4,0-.2-.3-.6-.2.1.5-.5.3l.3-.2-.5-.2v.2h-.1c-.2.2-.8,0-1,.3l-.8-.3h.1a1.4,1.4,0,0,0-1.1,0H24c-.4-.2,0-.9-.6-.6s-.8.3-.6.5-1.8-.1-2.5-.6-.1.1-.3.1-2.6-.4-3.4-1.2.1-.2.1-.3a.275.275,0,0,0-.5,0c-.2.3-.1.3.2.5a4.8,4.8,0,0,1-2.1-1c.1.2,0,.2-.2.1s-.3-.6-.7-.6h-.1l-.2-.3c-.2,0-.4.3-.6-.1a.4.4,0,0,0,0-.2c-.4-.1-1.1-.1-1.4-.6l-.2-.5c-.2-.1-.6-.1-.3.1s-1-1-1-1.3-3-1.9-4-3.2h.1c-.1-.4-.3,0-.4-.3s.1-.5.4-.3-.7-.5-1-.8.3.2,0,.3-.4-.8-.7-.7.3-.2.4-.2L4.1,78c0-.3.3-.1.6,0s.6.2.6-.1l-.2.1c.1-.4.8.6.4-.2s-.8-.3-.8,0-.8,0-1.2-.7.4.6.5.3-.5-.6-.6-1-.3.2-.5,0,.4.1.1-.4-.5-.5-.4,0-.2-.6-.6-.8.8.3.7-.3-.6-.6-.9-.2.1-.4.4-.2-.8-.7-.3-1H1.7v-.6c-.1-.3-.7-.9-.3-1s-.2-.8-.4-.5.3.5.1.8-.2-.6-.4-.9H.9c-.1-.1-.1-.5-.3-.6s.2,0,.2-.1H.6c-.2-.6.4-.2.2-.9L1,70c-.1-.1.1-.4,0-.6L.3,69c-.1-.4.2-.2,0-.5l.3.4c.1.1.3-.4.3-.8s-.5-.7-.5-.2.1-.6.2-.4-.2.1-.4-.4.2-.8.5-1.2l.4.5A3.1,3.1,0,0,1,1,66c.3.4.2-.2.5,0a1.3,1.3,0,0,0-.1-.7c-.5.7-.7-.7-1.1-.5s1-.6.4-1.5-.4-.3-.3.3S0,63.2.2,62.5s.5-.5.7.2-.1.4-.1.5.4.1.5-.5,0-.8-.2-.8,0,.5-.2.3.4-.8-.1-1.1-.3.5-.4.5v-.5H.2c.2-.8-.3-.3-.1-1.1l.4-.3c.3.2-.3,1.1.2,1s-.1-.7.1-1.2,0,.3,0,.4.7-.3.4-1-.1-.1-.3-.2,0-1.1.1-1.6.3-.9.5-.3-.6,1.4-.2,1.7-.2.6.2.9.5-.5.8-.6a1,1,0,0,0-.1-.5c-.2-.1-.3.1-.5.1a3.5,3.5,0,0,0,.1-1.8c.2-.2.4-.1.3.2a8.7,8.7,0,0,1,.8-2.5c-.5.4.2-.9-.2-.7s-.6.7-.7.4.2.1.3,0a.777.777,0,0,0,.3-.9c-.2-.5.4.3.6.6s.2.1.4-.4A10.1,10.1,0,0,1,4,51.6a10.9,10.9,0,0,0,1.3-2.4c.3-.2.5.2.7-.1s-.5.1,0-.4H6c.1-.2.9-.9.6-1.3l.2.4a.367.367,0,0,0,.1-.3c0-.1.3,0,.2.2a.8.8,0,0,0,.4-.5l.4-.6H7.7c.4-.7.9-.9,1.4-1.6v.2l.2-.4c.1.2.5.1.5-.2a10.3,10.3,0,0,0-.5,1.2c-.3.1,0-.4-.2-.5s-.7.6-.6.8.2-.2.3-.4,0,.4,0,.7.3-.2.2-.3a1.9,1.9,0,0,1-.5.8c.1-.3-.3,0-.2-.1s-.1.5-.4,1A4.2,4.2,0,0,1,7,49.2a2,2,0,0,1,.1-1.1c-.4.2-.3.4-.6.6a1.7,1.7,0,0,1,.1,1.1H6.4c-.2.5.1.6-.2,1.1a14.1,14.1,0,0,0-1.4,2.5H4.6c.2.6-.4,1.4-.4,2a4.474,4.474,0,0,1-.9,2.5c-.5.4-.3,3.3-.5,5.1l-.3-.3c.2.3-.2.2-.2.5s.3.5.5.7a4.5,4.5,0,0,0,.3,2.5H3c.5.7.2,1.6.3,2.5a.7.7,0,0,0-.1.6A4.6,4.6,0,0,1,4,70.8a9.5,9.5,0,0,1,.3,1.9L5,74.1l.6,1.3a11.1,11.1,0,0,0,1.6,2.5v.3c1.5,1.3,2.8,3.3,4.3,4.1l-.4.2c.3.4,1,.6,1.1.3s1.2.5,1.3,1,.6.2,1.1.3a6.4,6.4,0,0,0,2.1.9h-.2c-.1,0-.2.2,0,.3s1.3.6,1.1,0,2.4.5,3.4,1.1.2-.1.3-.2a8.5,8.5,0,0,0,2.7.5c.1.1-.3.2.1.3s0-.2.3-.2,3.2.6,4.6.6a55.9,55.9,0,0,0,7.4-.5h0c.7-.5,1.9,0,2.4-.7s.7-.1.6.1,1.8-.3,2.5-1h-.2c.9-.1,1.5-.8,2.4-1.1s-.2.2-.2.3.5-.8,1-.5,0-.3-.1-.2a14.9,14.9,0,0,0,4.7-4.4c1.2-1,.7.4,1.2-.8s-.1-.2,0-.1.9-.3.9-.7,0-.3-.1-.4,1-.8,1.2-1.5h.1c0-1,.7-1.8.5-2.7A22.8,22.8,0,0,0,54,59.5a17.2,17.2,0,0,0-2.7-6.1,22.1,22.1,0,0,0-2.1-2.6l-2.6-2.4a3.2,3.2,0,0,0-1.9-1.5c.1,0,.1,0,.1-.1s-.8-.4-1-.2a35.9,35.9,0,0,0-4.9-2.3c.3.1.5-.1.2-.2h-.4c-.2,0-.5,0-.4.2-2.2-.7-4.4-1.5-6.6-2.1a23.7,23.7,0,0,0-6.7-.9,12,12,0,0,0-3.7.4,13.7,13.7,0,0,0-9.2,3.4,2.3,2.3,0,0,1,1-1.9" fill="#f7b93d"/>
    <path id="Path_8354" data-name="Path 8354" d="M10.8,45c-.2,0-.6.2-.5-.2s.4.1.5.2" fill="#f7b93d"/>
    <path id="Path_8355" data-name="Path 8355" d="M2.9,53.3l-.2.2a.6.6,0,0,1,.1-.4c.1-.1,0,.1.1.2" fill="#f7b93d"/>
    <path id="Path_8356" data-name="Path 8356" d="M1.9,56.2A1.48,1.48,0,0,1,2,55.1a9.8,9.8,0,0,0-.1,1.1" fill="#f7b93d"/>
    <path id="Path_8357" data-name="Path 8357" d="M.7,58.8c-.2.2-.2.1-.2-.2s.1.1.2.2" fill="#f7b93d"/>
    <path id="Path_8358" data-name="Path 8358" d="M.9,59.1a.7.7,0,0,1-.2.4c.1,0,0-.6.2-.4" fill="#f7b93d"/>
    <path id="Path_8359" data-name="Path 8359" d="M.1,65.2c0,.2.1.5,0,.6s-.2-.7,0-.6" fill="#f7b93d"/>
    <path id="Path_8360" data-name="Path 8360" d="M.5,68.1a.4.4,0,0,0,0,.2c0,.2-.2,0-.2-.1Z" fill="#f7b93d"/>
    <path id="Path_8361" data-name="Path 8361" d="M41.4,88.4l-.3.2v-.2Z" fill="#f7b93d"/>
    <path id="Path_8362" data-name="Path 8362" d="M56.5,72.5c0-.3.2-.2.2-.2s-.1-.1-.2.2" fill="#f7b93d"/>
    <path id="Path_8363" data-name="Path 8363" d="M56.8,60.5h0l-.3.1Z" fill="#f7b93d"/>
    <path id="Path_8364" data-name="Path 8364" d="M104.9,46.1c.5-.3-.4-.1.3-.3a.3.3,0,0,1-.3.3" fill="#f7b93d"/>
    <path id="Path_8365" data-name="Path 8365" d="M107,45a3.4,3.4,0,0,1,1.4-.8l1.6-.4,3.4-.5c.3,0-.1.4.5.3a5.1,5.1,0,0,1,1.8-.2l2,.2a15.1,15.1,0,0,1,3.9,1.4h-.2c.4.2,1.1,0,1.6.2s-.2.1-.1.2a2.251,2.251,0,0,0,1.2.1c.3-.1.1.3.3.5h.4c1-.3,1.8.8,2.9,1s-.2,0-.1.1a22.1,22.1,0,0,1,5.4,2.6c-.1,0-.3.1-.2.3s.8.1,1.3.4.9.3,1.3.8h-.1c.6,0,.4.6,1,.5V52c.4-.2.4.6.8.7h0c.3.2.4.4.7.6h0c.7.4.8.9,1,.7s-.6-.4-.6.1a18.2,18.2,0,0,1,5.1,6c0,.3.1.5,0,.6a7,7,0,0,0,.7,1c0-.1-.1.2,0,.4s.5.3.6.9-.3-.2-.4-.1a4.3,4.3,0,0,1,.8,1.4h-.2c.5.5.2,1,.5,1.5h-.2c0,.8.5.1.4.9s-.1-.1-.2-.1a6.2,6.2,0,0,1,.7,2.3h-.1c0,.4.1.7.1,1.1a6.2,6.2,0,0,0,.1,1.2c-.1.3-.4-.1-.4.6s0,1.3.5.9l-.2,1.1a3.3,3.3,0,0,0-.1,1c-.1-.3-.5.2-.4-.3l-.3.4c-.1-.1.1-.4-.1-.3a4.8,4.8,0,0,1-.1,1.3,3.7,3.7,0,0,1,.2,1.9c0-.4-.5.1-.4-.2l.3,1.3c-.1.3-.3,0-.3.4s.1.2.1.3-.3,1.1-.7,1,.1-.4-.1-.2a8.8,8.8,0,0,1-.3,1h0c-.2.3-.3.9,0,.7s-.2,0,0-.3a2.1,2.1,0,0,1-.4,1.3c0-.2-.1-.2-.1-.3a7.1,7.1,0,0,1-.7,2.1c.1.1-.1-.4,0-.4a5.428,5.428,0,0,1-1.7,2.3c-.8.4.2.1.2.1s-.5.2-.6.5-.2.3-.4.6-.1,0,.1-.2l-.8,1.2a6.2,6.2,0,0,1-1.4,1.2c.1.1-.2.7-.4.8v-.2c-.3,0-.6.5-.8.4s1.4-1.4,1-.8-.5.9-.6.5-.6.8-1.1.9.1-.5-.2-.2-.1.2-.5.6l-.2.3c.1.2-.5.3-.2.4s-.8.6-.9.2V92a2.506,2.506,0,0,0-.4.7h-.1c.2.4-.6.3-.8.7a1.96,1.96,0,0,1-1.8.5,3,3,0,0,1-1.3.7c.1-.1.2-.1.2-.2s-.4.1-.7.3h-1.1c-.4.2-.2.4-.2.6s-1.2.5-1.8.2.6-.3.2-.4-.8.4-1.5.3l.2.3c-.3-.2-1,.3-1-.1s-.8-.1-.7.3-2.8.2-3.4-.5-.6,0-.5.1.4-.1.5,0a.2.2,0,0,0-.2.1c-.3-.1-.6-.2-.3-.4s-.9.5-1.8.3,0-.2-.3-.2l-.6.2c-.6-.2-.3-.4-.3-.6s-.7-.1-.9,0l-.3-.4c.2.3-.3.1-.5.1h.2c0-.1-.4-.1-.6-.2s.4.3.6.4h-.7c.1-.2-.5-.3-.7-.4s-.4.1-.5.1-.5-.2-.2-.3.2.2.4.1-.1-.3-.5-.3-.1.5-.6.2l.4-.2-.5-.3v.2c-.1-.1,0-.1,0-.1s-.8-.2-1,0l-.8-.4h.1a1.4,1.4,0,0,0-1-.2h-.8c-.4-.3.1-.8-.4-.8s-.8.1-.7.3a4.462,4.462,0,0,1-2.3-1.1h-.4c-1.1-.6-2.5-1-3.1-1.9s.1-.2.2-.3-.2-.4-.5-.1-.2.3.1.5a4.8,4.8,0,0,1-1.8-1.4c.1.2-.1.2-.2.1s-.2-.6-.6-.8h-.2v-.3c-.2-.1-.4.2-.6-.2a.4.4,0,0,0,0-.2c-.4-.2-1.1-.4-1.3-.9v-.5c-.2-.1-.5-.3-.3.1a5.071,5.071,0,0,1-.7-1.5c0-.4-2.5-2.5-3.2-3.9h.2c0-.5-.3-.1-.3-.4s.1-.4.4-.2-.5-.6-.8-1,.2.3,0,.3-.2-.9-.5-.9.3-.1.4-.1l-.2-.3c.1-.3.3-.1.5.1s.5.4.6.1l-.2-.3c.2-.4.6.7.4-.1s-.7-.5-.8-.1-.8-.1-1-1,.2.6.4.4-.4-.7-.4-1.1-.4.2-.5-.1.3.2.2-.4-.4-.6-.4-.1,0-.7-.4-.9.7.5.7-.2-.5-.8-.8-.3.2-.3.4-.2-.6-.9-.1-1H90l.3-.5c0-.3-.4-1,0-1s-.1-.9-.3-.6.2.5-.1.8-.1-.7-.2-1h.2c-.1-.2,0-.5-.2-.6s.2.1.2-.1l-.2-.2c-.1-.7.4-.2.4-.8l.2.5c0-.1.2-.3.1-.6l-.6-.5c-.1-.4.3-.1.1-.5l.2.5c.1.1.4-.3.4-.8s-.3-.8-.5-.3.2-.6.3-.4-.2,0-.3-.4.4-.8.7-1.1l.3.5V65c.2.5.3-.2.5.1a1.3,1.3,0,0,0,0-.7c-.6.5-.5-.8-1-.7s1.1-.3.7-1.4-.4-.4-.4.2-.3-.5,0-1.1.6-.4.6.4-.2.3-.2.5.4.2.6-.4.2-.8-.1-.8-.1.5-.3.2.5-.7.2-1.1-.4.5-.5.4v-.5h.1c.4-.8-.2-.3.1-1.1l.4-.2c.2.3-.5,1,0,1.1s0-.7.3-1.1,0,.3,0,.4.7-.1.6-.9-.1-.2-.3-.2.2-1.1.4-1.6.4-.8.5-.2-.8,1.2-.6,1.6-.3.6,0,.9.6-.4.9-.4a1.1,1.1,0,0,0,0-.5c-.2-.2-.3,0-.5,0a3.5,3.5,0,0,0,.5-1.8c.2-.2.4,0,.3.3a8.6,8.6,0,0,1,1.3-2.2c-.6.2.4-.8-.1-.7s-.7.5-.8.2.1.1.3,0a.714.714,0,0,0,.5-.8c-.1-.5.3.4.5.7s.2.1.5-.3a10,10,0,0,1,.8-1.7,10.9,10.9,0,0,0,1.8-2c.4-.2.4.3.8,0s-.5,0,.1-.4h0c.1-.2,1.1-.7.9-1.2v.4c.1-.1.1-.2.2-.3s.3.1.2.3a.8.8,0,0,0,.5-.4l.5-.5h-.4c.5-.6,1.1-.7,1.7-1.2v.2l.3-.3c0,.2.4.2.6-.1l-.7,1c-.3.1.1-.4-.1-.5s-.8.4-.7.6.2-.2.3-.4-.1.4-.1.7.3-.1.3-.2a1.9,1.9,0,0,1-.7.7c.2-.3-.2-.1-.2-.2s-.2.5-.6.8-.6.8-1.2,1.2a2.1,2.1,0,0,1,.3-1.1l-.7.5a1.7,1.7,0,0,1-.2,1.1h-.2c-.2.4,0,.6-.5,1a14.1,14.1,0,0,0-1.9,2.2h-.2c.1.6-.7,1.3-.8,1.9a4.949,4.949,0,0,1-1.4,2.3c-.5.3-1,3.2-1.5,4.9l-.2-.4c.1.4-.2.2-.3.5s.2.5.3.8a4.5,4.5,0,0,0-.2,2.6h-.2c.3.8-.2,1.6-.2,2.5a.7.7,0,0,0-.3.5,4.6,4.6,0,0,1,.5,1.5,9.6,9.6,0,0,1-.1,1.9,7.838,7.838,0,0,0,.5,1.4c.2.5.2,1,.4,1.4A11,11,0,0,0,94.5,78l-.2.2c1.1,1.6,2,3.8,3.3,4.9h-.4c.2.5.9.8,1,.5s1,.8,1.1,1.2.6.3,1,.5a6.4,6.4,0,0,0,1.9,1.5l-.2-.2c-.1,0-.2.1-.1.3s1.1.8,1.1.2,2.3,1,3.1,1.8.2-.1.4-.1a8.5,8.5,0,0,0,2.5,1.1c.1.1-.3.1.1.3s.1-.2.4-.1a42.139,42.139,0,0,0,4.4,1.5,55.9,55.9,0,0,0,7.4,1h0c.8-.3,1.9.4,2.5-.2s.7,0,.6.2,1.8.1,2.6-.5h-.2c.9.1,1.6-.5,2.6-.5l-.2.3c.4.1.7-.7,1.1-.3s.1-.3-.1-.2a14.9,14.9,0,0,0,5.6-3.3c1.4-.8.6.6,1.3-.5s-.1-.2,0-.1.9-.1,1-.5.1-.3-.1-.4,1.1-.5,1.5-1.3h.1c.2-1,1.1-1.6,1.1-2.6a22.8,22.8,0,0,0,3.7-13.4,17.2,17.2,0,0,0-1.4-6.6,22.1,22.1,0,0,0-1.5-3,32.7,32.7,0,0,0-2-2.8A3.2,3.2,0,0,0,138,55c.1,0,.1,0,.1-.1s-.7-.6-1-.4a35.9,35.9,0,0,0-4.3-3.2c.3.1.5,0,.2-.2h-.4c-.2-.1-.5-.1-.4.1-2-1.2-4-2.4-6-3.4a23.7,23.7,0,0,0-6.4-2.3,12,12,0,0,0-3.7-.4,13.7,13.7,0,0,0-9.7,1.4s0-.9,1.4-1.7" fill="#f7b93d"/>
    <path id="Path_8366" data-name="Path 8366" d="M104.3,46.5c-.2-.1-.6,0-.4-.3s.4.2.4.3" fill="#f7b93d"/>
    <path id="Path_8367" data-name="Path 8367" d="M94.8,53h-.2c.1-.1,0-.3.2-.4s0,.2,0,.2" fill="#f7b93d"/>
    <path id="Path_8368" data-name="Path 8368" d="M93.2,55.6c-.1-.1.1-.7.3-1.1a9.9,9.9,0,0,0-.3,1.1" fill="#f7b93d"/>
    <path id="Path_8369" data-name="Path 8369" d="M91.4,57.9c-.2.2-.2.1-.1-.2s.1.1.1.2" fill="#f7b93d"/>
    <path id="Path_8370" data-name="Path 8370" d="M91.6,58.2a.7.7,0,0,1-.3.4c.1,0,.1-.5.3-.4" fill="#f7b93d"/>
    <path id="Path_8371" data-name="Path 8371" d="M89.5,64.1c0,.2,0,.5-.1.6s0-.8.1-.6" fill="#f7b93d"/>
    <path id="Path_8372" data-name="Path 8372" d="M89.3,67a.4.4,0,0,0,0,.2c-.1.2-.2,0-.2-.2Z" fill="#f7b93d"/>
    <path id="Path_8373" data-name="Path 8373" d="M125,95.4l-.3.1v-.2Z" fill="#f7b93d"/>
    <path id="Path_8374" data-name="Path 8374" d="M143.2,83c.1-.3.2-.1.3-.1s-.1-.2-.3.1" fill="#f7b93d"/>
    <path id="Path_8375" data-name="Path 8375" d="M145.9,71.3v.1l-.3-.1Z" fill="#f7b93d"/>
    <path id="Path_8376" data-name="Path 8376" d="M54.4,56c-.1.1.2.2-.1.1s0-.2.1-.1" fill="#f7b93d"/>
    <path id="Path_8377" data-name="Path 8377" d="M95,56.2c-.7.5-1.1-.4-1.8-.1s.2-.4,0-.3a2.491,2.491,0,0,1-1.8-.8h.1c-.1-.1-.4.2-.5.1s.1-.1.1-.2-.3,0-.4.2,0-.3,0-.4v.2c-.4.6-.5-.2-.8.1v-.2c-.5.3-1.1,0-1.6,0a1,1,0,0,0,.1-.4.4.4,0,0,1-.4.3c0-.3-.3.2-.4,0h0c-.2.3-.1-.2-.3.1v-.2c-.1.4-.1-.2-.3-.1h0c-.1.1-.1-.1-.2-.1h0c-.2.1-.3-.2-.3.1s.2-.1.2-.5a4.5,4.5,0,0,1-2-.1.7.7,0,0,1-.1-.3c-.1.1-.3,0-.3.2v-.2s-.2.3-.3.2a.5.5,0,0,0,.1-.3c-.2.2-.3.2-.4.2v-.2c-.2.3-.3-.1-.4.1v-.2c-.2-.3-.1.4-.3.2v-.2a.552.552,0,0,1-.6.2h0c-.2,0-.4-.1-.6,0s.1-.4-.1-.4-.3.1-.3.5-.4-.2-.5-.1,0-.5.1-.5v-.2c0-.1.1.1.1-.1h-.3a1.794,1.794,0,0,1-.5.7c-.2.1,0-.4.1-.5l-.4.7c-.1,0,0-.3-.1-.2v.2s-.3.1-.3-.3.1-.1.1-.2h-.3c-.1-.1-.3.1-.2.3s0-.2.1-.1a.3.3,0,0,1-.3.3.7.7,0,0,0,.1-.3,1.3,1.3,0,0,1-.6.5c0,.2.1-.3.1-.2a.428.428,0,0,1-.7-.1c-.2-.4,0,.2,0,.2s-.1-.3-.2-.2-.1,0-.2.1h.1a.72.72,0,0,1-.8.1l-.2.3v-.2c0-.1-.2,0-.2-.2s.5-.2.3,0-.2.4-.2,0-.2.3-.3,0,.1-.3,0-.3,0,.1-.2.2h-.1c0,.2-.1,0-.1.2s-.2.1-.2-.3v-.3c-.1,0-.1.3-.2.4h0c0,.4-.2,0-.2.3s-.4,0-.4-.3-.2.3-.3.2v-.2c-.1-.1-.1,0-.2.1l-.3-.4c-.1.1-.1.4-.1.5s-.3.3-.4-.1.2-.2.1-.3-.2.3-.4.1V54c-.1-.2-.2.2-.2-.2s-.2-.1-.2.2-.6.2-.8-.4-.1,0-.1.2.1-.1.1,0V54c0,.1-.2-.1-.1-.4s-.2.6-.4.5,0-.2-.1-.2v.3c-.2-.1-.1-.3-.1-.6s-.2,0-.2.2v-.3c.1.2-.1.2-.1.2h0c0-.1-.1,0-.2,0a.3.3,0,0,0,.2.2v.2c0-.2-.1-.2-.2-.2s-.1.2-.1.2-.1,0-.1-.2.1.1.1,0-.1-.3-.2-.1.1.5-.1.3v-.3h-.1V54h0c0,.2-.2.1-.2.4l-.2-.2h0c-.1-.1-.2,0-.2.1h0l-.2.2c-.1-.2-.1-.8-.2-.5a1.486,1.486,0,0,0-.1.6c0,.2-.4.3-.6-.1s0,.1,0,.2a.64.64,0,0,1-.9-.1c-.3-.4,0-.2,0-.3s-.1-.2-.1.1,0,.3.1.4a.4.4,0,0,1-.5,0,.2.2,0,0,1,0,.2c0-.3-.2-.3-.2-.2h0c0,.1,0,.4-.1.2v-.2c-.1.2-.2.5-.3.3v-.3s-.1.2,0,.3-.3-.1-.4-.4a1.1,1.1,0,0,1-1,.8h0c-.1-.1,0,.3-.1.2a.749.749,0,0,1-.1-.5c0-.2-.1.3-.2.4s0-.1.1.1-.2-.1-.2.2a1.2,1.2,0,0,1-.1-.4v.2c-.2-.3.1-.6-.1-1h-.1c-.1-.3.1-.4-.1-.4a1,1,0,0,0,.1.7c-.2.1.1.7-.1.7s.1-.1.1-.3-.2.2-.3.1.1.4.1.5,0-.3-.1-.3-.1.3,0,.4-.2-.1-.2.2,0-.6-.2-.7-.1.4.1.7a.6.6,0,0,1-.1-.4c-.1-.1-.1.5-.2,0v.3l-.2-.3c-.1,0-.2.4-.2,0s-.2.1-.1.3.1-.2.2.1-.1.1-.2.2h0c0,.1-.1.1-.1.2a.3.3,0,0,0-.1-.2v.2c-.1.1-.1-.4-.3-.3v-.2s-.1-.2-.2-.1v.6c-.1.1-.1-.2-.1,0v-.3a.451.451,0,0,0-.3-.3c-.1,0-.1.4.1.5s-.2-.1-.2-.3.1.2,0,.4l-.4-.5v-.4h-.1c0-.3-.1-.2-.1-.5s-.1.1-.1.2a2.8,2.8,0,0,0,.2,1.1c.2.4-.4-1-.4-.3s.1.5.1.3,0,.4-.2.3-.2-.4-.2-.7.1.1.1,0-.1-.4-.2-.4-.2.1-.1.3.1-.1.1.2-.3-.2-.2.2.2.2.2.3h-.1v-.2c-.2-.1,0,.3-.2.3l-.2-.3c0-.3.3,0,.1-.4s-.1.3-.2.2H60s-.3-.6-.3-.2,0,.2.1.3-.2.3-.3.4-.2,0-.2-.3.4.1.4-.3.2,0,.1-.4-.3-.3-.4-.6-.1.1-.1.2a4,4,0,0,0,.2.5c-.2,0-.3.2-.3.4s-.1-.3-.1-.4l-.6.2c.2.3-.2.2,0,.4a.6.6,0,0,1,.3.5c-.1,0-.1-.2-.1-.2s-.2-.3-.2.1-.1-.5-.2-.8-.1-.2-.2-.2l-.3.5c-.3-.2-.5.2-.6.2s-.2-.5-.3-.5.2.3,0,.2h0c0,.1-.4-.1-.2.4v-.3a1.007,1.007,0,0,1-.1-.3c0-.1-.2.1-.3.2v.2c-.1.2-.3.1-.5.2h0c-.1-.2-.2-.3-.2-.1v-.6c.1.1,0,.3.1.5s.2,0,.2-.2-.1,0-.1.1a1.75,1.75,0,0,0-.1-.5c-.1-.2-.1,0-.1,0a.2.2,0,0,1,.2-.3c0,.1.1.2.1.3s0-.4.2-.4.2-.3.4-.3a1.5,1.5,0,0,1,0,.7h.2a1.4,1.4,0,0,1,0-.7v.2c.1-.1,0-.4.2-.4h.8v.2c0-.4.3-.3.4-.5s.5-.4.7-.1a2.7,2.7,0,0,1,1.2-.6v.3c0-.2.1.1.2.1s0-.3,0-.5.5-.1.6-.4v.2c.1-.4.4-.1.6-.1s.1.3.2.2.1-.3.3-.6H62c.4-.6,1-.4,1.5-.8v.2c.4-.6,1.1-.3,1.6-.6v.4c.2.1.3-.2.2-.4s.3-.3.5.1.1-.2.3-.3a.7.7,0,0,0,.7-.1h-.1c0,.1,0,.3.1.3s.4.1.2-.4.7-.3,1,0,0-.2,0-.3.6.2.7,0,0,.2.1.2,0-.2.1-.3.9.2,1.2.1a5.8,5.8,0,0,1,2-.3h0c.2-.4.5.4.7-.2s.2,0,.2.2.5.2.7-.1h-.1c.3.2.5-.1.7.1v.2c.1.2.2-.4.3.1s0-.2,0-.2a4,4,0,0,0,1.8-.2c.4.3,0,.8.4.5s0-.2,0-.1.2.5.3.3.1-.2.1-.3.3.5.5.3v.2c.3-.4.5-.2.8-.6s2.7-.1,4,0a20.6,20.6,0,0,1,3.9.8c.2.5.2.5.6.4h0c.1-.3.2,0,.3-.3l1.4.3c-.1,0-.2.3-.1.3v-.2h0a.3.3,0,0,0,.1-.3c1.3,0,2.3,1,3.5,1.3a1.9,1.9,0,0,0,1,.3,4,4,0,0,0,2.4,1.4s-.4.7-.9.8" fill="#f7b93d"/>
    <path id="Path_8378" data-name="Path 8378" d="M54.6,55.9a.52.52,0,0,1,.2.4l-.2-.4" fill="#f7b93d"/>
    <path id="Path_8379" data-name="Path 8379" d="M57.8,56.6h.1s0,.2-.1.1,0-.1,0-.2" fill="#f7b93d"/>
    <path id="Path_8380" data-name="Path 8380" d="M58.5,56.4a.4.4,0,0,1-.2.3Z" fill="#f7b93d"/>
    <path id="Path_8381" data-name="Path 8381" d="M59.3,56.8c.1.1.1.2,0,.2a.5.5,0,0,1,0-.2" fill="#f7b93d"/>
    <path id="Path_8382" data-name="Path 8382" d="M59.3,56.5h.2c0-.1-.1.1-.2-.1" fill="#f7b93d"/>
    <path id="Path_8383" data-name="Path 8383" d="M60.8,56.5s.1-.2.1,0-.1.2-.1,0" fill="#f7b93d"/>
    <path id="Path_8384" data-name="Path 8384" d="M61.4,56.1h.1a.2.2,0,0,1,0,.2Z" fill="#f7b93d"/>
    <path id="Path_8385" data-name="Path 8385" d="M73.4,53.9h-.1v-.1Z" fill="#f7b93d"/>
    <path id="Path_8386" data-name="Path 8386" d="M78.8,54c.1-.1,0,.1.1.2s0-.2-.1-.2" fill="#f7b93d"/>
    <path id="Path_8387" data-name="Path 8387" d="M81.7,53.6h0l.1-.3Z" fill="#f7b93d"/>
    <path id="Path_8388" data-name="Path 8388" d="M141.1,56.9c-.3.3.3.1-.1.2s0-.2.1-.2" fill="#f7b93d"/>
    <path id="Path_8389" data-name="Path 8389" d="M225.4,41.5c-1-1-.8-2.8-1.8-3.8s.4-.1.2-.4a34.775,34.775,0,0,1-2.3-4.5h.2c-.1-.3-.6-.4-.8-.7s.2,0,.2-.1a.932.932,0,0,0-.7-.4c-.3,0,.1-.3.1-.5h-.3c-.8,0-.8-1-1.5-1.2h.2l-1.6-1-1.6-1.1a.4.4,0,0,0,.2-.3c-.2.2-.6,0-.9-.1a1.8,1.8,0,0,1-.9-.4h.1c-.4.1-.3-.4-.7-.2v-.3c-.3.3-.3-.4-.6-.3h0c-.2,0-.3-.2-.5-.3h0c-.5-.1-.7-.4-.8-.1s.5.1.4-.4c-1.6-.3-3.1-1-4.7-1.3s-.3-.2-.3-.4-.6-.1-.8.1l-.2-.2c-.3-.2-.4.3-.7.1a.2.2,0,0,0,.2-.3,1.729,1.729,0,0,1-1,.1c-.3,0,.1-.1.1-.2s-.6-.1-1,0v-.2c-.5-.3-.2.4-.6.2s.1-.1.1-.2a6.356,6.356,0,0,0-1.5.3h0a5.7,5.7,0,0,0-1.4.1c-.2-.1.1-.5-.4-.4s-.8.2-.5.6a2.8,2.8,0,0,0-1.3,0c.2-.2-.2-.4.1-.5l-.3-.2c0-.2.3,0,.2-.2l-.8.2c-.3.2-.5.7-1,.8s-.2-.4,0-.5l-.6.8c-.2,0-.1-.3-.3-.2s-.1.2-.1.3-.7.2-.8-.2.3-.1.1-.2l-.6.2h0c-.2,0-.6.3-.3.4s-.1-.2.1-.1-.4.3-.7.4.1-.2.1-.3a3.9,3.9,0,0,1-1.2.7c0,.2.1-.3.2-.3s-1.1.6-1.6.4.1.2.1.2-.3-.2-.5,0-.2.1-.4.2-.1-.1.1-.1a3.7,3.7,0,0,1-1.7.8c0,.1-.2.5-.3.5v-.2c-.2-.1-.4.2-.5,0s.9-.7.7-.3-.4.6-.4.2-.4.5-.7.4.1-.4-.1-.3-.1.1-.3.4v.2c.1.2-.3.1-.1.3s-.5.4-.6,0v-.3c-.1.1-.1.4-.2.6h-.1c.2.4-.4.2-.4.6s-.8.4-1.1.3-.3.5-.6.6.1-.1.1-.2-.2.1-.3.3h-.7c-.2.3,0,.4.1.6s-.5.7-1,.5.2-.4,0-.4-.2.6-.7.6l.3.2c-.3-.1-.4.5-.6.2s-.5.2-.2.4-1.2,1.1-1.9.8-.3.2-.1.3.1-.2.2-.2,0,.1,0,.2-.4.1-.4-.2,0,.8-.6,1-.1-.2-.3,0v.4c-.3.2-.4-.1-.5-.3s-.4.3-.3.5h-.4c.3.1,0,.2-.1.3h0c-.1-.1-.2.1-.3.2s.3,0,.5,0-.2.2-.2.4-.4.1-.5.1,0,.3-.1.3-.3.2-.2-.1.2,0,.2-.1-.3-.2-.4.1.3.4-.1.5,0-.2,0-.3H174v.2h-.1c.1.3-.4.4-.3.6l-.5.2h0a.6.6,0,0,0-.5.5h0a.7.7,0,0,0-.3.4c-.3,0-.6-.6-.7-.2a.4.4,0,0,0,.1.6c-.5.2-.8.8-1.3.8s.1.1,0,.3a3.127,3.127,0,0,1-1.9,1.2c-.8,0-.1-.2-.2-.3s-.3,0-.1.3.2.2.4.2a2.1,2.1,0,0,1-1.2.8c.2,0,.1.1.1.2s-.5-.1-.6.1v.2h-.2c0,.1.2.4-.2.4h-.2c-.1.3-.2.7-.6.8h-.4c-.1.1-.1.4.1.3s-.8.3-1,.2a4.8,4.8,0,0,1-2.1,2.2h-.1c-.3,0,0,.3-.2.3s-.3-.1-.3-.4-.2.5-.4.7.1-.2.2,0-.5.2-.4.4-.2-.3-.2-.4v.2c-.4-.1.2-.9-.3-1v.2c-.3-.1.2-.6-.2-.4s0,.7.2.7.2.7-.2,1,.3-.3.1-.4-.3.4-.5.4.3.3.2.4,0-.3-.3-.1-.2.5.2.4-.4.1-.4.5-.1-.7-.5-.6-.2.6.2.8-.3-.1-.3-.3-.2.7-.5.3v.3h-.4c-.2.1-.3.7-.5.3s-.4.3-.1.4.1-.4.5-.1-.3.3-.4.4h-.1c0,.1-.2.2-.2.4a.141.141,0,0,0-.2-.2v.2c-.3.3-.3-.3-.6,0v-.3c0,.1-.3,0-.4.1l.2.7c-.1.2-.2-.1-.3.2v-.4c0-.1-.4-.2-.6,0s-.2.6.1.5-.4.1-.4-.1.2.2,0,.4h-.9v-.5h-.2c0-.4-.2-.1-.3-.4s-.2.2-.3.4a1.1,1.1,0,0,0,.4,1.1c.4.3-.9-.7-1,.2s.1.5.3.2.1.5-.4.6-.5-.2-.3-.6.3,0,.3-.1a.314.314,0,0,0-.5-.2c-.3.2-.4.3-.2.5s.2-.2.3.1-.6,0-.4.5.4,0,.5.1l-.2.3v-.2c-.5.2.1.3-.4.6h.1c-.1-.3.6-.3.3-.6s-.2.4-.5.5v-.2c-.1.1-.5-.4-.7.2s0,.2.1.3-.4.6-.6.8-.5.3-.4-.2.8-.4.8-.7.3-.2.2-.6-.5-.1-.7-.3-.1.2-.2.3.2.1.4.3a1.3,1.3,0,0,0-.7.9.224.224,0,0,1-.2-.4,5.8,5.8,0,0,1-1.3.9c.5.1-.4.4,0,.5s.6,0,.6.3-.1-.1-.2-.2a.256.256,0,0,0-.4.3c.1.4-.2-.5-.3-.8s-.1-.2-.4,0l-.7,1c-.6,0-1,.7-1.3,1s-.3-.4-.6-.3.4.2,0,.3h0c-.1.1-.8.3-.6.7v-.4c-.1,0-.1.1-.1.2s-.2-.1-.2-.3-.4.4-.6.5h.3c-.3.4-.7.4-1,.8v-.2l-.2.3a.206.206,0,0,0-.4.1l.3-.9c.2,0,0,.3.2.5s.5-.2.5-.4-.1.1-.2.3,0-.4,0-.6-.2.1-.2.1a.9.9,0,0,1,.4-.5c-.1.2.2.1.2.2s0-.5.4-.6.4-.5.8-.7a1.5,1.5,0,0,1-.2.9l.5-.2a1.2,1.2,0,0,1,.1-.8V56c.2-.3,0-.5.4-.7l1.6-1v.2c0-.5.7-.7.9-1s1-1,1.5-.9a15.9,15.9,0,0,1,2.6-2.1v.4c0-.3.2.1.4-.1s.1-.4.1-.6,1-.7,1.2-1.1v.2c.2-.6.8-.6,1.3-.9s.3.1.4,0,.2-.5.5-1l1.1-.5c.8-1.1,2-1.6,2.9-2.6h.2c.8-1.2,2.3-1.7,3.1-2.5l.2.4c.4-.1.6-.5.3-.7s.6-.7,1-.5.2-.4.4-.6a3.9,3.9,0,0,0,1.3-.9h-.1c0,.1.1.3.2.2s.8-.5.3-.7,1.2-1.2,2-1.3,0-.2,0-.3,1.2-.5,1.5-1,0,.3.2.1-.1-.1,0-.3,1.8-1,2.5-1.6a34,34,0,0,1,3.9-3h0c.2-.6,1.2-.4,1.3-1.1s.4-.2.5,0,1.1-.5,1.4-1.1h-.1c.6-.2.9-.7,1.6-.9s-.1.2-.1.3.3-.7.7-.3,0-.3-.1-.2,2.6-1.6,3.9-2.4.4.7,1,0,0-.2,0-.1.7.3.8,0,.1-.2,0-.4.9.2,1.3-.2v.2c.5-.6,1.2-.5,1.6-1.2l4.9-1.1a29.8,29.8,0,0,1,5-.4,26.8,26.8,0,0,1,9.9,1.9,2,2,0,0,0,1.5.9c-.1,0-.1,0-.1.1s.6.2.8,0l1.7.9,1.6,1c-.2-.1-.4.1-.2.2h.3c.2.1.4,0,.3-.1a14.4,14.4,0,0,1,3.7,3.4c1,1.3,1.9,2.7,2.8,4.1a20.1,20.1,0,0,0,1.3,2.3c.7,2.4,1,4.6,1.8,6.9a1.9,1.9,0,0,1-1.3-1" fill="#f7b93d"/>
    <path id="Path_8390" data-name="Path 8390" d="M141.4,56.6c.2.1.4,0,.4.3l-.4-.3" fill="#f7b93d"/>
    <path id="Path_8391" data-name="Path 8391" d="M148.2,53.9h.2c-.1.1-.1.2-.2.2s0-.1,0-.2" fill="#f7b93d"/>
    <path id="Path_8392" data-name="Path 8392" d="M149.8,52.9c.1.1-.2.5-.4.6Z" fill="#f7b93d"/>
    <path id="Path_8393" data-name="Path 8393" d="M151.5,52.4c.2,0,.2.1,0,.2s0-.1,0-.2" fill="#f7b93d"/>
    <path id="Path_8394" data-name="Path 8394" d="M151.4,52.1h.3c-.1-.1-.2.3-.3,0" fill="#f7b93d"/>
    <path id="Path_8395" data-name="Path 8395" d="M154.7,50.3c.1-.1.2-.3.3-.2s-.2.4-.3.2" fill="#f7b93d"/>
    <path id="Path_8396" data-name="Path 8396" d="M156,49.1h.1c.1,0,.1.1,0,.2Z" fill="#f7b93d"/>
    <path id="Path_8397" data-name="Path 8397" d="M181,30.4l-.1.2-.1-.2Z" fill="#f7b93d"/>
    <path id="Path_8398" data-name="Path 8398" d="M193,25c.2-.1.1.1.2.1s0-.2-.2-.1" fill="#f7b93d"/>
    <path id="Path_8399" data-name="Path 8399" d="M200.1,23.5H200l.1-.3Z" fill="#f7b93d"/>
    <path id="Path_8400" data-name="Path 8400" d="M18.1,35.9c-.3.3.3.1-.1.2s0-.2.1-.2" fill="#f7b93d"/>
    <path id="Path_8401" data-name="Path 8401" d="M102.4,20.5c-1-1-.8-2.8-1.8-3.8s.4-.1.2-.4a34.773,34.773,0,0,1-2.3-4.5h.2c-.1-.3-.6-.4-.8-.7s.2,0,.2-.1a.932.932,0,0,0-.7-.4c-.3,0,.1-.3.1-.5h-.3c-.8,0-.8-1-1.5-1.2h.2l-1.6-1L92.6,6.7a.4.4,0,0,0,.2-.3c-.2.2-.6,0-.9-.1a1.8,1.8,0,0,1-.9-.4h.1c-.4.1-.3-.4-.7-.2V5.4c-.3.3-.3-.4-.6-.3h0c-.2,0-.3-.2-.5-.3h0c-.5-.1-.7-.4-.8-.1s.5.1.4-.4c-1.6-.3-3.1-1-4.7-1.3s-.3-.2-.3-.4-.6-.1-.8.1L83,2.6c-.3-.2-.4.3-.7.1a.2.2,0,0,0,.2-.3,1.729,1.729,0,0,1-1,.1c-.3,0,.1-.1.1-.2s-.6-.1-1,0V2.2c-.5-.3-.2.4-.6.2s.1-.1.1-.2a6.356,6.356,0,0,0-1.5.3h0a5.7,5.7,0,0,0-1.4.1c-.2-.1.1-.5-.4-.4s-.8.2-.5.6a2.8,2.8,0,0,0-1.3,0c.2-.2-.2-.4.1-.5l-.3-.2c0-.2.3,0,.2-.2l-.8.2c-.3.2-.5.7-1,.8s-.2-.4,0-.5l-.6.8c-.2,0-.1-.3-.3-.2s-.1.2-.1.3-.7.2-.8-.2.3-.1.1-.2L71,3h0c-.2,0-.6.3-.3.4s-.1-.2.1-.1-.4.3-.7.4.1-.2.1-.3a3.9,3.9,0,0,1-1.2.7c0,.2.1-.3.2-.3s-1.1.6-1.6.4.1.2.1.2-.3-.2-.5,0-.2.1-.4.2-.1-.1.1-.1a3.7,3.7,0,0,1-1.7.8c0,.1-.2.5-.3.5V5.5c-.2-.1-.4.2-.5,0s.9-.7.7-.3-.4.6-.4.2-.4.5-.7.4.1-.4-.1-.3-.1.1-.3.4v.2c.1.2-.3.1-.1.3s-.5.4-.6,0V6.1c-.1.1-.1.4-.2.6h-.1c.2.4-.4.2-.4.6s-.8.4-1.1.3-.3.5-.6.6.1-.1.1-.2-.2.1-.3.3h-.7c-.2.3,0,.4.1.6s-.5.7-1,.5.2-.4,0-.4-.2.6-.7.6l.3.2c-.3-.1-.4.5-.6.2s-.5.2-.2.4-1.2,1.1-1.9.8-.3.2-.1.3.1-.2.2-.2,0,.1,0,.2-.4.1-.4-.2,0,.8-.6,1-.1-.2-.3,0v.4c-.3.2-.4-.1-.5-.3s-.4.3-.3.5h-.4c.3.1,0,.2-.1.3h0c-.1-.1-.2.1-.3.2s.3,0,.5,0-.2.2-.2.4-.4.1-.5.1,0,.3-.1.3-.3.2-.2-.1.2,0,.2-.1-.3-.2-.4.1.3.4-.1.5,0-.2,0-.3H51v.2h-.1c.1.3-.4.4-.3.6l-.5.2h0a.6.6,0,0,0-.5.5h0a.7.7,0,0,0-.3.4c-.3,0-.6-.6-.7-.2a.4.4,0,0,0,.1.6c-.5.2-.8.8-1.3.8s.1.1,0,.3a3.127,3.127,0,0,1-1.9,1.2c-.8,0-.1-.2-.2-.3s-.3,0-.1.3.2.2.4.2a2.1,2.1,0,0,1-1.2.8c.2,0,.1.1.1.2s-.5-.1-.6.1v.2h-.2c0,.1.2.4-.2.4h-.2c-.1.3-.2.7-.6.8h-.4c-.1.1-.1.3.1.3s-.8.3-1,.2a4.8,4.8,0,0,1-2.1,2.2h-.1c-.3,0,0,.3-.2.3s-.3-.1-.3-.4-.2.5-.4.7.1-.2.2,0-.5.2-.4.4-.2-.3-.2-.4v.2c-.4-.1.2-.9-.3-1v.2c-.3-.1.2-.6-.2-.4s0,.7.2.7.2.7-.2,1,.3-.3.1-.4-.3.4-.5.4.3.3.2.4,0-.3-.3-.1-.2.5.2.4-.4.1-.4.5-.1-.7-.5-.6-.2.6.2.8-.3-.1-.3-.3-.2.7-.5.3v.3h-.4c-.2.1-.3.7-.5.3s-.4.3-.1.4.1-.4.5-.1-.3.3-.4.4h-.1c0,.1-.2.2-.2.4a.141.141,0,1,0-.2-.2v.2c-.3.3-.3-.3-.6,0v-.3c0,.1-.3,0-.4.1l.2.7c-.1.2-.2-.1-.3.2V29c0-.1-.4-.2-.6,0s-.2.6.1.5-.4.1-.4-.1.2.2,0,.4h-.9v-.5h-.2c0-.4-.2-.1-.3-.4s-.2.2-.3.4a1.1,1.1,0,0,0,.4,1.1c.4.3-.9-.7-1,.2s.1.5.3.2.1.5-.4.6-.5-.2-.3-.6.3,0,.3-.1a.314.314,0,0,0-.5-.2c-.3.2-.4.3-.2.5s.2-.2.3.1-.6,0-.4.5.4,0,.5.1l-.2.3v-.2c-.5.2.1.3-.4.6H29c-.1-.3.6-.3.3-.6s-.2.4-.5.5v-.2c-.1.1-.5-.4-.7.2s0,.2.1.3-.4.6-.6.8-.5.3-.4-.2.8-.4.8-.7.3-.2.2-.6-.5-.1-.7-.3-.1.2-.2.3.2.1.4.3a1.3,1.3,0,0,0-.7.9.224.224,0,0,1-.2-.4,5.8,5.8,0,0,1-1.3.9c.5.1-.4.4,0,.5s.6,0,.6.3-.1-.1-.2-.2a.256.256,0,0,0-.4.3c.1.4-.2-.5-.3-.8s-.1-.2-.4,0l-.7,1c-.6,0-1,.7-1.3,1s-.3-.4-.6-.3.4.2,0,.3h0c-.1.1-.8.3-.6.7V36c-.1,0-.1.1-.1.2s-.2-.1-.2-.3-.4.4-.6.5H21c-.3.4-.7.4-1,.8V37l-.2.3a.206.206,0,1,0-.4.1l.3-.9c.2,0,0,.3.2.5s.5-.2.5-.4-.1.1-.2.3,0-.4,0-.6-.2.1-.2.1a.9.9,0,0,1,.4-.5c-.1.2.2.1.2.2s0-.5.4-.6.4-.5.8-.7a1.5,1.5,0,0,1-.2.9l.5-.2a1.2,1.2,0,0,1,.1-.8v.2c.2-.3,0-.5.4-.7l1.6-1v.2c0-.5.7-.7.9-1s1-1,1.5-.9A15.9,15.9,0,0,1,29,27.8v.4c0-.3.2.1.4-.1s.1-.4.1-.6,1-.7,1.2-1.1v.2c.2-.6.8-.6,1.3-.9s.3.1.4,0,.2-.5.5-1l1.1-.5c.8-1.1,2-1.6,2.9-2.6h.2c.8-1.2,2.3-1.7,3.1-2.5l.2.4c.4-.1.6-.5.3-.7s.6-.7,1-.5.2-.4.4-.6a3.9,3.9,0,0,0,1.3-.9h-.1c0,.1.1.3.2.2s.8-.5.3-.7,1.2-1.2,2-1.3,0-.2,0-.3,1.2-.5,1.5-1,0,.3.2.1-.1-.1,0-.3,1.8-1,2.5-1.6a34,34,0,0,1,3.9-3h0c.2-.6,1.2-.4,1.3-1.1s.4-.2.5,0,1.1-.5,1.5-1.1h-.1c.6-.2.9-.7,1.6-.9s-.1.2-.1.3.3-.7.7-.3,0-.3-.1-.2S61.8,4,63.1,3.2s.4.7,1,0,0-.2,0-.1.7.3.8,0,.1-.2,0-.4.9.2,1.3-.2v.2c.5-.6,1.2-.5,1.6-1.2L73.1.4a29.8,29.8,0,0,1,5-.4A26.8,26.8,0,0,1,88,1.9a2,2,0,0,0,1.5.9c-.1,0-.1,0-.1.1s.6.2.8,0l1.7.9,1.6,1c-.2-.1-.4.1-.2.2h.3c.2.1.4,0,.3-.1a14.4,14.4,0,0,1,3.7,3.4c1,1.3,1.9,2.7,2.8,4.1a20.1,20.1,0,0,0,1.3,2.3c.7,2.4,1,4.6,1.8,6.9a1.9,1.9,0,0,1-1.3-1" fill="#f7b93d"/>
    <path id="Path_8402" data-name="Path 8402" d="M18.4,35.6c.2.1.4,0,.4.3l-.4-.3" fill="#f7b93d"/>
    <path id="Path_8403" data-name="Path 8403" d="M25.2,32.9h.2c-.1.1-.1.2-.2.2s0-.1,0-.2" fill="#f7b93d"/>
    <path id="Path_8404" data-name="Path 8404" d="M26.8,31.9c.1.1-.2.5-.4.6Z" fill="#f7b93d"/>
    <path id="Path_8405" data-name="Path 8405" d="M28.5,31.4c.2,0,.2.1,0,.2s0-.1,0-.2" fill="#f7b93d"/>
    <path id="Path_8406" data-name="Path 8406" d="M28.4,31.1h.3c-.1-.1-.2.3-.3,0" fill="#f7b93d"/>
    <path id="Path_8407" data-name="Path 8407" d="M31.7,29.3c.1-.1.2-.3.3-.2s-.2.4-.3.2" fill="#f7b93d"/>
    <path id="Path_8408" data-name="Path 8408" d="M33,28.1h.1c.1,0,.1.1,0,.2Z" fill="#f7b93d"/>
    <path id="Path_8409" data-name="Path 8409" d="M58,9.4l-.1.2-.1-.2Z" fill="#f7b93d"/>
    <path id="Path_8410" data-name="Path 8410" d="M70,4c.2-.1.1.1.2.1s0-.2-.2-.1" fill="#f7b93d"/>
    <path id="Path_8411" data-name="Path 8411" d="M77.1,2.5H77l.1-.3Z" fill="#f7b93d"/>
  </g>
</svg>
