<svg xmlns="http://www.w3.org/2000/svg" xmlns:xlink="http://www.w3.org/1999/xlink" width="88.1" height="108.23" viewBox="0 0 88.1 108.23">
  <defs>
    <clipPath id="clip-path">
      <rect id="Rectangle_238" data-name="Rectangle 238" width="88.1" height="108.23" fill="none"/>
    </clipPath>
  </defs>
  <g id="muzieknoot" clip-path="url(#clip-path)">
    <path id="Path_9600" data-name="Path 9600" d="M.8,78.1c-.1-.4-.2.2-.1-.3s.2.1.1.3" fill="#009ca4"/>
    <path id="Path_9601" data-name="Path 9601" d="M2.4,80.9c.2-1.6,1.9-2.6,2.5-4s.3.3.5-.1a14,14,0,0,1,4.1-3.7v.2c.3-.1.4-.7.7-.9s0,.2.1.2.4-.5.5-.7h.5v-.3c.1-.9,1.2-.7,1.7-1.4s0,.2,0,.2l.8-.7.9-.5,2-.9a.4.4,0,0,0,.1.4c0-.3.4-.5.7-.6s.6-.4,1.1-.3h0c.3-.4.5.1.7-.3l.2.2c.1-.4.5.2.7-.1h0c.3-.1.4.1.6,0h0c.6-.1.9.1.9-.2s-.5.1-.2.5l2-.2h2a.3.3,0,0,1,.2.2l-.2-.2L27,68c.2.2.3.2.3.4s.7.1.9,0l.2.2c.3.2.5-.2.8,0s-.2.1-.2.2a2.2,2.2,0,0,1,1.1.1h-.2c.5-.1.7.3,1,.3h-.2c.4.4.3-.3.7.1s-.1.1-.2.1a16.559,16.559,0,0,0,1.6.5h-.1a10.143,10.143,0,0,1,1.3.9c.5.3-.3.3.1.6s.8.5.8,0,.7,1,1,1.1-.2.5-.5.2,0,.2,0,.4-.2-.2-.2-.1.6.5.6.6a2.2,2.2,0,0,1,1.3.6c-.3-.1-.3.3-.4.2l1,.3c.1.2-.2.2,0,.4H38c0,.1.5.7.2.9s-.2-.2-.2,0,.3.3.4.6h0c.1.2.4.6.5.3s-.2.1-.2-.1.5.4.6.8H39a3.9,3.9,0,0,1,.9,1.3c.2,0-.4-.1-.3-.2a2.472,2.472,0,0,1,.4,2c-.3.7.2-.1.2-.1s-.2.4-.1.6.1.3.2.5-.1.1-.1-.1a3.9,3.9,0,0,1,.3,2.3c.1,0,.3.5.3.6h-.2c-.1.1,0,.6-.2.6s-.2-1.4,0-.9.3.7,0,.6.2.7,0,1-.3-.3-.3,0,.1.1.1.5v.3c.2.1-.1.4.2.3s0,.7-.4.6h-.3c0,.2.2.4.3.6h0c.4.2-.2.5.1.8s-.4,1.1-.8,1.1a1.5,1.5,0,0,1-.3,1v-.2a4.708,4.708,0,0,1-.2.5l-.7.4c-.1.3.2.4.3.5s-.2.9-.8,1,.1-.5-.2-.3-.1.7-.5.9h.4c-.3,0-.2.7-.5.4s-.4.4-.1.5-1,1.6-1.8,1.6-.2.3-.1.4,0-.3.2-.3a.2.2,0,0,0,0,.2c-.2.1-.3.3-.4-.1s.1.8-.4,1.3-.2-.1-.3.1v.5c-.4.3-.4,0-.6-.2s-.3.4-.3.6h-.4c.3,0,0,.2-.1.4h0a.451.451,0,0,0-.3.3c0,.1.4-.1.5-.1s-.2.3-.2.5-.4.1-.6.3-.1.3-.1.4-.3.2-.3,0,.2,0,.2-.2-.3-.2-.4.2.3.3-.1.5,0-.2,0-.3l-.4.2v.2h-.1c0,.3-.5.4-.4.7l-.7.2h0a.9.9,0,0,0-.7.5h0a1.1,1.1,0,0,0-.5.4c-.4,0-.4-.7-.7-.3s-.4.6-.2.7-1.3.6-1.9.3,0,.1-.2.2a4.864,4.864,0,0,1-2.7,0c-.7-.4,0-.2,0-.3s-.2-.2-.3.1,0,.3.2.4a2.7,2.7,0,0,1-1.7-.2c.1.1,0,.2-.1.2s-.3-.4-.6-.4v.2l-.2-.2c-.1,0-.2.4-.5.1a.4.4,0,0,0,0-.2,1.4,1.4,0,0,1-1.1,0l-.2-.3c-.1,0-.4.1-.2.2s-.8-.5-.9-.8a3.4,3.4,0,0,1-1.8-.1,7.3,7.3,0,0,1-1.7-.7H14c-.2-.3-.3.2-.4,0s-.1-.4.2-.4a6.173,6.173,0,0,1-.9-.1c-.3-.1.3,0,.1.2s-.5-.4-.7-.2.1-.3.2-.4h-.3c-.1-.4.9-.2.8-.7h-.2c0-.4.7,0,.2-.4s-.7.3-.6.5-.6.5-1.1.1.4.2.4,0-.5-.2-.7-.4-.2.4-.4.3.3-.1,0-.4-.6,0-.3.3-.3-.3-.7-.2.7-.3.4-.6-.7-.1-.7.4,0-.3.2-.4-.8,0-.6-.5l-.2.2a4.1,4.1,0,0,1-.1-.4c-.2-.1-.8-.2-.5-.5s-.5-.4-.5,0,.4.1.3.5-.4-.3-.6-.3h.1c-.1,0-.3-.2-.5-.1a.112.112,0,1,0,.1-.2h.1c-.4-.2.2-.4-.2-.6h.4c-.1,0,0-.3-.3-.4l-.7.2c-.3-.1.1-.3-.3-.3h.4c.1,0,.1-.4-.2-.6s-.7-.1-.5.2-.2-.4,0-.4-.1.2-.5,0-.1-.7-.2-1h.5l-.2-.2c.4,0,.1-.3.4-.3l-.4-.3c-.1.7-.8,0-1.1.4s.6-1-.4-1.1-.5.1-.1.4-.5,0-.6-.5.1-.6.7-.3.1.3.2.3.4-.2.1-.6-.4-.4-.5-.3.2.3-.1.3-.1-.6-.6-.6a.4.4,0,0,1-.1.5l-.3-.2h.2c-.2-.6-.3,0-.6-.5v-.4c.3,0,.3.8.7.4s-.4-.3-.5-.7l.2.2c-.1-.1.4-.5-.2-.8s-.2,0-.3.1-.6-.6-.8-.9-.3-.6.2-.4a1.1,1.1,0,0,0,.7,1c.2-.4.2.4.6.3s.1-.6.3-.8l-.3-.2c-.2.1-.2.2-.4.3a2,2,0,0,0-.9-1,.206.206,0,0,1,.4-.1,5.7,5.7,0,0,1-.7-1.7c-.2.5-.3-.6-.5-.2s-.1.7-.4.6.2-.1.2-.2.2-.5-.2-.6.5-.1.8-.1.2-.1.1-.4a4.3,4.3,0,0,1-.8-1.1c.1-.6-.4-1.4-.5-1.8s.5-.2.5-.5-.3.3-.3-.2H.5c-.1-.1.1-.9-.5-1H.4a.349.349,0,0,0-.1-.2s.2-.1.3,0S.5,81.3.4,81l-.2.2c-.3-.5-.1-.9-.2-1.4H.2L0,79.5c.2.1.3-.2.1-.4l.6.8c-.1.2-.3-.2-.5-.1s-.1.6.2.7,0-.2-.1-.3.3.2.5.3.1-.2,0-.3a1.1,1.1,0,0,1,.3.7c-.1-.2-.2.1-.3.1s.4.3.4.7.3.7.3,1.1a1.5,1.5,0,0,1-.7-.6c-.1.3.1.3,0,.6s.6.1.8.5H1.4c.2.3.5.2.5.7a11.1,11.1,0,0,0,.5,2H2.2c.5.1.5.9.8,1.2A2.333,2.333,0,0,1,3.6,89l2.1,2.9H5.4c.3.1,0,.2.1.4s.4.1.7.1a2.3,2.3,0,0,0,1.3,1.2v.2c.6.1.8.8,1.2,1.2s0,.3.1.4a3.1,3.1,0,0,1,1.1.3l.9,1c1.4.5,2.4,1.4,3.8,1.9v.3c1.4.2,2.8,1.3,4,1.3l-.2.4c.3.2.8.2.8-.2s.9,0,1.1.4.5-.1.8-.1a3,3,0,0,0,1.7.2h-.2c-.1.1-.1.3.1.3s.9.2.7-.3a2.4,2.4,0,0,0,1.2,0,2.2,2.2,0,0,1,1.2,0c-.1-.1.1-.2.1-.3h.9a1,1,0,0,0,.7-.3c.1,0-.1.3.2.2s-.1-.2.1-.3a12.072,12.072,0,0,0,2.5-1.3A46,46,0,0,0,33.6,95h.1c0-.7,1.1-.9.9-1.6s.3-.4.4-.2.9-.9,1-1.6,0,.1,0,.2.6-1.1,1-1.6,0,.2.1.3-.1-.7.4-.7-.2-.2-.2-.1a8.3,8.3,0,0,0,.9-4.3c.3-1,.8,0,.5-.9s-.2-.1-.1-.1.5-.5.3-.8-.2-.1-.3-.1.4-.8.1-1.3h.2c-.5-.6-.4-1.3-1-1.7A13.8,13.8,0,0,0,32,72.8a11.5,11.5,0,0,0-3.2-1.7,23,23,0,0,0-3.7-.9l.3-2.1a2.6,2.6,0,0,0-1.4.4l-.5.5.2.3a2.1,2.1,0,0,0,1.1.8H23.2a1.7,1.7,0,0,0-1.7-.2c0-.1.1-.1,0-.1s-.6.1-.7.4l-1.7.2-1.7.4c.2-.1.2-.4,0-.3l-.2.3h-.1c-.1.1-.2.3-.1.4l-4,1.4a18,18,0,0,0-3.9,2.7,9.2,9.2,0,0,0-1.9,1.9,14.8,14.8,0,0,0-4.8,5.4,1.7,1.7,0,0,1-.1-1.7" fill="#009ca4"/>
    <path id="Path_9602" data-name="Path 9602" d="M.9,78.6c-.2.1-.2.4-.5.2l.5-.2" fill="#009ca4"/>
    <path id="Path_9603" data-name="Path 9603" d="M.9,86.9v.2c0,.1-.2-.1-.2-.2H.9" fill="#009ca4"/>
    <path id="Path_9604" data-name="Path 9604" d="M1.6,88.9a1.134,1.134,0,0,1-.6-.6l.6.6" fill="#009ca4"/>
    <path id="Path_9605" data-name="Path 9605" d="M2,91c0,.2-.1.2-.2,0H2" fill="#009ca4"/>
    <path id="Path_9606" data-name="Path 9606" d="M2.4,90.9a.4.4,0,0,1,0,.4c.1-.1-.3-.3,0-.4" fill="#009ca4"/>
    <path id="Path_9607" data-name="Path 9607" d="M4.6,94.8c.1.1.3.2.3.4s-.5-.3-.3-.4" fill="#009ca4"/>
    <path id="Path_9608" data-name="Path 9608" d="M6.1,96.2h.1c0,.1-.1.1-.2.1Z" fill="#009ca4"/>
    <path id="Path_9609" data-name="Path 9609" d="M37.4,93.8V94l-.1-.1Z" fill="#009ca4"/>
    <path id="Path_9610" data-name="Path 9610" d="M39.7,78.2c-.2-.2.1-.2.1-.2s-.2,0-.1.2" fill="#009ca4"/>
    <path id="Path_9611" data-name="Path 9611" d="M34.4,71.5h0l-.2.2Z" fill="#009ca4"/>
    <path id="Path_9612" data-name="Path 9612" d="M83,70.7c.4,0-.2-.3.3,0s-.2.2-.3,0" fill="#009ca4"/>
    <path id="Path_9613" data-name="Path 9613" d="M79.9,71.4c1.5.6,1.9,2.5,3.1,3.5s-.4.2-.1.5a15.4,15.4,0,0,1,2.4,5h-.2c.1.3.6.6.6.9h-.2c.3,0,.3.6.6.6s-.2.2-.3.4h.3c.8.3.4,1.3.9,2h-.2l.4.9.3,1a16.605,16.605,0,0,1,.3,2.2h-.4c.3.1.4.5.4.9s.2.7,0,1.1h-.1c.3.4-.2.5.1.8l-.3.2c.4.2-.3.4-.1.7h.1c0,.3-.2.4-.2.6h-.1c0,.6-.3.8,0,.9s0-.6-.4-.4a9.8,9.8,0,0,1-.4,2l-.3,1-.2.5V97H86l-.7,1.4-.4.2c0,.2-.3.6-.2.9h-.3c-.3.2.1.5-.2.7s0-.3-.2-.3-.2.7-.4,1.1,0-.2-.1-.2a1.71,1.71,0,0,0-.6.9v-.2c-.5.3.2.4-.3.7s0-.1-.1-.2-.7,1-1,1.4h0c-.4.4-.8.6-1.2,1s-.2-.4-.6-.1-.7.6-.2.8a5.7,5.7,0,0,0-1.4.6c.1-.2-.4-.3-.1-.5h-.3c0-.1.3-.1.1-.2l-.8.4a2.2,2.2,0,0,1-.9,1.1c.2-.2-.3-.3-.1-.5l-.6.9c-.2.1-.1-.3-.4-.1s-.1.2-.1.3-.8.3-.9-.1.3-.1.1-.2l-.7.2h0c-.2,0-.7.2-.4.4s-.1-.2.2-.1-.6.3-.9.4.1-.2.1-.3a3.9,3.9,0,0,1-1.5.5c0,.2.2-.3.3-.2a2.79,2.79,0,0,1-2-.1c-.5-.4,0,.3,0,.2a.414.414,0,0,0-.5-.2c-.2.1-.3,0-.5,0h.2a3.9,3.9,0,0,1-2.3-.4c0,.1-.5.2-.7.1v-.2c-.1-.2-.5-.2-.5-.4s1.4.2.9.3-.8.1-.6-.1-.7,0-.9-.3.4-.2.1-.3-.2.1-.6,0h-.3c-.1.2-.4-.2-.3.1s-.7-.2-.5-.5l.2-.2c-.2-.1-.4.1-.7.1s0-.1,0-.2-.4-.3-.8-.2-.9-.7-.9-1a1.5,1.5,0,0,1-.9-.5h.2c-.1-.3-.2-.2-.4-.3s-.2-.5-.2-.8-.4.1-.5.2-.8-.5-.8-1.1.5.2.4-.1-.6-.2-.8-.7l-.2.3c0-.3-.6-.4-.3-.6s-.2-.5-.5-.2-1.3-1.4-1.1-2.1-.2-.3-.3-.2.3.1.2.3h-.2c-.1-.2-.2-.4.2-.4s-.8-.1-1.1-.8.2-.1,0-.3l-.4-.2c-.2-.4.1-.4.4-.5s-.3-.4-.5-.4v-.4c-.1.3-.2-.1-.3-.2h.1c.1-.1-.1-.3-.2-.4s0,.4,0,.5l-.4-.3c.2-.1,0-.4-.1-.6s-.3-.1-.3-.2-.1-.4.1-.3,0,.2.1.3.2-.2,0-.5-.4.2-.4-.2h.3v-.4h-.1c-.3,0-.3-.6-.6-.6s0-.5,0-.7h0a.9.9,0,0,0-.3-.8h0a1.1,1.1,0,0,0-.2-.6c.1-.4.8-.2.5-.5s-.4-.5-.6-.4-.2-1.4.2-1.9-.1,0-.2-.2A4.232,4.232,0,0,1,52,85c.6-.6.2.1.3.1s.3-.2,0-.4-.3-.1-.4.1a2.7,2.7,0,0,1,.7-1.5c-.1.1-.2,0-.2-.2s.5-.2.5-.5H53c0-.1-.3-.3,0-.5h.2c0-.3,0-.9.3-1.1h.4c0-.1,0-.4-.2-.3s.7-.7,1-.7a3.4,3.4,0,0,1,.6-1.7,7.4,7.4,0,0,1,1.1-1.4h.1c.3-.1-.1-.3.1-.4s.4,0,.3.3a4.559,4.559,0,0,1,.4-.8c.2-.2-.1.2-.2,0s.5-.3.4-.6.2.2.3.3v-.3c.5,0-.1.9.4,1v-.2c.4.1-.2.7.3.3s-.1-.7-.3-.7-.3-.7.2-1.1-.3.3-.1.4.3-.5.6-.6-.3-.3-.2-.4,0,.3.4.1.2-.5-.2-.4.4-.2.4-.6,0,.8.5.6.2-.6-.2-.8.3.1.3.3.2-.8.6-.4v-.3h.4c.2-.1.4-.7.6-.4s.5-.4.2-.5-.2.4-.6.2.4-.3.5-.5h.1c.1-.1.3-.2.3-.4a.141.141,0,0,0,.2.2v-.3c.3-.3.3.3.7,0l-.2.3c0-.1.3,0,.4-.1s0-.5-.1-.7.2.2.3-.2l-.2.4c0,.1.4.2.7,0s.3-.6,0-.5.4-.1.4.1-.2-.2.1-.5h1l-.2.5h.2c-.1.4.2.1.2.5l.4-.3c-.6-.3.2-.8-.1-1.2s.8.8,1.1-.1,0-.5-.3-.2.1-.5.6-.5.5.3.1.7-.3,0-.4.1.1.4.5.3.5-.2.4-.4-.3.2-.3-.1.6.1.7-.4a.4.4,0,0,1-.5-.3l.3-.2v.2c.6,0,.1-.3.6-.5l.3.2c-.1.3-.8.1-.6.5s.4-.3.8-.3l-.2.2c.1,0,.4.5.8.1s0-.2,0-.3l1.1-.5c0,.3.7-.1.3.3a1.1,1.1,0,0,0-1.2.4c.3.3-.5,0-.5.5s.5.3.7.5l.3-.2c0-.3-.2-.2-.2-.5a2,2,0,0,0,1.2-.6.2.2,0,0,1,0,.4,5.7,5.7,0,0,1,1.8-.2c-.4-.4.6-.2.3-.5s-.6-.3-.5-.5,0,.2.1.3.4.3.6,0-.1.5-.2.8,0,.2.4.2l1.3-.4c.6.3,1.4,0,1.9,0s.1.5.3.6-.2-.4.3-.2h-.1c.2-.1.9.3,1.1-.2l-.2.4h.3c0,.1.1.2-.1.3s.6,0,.9.1l-.2-.3c.6-.1.9.2,1.4.2v.2H82c-.1.2.1.4.3.2l-.9.4c-.2-.2.3-.2.2-.5s-.6-.2-.7,0h.4c0,.3-.3.3-.4.4h-.5c.2-.1-.1-.2,0-.3s-.4.3-.7.2-.7.1-1.2,0a1.5,1.5,0,0,1,.7-.5l-.6-.2c-.2.2-.3.5-.7.6v-.2c-.3.1-.4.4-.8.3h-2v-.2c-.3.4-1,.2-1.4.5a2.126,2.126,0,0,1-1.9.1l-3.4,1.2v-.4c-.1.3-.2-.1-.4,0s-.2.4-.3.6a2.3,2.3,0,0,0-1.5.9v-.2c-.3.6-1,.5-1.5.8s-.3-.1-.5,0a3.1,3.1,0,0,1-.6,1l-1.2.6c-.8,1.2-2.1,1.9-2.9,3.1h-.2c-.6,1.3-2,2.3-2.4,3.5l-.3-.3c-.3.2-.4.8-.1.8s-.3.9-.7.9,0,.5-.1.8a3,3,0,0,0-.7,1.5h.1c-.1-.1-.2-.2-.3,0s-.4.9.1.8a2.4,2.4,0,0,0-.3,1.1,2.2,2.2,0,0,1-.3,1.1c.1,0,.1.1.2.2V89a1,1,0,0,0,.1.8c-.1.1-.2-.1-.2.1s.2,0,.3.2a10.778,10.778,0,0,0,.6,2.8,45.6,45.6,0,0,0,2.9,4.2H58c.6.2.5,1.3,1.3,1.3s.3.4.1.5.6,1.1,1.3,1.4h-.1c.3.6.9.8,1.2,1.4h-.3c.1.3.7.1.5.6s.2-.1.2-.2a8.3,8.3,0,0,0,3.8,2.1c.9.6-.2.8.7.7s.1-.2.1-.1.4.6.6.5.2-.1.2-.3.7.6,1.3.5h-.1c.7-.3,1.4,0,1.9-.5a13.8,13.8,0,0,0,8.8-3.1A11.5,11.5,0,0,0,82,99.6a23.2,23.2,0,0,0,2-3.3l1.9.9a2.6,2.6,0,0,0,0-1.4,1.5,1.5,0,0,0-.3-.6h-.4a2.1,2.1,0,0,0-1.1.8v.2H84V96l.2-.4.4-.9a1.7,1.7,0,0,0,.7-1.6h.1c-.3-.1.1-.6-.2-.7a10.2,10.2,0,0,0,.3-1.7V88.9c0,.2.3.3.3.1l-.2-.2h.1c-.1-.2-.2-.3-.3-.2a35.019,35.019,0,0,0-.7-4.5,18,18,0,0,0-1.5-4.5,9.2,9.2,0,0,0-1.3-2.3,14.8,14.8,0,0,0-3.8-6.1,1.7,1.7,0,0,1,1.7.4" fill="#009ca4"/>
    <path id="Path_9614" data-name="Path 9614" d="M82.5,70.6c0-.2-.3-.3,0-.5s.1.4,0,.5" fill="#009ca4"/>
    <path id="Path_9615" data-name="Path 9615" d="M74.6,68.3h-.2c.1,0,.2-.2.3-.1s-.1.1-.1.2" fill="#009ca4"/>
    <path id="Path_9616" data-name="Path 9616" d="M72.5,68.5c0-.2.4-.3.7-.4l-.7.4" fill="#009ca4"/>
    <path id="Path_9617" data-name="Path 9617" d="M70.4,68.3c-.2-.1-.2-.2.1-.2s0,.1-.1.2" fill="#009ca4"/>
    <path id="Path_9618" data-name="Path 9618" d="M70.3,68.6h-.4c0,.1.4-.2.4.1" fill="#009ca4"/>
    <path id="Path_9619" data-name="Path 9619" d="M66,69.7c-.1.1-.3.3-.4.1s.4-.4.4-.1" fill="#009ca4"/>
    <path id="Path_9620" data-name="Path 9620" d="M64.2,70.8h-.1c-.1,0-.1-.2,0-.2Z" fill="#009ca4"/>
    <path id="Path_9621" data-name="Path 9621" d="M57.8,101.5l-.2-.1.1-.1Z" fill="#009ca4"/>
    <path id="Path_9622" data-name="Path 9622" d="M72.1,108.1c.2-.1.2.1.2.1s.1-.2-.2-.1" fill="#009ca4"/>
    <path id="Path_9623" data-name="Path 9623" d="M80,104.8v.1l-.2-.3Z" fill="#009ca4"/>
    <path id="Path_9624" data-name="Path 9624" d="M35.5,3.6c-.1-.3-.3.2-.1-.2s.2.1.1.2" fill="#009ca4"/>
    <path id="Path_9625" data-name="Path 9625" d="M39,88.3c-.9-.9-.2-2.3-.8-3.4s.4,0,.3-.3a12.005,12.005,0,0,1-.2-4.1h.1c.1-.3-.4-.5-.3-.8h.2c-.2,0-.2-.5-.3-.6l.4-.3h-.3c-.7-.4,0-1-.4-1.6h.2a12.9,12.9,0,0,1-.7-3.1h.4c-.3,0-.4-.3-.5-.6s-.3-.5-.2-.8H37c-.3-.2.1-.4-.2-.5L37,72c-.4-.1.2-.4,0-.5h-.1c-.1-.2.1-.3,0-.5h0c-.1-.4.1-.7-.2-.6s.1.4.5.1a16.5,16.5,0,0,1-.6-4l.3-.3c-.1-.1-.1-.5-.3-.6l.2-.2c.1-.3-.4-.2-.2-.5h.3c-.3-.2-.2-.5-.3-.8h.2c-.3-.3,0-.5-.2-.8h.2c.2-.4-.4-.1-.3-.5h.2c-.4-.3-.3-.9-.4-1.2h.1a4.4,4.4,0,0,0-.2-1.1c.1-.2.5,0,.4-.4s-.2-.6-.6-.4.1-.9,0-1.1.4-.2.5.1l.2-.2c.2,0,0,.2.1.1s-.2-.5-.1-.7-.7-.5-.8-.9.4-.1.5,0l-.7-.5c0-.1.3,0,.2-.2h-.2c0-.1-.1-.6.2-.6s.1.2.2.1-.1-.3-.2-.5h0c0-.2-.2-.5-.4-.3s.2-.1.1.1a.8.8,0,0,1-.3-.7h.3a2.9,2.9,0,0,1-.6-1.1c-.2,0,.3.1.2.2s-.4-1-.1-1.4h-.2c0-.2.3-.2.2-.4s-.1-.2-.1-.3.1,0,.1.1a2.4,2.4,0,0,1-.2-1.6.781.781,0,0,1-.4-.4h.2c.1-.1,0-.4.2-.4s.3,1,.1.6-.4-.5-.1-.4-.3-.5-.1-.7.3.2.3,0-.1-.1-.2-.4V48c-.2,0,0-.3-.2-.2s-.1-.5.2-.5h.3c0-.1-.3-.2-.5-.3h.1c-.4,0,0-.3-.3-.5s0-.8.3-.9-.3-.4-.2-.7h.2c.1-.2,0-.2-.1-.4s.2-.3.4-.5-.4-.1-.5-.2a.646.646,0,0,1,.1-.9c.4-.3.2.3.3.1s-.3-.4-.1-.8h-.4c.2-.2-.2-.5.1-.5s.1-.4-.2-.4-.2-1.4.4-1.7,0-.3-.2-.2.1.2,0,.2h-.2c.1-.2.1-.3.4-.2s-.6-.4-.5-.9.2,0,.2-.2l-.3-.3c0-.3.3-.2.6-.2s0-.4-.2-.5l.3-.2c-.2.2-.2-.1-.2-.2h.1c.1,0,0-.2,0-.3s-.2.2-.2.3l-.2-.3c.2,0,.2-.3.2-.4s-.2-.2-.2-.2,0-.3.2-.1-.1.1,0,.2.3-.1.1-.3-.5.1-.3-.3h.3v-.3h-.1c-.2-.1-.1-.4-.4-.5s.1-.3.2-.4h0a.4.4,0,0,0-.1-.5h0a.5.5,0,0,0-.2-.4c.2-.2.8-.1.6-.3s-.4-.4-.6-.3-.2-.9.1-1.3H34c.1-.6-.3-1.3.1-1.8s.2,0,.3,0,.2-.2-.1-.2-.3,0-.4.2a1.5,1.5,0,0,1,.1-1.1c-.1.1-.2,0-.2-.1s.4-.3.2-.5h0c-.1-.1-.4-.1-.2-.3H34c-.2-.2-.4-.5-.3-.7l.3-.2c0-.1-.2-.3-.3-.1a1.793,1.793,0,0,1,.4-.8,3.4,3.4,0,0,1-.6-2.5h.1c.1-.2-.3-.1-.2-.3s.3-.2.5,0-.3-.4-.3-.6.1.2-.1.1.1-.4-.1-.5h.4v-.2c.3-.2.6.5,1,.3V22c.3-.2.3.5.5,0s-.6-.3-.7-.2-.7-.2-.7-.6,0,.3.3.3-.1-.4-.1-.6-.4,0-.5-.1.3.1.3-.2-.3-.3-.4-.1.1-.3-.2-.5.6.3.8,0-.4-.4-.7-.2a.3.3,0,0,1,.4-.1c.2-.2-.5-.4,0-.5h-.3l.3-.2c0-.2-.4-.5,0-.5s0-.4-.3-.3.2.3-.2.4,0-.3-.1-.5h.2c-.1-.1,0-.3-.2-.3h0c-.1-.3.4-.1.3-.4l.2.2c0-.1.2-.2.1-.3l-.6-.2c-.1-.2.2-.1,0-.3l.3.2c.1,0,.4-.2.3-.4s-.4-.4-.5-.1.1-.3.3-.2-.2,0-.4-.2l.6-.6.4.2v-.2c.3.2.2-.1.5,0s-.1-.2-.1-.4-.7-.4-1.1-.3,1.1-.3.4-.7-.5-.1-.3.1-.4-.2-.3-.5.4-.3.7.1-.1.2-.1.2.4,0,.4-.3-.1-.4-.3-.4,0,.3-.2.2.3-.4-.2-.5-.2.3-.4.3V13H33c.1-.4-.3-.1-.3-.5l.3-.2c.3.1-.1.6.3.5s-.2-.3-.1-.6v.2c0-.1.6-.2.3-.5s-.2,0-.3-.1a3.385,3.385,0,0,1-.3-.8c-.1-.3,0-.5.4-.2a.6.6,0,0,0,.1.9c.4-.1-.1.3.3.4s.4-.3.7-.4-.1-.2-.1-.2H34a1,1,0,0,0-.3-.9c.1-.1.4-.1.4.1a4,4,0,0,1,0-1.3c-.4.3-.1-.5-.4-.3s-.4.4-.6.3.2,0,.3-.1.3-.3,0-.4.5.1.8.2.2,0,.2-.3a3.2,3.2,0,0,1-.4-1c.3-.4,0-1,0-1.4s.5-.1.6-.3-.4.2-.2-.2h.1c-.1-.1.2-.6-.3-.7h.4c0-.1-.1-.1-.1-.2h.3c.3-.2,0-.5,0-.7h-.2c-.2-.4.1-.7,0-1.1h.2V4.5c.2.1.4-.2.2-.3l.5.6c-.1.2-.3-.2-.5-.1s-.1.4.1.5,0-.1-.1-.3.3.2.5.3.1-.2,0-.2a.6.6,0,0,1,.2.5c-.1-.2-.2.1-.3,0s.4.2.3.5.2.6.1.9a1.4,1.4,0,0,1-.6-.5c-.1.2,0,.2-.1.4s.5.2.6.5h-.2c.1.3.4.3.3.6a11.1,11.1,0,0,0-.1,1.5h-.2c.4.2.2.8.3,1.1s.2,1.2-.2,1.4a11.2,11.2,0,0,1,.2,2.7l-.3-.2c.2.2-.2.1-.1.3s.3.2.5.4a1.6,1.6,0,0,0,.2,1.4h-.2c.4.4,0,.9,0,1.3s-.3.1-.3.3.3.4.5.8a3,3,0,0,1-.2,1c.5,1.1.2,2.1.5,3.2h-.2c.5,1.1.1,2.4.4,3.3h-.4a.441.441,0,0,0,.4.6c.3,0,.2.7-.1.9s.2.4.3.6a2.7,2.7,0,0,0,0,1.4h0c-.1-.1-.3-.1-.3.1s-.1.8.4.5.3,1.4-.1,1.9.2.1.3.2-.2,1.1,0,1.5-.2-.1-.2.1.2,0,.3.1-.2,1.7-.1,2.5a26,26,0,0,1,.3,4H37c.4.4-.3,1,.2,1.4s0,.4-.2.3-.2,1,.1,1.5H37c-.2.5.1.9-.1,1.5l-.2-.2c-.2.2.4.5,0,.6s.2.1.2,0a14.9,14.9,0,0,0,.4,3.6c-.2.9-.8.1-.4.8s.2,0,.1,0-.5.4-.2.6.2.1.3.1-.4.7-.2,1.1h-.2c.5.5.3,1,.8,1.4.2,2.7.7,5.3.9,7.9a66.779,66.779,0,0,1,.4,7.8,1.2,1.2,0,0,0-.1,1.4h-.1c.3,0,.1.5.4.5s.2,1.9.3,2.9-.3-.2-.3,0l.2.2h-.1c.1.1.2.3.3.1.5,2.5,0,5,.4,7.5a7.1,7.1,0,0,0,.2,2.1,13.9,13.9,0,0,0,.1,5.6,1.6,1.6,0,0,1-1.1-.9" fill="#009ca4"/>
    <path id="Path_9626" data-name="Path 9626" d="M35.5,3.9c-.2.1-.3.3-.5.1h.5" fill="#009ca4"/>
    <path id="Path_9627" data-name="Path 9627" d="M33.8,9.8h-.1c0-.1-.1-.1-.1-.2h.2" fill="#009ca4"/>
    <path id="Path_9628" data-name="Path 9628" d="M33.7,11.4c-.1,0-.3-.3-.3-.5Z" fill="#009ca4"/>
    <path id="Path_9629" data-name="Path 9629" d="M33.1,12.8c-.1.1-.2.1-.2-.1h.2" fill="#009ca4"/>
    <path id="Path_9630" data-name="Path 9630" d="M33.4,12.9a.215.215,0,0,1-.2.2c-.1,0-.1-.3.2-.2" fill="#009ca4"/>
    <path id="Path_9631" data-name="Path 9631" d="M33,15.9c0,.1.1.2,0,.3s-.2-.4,0-.3" fill="#009ca4"/>
    <path id="Path_9632" data-name="Path 9632" d="M33.2,17.3v.1s-.2,0-.2-.1Z" fill="#009ca4"/>
    <path id="Path_9633" data-name="Path 9633" d="M34.4,43.2l-.1-.1h.2Z" fill="#009ca4"/>
    <path id="Path_9634" data-name="Path 9634" d="M34.9,54.5c.1.1-.1.1-.2.1s.2,0,.2-.1" fill="#009ca4"/>
    <path id="Path_9635" data-name="Path 9635" d="M36,60.6Z" fill="#009ca4"/>
    <path id="Path_9636" data-name="Path 9636" d="M38.1,1.8c-.5.1.3.3-.3.1s.2-.2.3-.1" fill="#009ca4"/>
    <path id="Path_9637" data-name="Path 9637" d="M84.5,85.2c-.9-1.5-.2-3.6-.8-5.3s.4,0,.3-.4a24.392,24.392,0,0,1-.1-6.3H84c.1-.4-.3-.8-.3-1.2s.1.1.2,0-.1-.7-.3-.9.3-.2.4-.4l-.3-.2c-.7-.6,0-1.6-.4-2.4h.2a27.3,27.3,0,0,1-.6-4.8.3.3,0,0,0,.4,0c.1-.1-.4-.6-.4-1s-.3-.7-.1-1.2h.1c-.3-.4.2-.5-.2-.8l.2-.2c-.4-.2.2-.5,0-.8h-.1c-.1-.3.1-.4,0-.7h0c-.1-.6.1-1-.2-1s.1.6.5.3a34.4,34.4,0,0,1-.2-6.3c.1-.2.2-.4.3-.4s0-.8-.2-1l.2-.2c.1-.4-.3-.4-.2-.8s.2.2.3.2a3,3,0,0,1-.2-1.3c.1.1.1.2.2.2s.1-.8-.1-1.2l.2.2c.3-.6-.4-.2-.2-.8s.1.1.2.1a7.988,7.988,0,0,0-.2-1.9h.1a10.9,10.9,0,0,0,0-1.8c.1-.2.4.1.4-.5s-.1-1-.5-.7a5.3,5.3,0,0,0,.2-1.6c.1.2.5-.2.5.2l.3-.3c.1.1-.1.3.1.2a4.9,4.9,0,0,1,0-1,3,3,0,0,1-.6-1.4c.1.3.4-.1.5.1l-.6-.9c0-.2.3,0,.2-.3s-.1-.1-.2-.2,0-.9.3-.9.1.3.2.1-.1-.4-.1-.8h.1c.1-.3-.1-.8-.3-.5s.2-.1.1.2a1.5,1.5,0,0,1-.2-1l.2.2a5.8,5.8,0,0,1-.4-1.7c-.2,0,.3.2.2.3a4.211,4.211,0,0,1,.1-2.2c.3-.6-.2,0-.2,0s.3-.3.2-.6,0-.3-.1-.5.1-.1.1.2a5.7,5.7,0,0,1,0-2.5c-.1,0-.3-.5-.3-.7h.2c.1-.2,0-.6.2-.6s.2,1.5,0,1-.3-.7,0-.6-.2-.7,0-1.1.3.3.3,0-.1-.2-.2-.6v-.3c-.2,0,0-.5-.2-.3s-.1-.7.3-.7h.3c0-.2-.3-.4-.4-.5h0c-.4,0,.1-.5-.3-.8s0-1.2.3-1.4a1.8,1.8,0,0,1-.2-1.1c0,.1,0,.2.1.2s0-.3-.1-.6.3-.5.4-.8-.4-.2-.5-.3a1.427,1.427,0,0,1,.1-1.4c.4-.4.2.5.3.2s-.3-.7-.1-1.2h-.4c.2-.2-.2-.8.2-.7s.1-.6-.2-.6-.2-2.1.4-2.6,0-.4-.2-.4.1.3,0,.4h-.2c.1-.3.1-.5.4-.2s-.6-.6-.5-1.4.2,0,.2-.2l-.3-.4c0-.5.3-.3.6-.3s0-.6-.2-.7l.3-.3c-.2.2-.2-.2-.2-.3H84c.1-.1,0-.4,0-.5s-.2.4-.2.5-.1-.3-.2-.5.2-.4.2-.6a.37.37,0,0,0-.2-.3s0-.4.2-.2-.1.2,0,.3.3-.1.1-.5-.5.1-.3-.4l.3.2V5.2h-.1c-.2-.1-.1-.7-.4-.8a.5.5,0,0,1,0-.2h.1V3.9h0a.3.3,0,0,0-.1-.4h0c0-.1,0-.2-.2-.2s.8-.8.5-.8a1.2,1.2,0,0,0-.7.6h-.9c-.1.1,0,.1-.2.2a5.19,5.19,0,0,1-2.8,0c-.8-.4,0-.2,0-.3s-.3-.2-.3.2,0,.3.3.4a3.3,3.3,0,0,1-1.8,0c.2.1,0,.2-.1.2s-.4-.4-.7-.2v.2l-.2-.2c-.1.1-.1.4-.4.2V3.4c-.3.2-.8.5-1.1.3l-.3-.3c-.2,0-.4.2-.1.3a3.766,3.766,0,0,1-1.2-.4,7.4,7.4,0,0,1-3.8.7h0c-.3-.1-.2.3-.4.2s-.3-.3,0-.5-.6.3-.9.3.2-.1.2.1-.7-.1-.7.2V3.9h-.3c-.4-.3.8-.6.4-1h-.3c-.3-.3.7-.4,0-.4s-.5.6-.3.7-.3.7-.9.7.5-.1.4-.3-.6.1-.9.1.1.4-.1.5.2-.3-.3-.3-.5.3-.1.4-.5-.1-.7.2.5-.6,0-.8-.6.4-.3.7a.206.206,0,0,1-.1-.4c-.3-.2-.7.5-.8,0v.3L62.9,4c-.3,0-.8.4-.8,0s-.7,0-.4.3.4-.2.6.2-.5,0-.7.2V4.4c-.1.1-.4,0-.5.2a.112.112,0,1,0-.1-.2v.2c-.5.1-.1-.4-.6-.3l.4-.2c-.1,0-.2-.2-.5-.1l-.3.6c-.3.1-.1-.2-.4,0l.3-.3c.1-.1-.2-.4-.6-.3s-.6.4-.2.5-.4-.1-.3-.3.1.2-.3.4l-1-.6.4-.4h-.2c.3-.3-.2-.2,0-.5h-.5c.5.5-.6.7-.4,1.1s-.4-1.1-1.1-.4-.2.5.2.3-.3.4-.8.3-.4-.4.1-.7.3.1.4.1,0-.4-.4-.4-.6.1-.6.3.4,0,.2.2-.6-.3-.8.2a.4.4,0,0,1,.4.4H54c-.6-.1-.2.3-.8.3l-.3-.3c.1-.3.9.1.8-.3s-.5.2-.9.1h.3c-.1,0-.3-.6-.8-.3s-.1.2-.1.3L51,4.4c.1-.3-.7,0-.3-.4A1.3,1.3,0,0,0,52,3.9c-.2-.4.5.1.6-.3s-.5-.4-.6-.7h-.4c-.1.2.1.2.1.5a2,2,0,0,0-1.4.3.206.206,0,0,1,.1-.4h-2c.4.4-.7.1-.4.4s.6.4.4.6,0-.2-.1-.3-.4-.4-.7,0,.1-.5.2-.8,0-.2-.4-.2l-1.5.4c-.6-.3-1.5,0-2.1,0s-.1-.5-.4-.6.3.4-.3.2h.1c-.2.1-1-.3-1.2.2l.2-.4h-.3c0-.1-.1-.2,0-.3s-.7,0-1.1,0l.2.2c-.6.2-1-.1-1.6,0V2.6H39c.1-.2-.2-.4-.4-.2L40,2c.3.1-.3.3-.1.5a.6.6,0,0,0,.8-.1h-.4c-.1-.3.3-.3.4-.5h-.3l.8-.2c-.2.1.1.2,0,.3s.4-.3.8-.3a5.721,5.721,0,0,1,1.4-.1,1.8,1.8,0,0,1-.8.6h.7c.2-.2.3-.5.7-.6v.2c.4-.1.4-.4.9-.3l2.3.2v.2c.4-.4,1.2-.1,1.7-.3a2.8,2.8,0,0,1,2.2.2,26.5,26.5,0,0,1,4.2-.2l-.3.3c.3-.2.2.2.4.1a1.205,1.205,0,0,0,.5-.5A3.5,3.5,0,0,0,58,1.3v.2c.6-.4,1.3-.1,2,0s.2.3.4.2a3.1,3.1,0,0,1,1.2-.5l1.6.2c1.6-.5,3.3-.2,4.9-.6V1c1.6-.6,3.6-.2,5-.5V.9c.4.1,1-.1.9-.4s1.1-.2,1.4.1.5-.2.9-.3a6.3,6.3,0,0,0,2.1,0h-.2c-.1.1-.1.3.1.3s1.2.1.8-.4,2.1-.3,3,0,.1-.2.3-.3H86V.3c-.1.3-.2-.1-.2.4s.2-.2.3.2a16.2,16.2,0,0,1,.1,3.2A10.6,10.6,0,0,0,86.4,6a50.4,50.4,0,0,1,.3,6.3h-.1c.4.7-.4,1.6.2,2.1s0,.6-.2.5-.2,1.5.1,2.3a.3.3,0,0,0-.1-.2c-.2.8.1,1.5-.1,2.3s-.1-.2-.2-.3.4.8-.1.9.2.1.2,0a41.9,41.9,0,0,0,.1,5.6c-.3,1.3-.8.1-.5,1.1s.2.1.1.1-.6.6-.3.9.2.2.3.2-.5,1-.3,1.6h-.1c.4.8.1,1.6.6,2.3-.1,4.2-.3,8.3-.5,12.2s-.3,7.9-.6,11.9a2.6,2.6,0,0,0-.2,2.1h-.1c.3.1,0,.7.3.8s0,2.9.1,4.4c0-.2-.3-.4-.3-.1l.2.3H85c.1.2.2.4.3.2.3,3.9-.2,7.7.1,11.5a16.5,16.5,0,0,0,.2,3.2,30.4,30.4,0,0,0,.1,8.5,2.1,2.1,0,0,1-1.2-1.5" fill="#009ca4"/>
    <path id="Path_9638" data-name="Path 9638" d="M38.6,1.8c.1.2.4.3.2.5s-.2-.3-.2-.5" fill="#009ca4"/>
    <path id="Path_9639" data-name="Path 9639" d="M47.7,3.7h.2c-.1,0-.2.1-.3.1s.1-.1.2-.2" fill="#009ca4"/>
    <path id="Path_9640" data-name="Path 9640" d="M50,3.8c0,.1-.5.3-.8.3Z" fill="#009ca4"/>
    <path id="Path_9641" data-name="Path 9641" d="M52.2,4.4c.2.1.1.2-.1.2s.1-.1.1-.2" fill="#009ca4"/>
    <path id="Path_9642" data-name="Path 9642" d="M52.3,4.1l.4.2c0-.1-.4.1-.4-.2" fill="#009ca4"/>
    <path id="Path_9643" data-name="Path 9643" d="M57,4.5c.1,0,.4-.1.5,0s-.6.2-.5,0" fill="#009ca4"/>
    <path id="Path_9644" data-name="Path 9644" d="M59.2,4.3h.2c.1.1,0,.2-.1.2Z" fill="#009ca4"/>
    <path id="Path_9645" data-name="Path 9645" d="M84,15.8l-.1-.2H84Z" fill="#009ca4"/>
    <path id="Path_9646" data-name="Path 9646" d="M83.4,33.1c.1.2-.1.2-.2.2s.2.1.2-.2" fill="#009ca4"/>
    <path id="Path_9647" data-name="Path 9647" d="M83.4,42.5Z" fill="#009ca4"/>
  </g>
</svg>
