<svg xmlns="http://www.w3.org/2000/svg" xmlns:xlink="http://www.w3.org/1999/xlink" width="1174.587" height="1170.039" viewBox="0 0 1174.587 1170.039">
  <defs>
    <clipPath id="clip-path">
      <rect id="Rectangle_227" data-name="Rectangle 227" width="854.026" height="807.924" fill="none"/>
    </clipPath>
  </defs>
  <g id="zon" transform="translate(530.046) rotate(41)" clip-path="url(#clip-path)">
    <path id="Path_7884" data-name="Path 7884" d="M257.6,180.971c2.634.465-1.394-.775,1.7.155a2.789,2.789,0,0,1-1.7-.155" transform="translate(141.451 99.263)" fill="#f7b93d"/>
    <path id="Path_7885" data-name="Path 7885" d="M259.5,177.583c8.21-3.1,19.829-3.718,29.278-5.112,1.084-.155-.31.62,2.324.31a82.262,82.262,0,0,1,16.73-.62,117.733,117.733,0,0,1,18.125,2.479h-.775c2.014.465,4.8.31,6.971.775s-.775,0-.31.31a23.04,23.04,0,0,0,5.112.62c1.084,0,.62.62,1.7,1.084h1.394a20.6,20.6,0,0,1,6.2,1.239l6.971,2.324c-.31,0-.775-.155-.465.155l2.943.775,3.1,1.084,6.2,2.479a124.232,124.232,0,0,1,12.083,6.351c-.31,0-.775,0-.465.465a4.648,4.648,0,0,1,2.014.775l2.943,1.859c.62.929,3.563,2.014,5.577,4.028h-.31c1.859.929,2.169,2.169,3.873,2.788l.775,1.084c1.084.155,2.014,2.169,3.408,3.253h0c1.239,1.084,1.549,1.859,2.634,2.943h0l2.634,3.1c.62.775.929,1.084,1.084.929s-.31,0-.929-.62-1.084-.929-.62,0a68.935,68.935,0,0,1,9.914,14.252,80.1,80.1,0,0,1,6.506,16.266,10.841,10.841,0,0,1,.155,2.479c.465,1.084,1.084,4.183,1.549,5.267s-.155.775,0,1.394a16.6,16.6,0,0,1,1.084,4.492q-.465-1.394-.62-.775a35.783,35.783,0,0,1,1.239,6.816c-.155-.31-.155-.929-.31-.775a12.393,12.393,0,0,1,.31,3.563,25.87,25.87,0,0,0,.155,3.253l-.31-.775c-.31,3.563.62,1.084.465,4.183-.155-.775-.155-.465-.31-.62a27.732,27.732,0,0,1,.155,5.267l-.31,5.267h-.155c-.31,3.1-.93,6.351-1.394,9.914s-.465-.465-1.394,2.633c.62,0-1.394,5.422-.31,3.873l-.775,2.324-1.084,2.479a41.681,41.681,0,0,0-1.549,4.028c.31-1.239-1.239.93-.31-1.239l-.929,1.549c-.155-.31.775-1.7.31-1.239a34.072,34.072,0,0,1-2.324,5.267,26.026,26.026,0,0,1-2.788,7.281c.62-1.549-1.084.465-.465-.465l-1.7,4.8c-.62.929-.465,0-1.394,1.394s-.155.62-.465,1.239-2.788,4.183-3.563,4.183,0-.31.31-.62.31-.62-.155-.155-1.394,1.859-2.788,3.563h-.155c-.929,1.084-2.633,3.408-1.394,2.479s-.465,0,.62-.929a9.14,9.14,0,0,1-1.394,2.014l-2.324,2.479c.465-.62.31-.62.31-.929l-2.788,3.563-3.408,3.408c.155.31.62-1.239,1.084-1.394s-3.253,2.943-4.8,4.337a29.742,29.742,0,0,1-4.647,3.563c.465-.465.465.155.465,0a7.393,7.393,0,0,0-2.788,1.7c-.929.93-1.394.93-2.479,1.859s-.31.155.62-.62a60.726,60.726,0,0,1-11.773,7.436,13.944,13.944,0,0,1-3.1,2.169v-.465c-.929.31-2.943,1.549-3.253,1.394s7.281-4.183,4.8-2.479-3.408,2.324-3.1,1.7a26.49,26.49,0,0,1-5.422,2.634c.465-.155,1.239-1.084-.155-.465s-.62.465-2.788,1.549l-1.394.62c0,.31-2.479.929-1.239.929s-3.873,1.7-3.873,1.084v-.62a24,24,0,0,0-2.634,1.549h-.465c0,.775-2.943.775-4.183,1.859a58.868,58.868,0,0,1-7.746,1.549A25.252,25.252,0,0,1,321,376.335l1.239-.465a11.155,11.155,0,0,0-3.1.62h-4.492c-2.014.465-1.239.775-1.394.929a27.7,27.7,0,0,1-8.055.465c.62-.155,2.943-.465,1.239-.62s-3.718.775-6.661.465l.775.62c-1.394-.31-4.337.31-4.028-.155s-3.563-.31-3.253.31c-4.8-.62-11.928-.62-14.717-2.014s-2.479-.465-2.169,0,1.7,0,2.014.31-.775,0-.929.155-2.633-.62-1.084-.775a9.913,9.913,0,0,0-3.563-.31,11,11,0,0,1-4.183-.465c.31-.155,0-.31-1.239-.62h-1.084c-2.633-.775-1.394-.929-1.394-1.239a21.845,21.845,0,0,0-3.873-.775l-1.549-1.084c1.084.775-1.239-.155-1.859-.31h.62a12.545,12.545,0,0,0-2.633-.929,10.069,10.069,0,0,0,2.634,1.394l-2.943-.62c.465-.155-2.169-1.084-3.253-1.7a5.732,5.732,0,0,0-1.859-.465c0-.155-2.014-.929-.929-.775a9.759,9.759,0,0,0,1.7.775,4.647,4.647,0,0,0-2.324-1.239c-1.394-.465,0,.929-2.324-.465l1.394.31-2.169-1.239-.31.31c-.31-.155,0-.155-.155-.31l-2.014-2.324a6.041,6.041,0,0,0-2.014-.775l-3.253-2.169h.155a18.128,18.128,0,0,0-4.028-2.324h.155a20.916,20.916,0,0,0-3.1-1.859c-1.549-1.394.155-1.394-1.859-2.479s-2.943-1.394-2.479-.775L222.163,350a23.236,23.236,0,0,1-3.873-4.028c-.465-.31-.31,0-1.084-.775-3.718-4.028-7.9-8.365-9.914-12.238,1.084,1.239.31-.155.465-.31s-.62-1.394-1.394-1.549-.31.31.465,1.549l-3.253-4.492a34.86,34.86,0,0,1-2.169-3.873c.31.775-.155.31-.62-.31s.155-.62-.31-1.239l-1.394-2.324h-.465l-.31-1.239c-.465-.62-.929-.31-1.549-2.014a.93.93,0,0,0,0-.62,27.73,27.73,0,0,1-3.253-5.732c-.155-.62-.155-1.084-.31-1.7s-1.239-2.014-.775-.62c-1.084-3.253-2.014-5.422-1.859-6.506a46.781,46.781,0,0,1-3.718-9.759c-.465-1.859-1.084-3.718-1.394-5.577l-.775-5.422h.31c0-1.859-.465-.929-.62-2.169s.31-1.394.775,0a22.928,22.928,0,0,0-.775-5.112c-.31-.31.31,1.394-.155,1.084s0-3.718-.465-4.183.465-.155.775.155-.31-1.084-.31-1.549.465.155.775,1.239.62,2.169.93,1.084V270.22c.465-1.394.775,3.873.775.155s-.775-2.943-1.084-1.549c0-3.408-1.084-1.549-.775-5.267.31-.929,0,2.943.31,2.169a34.856,34.856,0,0,0,.155-4.957c-.155,1.7-.62.155-.62-.93s.31,1.239.62-1.394-.155-2.943-.62-.775c-.465-1.084.465-2.633.155-4.183s.62,2.788,1.239,0c-.465.465,0-3.563-.775-2.169.31-1.084.62-1.239.775-.31.465-1.549,0-4.028.929-4.338l-.31-.62.929-1.859c.31-1.394.62-4.647,1.239-4.338s1.084-3.563.31-2.479-.31,2.324-1.239,3.253a9.915,9.915,0,0,0,.929-4.028h.31a13.631,13.631,0,0,0,.62-2.788c0,.62.155.31.465-.155v-.775c.929-2.788.775-.465,1.7-3.1l-.465,2.014c.155-.465.775-1.239,1.239-2.479a2.335,2.335,0,0,0-.155-2.169c-.155-.465.62-.465.929-2.014s-.31,1.394-.465,2.014,1.084-1.084,2.014-2.943,1.084-3.253-.155-1.549c.465-.929,1.394-2.169,1.239-1.239,1.084-2.169-.465.155.465-1.859l1.549-1.7,2.014-2.014-.775,2.014.775-1.239c-.62,1.7.775-.62.62.465a17.038,17.038,0,0,0,1.549-2.633c-1.084.929-.93.155-.465-.775s1.084-2.169.465-2.014c2.169-3.253,2.788-.929,4.647-4.647-.62.31.31-1.394-1.239.62,1.7-1.7.62-1.7,2.788-3.563-1.239,1.7,2.169-1.084.31,1.394,0-.31-1.394,1.084-1.549,1.549s.31.62,2.014-1.239,2.479-2.634,2.014-2.634-1.549,1.7-1.239.62,2.943-2.014,3.408-3.408c-1.394,1.239-2.014,1.394-2.169,1.084l1.549-1.549v.465c1.394-1.084,1.549-1.394,1.7-1.7s.155-.465,1.549-1.549l1.549-.62c-.31.929-4.028,2.943-3.1,3.1a40.594,40.594,0,0,1,3.873-3.253l-1.239,1.084a9.759,9.759,0,0,0,4.183-2.479c1.239-1.084.155-.465.155-.775,2.943-2.014,3.718-2.788,5.887-3.873s.775-.155,1.549-.465,1.084-.465.155.31l-3.408,1.7a14.1,14.1,0,0,0-3.1,2.324c.775-.155.155.31-.775.775s-1.859,1.239-1.859,1.7c2.324-1.7,2.633-1.084,3.253-.929l1.549-1.239c.155-.465-.775,0-1.084-.31l3.873-2.324,2.943-2.014c1.084-.31.929.155-.155.775a61.342,61.342,0,0,1,10.534-4.338c-1.239.155-.31-.31.775-.62s2.169-.775,1.394-.775-3.563.62-2.633,0,0,.31.62.155,2.479-.155,3.718-1.239c-3.253,1.239-.465.929-.929,1.549,2.324-.93,0,.31,2.324-.31a53.912,53.912,0,0,1,7.9-2.479c3.408-.31,8.675-1.394,11.773-1.7s.62.775,2.324.775-1.549-.465,1.549-.465h-.31c.929-.155,5.577.155,6.351-.62l-.929.62h1.549c0,.155.62.31-.31.465a35.478,35.478,0,0,0,5.887,0l-1.239-.465a73.427,73.427,0,0,1,9.14.62v.31h2.014c-.465.31,1.239.775,2.324.62H288.93c-1.394-.31,1.549-.31.775-.62a9.449,9.449,0,0,0-4.338-.31h2.169c.31.465-1.394.31-2.324.62h-2.788c1.394-.155-.775-.31-.155-.465a26.453,26.453,0,0,1-4.647.31c-2.479-.155-4.647.31-7.591.31a15.955,15.955,0,0,1,4.338-1.084h-4.957a10.689,10.689,0,0,1-3.873,1.239v-.31a35.016,35.016,0,0,1-4.8,1.084,88.758,88.758,0,0,0-12.7,2.169v-.31c-1.7,1.084-6.351,2.014-8.675,3.253a115.218,115.218,0,0,1-11.154,4.8l-4.957,3.1-4.492,3.408-2.169,1.859-2.169,1.859c-1.394,1.239-2.788,2.633-4.338,4.183l.62-1.239c-.775,1.239-.929.465-1.859,1.549a9.354,9.354,0,0,0-1.394,2.788,29.587,29.587,0,0,0-3.718,4.647,52.975,52.975,0,0,0-2.788,4.957h-.31c-1.239,3.1-3.408,6.2-5.112,10.069a6.041,6.041,0,0,0-1.239,2.169c-.31,2.169-.775,3.253-1.394,6.506l-2.479,8.21c-.62,4.492-1.084,8.83-1.394,13.477v6.816a21.683,21.683,0,0,0,.155,3.408l.31,3.408-.31.62a66.588,66.588,0,0,0,1.239,6.971l.62,3.563.775,3.563a58.1,58.1,0,0,0,1.859,6.816,52.521,52.521,0,0,0,2.169,5.887l-.929-.465c.775,2.324,2.169,4.957,2.479,4.338l.775,1.859.929,1.859a11.618,11.618,0,0,1,1.239,3.253A22.772,22.772,0,0,0,203.109,317l1.394,2.788,1.394,2.169a44.115,44.115,0,0,0,3.253,4.647l-.62-.93c-.465-.31-.62-.155,0,.775s3.563,5.267,3.253,3.408c2.633,4.183,7.591,8.675,10.534,12.548-.155-.465.775.465,1.239.62l2.324,2.324,2.324,2.169a31.289,31.289,0,0,0,4.647,3.563c.465.465-1.084-.31.31.775s.155-.155,1.239.465c5.887,3.718,11.773,7.9,17.66,10.379a124.4,124.4,0,0,0,32.841,8.52h-.155c3.718-.155,8.52,1.239,11.463.465s3.253.155,2.634.465c2.943-.31,8.21.31,12.393-.62h-1.084a120.515,120.515,0,0,0,12.393-1.394l-1.394.465c1.7,0,3.873-1.394,4.957-.775s.62-.465,0-.31a109.675,109.675,0,0,0,28.659-10.224c6.661-2.943.929.93,5.887-2.169.465-.155.155-.465.31-.31a12.691,12.691,0,0,0,4.647-2.169c1.239-1.084.775-.775.62-.93a30.982,30.982,0,0,0,7.746-4.647v.31l2.479-2.169,2.479-2.169a23.7,23.7,0,0,0,4.183-4.183,106.427,106.427,0,0,0,21.378-25.56l2.014-3.563,1.859-3.718a39.617,39.617,0,0,0,1.7-3.718l1.549-3.873a67.708,67.708,0,0,0,2.634-7.746c.31-1.239.775-2.633,1.084-3.873s.465-2.633.775-4.028c3.408-21.378,0-43.685-11-62.584a31.291,31.291,0,0,0-2.634-4.8,44,44,0,0,0-3.563-4.492c.155.155.465.31.31,0s-2.634-2.943-3.408-3.1a92.637,92.637,0,0,0-18.434-15.491c1.084.62,1.859.775.62-.155l-1.549-.62v-.31c-.929-.465-2.169-.929-1.239-.155a139.266,139.266,0,0,0-59.486-18.9c-2.479-.31-5.422-.465-8.52-.62h-8.83a148.56,148.56,0,0,0-46.473,6.041,7.746,7.746,0,0,1,1.7-1.084,28.04,28.04,0,0,1,6.661-2.479" transform="translate(100.827 94.441)" fill="#f7b93d"/>
    <path id="Path_7886" data-name="Path 7886" d="M256.089,180.837c-.465-.31-2.324-.775-.775-.929s1.084.62.775.929" transform="translate(139.864 98.778)" fill="#f7b93d"/>
    <path id="Path_7887" data-name="Path 7887" d="M223.329,180.62H222.4a6.505,6.505,0,0,1,1.7-.62c-.62.155-.465.31-.775.465" transform="translate(122.123 98.84)" fill="#f7b93d"/>
    <path id="Path_7888" data-name="Path 7888" d="M214.9,184.069a18.589,18.589,0,0,1,4.183-2.169l-4.183,2.169" transform="translate(118.004 99.884)" fill="#f7b93d"/>
    <path id="Path_7889" data-name="Path 7889" d="M207.812,186.917c-.929.465-.775.155.465-.62s-.155.31-.465.62" transform="translate(113.784 102.148)" fill="#f7b93d"/>
    <path id="Path_7890" data-name="Path 7890" d="M208.059,187.248l-1.859.929c.155.155,1.859-1.549,1.859-.929" transform="translate(113.227 102.746)" fill="#f7b93d"/>
    <path id="Path_7891" data-name="Path 7891" d="M195.189,199.029c-.465.465-.929,1.859-1.549,2.169s1.549-2.788,1.549-2.169" transform="translate(106.269 109.244)" fill="#f7b93d"/>
    <path id="Path_7892" data-name="Path 7892" d="M190.752,206.1l-.465.929c-.465.62-.155-.155,0-.775Z" transform="translate(104.354 113.172)" fill="#f7b93d"/>
    <path id="Path_7893" data-name="Path 7893" d="M261.894,304.5l-1.394.155.155-.155Z" transform="translate(143.044 167.205)" fill="#f7b93d"/>
    <path id="Path_7894" data-name="Path 7894" d="M318.3,280.177c.775-1.084.775-.465.93-.62s.155-.465-.93.62" transform="translate(174.782 153.419)" fill="#f7b93d"/>
    <path id="Path_7895" data-name="Path 7895" d="M335.22,250.5l-.155.465-.465-.31Z" transform="translate(183.733 137.553)" fill="#f7b93d"/>
    <path id="Path_7896" data-name="Path 7896" d="M299.742,152.7c-.155.929.62-.31,0,.62a.465.465,0,0,1,0-.62" transform="translate(164.527 83.849)" fill="#f7b93d"/>
    <path id="Path_7897" data-name="Path 7897" d="M405.735,3.563c-.465,3.253-3.563,6.2-4.492,9.45-.155.31-.465-.465-.775.465-.775,3.253-3.718,7.591-6.2,10.689v-.31c-.465.62-.465,1.7-.929,2.324s0-.31-.31-.155a2.218,2.218,0,0,0-.465,1.7l-.929.31v.62c.31,1.549-1.549,2.633-1.859,4.492s0-.31-.155-.155a73.9,73.9,0,0,1-3.873,8.675c0-.155-.31-.465-.465-.31s0,1.239-.31,2.014a6.562,6.562,0,0,1-.93,2.169h0c.155.929-.775.775-.465,1.549l-.465.31c.465.62-.775.775-.775,1.394h.155c-.155.62-.62.62-.62,1.239h-.31c-.465,1.239-1.084,1.7-.62,1.859s.465-1.084-.465-.775a113.871,113.871,0,0,1-5.267,11.154l-.775.62a7.9,7.9,0,0,0-.62,1.859l-.465.31c-.465.62.155.929-.465,1.549s0-.465-.31-.465a7.436,7.436,0,0,1-.775,2.324.569.569,0,0,0-.155-.465c-.155-.155-.775,1.394-.929,2.169V69.71c-.93.929.31.62-.31,1.549s-.155-.31-.155-.31a14.407,14.407,0,0,1-1.239,3.563h.155a25.874,25.874,0,0,0-1.394,3.253c-.31.31-.62-.465-.93.62s-.62,1.859.155,1.549a12.7,12.7,0,0,0-1.549,2.943c0-.465-.775.155-.465-.62l-.62.465c-.155-.155.31-.62,0-.465a12.089,12.089,0,0,1-.775,1.859,6.661,6.661,0,0,1-.31,2.943c0-.62-.775,0-.62-.31v2.014c-.155.465-.465-.155-.62.465s.155.31.155.465-.62,1.549-1.239,1.549.155-.62-.155-.31-.155.775-.465,1.549h0c-.31.465-.465,1.394.155,1.084s-.31,0,0-.465a3.563,3.563,0,0,1-.465,2.014c0-.31-.155-.31-.155-.465a13.479,13.479,0,0,1-.775,3.253c.31.155-.31-.62,0-.62s-.775,2.943-1.859,3.873.465,0,.31,0-.62.465-.775.929-.155.62-.31,1.084-.155,0,0-.31a13.942,13.942,0,0,1-1.859,4.492c.155,0,.155,1.084,0,1.394l-.31-.31c-.31.155-.465,1.084-.775,1.084s.93-2.788.775-1.7-.155,1.549-.465,1.084-.155,1.394-.775,1.859-.155-.775-.465-.155,0,.31-.155,1.084v.465c.31.155-.465.775.155.62s-.465,1.394-.93,1.084l-.31-.31c-.155.465.155.775.155,1.239h-.31c.62.31-.465.929-.155,1.549s-.929,2.169-1.549,2.324a4.337,4.337,0,0,1-.62,2.014c0-.155.155-.31,0-.465s-.31.62-.31,1.084-.775.775-1.239,1.239.31.62.465.775a3.7,3.7,0,0,1-1.239,2.479c-.775.465.155-1.084-.31-.62s0,1.394-.775,2.169h.62c-.465.31-.31,1.549-.775,1.239s-.62,1.084-.155,1.084-1.394,3.873-2.788,4.492-.31.775,0,.775,0-.62.31-.62a.31.31,0,0,0,.155.31c-.31.465-.465.775-.775.155s.31,1.549-.465,2.788-.31-.155-.465.31v.929c-.465.775-.62.31-1.084.155s-.465,1.084-.31,1.394l-.62.31c.465-.31,0,.465,0,.775v-.31c-.155,0-.31.62-.465.929s.62-.465.775-.775-.155.62-.155,1.084-.62.62-.775,1.084.155.62,0,.775-.31.62-.465.31.31-.31.31-.62-.62,0-.62.775.775.155.155.929-.155-.31-.155-.62l-.465.775h.155c.155.31-.465,1.239-.155,1.549s-.62.775-.775,1.084h0a2.014,2.014,0,0,0-.465,1.549h0a2.633,2.633,0,0,0-.31,1.239c-.465.465-1.239-.31-1.239.62s.155,1.239.465,1.084-.775,2.633-1.7,3.563.155.155.155.465-1.239,3.873-2.324,4.957-.31-.155-.465-.155-.465.31-.155.775.465.155.775-.31a8.367,8.367,0,0,1-1.394,3.1c.31-.155.31,0,.31.31s-.775.465-.93,1.084h.31l-.465.31c0,.31.465.465,0,.929h-.31a3.563,3.563,0,0,1-.465,2.169l-.62.31c0,.31,0,.929.31.465s-1.084,1.7-1.549,1.859a18.9,18.9,0,0,1-2.014,7.281h-.155c-.465.465.31.465,0,.775s-.62.31-.62-.31a16.882,16.882,0,0,1-.155,1.859c-.155.62,0-.465.31-.31s-.62,1.084-.31,1.394-.465-.155-.62-.31v.62c-.775.465-.31-1.859-1.084-1.394v.465c-.62.31,0-1.549-.62-.31s.465,1.239.775.929.775.929.31,2.014.31-.929-.155-.929-.31,1.239-.62,1.549.62.155.62.465-.31-.62-.62.31,0,1.084.465.465-.465.775-.31,1.394-.62-1.239-1.084-.31,0,1.394.775,1.084-.62.31-.62-.155.155,1.549-.62,1.394l.31.31-.62.465c-.155.465,0,1.7-.62,1.394s-.465,1.239.155.929,0-.929.62-1.084-.31.929-.31,1.394h-.31c0,.31-.31.775,0,.929s-.31-.155-.31,0l.31.31c-.155.929-.62,0-.929.929V195.5c0,.155-.465.31-.465.775l.62.929c0,.62-.465.155-.31.775V197.2c0-.155-.62.31-.929.929s.155,1.239.62.62-.465.775-.62.31.31,0,.31.775l-1.394,1.239-.31-.929v.465c-.155-.775-.465.155-.775-.31a2.013,2.013,0,0,0-.155,1.084c1.084-.62.62,1.394,1.239,1.394s-1.859.155-1.394,1.859.465.62.62-.155.465.775-.155,1.549-.929.465-.929-.62.31-.465.31-.62-.62-.31-.929.465-.31,1.239,0,1.239.31-.775.465-.31-.93.929-.31,1.549.62-.62.93-.465v.775h-1.394c-.62,1.084.31.465-.155,1.549l-.62.31c-.31-.465.775-1.549,0-1.549s0,1.084-.465,1.7,0-.31,0-.62-1.084.155-.93,1.394.155.155.465.31-.155,1.549-.465,2.324-.465,1.239-.775.31a2.943,2.943,0,0,0,.774-2.479c-.774.155.465-.929-.155-1.394s-.93.62-1.394.62a1.549,1.549,0,0,0,0,.775c.31.31.465-.155.775,0a4.8,4.8,0,0,0-.465,2.788c-.31.31-.62,0-.465-.31a22.927,22.927,0,0,1-1.394,3.718c.929-.465-.31,1.394.31,1.084s.93-.929,1.084-.465-.31-.155-.465,0-.775.62-.465,1.239-.62-.465-.929-.929-.31-.155-.62.62a15.648,15.648,0,0,1-.465,2.943,11.773,11.773,0,0,0-1.394,3.873c-.465.465-.775-.155-1.084.465s.775-.31.155.62h0c0,.31-1.084,1.7-.31,2.324l-.465-.465c-.155.155,0,.465,0,.62s-.465.155-.465-.31-.465,1.239-.62,2.014l.465-.31a22.454,22.454,0,0,1-1.084,3.1h-.31v.775c-.31-.31-.62.31-.465.775v-2.014c.31-.465.155.62.62.465a1.394,1.394,0,0,0,.465-1.549,1.084,1.084,0,0,0-.155.775c-.465,0-.31-.62-.465-1.084s-.31.465-.155.62a3.253,3.253,0,0,1,.31-1.549c0,.465.31-.155.465,0s-.31-.929.155-1.7.31-1.7.775-2.633a3.563,3.563,0,0,1,.31,1.859c.465-.465.155-.62.62-1.239a2.324,2.324,0,0,1-.465-1.7h.31c.155-.775-.31-.929.155-1.859s1.239-3.1,1.7-4.338h.31c-.31-.929.62-2.324.62-3.253a7.8,7.8,0,0,1,1.7-4.028,58.086,58.086,0,0,1,2.014-7.745l.31.62c-.155-.62.31-.155.465-.775s-.155-.775-.31-1.239a8.52,8.52,0,0,0,1.239-4.028h.31c-.155-1.239.93-2.479,1.549-3.718a1.239,1.239,0,0,0,.62-.62,7.127,7.127,0,0,1,.155-2.479,15.34,15.34,0,0,1,1.394-2.788c.465-3.253,2.169-6.042,2.943-9.295h.465c.465-3.253,2.633-6.661,3.253-9.45l.465.465c.465-.775.62-1.859.155-1.859s.465-2.169,1.239-2.479.155-1.084.31-1.859a15.8,15.8,0,0,0,1.549-3.718v.31c0,.155.31.31.465,0s1.084-2.014.155-1.7,1.239-4.028,2.479-5.267-.155-.31-.155-.62a19.834,19.834,0,0,0,1.859-4.028c.155-.155.155.465.465,0s-.31-.155-.155-.62,2.324-4.492,3.253-6.661,3.253-7.746,4.647-11.309h.155c0-1.394,1.859-2.633,1.394-3.873s.62-1.084.775-.775,1.549-2.479,1.7-4.028a.62.62,0,0,0-.155.31c.93-1.239,1.084-2.633,2.014-4.028s-.155.465,0,.62,0-1.549.775-1.549-.155-.31-.31-.155a97.59,97.59,0,0,0,4.337-10.069c1.549-2.169,1.239.31,1.549-1.7s-.155-.155,0-.155,1.239-.775,1.084-1.394,0-.465-.31-.62,1.394-1.394,1.7-2.788h.155c0-1.7,1.084-3.1.93-4.492l4.957-11.154,4.957-10.844c3.718-6.971,6.816-14.1,10.844-21.068a6.506,6.506,0,0,0,2.169-3.408c0,.155,0,.31.155.155s.62-1.239.31-1.7,2.633-5.112,4.028-7.746c-.155.465,0,.929.31.31v-.929h.155c.155-.31.155-.929-.31-.62,3.253-6.971,7.746-13.167,11.154-19.829a41.669,41.669,0,0,0,3.1-5.577A82.41,82.41,0,0,0,405.889,0a4.182,4.182,0,0,1-.155,3.563" transform="translate(165.268 0)" fill="#f7b93d"/>
    <path id="Path_7898" data-name="Path 7898" d="M299.9,152.111c.31-.155.62-.62.775,0s-.62.155-.775,0" transform="translate(164.679 83.354)" fill="#f7b93d"/>
    <path id="Path_7899" data-name="Path 7899" d="M305.4,141.81l.31-.31a.931.931,0,0,1-.155.62c-.155.155,0-.155-.155-.31" transform="translate(167.699 77.699)" fill="#f7b93d"/>
    <path id="Path_7900" data-name="Path 7900" d="M306.655,139c.155.155,0,1.084-.155,1.7Z" transform="translate(168.303 76.327)" fill="#f7b93d"/>
    <path id="Path_7901" data-name="Path 7901" d="M308.1,136.657c.31-.31.31-.155.155.31s-.155-.155-.155-.31" transform="translate(169.181 74.952)" fill="#f7b93d"/>
    <path id="Path_7902" data-name="Path 7902" d="M307.8,136.52a1.084,1.084,0,0,1,.465-.62c-.155,0-.155.775-.465.62" transform="translate(169.017 74.624)" fill="#f7b93d"/>
    <path id="Path_7903" data-name="Path 7903" d="M310.4,131.175c0-.155,0-.775.31-.775s-.155,1.084-.31.775" transform="translate(170.444 71.604)" fill="#f7b93d"/>
    <path id="Path_7904" data-name="Path 7904" d="M311.1,128.425c0-.155.155-.155.155-.31s.31.155.155.31Z" transform="translate(170.829 70.326)" fill="#f7b93d"/>
    <path id="Path_7905" data-name="Path 7905" d="M330.055,81.6v.465l-.155-.155Z" transform="translate(181.152 44.808)" fill="#f7b93d"/>
    <path id="Path_7906" data-name="Path 7906" d="M339.3,61.759c0-.465.31-.155.465-.31s-.155-.31-.465.31" transform="translate(186.314 33.666)" fill="#f7b93d"/>
    <path id="Path_7907" data-name="Path 7907" d="M344.065,50.655l-.155.155-.31-.31Z" transform="translate(188.675 27.73)" fill="#f7b93d"/>
    <path id="Path_7908" data-name="Path 7908" d="M347.065,191c-.775.465.62.155-.465.465a.465.465,0,0,1,.465-.465" transform="translate(190.322 104.88)" fill="#f7b93d"/>
    <path id="Path_7909" data-name="Path 7909" d="M584.02,140.724c-2.633,1.859-6.816,1.7-9.759,3.1-.31.155,0-.62-.93-.31a73.229,73.229,0,0,1-11.773,2.633v-.31c-.775,0-1.549.929-2.324.929s.155-.155,0-.31-1.394.465-1.549.929-.31-.31-.775-.465l-.31.465c-.93,1.239-2.943.775-4.492,1.7s.155-.155,0-.31a70.488,70.488,0,0,1-8.675,3.1c0-.155.155-.465-.155-.62s-.93.775-1.7,1.084a5.2,5.2,0,0,1-2.169.775h0c-.62.62-1.084,0-1.549.775h-.465c-.155.62-1.084,0-1.549.465h0c-.465.31-.929,0-1.394.31h0c-1.084.465-1.859.31-1.7.775s1.084-.465.31-.929a109.371,109.371,0,0,1-11.464,3.718h-.929a8.3,8.3,0,0,0-1.7.775h-.465c-.775,0-.62.775-1.394.775s.31-.465.155-.62a7.127,7.127,0,0,1-2.169,1.084c.155-.155.31-.155.155-.31a4.042,4.042,0,0,0-2.169.775v-.31c-1.239,0-.155.62-1.239.775s.155-.31.155-.31a13.942,13.942,0,0,1-3.253,1.549.155.155,0,0,0,0-.155,24.64,24.64,0,0,0-3.253,1.084c-.465,0,0-.775-1.084-.31s-1.859.775-.93,1.239a12.236,12.236,0,0,0-3.1.775c.31-.31-.62-.465.155-.775h-.62c0-.31.62-.155.31-.31l-1.859.775a6.351,6.351,0,0,1-2.324,1.859c.465-.31-.465-.465-.155-.775l-1.239,1.549c-.31.155-.155-.465-.775-.155s-.155.31-.31.465-1.549.62-1.859.155.62-.31.155-.31l-1.394.62h0c-.465,0-1.394.62-.775.775s-.155-.31.31-.31a3.408,3.408,0,0,1-1.7.929.569.569,0,0,0,.155-.465,13.013,13.013,0,0,1-2.788,1.7c0,.31.31-.62.465-.465s-2.633,1.394-4.028,1.239.155.31.155.31a2.446,2.446,0,0,0-1.084,0,5.158,5.158,0,0,1-.93.465c-.465.155-.155,0,.155-.155a13.323,13.323,0,0,1-4.492,1.7c0,.155-.775.775-1.084.929v-.31c-.31-.155-1.084.465-1.239.155s2.633-1.239,1.7-.62-1.084.929-1.084.465-1.239.775-1.859.775.31-.62-.155-.465-.155.31-.93.62l-.465.31c0,.31-.929.155-.31.465s-1.239.62-1.394,0v-1.239c-.465.155-.465.62-.775.929h-.155c.155.62-.93.31-1.239.93s-2.169.62-2.633.465a4.183,4.183,0,0,1-1.859.929c.155-.155.31-.155.31-.31s-.62.155-.929.465h-1.7c-.62.465-.31.62-.31.929s-1.7,1.084-2.634.775.775-.62.31-.62-1.084.93-2.169.93l.465.465c-.465-.155-1.239.775-1.394.155s-1.239.155-.929.62-3.718,1.549-4.957.929-.775.31-.62.465.465-.465.62-.31a.31.31,0,0,0-.155.31c-.465,0-.93.155-.62-.465s-.775,1.239-2.324,1.549-.155-.31-.465-.155l-.62.62c-.93.155-.62-.31-.775-.62s-1.084.465-1.239.775l-.775-.31c.465.155-.31.31-.465.465h.155c-.155-.155-.62.155-.929.31s.775.155,1.084,0l-.775.62c0-.465-.929,0-1.239.155s-.31.465-.465.465-.775.155-.465-.155.465,0,.62-.155-.465-.31-.929,0,.31.62-.62.775l.31-.465h-.929v.31H436.7c-.155.465-1.239.465-1.239.93h-1.239a2.014,2.014,0,0,0-1.394.62h0a2.478,2.478,0,0,0-1.084.62c-.775,0-.62-1.084-1.239-.465s-.775.93-.465,1.084-2.324,1.239-3.718,1.084,0,.31-.31.465-3.563,1.7-5.112,1.549-.155-.31-.155-.465-.62-.155-.62.465.155.465.62.31a8.055,8.055,0,0,1-3.253,1.084c.31,0,.155.155,0,.31s-.929-.31-1.394.155v.31h-.465c-.155.155,0,.62-.62.62l-.31-.31a4.9,4.9,0,0,1-1.859,1.239h-.62c-.31.155-.62.62-.155.465s-1.859.465-2.324.155a18.124,18.124,0,0,1-6.506,3.408v-.31c-.62,0-.155.465-.62.465s-.62-.31-.31-.62-.929.775-1.394,1.084.31-.31.465,0-1.239.31-1.239.775-.155-.465-.155-.62l-.465.465c-.775-.31,1.084-1.394.155-1.7l-.465.31c-.62-.31,1.084-.929-.155-.62s-.62,1.239-.155,1.239-.155,1.239-1.239,1.549.93-.465.465-.62-1.084.62-1.549.62.31.62,0,.775.155-.62-.62-.31-.775.775,0,.62-.929.155-1.239.775.465-1.239-.465-1.084-.929.929-.155,1.239-.62-.31-.31-.62-.929,1.084-1.394.465v.465h-.775c-.465.155-1.239,1.084-1.394.465s-1.084.465-.62.775.62-.62,1.239-.155-.929.465-1.239.775h-.155c-.155.155-.775.31-.775.62s0-.31-.155-.31v.465c-.775.465-.465-.465-1.239,0l.62-.465c-.155.155-.465-.155-.929.155s-.155.929-.31,1.084-.31-.31-.775.31l.465-.62c0-.155-.62-.31-1.239,0s-.775.929-.155.929-.929.155-.62-.155.155.31-.31.775h-1.859l.465-.775h-.465c.465-.62-.465-.155-.31-.775a1.859,1.859,0,0,0-.929.62c1.239.31-.62,1.394-.155,1.859s-1.394-1.239-2.169.31-.155.775.62.31-.31.775-1.239.929-.93-.31-.155-1.084.62,0,.775-.155-.155-.62-.93-.31-1.084.465-.929.775.775-.31.62.155-1.239,0-1.394.775.93,0,.93.31l-.62.465v-.31c-1.239.31-.155.62-1.239.929l-.62-.31c.155-.465,1.549-.465,1.084-1.084s-.775.62-1.549.775l.465-.31c-.31.155-.93-.775-1.7.155s0,.31,0,.62l-2.014,1.239c0-.62-1.239.465-.775-.31a2.943,2.943,0,0,0,2.324-1.239c-.62-.465.929-.31.929-.929s-1.084-.155-1.394-.465l-.62.465c0,.465.31.31.465.62a4.647,4.647,0,0,0-2.324,1.549c-.465,0-.465-.465,0-.62l-3.563,1.394c.93.31-1.239.62-.465.929s1.394,0,1.084.465-.155-.31-.31-.31-.93-.155-1.239.465-.155-.775,0-1.239-.155-.31-.93,0l-2.324,1.549a11.308,11.308,0,0,0-3.718,1.549c-.62,0-.465-.62-1.084-.465s.775.31-.31.465h0c-.31.31-1.859.465-1.859,1.239v-.62l-.465.31c-.155-.155-.31-.31-.155-.465a18.6,18.6,0,0,0-1.859.929h.62a21.833,21.833,0,0,1-2.788,1.239v-.31l-.62.465c0-.31-.62-.31-.929,0l1.239-1.549c.465,0-.31.62.155.775a1.355,1.355,0,0,0,1.394-.775l-.62.465c-.31-.31.31-.62.465-1.084s-.465.155-.465.31a3.1,3.1,0,0,1,1.239-.929c-.31.31.31.155.31.31s.465-.775,1.239-1.084,1.394-.929,2.324-1.239a3.407,3.407,0,0,1-1.084,1.394l1.239-.31a2.324,2.324,0,0,1,.775-1.394v.31c.62-.465.465-.929,1.394-1.084l4.183-1.549V214c.31-.929,2.014-1.084,2.788-1.7A7.881,7.881,0,0,1,369,210.9a55.154,55.154,0,0,1,7.281-3.408l-.31.62c.31-.465.465.155.93-.155s.465-.775.775-1.084a8.21,8.21,0,0,0,3.718-1.859v.31c.775-.93,2.324-1.084,3.718-1.394a1.084,1.084,0,0,0,.93,0c.465-.775.929-.929,1.859-1.549l2.943-.775c2.633-1.859,5.732-2.479,8.675-4.183l.31.31c2.634-1.859,6.506-2.633,8.985-3.873v.62c.929-.155,1.7-.775,1.394-1.239s1.859-1.084,2.633-.775.93-.62,1.549-.929a15.181,15.181,0,0,0,3.718-1.394h-.465c-.155.155,0,.465.31.31s2.169-.62,1.394-1.084c1.859-.155,3.718-1.7,5.577-1.7s.155-.31.31-.465a18.9,18.9,0,0,0,4.182-1.394c.31,0-.31.465.31.31s-.155-.31.31-.465,4.8-1.394,6.971-2.169,7.591-2.943,11.309-4.183h0c1.084-.929,3.1-.465,3.718-1.549s1.084-.31.93,0,2.788-.62,4.028-1.549h-.31c1.549-.155,2.634-1.084,4.183-1.239s-.465.31-.31.465,1.239-1.084,1.7-.465.155-.465,0-.31a93.114,93.114,0,0,0,10.069-3.718c2.634-.31.465,1.084,2.324,0s0-.31.155-.155,1.394.465,1.859-.155.31-.31.155-.62,2.014,0,3.1-.62v.31c1.239-1.084,2.943-1.239,3.873-2.324l11.153-4.8,11.154-3.718c7.436-2.014,14.717-4.492,22.307-6.2a6.2,6.2,0,0,0,4.028-.775c0,.155-.155.155,0,.155s1.394-.465,1.394-.93l8.21-2.324c-.465.155-.62.62,0,.465l.465-.465h.155c.31-.155.62-.465.31-.62,7.126-2.324,14.562-3.253,21.688-5.112a40.116,40.116,0,0,0,5.887-1.549,79.006,79.006,0,0,0,16.111-3.1,4.183,4.183,0,0,1-2.634,2.324" transform="translate(191.311 75.997)" fill="#f7b93d"/>
    <path id="Path_7910" data-name="Path 7910" d="M347.5,190.7c.31.155.93,0,.62.465s-.62-.31-.62-.465" transform="translate(190.817 104.716)" fill="#f7b93d"/>
    <path id="Path_7911" data-name="Path 7911" d="M358.57,187.8h.31c-.155.155-.31.31-.465.31s.155-.155.155-.31" transform="translate(196.786 103.123)" fill="#f7b93d"/>
    <path id="Path_7912" data-name="Path 7912" d="M361.639,186.8c0,.31-.775.775-1.239,1.084Z" transform="translate(197.9 102.574)" fill="#f7b93d"/>
    <path id="Path_7913" data-name="Path 7913" d="M364.026,186.3c.465,0,.31.155-.155.31s0-.155.155-.31" transform="translate(199.696 102.3)" fill="#f7b93d"/>
    <path id="Path_7914" data-name="Path 7914" d="M364,186.009h.775c-.155-.155-.62.465-.775,0" transform="translate(199.877 102.126)" fill="#f7b93d"/>
    <path id="Path_7915" data-name="Path 7915" d="M369.505,184.225c.155-.155.62-.465.775-.31s-.93.62-.775.31" transform="translate(202.892 100.967)" fill="#f7b93d"/>
    <path id="Path_7916" data-name="Path 7916" d="M372,182.9h.31c.31,0,.155.31-.155.31Z" transform="translate(204.27 100.433)" fill="#f7b93d"/>
    <path id="Path_7917" data-name="Path 7917" d="M418.01,165.3l-.31.155V165.3Z" transform="translate(229.364 90.768)" fill="#f7b93d"/>
    <path id="Path_7918" data-name="Path 7918" d="M438.5,158.638c.465-.31.31.155.465.155s0-.31-.465-.155" transform="translate(240.786 87.051)" fill="#f7b93d"/>
    <path id="Path_7919" data-name="Path 7919" d="M449.51,154.665h-.155l-.155-.465Z" transform="translate(246.661 84.673)" fill="#f7b93d"/>
    <path id="Path_7920" data-name="Path 7920" d="M360.975,280.67c-1.239-.465.465.62-.775-.155a.774.774,0,0,1,.775.155" transform="translate(197.79 154.01)" fill="#f7b93d"/>
    <path id="Path_7921" data-name="Path 7921" d="M651.129,461.068c-4.028-1.549-7.591-5.887-11.618-8.055-.465-.31.465-.465-.465-1.084-4.028-2.014-9.14-6.506-13.013-10.224h.31c-.775-.775-2.014-.929-2.943-1.7s.31,0,.31-.155a5.659,5.659,0,0,0-2.169-1.084c-.465,0,0-.62-.465-1.084H620.3c-2.014-.155-3.253-2.479-5.422-3.408.155,0,.31,0,.31-.155-3.408-1.7-7.126-4.647-10.689-6.816a.5.5,0,0,0,.465-.465c0-.31-1.549-.465-2.479-1.084s-1.859-.775-2.788-1.7h.155c-1.084-.155-1.084-1.084-2.014-1.084l-.31-.62c-.775.31-.929-1.084-1.859-1.239h0c-.775-.31-.775-.775-1.549-1.084h0c-1.394-.775-2.014-1.7-2.324-1.239s1.394.775.929-.155c-4.647-2.788-9.14-6.042-13.632-9.14-.465-.465-.62-.775-.62-1.084a13.94,13.94,0,0,0-2.324-1.239c.155.155-.155-.465-.31-.62a5.061,5.061,0,0,1-2.014-.929c-.775-.775.62.155.62-.155a13.016,13.016,0,0,1-2.943-1.549h.465c-1.239-.31-1.7-1.394-2.788-1.7h.465c-1.239-1.239-.775.155-1.859-.775s.31,0,.465-.155a26.644,26.644,0,0,1-4.337-2.324h.155a45.7,45.7,0,0,0-4.028-2.479c-.465-.465.62-.465-.775-1.239s-2.324-1.239-2.014-.31a22.921,22.921,0,0,0-3.563-2.479c.62.155-.155-.929.775-.31l-.465-.775c.31-.155.62.62.62.155l-2.324-1.394a10.845,10.845,0,0,1-3.718-1.084c.775.31,0-.775.465-.62l-2.633-.31c-.465-.31.155-.465-.62-.775h-.62c-.155-.155-2.014-1.084-1.859-1.7s.775.465.465-.155l-1.859-.93h0c-.465-.465-1.859-.929-1.394-.155s0-.31.465.155a6.2,6.2,0,0,1-2.479-1.084c.31.155.465,0,.62-.155a23.392,23.392,0,0,1-4.183-1.7c-.155.155.775-.155.93.155s-3.718-1.859-4.8-3.1-.155.465,0,.31-.465-.93-1.084-1.084-.62-.31-1.239-.62-.155-.155.465.155a24.942,24.942,0,0,1-5.577-3.253c0,.155-1.394-.155-1.7-.465h.31c-.31-.465-1.394-.775-1.239-1.084s3.563,1.7,2.169,1.394-1.859-.62-1.394-.775-1.859-.62-2.324-1.394.929,0,.31-.465-.465,0-1.394-.62l-.62-.31c-.155.31-.93-.62-.775-.155s-1.7-.93-1.394-1.239l.465-.31a2.678,2.678,0,0,0-1.549-.155c-.465,0-.155-.31,0-.31a3.586,3.586,0,0,0-2.014-.775c-.929,0-2.634-1.7-2.943-2.324a7.589,7.589,0,0,1-2.634-1.239h.62a2.349,2.349,0,0,0-1.239-.62c-.465-.155-.93-1.084-1.394-1.7s-.775.155-1.084.31-2.479-1.084-3.1-2.169,1.394.465.775-.155-1.7-.465-2.788-1.549v.62c-.31-.62-1.859-.775-1.549-1.239s-1.239-1.084-1.394-.465-4.8-2.634-5.577-4.183-.929-.62-.929-.31.775.155.775.465h-.465c-.465-.465-.929-.775-.155-.775a8.515,8.515,0,0,1-3.408-1.239c-1.549-1.239.155-.31-.465-.62l-1.084-.31c-1.084-.775-.31-.775-.155-1.239s-1.394-.775-1.7-.62l-.465-.775c.31.62-.62-.155-.93-.155h.31c0-.155-.775-.465-1.084-.62s.62.775.929,1.084l-1.394-.465c.31-.31-.775-.775-1.239-1.084s-.775,0-.93-.155-.929-.62-.31-.465.31.465.775.465,0-.62-.93-.775-.31.775-1.239-.155h.775l-.93-.775v.31c-.155-.155,0-.155,0-.155s-1.549-.775-2.014-.62a14.076,14.076,0,0,1-1.394-1.084h.155a3.563,3.563,0,0,0-2.014-.93h0l-1.549-.62c-.62-.62.31-1.239-.775-1.394s-1.549-.155-1.394.155-3.253-1.549-4.492-2.788-.155.155-.62,0-4.8-2.324-6.2-3.873.155-.31.31-.465-.465-.62-.929-.31-.155.465.31.93a15.026,15.026,0,0,1-3.873-2.324c.31.31,0,.31-.31.155s-.62-.929-1.394-1.239h-.775l-.31-.465c-.31,0-.62.31-1.239-.31a.465.465,0,0,0,0-.465,6.2,6.2,0,0,1-2.788-1.084l-.465-.775c-.31-.155-1.084-.31-.465.155a15.933,15.933,0,0,1-2.479-2.169,34.232,34.232,0,0,1-9.295-4.337h.155c-.62-.62-.62.155-1.084-.31s-.31-.775.31-.62-1.549-.465-2.324-.775.62.155.31.465-1.394-1.084-1.7-.775.155-.465.465-.62h-.775c-.62-.93,2.324.155,1.7-.93l-.62-.31c-.31-.775,1.859.465.465-.62s-1.7.155-1.084.62-1.084.62-2.633-.31,1.239.62,1.084.155-1.549-.62-2.014-1.084-.155.62-.62.465.62-.155-.31-.775-1.394-.155-.62.465-1.084-.775-1.859-.62,1.549-.31.465-1.084-1.7-.31-1.394.62-.31-.62.155-.62-2.014-.155-1.7-1.084l-.465.31-.62-.929c-.62-.31-2.169-.465-1.859-1.084s-1.549-.775-1.239-.155,1.084.155,1.239.929-1.239-.62-1.7-.62v-.31c-.31,0-.93-.465-1.239-.31s.31-.155,0-.31h-.465c-1.239-.465,0-.775-1.084-1.239h.93c-.155,0-.465-.62-1.084-.775l-1.239.465c-.775-.155-.155-.465-.93-.465h.93c.155,0-.31-.775-1.084-1.239s-1.7-.155-.93.465-.929-.775-.465-.775,0,.31-.929.155l-1.7-1.859h1.084l-.62-.31c.929,0-.155-.465.465-.62l-1.394-.465c.775,1.239-1.7.155-1.7,1.084s-.155-2.014-2.324-1.859c.155.31-.775.31.31.775s-.93.31-2.014-.62-.62-1.084.775-.775.62.465.775.62.465-.62-.62-1.084-1.549-.775-1.549-.31.93.465.31.62-1.239-1.084-2.014-.775.775.775.62,1.084l-.93-.31h.31c-1.394-.93-.62.155-2.014-.62l-.465-.775c.465-.155,2.014,1.239,2.014.465s-1.394-.31-2.169-.929h.775c-.31-.155-.155-1.239-1.7-1.394s-.31.155-.465.31l-3.1-1.084c.465-.31-1.7-.93-.31-.775a5.267,5.267,0,0,0,3.253,1.394c-.31-.775,1.084.62,1.7.31s-.775-1.084-.775-1.549l-.929-.31c-.31.31.155.465,0,.775a8.365,8.365,0,0,0-3.563-1.239c-.31-.465,0-.62.465-.465l-4.647-2.479c.62,1.084-1.7-.775-1.239.155s1.239,1.239.62,1.239.155-.31,0-.465-.775-.93-1.549-.775c1.549.62.62-.465,1.084-.775s.155-.31-.775-.775l-3.718-1.239a20.912,20.912,0,0,0-4.957-2.479c-.62-.62.155-.775-.62-1.239s.31.775-.775,0h.155c-.465,0-2.169-1.549-2.943-.929l.62-.31h-.775c0-.155-.155-.465.31-.465s-1.7-.775-2.479-1.084l.465.62a40.266,40.266,0,0,1-3.873-1.859v-.31h-.929c.31-.155-.31-.775-.93-.775l2.479.31c.465.465-.775,0-.62.465a2.323,2.323,0,0,0,1.859.775l-.929-.31c0-.465.775-.155,1.239-.155s-.62-.465-.775-.31a5.578,5.578,0,0,1,2.014.62c-.62-.155.155.465-.155.465a6.025,6.025,0,0,1,2.169.62c1.084.62,2.169.775,3.253,1.394a5.112,5.112,0,0,1-2.324-.155l1.549.929a3.253,3.253,0,0,1,2.169-.155v.31c.929.31,1.239-.155,2.324.465l5.422,2.943v.31c1.084-.155,2.943,1.239,4.183,1.549a14.888,14.888,0,0,1,5.112,2.788,98.559,98.559,0,0,1,10.069,4.8h-.775c.775,0,.31.465.929.775s1.084,0,1.7,0a15.183,15.183,0,0,0,5.112,2.324v.31c1.7.155,3.1,1.549,4.8,2.479a1.859,1.859,0,0,0,.775.929,11.778,11.778,0,0,1,3.253.775L420,309.719c4.028,1.394,7.746,3.873,11.773,5.732v.465c4.183,1.394,8.52,4.647,11.928,6.042l-.62.31c.929.775,2.324,1.084,2.324.62s2.633,1.084,3.1,2.014,1.394.465,2.324.93a28.2,28.2,0,0,0,4.8,2.788l-.465-.31c-.31,0-.465.155,0,.465s2.634,1.7,2.169.62c1.859,1.549,4.957,2.479,6.661,4.183s.465,0,.775,0a35.475,35.475,0,0,0,5.112,3.1c.31.31-.62,0,.155.465s.155-.155.775,0c3.1,1.394,5.732,3.718,8.365,5.267s9.759,5.577,14.252,8.21h-.155c1.859.465,3.253,2.633,4.8,2.633s1.394.93.93.93,3.1,2.324,5.112,2.943h-.465c1.549,1.394,3.408,1.859,4.957,3.253h-.775c.62.62,2.014.465,2.014,1.394s.465-.155.155-.31c3.873,2.788,8.365,5.112,12.548,7.591s-.465,1.084,2.169,2.169c.155.31.31-.155.31,0a3.362,3.362,0,0,0,1.859,1.7c.93.155.62,0,.775-.155s1.859,2.014,3.408,2.634h-.31c2.014.465,3.718,2.014,5.577,2.324l13.787,8.52L563.6,394.92l13.013,8.985q6.506,4.415,13.013,9.295a11.618,11.618,0,0,0,4.338,3.408c-.155,0-.31,0-.155.155s1.549,1.084,2.169.775l9.6,6.816c-.62-.31-1.084-.155-.465.31h.929c.465.31,1.084.31.775,0a147.825,147.825,0,0,1,12.238,9.14c3.873,3.1,7.9,6.351,11.928,9.295a74.819,74.819,0,0,0,6.816,4.957,148.27,148.27,0,0,0,17.35,14.252,6.2,6.2,0,0,1-4.338-1.394" transform="translate(198.559 155.014)" fill="#f7b93d"/>
    <path id="Path_7922" data-name="Path 7922" d="M361.7,281c.155.31.93.93.155.93s-.31-.775-.155-.93" transform="translate(198.46 154.301)" fill="#f7b93d"/>
    <path id="Path_7923" data-name="Path 7923" d="M374.865,289.4l.31.31c-.31-.155-.62,0-.775-.31h.465" transform="translate(205.588 158.913)" fill="#f7b93d"/>
    <path id="Path_7924" data-name="Path 7924" d="M378.869,291.42c-.155.155-1.394-.31-2.169-.62Z" transform="translate(206.851 159.682)" fill="#f7b93d"/>
    <path id="Path_7925" data-name="Path 7925" d="M381.265,293.4c.31.465.155.465-.465.155h.465" transform="translate(209.102 161.11)" fill="#f7b93d"/>
    <path id="Path_7926" data-name="Path 7926" d="M381.52,293.3a1.7,1.7,0,0,1,.775.62c0-.155-1.084-.465-.775-.62" transform="translate(209.467 161.055)" fill="#f7b93d"/>
    <path id="Path_7927" data-name="Path 7927" d="M388.415,297.3c.31.155.929.31,1.084.62s-1.394-.465-1.084-.62" transform="translate(213.261 163.251)" fill="#f7b93d"/>
    <path id="Path_7928" data-name="Path 7928" d="M391.8,298.8h.465c.31.31-.155.155-.465.155Z" transform="translate(215.142 164.075)" fill="#f7b93d"/>
    <path id="Path_7929" data-name="Path 7929" d="M450.82,331.81l-.62-.155.155-.155Z" transform="translate(247.21 182.031)" fill="#f7b93d"/>
    <path id="Path_7930" data-name="Path 7930" d="M475.6,347.5c.62.155.31.465.31.465s.31-.155-.31-.465" transform="translate(261.158 190.817)" fill="#f7b93d"/>
    <path id="Path_7931" data-name="Path 7931" d="M489.255,355.865l-.155-.155.31-.31Z" transform="translate(268.571 195.154)" fill="#f7b93d"/>
    <path id="Path_7932" data-name="Path 7932" d="M242.442,325.275c.62-1.084-.775.31.31-.775a.775.775,0,0,1-.31.775" transform="translate(133.063 178.187)" fill="#f7b93d"/>
    <path id="Path_7933" data-name="Path 7933" d="M146.263,624.734c.155-4.183,2.943-8.83,3.563-13.322.155-.465.62.31.775-.775.465-4.338,3.253-10.534,5.577-15.181v.31c.465-.93.31-2.169.775-3.253s0,.31.31.155.465-1.859.31-2.324.465-.155.929-.62v-.775c-.31-1.859,1.394-3.873,1.7-6.042,0,.155,0,.31.155.31.775-3.718,2.479-7.9,3.563-11.773.155.155.31.465.465.31s0-1.549.31-2.634a13.83,13.83,0,0,1,.929-3.1h0c-.155-1.084.775-1.239.465-2.169l.62-.465c-.465-.62.775-1.239.775-2.014h-.155c.155-.775.62-.929.775-1.7h.155c.465-1.549,1.084-2.324.62-2.479s-.465,1.549.465.929a135.869,135.869,0,0,1,5.577-15.181,11.416,11.416,0,0,0,.775-.929,13.324,13.324,0,0,0,.62-2.479l.465-.465c.62-.775-.155-1.239.465-2.169s0,.62.31.62a12.391,12.391,0,0,1,.775-3.1c0,.155,0,.465.155.465a9.827,9.827,0,0,0,1.084-2.943v.465c.929-1.394-.31-.62.31-1.859s.155.31.155.465a20.451,20.451,0,0,1,1.394-4.647h.155a44.445,44.445,0,0,0,1.7-4.183c.31-.465.62.465,1.084-.929s.775-2.479-.155-1.859a21.991,21.991,0,0,0,1.859-3.873c0,.62.929-.31.465.775l.62-.62c.155.155-.465.775,0,.62a20.772,20.772,0,0,1,.93-2.479,10.534,10.534,0,0,1,.465-3.718c-.155.775.775-.155.62.31v-2.479c.155-.465.465.155.62-.775s-.155-.31-.155-.62.775-2.169,1.394-2.169-.31.93.155.465.31-1.084.62-2.014h0c.31-.62.62-1.859,0-1.394s.31,0,0,.465a5.887,5.887,0,0,1,.775-2.633c0,.31.155.31.155.62a22.46,22.46,0,0,1,1.084-4.183c-.31-.155.155.775,0,.929a18.1,18.1,0,0,1,2.324-5.112c1.084-1.239-.465,0-.31,0a2.106,2.106,0,0,0,.929-1.239c.155-.62.31-.775.465-1.394s.155-.155,0,.465a23.7,23.7,0,0,1,2.634-5.887c-.155,0,0-1.394.31-1.7l.31.31c.31-.31.62-1.394.929-1.394s-1.394,3.563-1.084,2.324.31-1.859.62-1.394.465-1.859,1.084-2.479.155.929.465.155,0-.465.31-1.394v-.62c-.31-.155.62-1.084,0-.775s.62-1.859,1.084-1.394l.31.31a5.193,5.193,0,0,0,0-1.549h.31c-.62-.31.62-1.239.465-2.014s1.394-2.788,2.014-3.1a7.281,7.281,0,0,1,.929-2.634c0,.155-.155.465,0,.62s.465-.775.62-1.394.93-.93,1.549-1.549-.31-.775-.465-.929a5.924,5.924,0,0,1,1.859-3.253c1.084-.775-.31,1.394.155.775s.31-1.7,1.239-2.788h-.62c.62-.31.62-1.859,1.084-1.549s.929-1.394.31-1.394,2.169-4.957,3.718-5.732.465-.93.155-.93-.155.775-.465.775a.31.31,0,0,0,0-.465c.465-.62.775-1.084.775-.155a6.814,6.814,0,0,1,1.084-3.408c1.239-1.549.31.155.62-.465V442.4c.62-1.084.775-.465,1.084-.31s.62-1.394.62-1.7l.775-.465c-.62.31,0-.62.155-.93v.31c.155,0,.465-.775.62-1.084s-.775.62-.93.93a10.21,10.21,0,0,0,.31-1.394c0-.62.775-.775,1.084-1.239s0-.775.155-.93.465-.929.465-.31-.465.31-.465.775.62-.155.775-.929-.775-.155,0-1.239,0,.465,0,.775l.775-.93H224.8c-.155-.465.775-1.549.465-2.014a12.863,12.863,0,0,1,1.084-1.394h0a3.408,3.408,0,0,0,.929-1.859h0a4.492,4.492,0,0,0,.62-1.549c.62-.62,1.239.31,1.394-.775s.155-1.549-.155-1.394,1.394-3.253,2.633-4.338-.155-.155,0-.62,2.169-4.8,3.718-6.2.31.155.465.31.62-.465.31-.93-.465-.155-.775.31a13.787,13.787,0,0,1,2.324-3.873c-.31.31-.31,0-.155-.31s.929-.62,1.239-1.394v-.31l.465-.31c0-.31-.31-.62.31-1.239h.465a5.887,5.887,0,0,1,1.084-2.788l.775-.465c.155-.31.31-1.084-.155-.465a18.9,18.9,0,0,1,2.169-2.324,28.969,28.969,0,0,1,4.183-8.83h.155c.62-.62-.155-.62.31-.93s.775-.31.62.465.465-1.549.775-2.324-.155.62-.465.31,1.084-1.239.775-1.7.465.155.62.465v-.775c.929-.465-.31,2.169.775,1.7l.31-.62c.775-.31-.465,1.859.62.465s0-1.7-.62-1.239-.62-1.239.31-2.634-.62,1.239-.155,1.084.62-1.394,1.084-2.014-.62-.155-.465-.62.155.62.775-.31.31-1.394-.31-.62.775-.93.775-1.7.155,1.549,1.084.465.31-1.7-.465-1.394.62-.31.62.155.31-1.859,1.084-1.7v-.465l.929-.62c.31-.62.62-2.014,1.084-1.7s.929-1.394.155-1.239-.31,1.084-1.084,1.239.62-1.084.775-1.7h.31a4.05,4.05,0,0,0,.465-1.239c0-.31.155.31.31,0V371.3c.465-1.239.775.155,1.239-1.084l-.31.93c0-.155.62-.465.775-.93s-.31-.93-.31-1.239.465,0,.62-.775v.93c0,.155.775-.155,1.239-1.084s.31-1.549-.31-.929.775-.93.775-.465-.31,0,0-.93l2.014-1.394v1.084l.31-.465c0,.929.465-.155.62.465a3.409,3.409,0,0,0,.62-1.239c-1.394.62-.155-1.7-.929-1.859s2.014,0,2.014-2.169-.31-.929-.775.155-.155-.93.775-1.859,1.084-.465.775.929-.62.62-.62.775.465.465,1.084-.465.775-1.394.465-1.549-.465.929-.62.31,1.239-1.084.929-1.859-.929.775-1.084.62l.465-.929v.31c1.084-1.239-.155-.62.775-1.859l.775-.31c.155.62-1.394,1.7-.62,2.014s.465-1.239,1.084-2.014l-.31.62c.155-.31,1.239,0,1.549-1.549s-.155-.31-.31-.465.93-2.014,1.394-2.788,1.084-1.549.929-.31a5.113,5.113,0,0,0-1.7,2.943c.775-.155-.775,1.084-.465,1.7s1.239-.62,1.7-.62a2.478,2.478,0,0,0,.31-.93c-.31-.31-.465,0-.775-.155a8.057,8.057,0,0,0,1.549-3.253c.465-.31.62,0,.31.465a39.5,39.5,0,0,1,2.943-4.337c-1.084.465.929-1.549,0-1.239s-1.394,1.084-1.394.465.155.155.465,0a1.481,1.481,0,0,0,.929-1.549c-.155-.93.465.62.775,1.239s.31.31.93-.775a27.1,27.1,0,0,1,1.549-3.408,20.913,20.913,0,0,0,3.1-4.492c.62-.465.775.31,1.394-.31s-.929.31.155-.775h0c.155-.465,1.7-1.859,1.394-2.634l.31.62a1.549,1.549,0,0,0,.31-.62c.155.155.465,0,.31.31s.93-1.549,1.549-2.324l-.62.31a38.88,38.88,0,0,1,2.324-3.563l.31.31.31-.93c.155.31.775-.155.775-.775l-.62,2.479c-.465.465,0-.775-.465-.62s-1.239,1.394-1.084,1.7a2.014,2.014,0,0,0,.465-.929c.465.155,0,.775,0,1.394s.465-.465.465-.62a5.422,5.422,0,0,1-.929,1.859c.155-.62-.465.155-.465-.155a8.995,8.995,0,0,1-.775,2.014,15.454,15.454,0,0,1-1.859,2.943,4.957,4.957,0,0,1,.465-2.169c-.62.62-.465.775-1.239,1.394a3.1,3.1,0,0,1-.155,2.014h-.31c-.465.929,0,1.239-.775,2.169s-2.633,3.563-3.563,4.957h-.31c0,1.084-1.549,2.633-1.859,3.873a12.587,12.587,0,0,1-3.253,4.647c-1.859,3.253-3.408,6.042-5.577,9.295v-.775c-.155.775-.465.31-.775.775a2.678,2.678,0,0,0-.155,1.549,14.563,14.563,0,0,0-2.633,4.8h-.31c-.31,1.549-1.7,2.943-2.788,4.492a1.859,1.859,0,0,0-.929.775,11.31,11.31,0,0,1-.93,3.1,35.163,35.163,0,0,1-2.479,3.253c-1.549,4.028-4.183,7.436-6.041,11.309h-.465c-1.549,4.028-4.8,8.055-6.2,11.463l-.31-.62c-.775.93-1.084,2.324-.62,2.324s-1.084,2.634-2.014,2.943-.465,1.394-.929,2.169a27.111,27.111,0,0,0-2.788,4.647l.31-.465c0-.31-.155-.465-.465,0s-1.549,2.479-.62,2.169c-1.549,1.859-2.324,4.957-3.873,6.661s0,.465,0,.775a33.46,33.46,0,0,0-2.943,5.112c-.31.31,0-.62-.465.155s.155.155,0,.775c-1.239,3.1-3.563,5.732-4.957,8.365s-4.957,9.759-7.281,14.252h-.155c-.31,1.859-2.324,3.253-2.169,4.957s-.775,1.394-.929.93-2.014,3.253-2.479,5.267v-.465c-1.239,1.7-1.549,3.408-2.788,5.112s.155-.62,0-.775-.31,2.014-1.084,2.014.155.465.31.155a132.758,132.758,0,0,0-6.042,13.013c-1.859,2.943-1.239-.31-1.859,2.324-.155.155.155.31,0,.31a3.05,3.05,0,0,0-1.394,2.014c0,.929,0,.62.31.62s-1.7,2.014-2.169,3.563h-.155c-.155,2.014-1.549,4.028-1.394,5.732l-6.351,14.562L186.23,525.59c-2.169,4.647-4.028,9.45-6.042,14.252s-4.028,9.45-6.042,14.252a11,11,0,0,0-2.324,4.8c0-.155,0-.31-.155-.155s-.62,1.859-.31,2.169c-1.549,3.563-2.788,6.971-4.028,10.689.155-.62-.155-1.084-.31-.31v.775h-.155c-.155.465,0,1.084.31.62-1.549,4.8-3.408,9.45-5.267,13.942s-3.718,9.14-5.267,13.787a71.405,71.405,0,0,0-2.633,7.746,136.945,136.945,0,0,0-7.591,20.6,5.886,5.886,0,0,1-.31-4.492" transform="translate(80.062 178.791)" fill="#f7b93d"/>
    <path id="Path_7934" data-name="Path 7934" d="M242.229,325.935c-.31,0-.929.775-.929,0s.775-.155.929,0" transform="translate(132.501 178.766)" fill="#f7b93d"/>
    <path id="Path_7935" data-name="Path 7935" d="M232.11,337.476l-.31.31c.155-.31.155-.62.31-.775s0,.31,0,.465" transform="translate(127.284 185.04)" fill="#f7b93d"/>
    <path id="Path_7936" data-name="Path 7936" d="M229.809,341.214c-.155-.155.465-1.394.775-2.014Z" transform="translate(126.177 186.259)" fill="#f7b93d"/>
    <path id="Path_7937" data-name="Path 7937" d="M227.431,343.439c-.465.31-.465.155-.155-.465s0,.31.155.465" transform="translate(124.682 188.216)" fill="#f7b93d"/>
    <path id="Path_7938" data-name="Path 7938" d="M227.675,343.62a1.549,1.549,0,0,1-.775.62c.155.155.465-.929.775-.62" transform="translate(124.594 188.655)" fill="#f7b93d"/>
    <path id="Path_7939" data-name="Path 7939" d="M223.045,350.034c-.155.31-.31.929-.62.929s.465-1.394.62-.929" transform="translate(122.097 192.156)" fill="#f7b93d"/>
    <path id="Path_7940" data-name="Path 7940" d="M221.279,353.2l-.31.465c-.31.155-.155-.155-.155-.465Z" transform="translate(121.23 193.946)" fill="#f7b93d"/>
    <path id="Path_7941" data-name="Path 7941" d="M188.9,411.165l.155-.465.155.155Z" transform="translate(103.727 225.52)" fill="#f7b93d"/>
    <path id="Path_7942" data-name="Path 7942" d="M176.379,437.2c-.155.62-.31.31-.465.31s.155.31.465-.31" transform="translate(96.574 240.072)" fill="#f7b93d"/>
    <path id="Path_7943" data-name="Path 7943" d="M170.5,451.91l.155-.31.31.31Z" transform="translate(93.624 247.979)" fill="#f7b93d"/>
    <path id="Path_7944" data-name="Path 7944" d="M303.278,319.865c-.155-.775-.31.465-.155-.465a.31.31,0,0,1,.155.465" transform="translate(166.413 175.386)" fill="#f7b93d"/>
    <path id="Path_7945" data-name="Path 7945" d="M379.151,529.785c-2.169-2.014-2.634-5.732-4.492-8.055s.62-.155.155-.775a45.39,45.39,0,0,1-4.183-10.069h.31c-.155-.62-1.084-1.084-1.239-1.859s.31.155.31-.155a2.072,2.072,0,0,0-1.084-1.239c-.465-.155.31-.465.31-.775h-.62c-1.394-.62-1.084-2.479-2.169-3.718h.31a55.463,55.463,0,0,1-4.028-7.281.931.931,0,0,0,.62-.155c.155-.155-.929-.62-1.239-1.239s-.93-.93-1.084-1.859h.155c-.62-.465-.155-.93-.929-1.239V490.9c-.62,0,0-.93-.62-1.394h.155c-.31-.465-.155-.775-.465-1.084h0c-.62-.929-.465-1.7-.93-1.394s.62.929.93.155a75.437,75.437,0,0,1-4.647-9.759c0-.465,0-.774.155-.929s-.62-1.239-.93-1.394.155-.31.155-.465-.775-.465-.93-1.239.465.31.62,0a5.731,5.731,0,0,1-1.239-1.859h.31c-.775-.62-.465-1.394-1.084-1.859h.31c-.155-1.084-.62,0-.93-1.084h.31c-.775-.62-1.239-2.014-1.7-2.788h.155a19.82,19.82,0,0,0-1.394-2.788c0-.465.62-.155.155-1.084s-.93-1.549-1.239-.775a9.914,9.914,0,0,0-1.084-2.633c.31.31.465-.62.774,0v-.62c.31,0,.155.62.31.31a9.609,9.609,0,0,1-.775-1.549,6.559,6.559,0,0,1-2.014-1.7c-.62-.93.465-.465.62-.31l-1.549-.929c-.155-.31.31-.31,0-.62h-.465c0-.155-.775-1.394-.31-1.7s.31.465.31,0-.465-.62-.775-1.239h0c-.155-.465-.775-1.084-.775-.62s.31-.31.31.31-.775-.775-1.084-1.394h.465a10.687,10.687,0,0,1-1.859-2.324c-.31.155.62.155.465.31a5.87,5.87,0,0,1-1.394-3.408c.155-1.084-.31.31-.31.155s.155-.775-.155-1.084a2.063,2.063,0,0,1-.465-.775c-.155-.31,0-.155.155.155a10.689,10.689,0,0,1-1.859-3.873c-.155.155-.775-.62-.93-.774h.31c.155-.31-.465-.93-.155-1.084s1.394,2.169.62,1.549-.929-.929-.465-.929-.929-.93-.775-1.7.62.31.465-.155-.31-.155-.62-.775l-.31-.31c-.31.155-.31-.775-.465-.31s-.62-1.084-.155-1.239h.465c-.155-.31-.62-.465-.929-.62h.155c-.62.155-.31-.929-.929-1.084s-.775-1.859-.465-2.479a3.408,3.408,0,0,1-1.084-1.7l.31.31c0-.465-.155-.465-.465-.775s0-.93,0-1.549-.62-.155-.929-.155-1.084-1.394-.775-2.324.62.775.62.155-.929-.93-.929-1.859l-.465.465c.155-.465-.775-1.084-.31-1.239s-.31-1.084-.775-.775-1.549-3.253-1.084-4.492-.31-.62-.465-.465.465.31.31.62h-.31c0-.465-.155-.775.465-.62s-1.239-.62-1.549-2.014.31-.155.155-.465l-.62-.465c-.155-.775.31-.62.62-.775s-.465-.93-.775-1.084l.31-.62c-.155.465-.31-.31-.465-.465h.155c.155-.155-.155-.62-.31-.775s-.155.62,0,.929l-.62-.775c.465,0,0-.775-.155-1.084s-.465-.31-.465-.465-.155-.62.155-.465,0,.31.155.465.31-.465,0-.775-.62.31-.775-.465l.465.31v-.775h-.155c-.465-.155-.465-1.084-.929-1.084s0-.775-.155-1.239h0a1.549,1.549,0,0,0-.62-1.239h.155a2.169,2.169,0,0,0-.62-.93c0-.62,1.084-.62.465-1.084s-.929-.775-1.084-.31-1.084-2.169-.929-3.253-.31,0-.465-.31-1.549-3.1-1.394-4.647.31-.155.465-.155.155-.62-.465-.465-.465.155-.465.62a6.505,6.505,0,0,1-.929-2.943c0,.31-.155.155-.31,0s.31-.775,0-1.239h-.31v-.465c-.155-.155-.62,0-.62-.62l.31-.31c-.465-.465-1.084-1.084-1.084-1.7l.31-.62c-.155-.31-.465-.62-.465-.155a4.608,4.608,0,0,1,0-2.169,13.478,13.478,0,0,1-2.788-6.042h.31c0-.62-.465-.155-.465-.62s.31-.62.775-.155-.62-.93-.929-1.394.31.31-.155.31-.155-1.084-.62-1.084.465-.155.62-.155l-.31-.465c.31-.775,1.239,1.084,1.7.31v-.465c.31-.62.929.929.62-.155s-1.084-.62-1.239-.155-1.239-.155-1.394-1.239.31.775.62.465-.465-.93-.465-1.394-.62.31-.775,0,.465.31.31-.62-.62-.775-.62,0,0-.775-.62-1.084,1.084.62,1.084-.31-.775-.93-1.239-.31.31-.465.62-.31-1.084-.929-.31-1.394h-.465l.31-.775c-.155-.465-.929-1.239-.31-1.394s-.31-1.084-.62-.62.465.62,0,1.084-.31-.93-.465-1.239h.155c-.155-.155-.155-.62-.465-.775s.31,0,.31-.155h-.465c-.31-.775.62-.31.31-1.084l.465.62c-.155-.155.155-.465,0-.775l-1.084-.31c-.31-.465.31-.31-.155-.62l.465.465c.155,0,.465-.465.31-1.084s-.775-.929-.775-.155,0-.775.31-.62-.31.155-.62-.465.31-1.084.465-1.7l.62.465v-.465c.62.465.31-.31.775-.155a1.549,1.549,0,0,0-.465-.929c-.62.929-1.239-.775-1.859-.31s1.549-1.084.155-2.014-.775-.155-.465.465-.775-.31-.62-1.239.465-.775,1.084,0,0,.465,0,.62.62-.155.465-.775-.31-1.084-.62-.93.155.62-.31.465.31-1.084-.465-1.394a.62.62,0,0,1-.465.775l-.31-.62h.31c0-1.084-.465-.155-.62-1.239l.465-.62c.465.155.155,1.549.775,1.239s-.465-.775-.465-1.549v.465c0-.31.929-.62.155-1.549s-.31-.155-.62,0-.62-1.394-.775-2.014-.155-1.239.465-.62a2.324,2.324,0,0,0,.62,2.169c.62-.465,0,.929.775.929s.465-.929.775-1.084a1.239,1.239,0,0,0-.31-.62c-.465,0-.31.31-.775.31a3.872,3.872,0,0,0-.929-2.324.323.323,0,0,1,.62,0,15.954,15.954,0,0,1-.465-3.408c-.465.775-.31-1.239-.775-.62s-.465,1.239-.775.93.31,0,.31-.155.465-.775-.155-1.239.775.155,1.239.155.31,0,.31-.775a12.549,12.549,0,0,1-.929-2.479,9.451,9.451,0,0,0-.465-3.563c.155-.465.775-.31.775-.775s-.465.465-.465-.465h.155c-.155-.31.155-1.7-.62-1.859h.62c0-.155-.155-.31-.155-.465s.31-.31.465,0-.155-1.239-.31-1.859l-.31.465a17.349,17.349,0,0,1-.31-2.788h.31l-.31-.62c.31.155.465-.465.155-.775l.929,1.549c-.155.465-.465-.465-.775-.155a1.084,1.084,0,0,0,.155,1.394.932.932,0,0,0-.155-.62c-.155-.31.465.465.775.62s.155-.465,0-.465a2.479,2.479,0,0,1,.31,1.394c-.155-.465-.31.31-.465.155a2.035,2.035,0,0,1,.465,1.394c-.155.775.465,1.394.465,2.324a3.1,3.1,0,0,1-1.084-1.239c-.155.62.155.62,0,1.239s.775.31,1.084,1.084h-.31c.31.62.62.62.775,1.394a30.674,30.674,0,0,0,.31,4.028h-.31c.775.465.62,2.014.929,2.788s.775,2.943.31,3.718a60.571,60.571,0,0,1,1.7,6.971l-.465-.31c.465.31-.155.31,0,.775s.62.465.929.775a6.506,6.506,0,0,0,1.084,3.408h-.31c.775.93.62,2.169.775,3.408a.929.929,0,0,0-.155.775,5.569,5.569,0,0,1,1.239,1.859,15.327,15.327,0,0,1,.31,2.633c1.394,2.479,1.7,5.422,2.943,8.055l-.31.31a15.646,15.646,0,0,1,1.7,4.183,24.164,24.164,0,0,0,1.394,3.873h-.62c0,.775.62,1.549,1.084,1.239s.929,1.7.465,2.324.62.775.929,1.394a11.929,11.929,0,0,0,1.084,3.408v-.31c-.155-.155-.465,0-.31.31s.465,2.014,1.084,1.239c.155,1.549,1.549,3.253,1.549,4.957s.31.155.465.31a13.785,13.785,0,0,0,1.239,3.718c0,.31-.465-.155-.31.31s.31-.155.465.31,1.239,4.338,2.014,6.2,2.788,6.661,4.183,9.914h-.155c.929.775.465,2.788,1.549,3.253s.31.929,0,.929.62,2.479,1.549,3.563v-.31c.155,1.394,1.084,2.324,1.394,3.718l-.465-.31c0,.62,1.084.93.465,1.549s.465,0,.31-.155a67.386,67.386,0,0,0,4.028,8.675c.465,2.324-1.084.62.155,2.014s.31,0,.155,0-.31,1.394.155,1.549.31.155.62.155,0,1.859.775,2.788H341.2c1.084.929,1.394,2.479,2.479,3.253,2.943,6.506,6.042,12.7,8.83,19.054s5.577,12.548,8.055,19.054a5.112,5.112,0,0,0,1.084,3.408h-.155c.465-.155.62,1.084,1.084,1.084.929,2.479,2.014,4.492,3.1,6.971-.155-.31-.62-.465-.465,0l.465.31h-.155c.155.31.62.465.62.155,3.1,5.887,4.957,12.393,7.746,18.28a32.066,32.066,0,0,0,2.324,4.957,61.5,61.5,0,0,0,5.422,13.632A3.563,3.563,0,0,1,379,528.856" transform="translate(165.362 175.99)" fill="#f7b93d"/>
    <path id="Path_7946" data-name="Path 7946" d="M303.52,320.433c-.31.155-.31.775-.775.31s.465-.465.775-.31" transform="translate(166.171 175.903)" fill="#f7b93d"/>
    <path id="Path_7947" data-name="Path 7947" d="M302.733,330.655s0,.31-.155.31a.3.3,0,0,1-.155-.465h.31" transform="translate(166.029 181.482)" fill="#f7b93d"/>
    <path id="Path_7948" data-name="Path 7948" d="M303.12,333.694c-.31,0-.465-.775-.62-1.394Z" transform="translate(166.106 182.47)" fill="#f7b93d"/>
    <path id="Path_7949" data-name="Path 7949" d="M302.81,335.755c-.155.31-.31.31-.31-.155h.31" transform="translate(166.106 184.282)" fill="#f7b93d"/>
    <path id="Path_7950" data-name="Path 7950" d="M303.175,335.8a.775.775,0,0,1-.155.62c.155,0-.31-.62.155-.62" transform="translate(166.36 184.392)" fill="#f7b93d"/>
    <path id="Path_7951" data-name="Path 7951" d="M303.747,341.105c0,.155.31.62.155.775s-.465-.929-.155-.775" transform="translate(166.718 187.297)" fill="#f7b93d"/>
    <path id="Path_7952" data-name="Path 7952" d="M304.555,343.4c0,.155,0,.155.155.31s-.31,0-.31-.155Z" transform="translate(167.15 188.565)" fill="#f7b93d"/>
    <path id="Path_7953" data-name="Path 7953" d="M319.41,385.31l-.31-.31h.155Z" transform="translate(175.222 211.408)" fill="#f7b93d"/>
    <path id="Path_7954" data-name="Path 7954" d="M326.755,403.1c.31.31-.155.31-.155.465s.31,0,.155-.465" transform="translate(179.34 221.347)" fill="#f7b93d"/>
    <path id="Path_7955" data-name="Path 7955" d="M331.5,412.455V412.3h.465Z" transform="translate(182.031 226.399)" fill="#f7b93d"/>
    <path id="Path_7956" data-name="Path 7956" d="M168.81,9.9c-.31-.775-.31.465-.31-.465s.31.155.31.465" transform="translate(92.525 4.976)" fill="#f7b93d"/>
    <path id="Path_7957" data-name="Path 7957" d="M224.288,214.863c-2.479-1.239-3.408-4.8-5.422-6.816s.62-.31.155-.775-3.408-6.2-3.718-9.6h.31c-.155-.62-.929-1.084-1.084-1.859s.31.155.31,0-.465-1.084-.929-1.239.31-.31.31-.775l-.465-.31c-1.239-.775-.775-2.479-1.549-3.718h.31a43.528,43.528,0,0,1-2.788-7.436c.155,0,.465.155.62-.155s-.775-.775-1.084-1.394-.775-1.084-.62-1.859h.155c-.62-.465,0-.929-.62-1.239l.31-.465c-.62-.155.155-.929-.31-1.394h-.155c-.31-.465,0-.775-.31-1.084h0c-.465-.929-.155-1.549-.775-1.549s.465.929.775.155a68.94,68.94,0,0,1-2.943-9.914c.155-.465.155-.62.31-.775s-.465-1.239-.775-1.394.155-.31.155-.465-.62-.465-.62-1.239.31.31.465.155a5.268,5.268,0,0,1-.929-1.859h.31c-.62-.62-.31-1.394-.62-1.859h.31c0-1.084-.62-.155-.62-1.084h.31a7.373,7.373,0,0,1-1.239-2.788h.155a17.97,17.97,0,0,0-.775-2.788c0-.465.775,0,.31-.929s-.62-1.549-1.084-.775a8.985,8.985,0,0,0-.62-2.633c.31.31.62-.62.775.155v-.62c.31,0,0,.62.31.31a8.519,8.519,0,0,1-.62-1.549,4.336,4.336,0,0,1-1.549-2.014c-.31-1.084.62-.465.775-.155l-1.394-1.084c-.155-.31.465-.155.155-.62l-.465-.31c0-.155-.465-1.394,0-1.7s.31.465.31.155-.31-.62-.465-1.239h0c0-.465-.465-1.084-.775-.62s.31-.155.31.31a2.634,2.634,0,0,1-.775-1.549h.465a9.76,9.76,0,0,1-1.394-2.479c-.31,0,.62.31.465.465s-1.084-2.324-.929-3.408-.31.155-.31.155.31-.62,0-.929-.155-.465-.31-.775.155-.155.155.155a9.76,9.76,0,0,1-1.239-3.873,1.587,1.587,0,0,1-.775-.929h.31c.155-.31-.31-.929,0-1.084s.929,2.324.465,1.549-.775-1.084-.31-.929-.62-1.084-.465-1.7.62.31.465-.155-.155-.155-.465-.775l-.31-.31c-.31,0-.155-.775-.465-.31s-.465-1.084.155-1.239h.465c-.155-.31-.62-.465-.929-.775h.155c-.62.155-.155-.929-.775-1.084s-.465-1.859-.155-2.324a3.1,3.1,0,0,1-.775-1.7l.31.31c.155-.465-.155-.465-.31-.929s.155-.929.31-1.394-.62-.31-.929-.31-.775-1.549-.31-2.324.465.775.62.31-.775-.929-.62-1.859l-.465.31c.31-.465-.62-1.084,0-1.239s0-1.084-.62-.775-1.084-3.253-.31-4.338-.155-.62-.465-.465.31.465.155.62h-.31c0-.465,0-.775.465-.465s-1.084-.775-1.239-2.014.31-.155.155-.465l-.62-.62c-.155-.775.465-.62.775-.62s-.31-.929-.62-1.084l.31-.62c-.31.465-.31-.31-.465-.465h.155c.155-.155,0-.62-.155-.775s-.155.62-.155.929l-.465-.775c.465,0,.155-.775,0-1.084s-.465-.31-.465-.465-.155-.62.155-.465-.155.31.155.465.465-.31,0-.775-.775.31-.62-.465l.465.31v-.775h-.155c-.465-.155-.31-1.084-.775-1.084s0-.775,0-1.084h0a1.394,1.394,0,0,0-.465-1.239h.155a1.859,1.859,0,0,0-.465-.929c.155-.62,1.239-.465.62-1.084s-.775-.775-.929-.465-.775-2.169-.62-3.253-.31,0-.31-.31-1.084-3.1-.775-4.492.31,0,.465-.155.155-.465-.31-.465-.465.155-.465.62a5.732,5.732,0,0,1-.465-2.788c-.155.31-.155.155-.31,0s.465-.775.155-1.239h-.31V71.26c-.155-.155-.62,0-.465-.62h.31c-.31-.465-.929-1.084-.775-1.7l.31-.62c-.155-.155-.465-.62-.465-.155s-.155-1.7.155-2.014a12.857,12.857,0,0,1-2.324-5.887h.31c.155-.62-.465-.155-.31-.62s.31-.465.775-.155-.62-.929-.775-1.394.31.31-.155.31,0-1.084-.465-1.084.465-.155.62-.155l-.31-.465c.31-.62,1.239,1.084,1.7.31v-.465c.31-.465.775.929.62-.155s-1.084-.62-1.084-.155-1.084-.155-1.394-1.239.31.775.62.465-.465-.929-.465-1.394-.62.155-.775,0,.465.31.31-.465-.62-.775-.62,0,0-.775-.62-1.084,1.084.62,1.084-.31-.775-.929-1.239-.31.31-.465.62-.31-.93-.929-.155-1.239h-.465l.31-.62c-.155-.465-.775-1.239-.155-1.239s-.31-1.084-.62-.62.465.62,0,1.084-.31-.775-.465-1.084h.155c-.155-.155-.155-.62-.465-.775s.31,0,.31-.155h-.465c-.31-.775.62-.31.31-1.084l.465.465c-.155-.155.155-.465,0-.775l-1.084-.31c-.31-.465.31-.31-.155-.62l.465.465c.155,0,.465-.465.31-1.084s-.775-.775-.775-.155,0-.775.31-.62-.31.155-.62-.31.31-1.084.465-1.549l.62.465v-.465c.62.465.31-.31.775-.155a1.394,1.394,0,0,0-.465-.775c-.62.929-1.239-.62-1.859-.31s1.394-1.084.155-2.014-.775-.155-.465.465-.775-.31-.62-1.239.465-.775,1.084,0,0,.465,0,.62.62-.155.465-.775-.31-.929-.62-.775.155.62-.31.465.155-1.084-.465-1.239a.62.62,0,0,1-.465.775l-.31-.62h.31c0-1.084-.465-.155-.62-1.239l.465-.62c.465.155.155,1.394.775,1.084s-.465-.775-.465-1.394l.31.465c0-.155.929-.62.155-1.394s-.31,0-.62,0-.62-1.239-.775-1.859-.155-1.084.465-.62A2.169,2.169,0,0,0,171,32.223c.465-.465.155.775.775.929s.465-.929.775-1.084-.31-.465-.31-.465a1.082,1.082,0,0,1-.62.31,3.563,3.563,0,0,0-.93-2.169.31.31,0,0,1,.62,0,16.107,16.107,0,0,1-.62-3.253c-.465.775-.465-1.084-.775-.62s-.31,1.084-.62.929.31,0,.31-.155.31-.775-.31-1.084.775,0,1.239.155.31,0,.155-.775a11.465,11.465,0,0,1-1.084-2.169c.155-1.084-.62-2.479-.775-3.408s.775-.31.775-.775-.465.62-.465-.31h.155c-.155-.31,0-1.7-.775-1.7h.62c0-.155-.155-.31-.31-.465s.31-.31.465,0a15.839,15.839,0,0,0-.465-1.7l-.31.465a16.207,16.207,0,0,1-.62-2.633h.31l-.31-.465c.31,0,.465-.465.155-.775l1.084,1.239c-.155.465-.465-.31-.775,0a.929.929,0,0,0,.465,1.239c0-.31-.155-.31-.31-.62s.465.31.93.465,0-.465-.155-.465a2.324,2.324,0,0,1,.62,1.239c-.31-.31-.31.31-.465.155a2.427,2.427,0,0,1,.775,1.239c.155.775.62,1.239.62,2.169a2.943,2.943,0,0,1-1.239-1.084c-.155.62.155.62,0,1.084a2.014,2.014,0,0,1,1.239.929h-.31c.31.62.775.465.775,1.239s.465,2.788.62,3.873h-.31c.775.465.62,1.859,1.084,2.633a5.852,5.852,0,0,1,.62,3.563,44.612,44.612,0,0,1,1.859,6.661l-.465-.31c.465.31-.155.31,0,.775s.62.465.929.775a6.041,6.041,0,0,0,1.084,3.253h-.31c.775.775.62,2.014.775,3.253a.929.929,0,0,0-.155.775c.62.465.62.929,1.239,1.7a11.772,11.772,0,0,1,.31,2.633c1.239,2.479,1.394,5.267,2.479,7.746l-.31.31c1.394,2.479,1.394,5.887,2.324,7.9h-.62c0,.775.465,1.549.929,1.239s.775,1.7.31,2.324.465.775.775,1.394a10.844,10.844,0,0,0,.775,3.408v-.31c-.155-.155-.465,0-.465.31s.31,1.859.93,1.239,1.084,3.253.929,4.8.31.155.465.31a13.632,13.632,0,0,0,.775,3.563c0,.155-.465-.31-.31.31s.31,0,.465.31.62,4.183,1.084,6.042,1.859,6.816,2.633,9.914H191.6c.775.929,0,2.633,1.084,3.253s.155.929-.155.929.155,2.479,1.084,3.563v-.31c0,1.394.62,2.324.775,3.718l-.31-.31c-.155.62.929,1.084.31,1.549a.155.155,0,0,0,.31,0,61.5,61.5,0,0,0,2.479,8.83c.155,2.169-1.084.465-.155,2.014s.31,0,.155.155-.465,1.239,0,1.549.31.31.62.155-.31,1.7.31,2.633h-.31c.929,1.084.929,2.479,2.014,3.408,1.859,6.661,3.873,12.858,5.577,19.364s3.408,12.548,4.647,19.209a4.648,4.648,0,0,0,.465,3.408h-.155c.465,0,.31,1.239.929,1.239.465,2.479,1.239,4.647,1.859,7.126-.155-.31-.62-.465-.465,0l.465.465h-.155c.155.31.465.62.62.155,2.014,6.042,2.788,12.238,5.112,17.97a19.674,19.674,0,0,0,2.169,4.492,25.1,25.1,0,0,0,6.661,11.463,3.1,3.1,0,0,1-2.943-.929" transform="translate(92.196 6.04)" fill="#f7b93d"/>
    <path id="Path_7958" data-name="Path 7958" d="M169.065,10.2c-.155.155-.155.775-.62.465s.465-.465.62-.465" transform="translate(92.425 5.601)" fill="#f7b93d"/>
    <path id="Path_7959" data-name="Path 7959" d="M169.433,20.055a.48.48,0,0,1-.155.31c-.155.155-.31-.31-.155-.465h.31" transform="translate(92.832 10.927)" fill="#f7b93d"/>
    <path id="Path_7960" data-name="Path 7960" d="M169.975,22.839c-.31,0-.62-.775-.775-1.239Z" transform="translate(92.91 11.861)" fill="#f7b93d"/>
    <path id="Path_7961" data-name="Path 7961" d="M169.71,24.855c-.155.31-.31.31-.31-.155h.31" transform="translate(93.02 13.563)" fill="#f7b93d"/>
    <path id="Path_7962" data-name="Path 7962" d="M170.075,24.9a.775.775,0,0,1-.155.62c.155,0-.31-.62.155-.62" transform="translate(93.274 13.673)" fill="#f7b93d"/>
    <path id="Path_7963" data-name="Path 7963" d="M170.747,29.8c0,.155.31.465.155.775s-.465-.775-.155-.775" transform="translate(93.686 16.364)" fill="#f7b93d"/>
    <path id="Path_7964" data-name="Path 7964" d="M171.51,32v.31c0,.155-.31,0-.31-.155Z" transform="translate(94.008 17.572)" fill="#f7b93d"/>
    <path id="Path_7965" data-name="Path 7965" d="M181.81,73.065l-.31-.465h.31Z" transform="translate(99.664 39.866)" fill="#f7b93d"/>
    <path id="Path_7966" data-name="Path 7966" d="M186.155,90.8c.155.31-.155.31-.155.31s.31,0,.155-.31" transform="translate(102.135 49.859)" fill="#f7b93d"/>
    <path id="Path_7967" data-name="Path 7967" d="M189.2,100.41v-.155l.465-.155Z" transform="translate(103.892 54.966)" fill="#f7b93d"/>
    <path id="Path_7968" data-name="Path 7968" d="M.62,128.776c-.929-.31.31.62-.62-.155a.465.465,0,0,1,.62.155" transform="translate(0 70.595)" fill="#f7b93d"/>
    <path id="Path_7969" data-name="Path 7969" d="M242.5,224.195c-3.408-.31-6.506-3.253-9.914-4.028-.31-.155.31-.465-.465-.775a35.475,35.475,0,0,1-11.309-5.577h.31c-.62-.465-1.7-.31-2.479-.62s.31,0,.155-.31-1.394-.465-1.859-.31-.155-.465-.465-.775h-.62c-1.549.31-2.943-1.239-4.8-1.549s.31,0,.155-.155a76.515,76.515,0,0,1-9.14-3.1c.155-.155.31-.31.31-.465s-1.239,0-2.014-.155a4.61,4.61,0,0,1-2.324-.775h.155c-.929.155-.929-.62-1.7-.31l-.31-.465c-.465.465-.929-.62-1.549-.62h0c-.62,0-.775-.465-1.239-.62h0c-1.239-.31-1.7-.929-1.859-.465s1.239.31.775-.465c-4.028-1.084-7.9-2.633-11.773-4.028-.31-.31-.62-.465-.62-.775a8.21,8.21,0,0,0-2.014-.31l-.31-.465c-.62-.465-.929.155-1.7-.31s.465-.155.465-.31a7.59,7.59,0,0,1-2.479-.465h.31c-1.084.155-1.549-.62-2.324-.62h.31c-1.084-.775-.62.465-1.549-.155s.155-.155.31-.155a15.181,15.181,0,0,1-3.718-.775h.155a26.488,26.488,0,0,0-3.408-1.084c-.31-.31.31-.62-.775-.93s-2.014-.465-1.549.465a13.168,13.168,0,0,0-3.1-1.239c.465,0-.31-.775.62-.62l-.465-.62c.155-.155.62.31.465,0l-2.014-.465a6.816,6.816,0,0,1-2.943.155c.62,0-.155-.775.31-.62l-2.014.465c-.465-.155,0-.465-.62-.465H151.1c-.155-.155-1.7-.465-1.7-1.084s.62.155.31-.155l-1.549-.31h0c-.465-.31-1.549-.31-1.084.155s0-.31.465,0a3.718,3.718,0,0,1-2.014-.31c.31,0,.31-.155.465-.31a14.1,14.1,0,0,1-3.408-.31c-.155.31.62-.31.62-.155a9.077,9.077,0,0,1-4.183-1.394c-1.084-.929,0,.465,0,.31a1.182,1.182,0,0,0-1.084-.62c-.62,0-.62-.155-1.084-.155s-.155-.155.31,0a14.407,14.407,0,0,1-4.8-1.394h-1.394l.31-.31c-.31-.31-1.084-.31-1.084-.62s2.943.62,1.859.62-1.549,0-1.239-.31-1.549,0-2.014-.62.775-.31.155-.465-.31,0-1.084-.155H127.4c-.155.31-.929-.31-.62.155s-1.549-.31-1.239-.775l.31-.31c-.465-.155-.775.155-1.239.31s-.155-.155-.155-.31-.929-.465-1.7,0-2.169-.775-2.479-1.394a4.492,4.492,0,0,1-2.169-.465h.465c-.465-.31-.62-.155-1.084-.31s-.775-.775-1.239-1.084-.62.465-.775.62a3.283,3.283,0,0,1-2.633-1.084c-.62-.929,1.084,0,.62-.31s-1.394,0-2.324-.62v.62c-.31-.465-1.549-.155-1.239-.775s-1.084-.62-1.239,0-4.028-1.084-4.8-2.324-.775-.31-.775,0,.62,0,.62.155h-.31c-.465-.31-.929-.465-.155-.775s-1.394.465-2.788-.155,0-.31-.31-.465H99.2c-.929-.465-.31-.62-.31-1.084s-1.084-.31-1.394-.155l-.465-.62c.31.465-.465.155-.775.155h.31c0-.155-.62-.31-.929-.31s.62.62.775.775H95.331c.31-.31-.775-.465-1.084-.775s-.62.155-.775.155-.775-.31-.31-.465.31.31.62.155-.155-.62-.775-.465-.155.775-.929.155h.62l-.775-.465v.31c-.155-.155,0-.155,0-.155s-1.239-.31-1.7,0l-1.239-.775h.155a2.169,2.169,0,0,0-1.549-.465H86.036c-.62-.465.155-1.239-.62-1.239s-1.239.155-1.084.465-2.788-.62-3.718-1.549H80.15c-1.7-.775-3.873-.929-5.112-2.169s.155-.31.155-.465a.426.426,0,0,0-.775,0c-.31.465-.155.465.31.775a8.365,8.365,0,0,1-3.253-1.394c.31.31,0,.31-.31.31s-.465-.775-1.239-.929v.31l-.31-.465c-.31,0-.465.465-.929,0a.465.465,0,0,0,0-.31,3.718,3.718,0,0,1-2.324-.465l-.465-.62c-.31,0-.929,0-.465.31a7.212,7.212,0,0,1-2.014-1.549,17.815,17.815,0,0,1-7.436-1.859h.155c-.465-.465-.465.31-.775,0s-.31-.62.31-.62a8.523,8.523,0,0,0-1.859-.155c-.62,0,.465,0,.31.31s-1.084-.775-1.394-.31.155-.465.31-.62h-.62c-.465-.775,1.859-.31,1.394-1.084H53.35c-.31-.62,1.549,0,.31-.62s-1.239.465-.929.775-.929.775-2.169.31.929.31.929-.155-1.239-.31-1.7-.62-.155.62-.465.62.62-.31-.31-.62-1.084,0-.465.465-.775-.465-1.549-.31,1.239-.465.31-1.084-1.394,0-1.084.775-.31-.62.155-.62-1.549.155-1.394-.62l-.31.31-.465-.62c-.465-.155-1.7-.155-1.394-.62s-1.239-.465-.929.155.929,0,1.084.775-.929-.31-1.394-.31v-.31c-.31,0-.775-.31-.929-.155s.155-.31,0-.31h-.31c-.929-.155,0-.62-.929-.929h.775c-.155,0-.31-.465-.775-.465l-.929.62c-.62-.155-.155-.465-.775-.31h.775c.155,0-.155-.62-.929-.929s-1.394,0-.775.465-.775-.465-.31-.62,0,.31-.775.31l-1.239-1.549h.465c.775-.155-.155-.465.31-.775l-1.084-.31c.62,1.084-1.394.465-1.394,1.239s-.155-1.859-1.859-1.394-.62.465.155.62-.775.465-1.549-.31-.465-.93.775-.93.465.465.62.465.31-.62-.465-.929-1.239-.465-1.239,0,.775.31.31.465-.929-.929-1.549-.465.62.62.465.929H27.17c-1.084-.62-.465.31-1.549-.31l-.31-.775c.465-.31,1.549.929,1.549.155s-1.084-.155-1.7-.62h.62c-.31-.155-.155-1.084-1.394-1.084s-.31.155-.31.465l-2.324-.62c.31-.465-1.239-.62-.31-.775a3.1,3.1,0,0,0,2.479.929c-.155-.775.929.465,1.394,0s-.62-.929-.62-1.394h-.775c-.31.31,0,.465,0,.775a5.112,5.112,0,0,0-2.788-.775c-.31-.31,0-.62.465-.465l-3.718-3.873c.465.929-1.394-.465-1.084.31s.929,1.084.465,1.084.155-.31,0-.465a1.21,1.21,0,0,0-1.239-.62c-.775.155.465-.62.929-.929s.155-.31-.62-.62l-2.943-.775a13.013,13.013,0,0,0-3.718-1.859c-.465-.465.155-.775-.31-1.084s.155.775-.62,0h.155c-.31,0-1.549-1.239-2.169-.62l.62-.31h-.62c.155-.155,0-.465.31-.465s-1.239-.62-1.859-.929l.31.465a23.7,23.7,0,0,1-2.943-1.394v-.31H1.92c.31-.155-.155-.775-.62-.62H3.314c.31.465-.62.155-.62.62s1.084.775,1.394.62H3.314c.155-.465.62-.155,1.084-.31s-.465-.31-.465-.31a3.253,3.253,0,0,1,1.549.465c-.465,0,.155.31-.155.465s.929-.155,1.7.31,1.7.465,2.479,1.084a3.563,3.563,0,0,1-1.859.155l1.084.775a2.324,2.324,0,0,1,1.7-.31v.31c.775.155.929-.155,1.859.31a39.975,39.975,0,0,0,4.183,2.169v.31c.929-.31,2.324.775,3.253.929s3.408,1.239,3.873,2.014l7.746,3.1h-.62c.62-.155.155.31.775.465a1.5,1.5,0,0,0,1.239-.31,8.83,8.83,0,0,0,4.028,1.394v.31c1.394,0,2.479.929,3.718,1.7a1.239,1.239,0,0,0,.62.775,7.126,7.126,0,0,1,2.479.155l2.788,1.549c3.253.62,6.2,2.169,9.45,3.1v.465c3.253.465,6.816,2.633,9.6,3.253l-.465.465c.775.465,1.859.62,1.859,0s2.169.465,2.479,1.239,1.084.155,1.859.31a16.419,16.419,0,0,0,3.873,1.549h-.31c-.155,0-.31.31,0,.465s2.169.929,1.859,0,4.028,1.084,5.577,2.169.31-.155.62-.155a20.291,20.291,0,0,0,4.183,1.549c.155.155-.465.155.155.465s.155-.31.62-.155,4.8,2.169,6.971,2.788,8.055,2.633,11.928,3.873h-.155c1.394-.155,2.788,1.549,4.028,1.084s1.084.465.775.62,2.633,1.394,4.338,1.394h-.465c1.394.775,2.788.775,4.338,1.7h-.62c.465.465,1.549-.155,1.7.62s.31-.31.155-.31a93.1,93.1,0,0,0,10.689,3.253c2.324,1.239-.31,1.239,2.014,1.394s.155-.155.155,0,.929,1.239,1.549.929.465-.155.465-.31,1.7,1.239,2.943,1.394H138.4c1.7-.155,3.253.775,4.647.465,7.9,2.479,15.646,4.8,23.392,7.436l11.309,4.183c3.718,1.394,7.591,2.788,11.309,4.492a6.816,6.816,0,0,0,3.718,1.859c-.155,0-.31,0-.155.155s1.394.465,1.7.155l8.365,3.253c-.465-.155-.929.155-.31.31h.775c.465.155.929,0,.62-.31a113.251,113.251,0,0,1,10.689,4.647c3.563,1.7,6.971,3.563,10.379,4.957a43.689,43.689,0,0,0,5.887,2.633,87.681,87.681,0,0,0,15.026,8.21,4.337,4.337,0,0,1-3.718,0" transform="translate(0.714 71.376)" fill="#f7b93d"/>
    <path id="Path_7970" data-name="Path 7970" d="M1.211,129c0,.31.62.775,0,.775s-.155-.62,0-.775" transform="translate(0.493 70.835)" fill="#f7b93d"/>
    <path id="Path_7971" data-name="Path 7971" d="M11.12,135.7v.31c-.155-.155-.465,0-.62-.155h.31" transform="translate(5.766 74.515)" fill="#f7b93d"/>
    <path id="Path_7972" data-name="Path 7972" d="M14.1,137.21c-.155.155-1.084-.155-1.7-.31Z" transform="translate(6.809 75.173)" fill="#f7b93d"/>
    <path id="Path_7973" data-name="Path 7973" d="M15.91,138.8c.31.31.155.31-.31.155h.31" transform="translate(8.566 76.217)" fill="#f7b93d"/>
    <path id="Path_7974" data-name="Path 7974" d="M16.207,138.6a1.084,1.084,0,0,1,.62.465c0-.155-.775-.31-.62-.465" transform="translate(8.888 76.107)" fill="#f7b93d"/>
    <path id="Path_7975" data-name="Path 7975" d="M21.62,141.5c.155,0,.775.155.775.465s-1.084-.155-.775-.465" transform="translate(11.841 77.699)" fill="#f7b93d"/>
    <path id="Path_7976" data-name="Path 7976" d="M24.2,142.4h.31c.155.155-.155.31-.31.155Z" transform="translate(13.289 78.194)" fill="#f7b93d"/>
    <path id="Path_7977" data-name="Path 7977" d="M72.865,159.755H72.4l.155-.155Z" transform="translate(39.756 87.638)" fill="#f7b93d"/>
    <path id="Path_7978" data-name="Path 7978" d="M94,166.9c.465,0,.31.31.31.31s.31-.155-.31-.31" transform="translate(51.617 91.647)" fill="#f7b93d"/>
    <path id="Path_7979" data-name="Path 7979" d="M105.755,170.365H105.6l.155-.465Z" transform="translate(57.986 93.294)" fill="#f7b93d"/>
    <path id="Path_7980" data-name="Path 7980" d="M166.3,277.565c.775-.465-.62-.155.465-.465a.465.465,0,0,1-.465.465" transform="translate(91.317 152.159)" fill="#f7b93d"/>
    <path id="Path_7981" data-name="Path 7981" d="M9.243,355.64c2.943-1.7,7.126-1.084,10.379-2.324.31-.155,0,.62.929.31a64.117,64.117,0,0,1,12.393-1.859H32.79c.775,0,1.549-.775,2.324-.775s-.155.155,0,.31,1.394-.465,1.7-.775.31.31.775.465l.31-.465c1.084-1.239,3.1-.465,4.647-1.394s-.155.155,0,.31a74.05,74.05,0,0,1,9.14-2.479.471.471,0,0,0,0,.62c.155.155.929-.775,1.859-1.084a6.491,6.491,0,0,1,2.324-.62h0c.62-.62,1.084,0,1.549-.62l.465.31c.155-.62,1.084.155,1.549-.31h0c.465-.31.929,0,1.394-.31h0c1.239-.465,2.014-.31,1.859-.775s-1.084.465-.31.775a112.633,112.633,0,0,1,11.928-3.1h.929a8.053,8.053,0,0,0,1.7-.775H77.4c.775,0,.62-.775,1.549-.775s-.31.465-.155.465a7.436,7.436,0,0,1,2.324-1.084c-.155.155-.31.155-.155.31a4.891,4.891,0,0,0,2.324-.775v.31c1.394,0,.155-.62,1.394-.775s-.155.31-.155.31a15.488,15.488,0,0,1,3.408-1.394.155.155,0,0,0,0,.155,25.872,25.872,0,0,0,3.408-1.084c.465,0,0,.775,1.084.31s1.859-.775,1.084-1.239a12.858,12.858,0,0,0,3.253-.775c-.31.31.62.62-.155.775h.775c0,.31-.62.155-.31.31l1.859-.62a6.662,6.662,0,0,1,2.324-1.7c-.465.31.465.465.155.775l1.394-1.549c.465-.155.155.465.775.155s.155-.31.31-.465,1.7-.62,2.014-.155-.62.31-.155.31l1.394-.62h0c.465,0,1.394-.62.775-.775s.155.31-.31.31a3.563,3.563,0,0,1,1.859-.929.569.569,0,0,0-.155.465,13.787,13.787,0,0,1,2.943-1.7c0-.31-.31.62-.465.465s2.788-1.394,4.183-1.239-.155-.31-.155-.31a3.077,3.077,0,0,0,1.239,0,1.767,1.767,0,0,0,.929-.465c.31-.31.155,0-.31.155a14.1,14.1,0,0,1,4.647-1.7c0-.155.775-.775,1.084-.929v.31c.31.155,1.084-.31,1.239-.155s-2.633,1.239-1.859.62,1.239-.929,1.084-.465,1.239-.775,2.014-.62-.465.62.155.465.155-.31.929-.62l.465-.31c0-.31.929-.155.465-.465s1.394-.62,1.394,0v.465c.465-.155.62-.62.775-.929h.155c-.155-.62,1.084-.31,1.394-.929s2.169-.62,2.788-.465a4.338,4.338,0,0,1,2.014-.929c-.155.155-.31.155-.31.31s.62-.155,1.084-.465h1.7c.62-.465.31-.62.31-.929s1.7-1.084,2.633-.775-.929.62-.31.62,1.084-.929,2.169-.929l-.465-.465c.62.155,1.394-.775,1.394-.155s1.239-.155.929-.62,3.873-1.549,5.112-.929.775-.31.62-.465-.465.465-.62.31a.31.31,0,0,0,.155-.31c.465,0,.929-.155.62.465s.775-1.239,2.324-1.549.155.31.62.155l.62-.62c.929-.31.62.31.775.62s1.084-.465,1.239-.775l.775.31c-.62-.155.31-.31.465-.465h-.155c.155.155.62-.155.929-.31s-.775-.155-1.084,0l.929-.62c0,.465.929,0,1.239-.155a1.157,1.157,0,0,0,.465-.465s.775-.155.465.155-.465,0-.62.155.465.31.929-.155-.31-.62.62-.775l-.31.465h.929v-.31h.155c.155-.465,1.239-.62,1.239-.929h1.239a2.014,2.014,0,0,0,1.394-.775h0a2.634,2.634,0,0,0,1.084-.62c.775,0,.62,1.084,1.239.465s.775-.93.465-1.084,2.479-1.239,3.718-1.239,0-.31.31-.465,3.563-1.7,5.267-1.7.155.31.155.465.62.155.62-.465-.155-.465-.775-.31a8.521,8.521,0,0,1,3.253-1.084c-.31,0-.155-.155,0-.31s.929.31,1.394-.155v-.31h.465c.155-.155,0-.62.775-.62h.31c.465-.465,1.239-1.239,2.014-1.239h.775c.31-.155.62-.62.155-.465a16.685,16.685,0,0,1,2.479-.31,19.673,19.673,0,0,1,6.506-3.718v.31c.62,0,.155-.465.62-.465s.62.31.31.62.929-.775,1.394-1.084-.31.31-.465,0,1.239-.31,1.239-.775.31.465.155.62l.465-.465c.775.155-1.084,1.549-.155,1.859l.465-.31c.62.31-1.084,1.084.155.62s.62-1.239.155-1.239.155-1.239,1.239-1.7-.929.465-.465.775,1.084-.62,1.549-.775-.31-.465,0-.775-.155.62.62.31.775-.775,0-.62.929-.155,1.239-.775-.465,1.239.465,1.084.929-.929.155-1.394.62.155.465.62.929-1.239,1.394-.465v1.549h.775c.465-.155,1.239-1.084,1.394-.62s1.239-.62.62-.775-.62.62-1.239.31.929-.465,1.239-.775h.155c.155-.155.775-.31.775-.62s0,.31.31.31V292.9c.775-.62.465.465,1.239,0l-.62.62c.155-.155.62,0,.929-.155s.155-.929.155-1.239.31.31.775-.31l-.465.62c0,.155.62.31,1.239,0s.775-1.084.155-.929.929-.155.775.155-.31-.31.31-.775h1.859l-.465.775h.465c-.465.62.465.155.31.775a2.013,2.013,0,0,0,.93-.62c-1.239-.31.62-1.394,0-1.859s1.394,1.239,2.324-.31.155-.775-.62-.31.155-.929,1.239-.929.929.31.155,1.084-.62.155-.775.155.155.62.929.31,1.084-.62.929-.929-.775.31-.62-.155,1.239-.155,1.394-.929-.929,0-.929-.155l.62-.465v.31c1.239-.31.155-.62,1.239-1.084l.775.31c0,.465-1.7.62-1.084,1.084s.775-.775,1.549-.929l-.465.31c.31-.155.929.62,1.7-.31s0-.31,0-.62L229.837,285c0,.62,1.239-.62.775.31a3.1,3.1,0,0,0-2.324,1.394c.62.31-.929.31-.929,1.084s1.084.155,1.394.465l.62-.465c0-.465-.31-.31-.62-.62a4.957,4.957,0,0,0,2.324-1.549c.465,0,.465.465.155.62l3.563-1.7c-.929-.155,1.239-.775.465-.929s-1.394,0-1.084-.465.155.31.31.31a1.088,1.088,0,0,0,1.239-.62c.31-.775.155.775.155,1.239s.155.31.929,0l2.324-1.7a11.772,11.772,0,0,0,3.718-1.859c.62,0,.465.62,1.084.465s-.775-.31.31-.465h0c.155-.31,1.859-.465,1.859-1.394v.62l.465-.31c.155.155.31.155.155.465s1.239-.62,1.859-.929H247.5a22.925,22.925,0,0,1,2.788-1.549v.31l.465-.465c0,.31.62.31.929-.155l-1.239,1.549c-.62,0,.31-.62-.155-.775s-1.239.465-1.394.775.31-.155.62-.465-.31.62-.31,1.084.465-.155.465-.31a3.253,3.253,0,0,1-1.239.929c.31-.31-.31-.155-.31-.31s-.465.775-1.239,1.084-1.394,1.084-2.324,1.394a3.563,3.563,0,0,1,.929-1.549l-1.239.465a2.324,2.324,0,0,1-.775,1.549v-.31c-.62.465-.465.929-1.394,1.239l-4.338,1.859V285c-.31.929-2.014,1.239-2.788,1.859a10.218,10.218,0,0,1-4.028,1.7,54.372,54.372,0,0,1-7.436,3.873l.31-.62c-.31.465-.465-.155-.929.155s-.465.775-.62,1.084a8.674,8.674,0,0,0-3.718,2.014v-.31c-.775,1.084-2.324,1.084-3.718,1.7a1.239,1.239,0,0,0-.929,0c-.465.775-.929.929-1.859,1.7l-2.943.929c-2.633,1.859-5.887,2.788-8.83,4.492l-.31-.31c-2.633,2.014-6.661,2.788-9.14,4.183v-.62c-.929.155-1.7.929-1.394,1.239s-1.859,1.084-2.633.775-.929.62-1.549,1.084a16.11,16.11,0,0,0-3.873,1.394h.465c.155-.155,0-.465-.31-.31s-2.169.62-1.394,1.084c-1.859.155-3.873,1.859-5.577,1.859s-.155.31-.31.465a19.981,19.981,0,0,0-4.183,1.549c-.31,0,.31-.465-.31-.31s.155.31-.31.465-4.957,1.394-7.126,2.324-7.9,2.943-11.618,4.337h0c-1.084.929-3.1.465-3.873,1.549s-1.084.31-1.084,0-2.943.62-4.183,1.549h.31c-1.549.155-2.788,1.084-4.338,1.239s.465-.31.465-.465-1.239,1.084-1.7.465-.155.465,0,.31a105.957,105.957,0,0,0-10.379,3.563c-2.634.31-.465-1.084-2.324,0s0,.31-.155.155-1.394-.465-1.859.155-.31.31-.155.62-2.014-.155-3.253.62v-.31c-1.239,1.084-3.1,1.239-4.028,2.324L102.5,338.29,90.882,341.7l-11.618,2.943c-3.873.929-7.746,1.859-11.773,2.479a6.661,6.661,0,0,0-4.183.62c0-.155.155-.155,0-.155s-1.394.31-1.549.929l-8.675,1.859c.465-.155.62-.62,0-.465l-.465.465h-.31c-.31.155-.775.465-.31.62a109.827,109.827,0,0,1-11.309,2.169c-3.718.62-7.591.929-11.309,1.7a42.451,42.451,0,0,0-6.2,1.239A84.125,84.125,0,0,0,6.3,357.964a4.337,4.337,0,0,1,2.943-2.169" transform="translate(3.459 152.159)" fill="#f7b93d"/>
    <path id="Path_7982" data-name="Path 7982" d="M165.95,277.917c-.31-.155-.929,0-.62-.465s.62.31.62.465" transform="translate(90.738 152.272)" fill="#f7b93d"/>
    <path id="Path_7983" data-name="Path 7983" d="M154.61,281.425h-.31c.155-.155.31-.465.465-.31s-.155.155-.155.31" transform="translate(84.728 154.34)" fill="#f7b93d"/>
    <path id="Path_7984" data-name="Path 7984" d="M151.8,282.884c0-.31.775-.775,1.239-1.084Z" transform="translate(83.355 154.74)" fill="#f7b93d"/>
    <path id="Path_7985" data-name="Path 7985" d="M149.2,283.225c-.465,0-.31-.155.155-.31s0,.155-.155.31" transform="translate(81.773 155.329)" fill="#f7b93d"/>
    <path id="Path_7986" data-name="Path 7986" d="M149.275,283.562H148.5c.155.155.62-.465.775,0" transform="translate(81.543 155.611)" fill="#f7b93d"/>
    <path id="Path_7987" data-name="Path 7987" d="M143.747,285.66c-.155.155-.62.465-.929.31s.929-.775.929-.31" transform="translate(78.396 156.766)" fill="#f7b93d"/>
    <path id="Path_7988" data-name="Path 7988" d="M141.17,287.01h-.31c-.31,0-.155-.31.155-.31Z" transform="translate(77.255 157.43)" fill="#f7b93d"/>
    <path id="Path_7989" data-name="Path 7989" d="M94.1,305.81l.31-.31v.155Z" transform="translate(51.671 167.754)" fill="#f7b93d"/>
    <path id="Path_7990" data-name="Path 7990" d="M73.085,312.255c-.465.31-.31-.155-.465-.155s0,.31.465.155" transform="translate(39.845 171.378)" fill="#f7b93d"/>
    <path id="Path_7991" data-name="Path 7991" d="M61.5,316.155l.155-.155.155.465Z" transform="translate(33.77 173.519)" fill="#f7b93d"/>
  </g>
</svg>
