<svg xmlns="http://www.w3.org/2000/svg" xmlns:xlink="http://www.w3.org/1999/xlink" width="297.575" height="506.563" viewBox="0 0 297.575 506.563">
  <defs>
    <clipPath id="clip-path">
      <rect id="Rectangle_207" data-name="Rectangle 207" width="172.656" height="477.469" fill="none"/>
    </clipPath>
  </defs>
  <g id="surfbord" transform="translate(0 47.59) rotate(-16)" clip-path="url(#clip-path)">
    <path id="Path_6696" data-name="Path 6696" d="M109.3,2.063c2.292-3.056-1.375,1.528,1.452-2.063A10.848,10.848,0,0,1,109.3,2.063" transform="translate(-25.799)" fill="#60bcce"/>
    <path id="Path_6697" data-name="Path 6697" d="M92.2,10.3c3.9,4.813,8.022,10.7,12.071,16.807s7.869,12.529,11.459,18.259c.84,1.375-.458-.229,1.375,2.9,3.438,5.577,7.64,12.987,11.536,20.856s7.64,16.272,10.619,23.759l-.458-.84c1.222,2.827,2.827,6.188,4.049,9.168-.076.076-.458-.917-.229-.229s2.215,5.424,2.827,6.646.229,1.146.764,2.75l.84,1.681c1.07,2.368,2.139,5.271,3.285,8.48s2.139,6.646,3.285,9.932c-.153-.306-.382-.917-.229-.382a350.666,350.666,0,0,1,10.084,36.365c-.153-.458-.382-.917-.306-.153s1.3,4.355,1.91,7.64a29.26,29.26,0,0,0,.764,3.9l.611,2.75a20.085,20.085,0,0,1,.458,2.979v-.306c.688,2.827.611,4.278,1.222,6.646l.153,1.833c.535,1.222.382,4.2.917,6.57h.076c.382,2.292.382,3.438.688,5.577v.229c.611,4.889.764,7.792.993,7.64,0,1.757-.611-4.737-.611-2.063a359.671,359.671,0,0,1,2.368,49.428,31.859,31.859,0,0,1-.306,3.438c0,1.6-.229,6.188-.153,7.64a9.318,9.318,0,0,0-.229,1.91c-.306,2.979.076,3.285-.229,6.57,0-1.3,0-1.757-.153-1.3s-.076,3.056-.153,4.737l-.382,5.119a5.621,5.621,0,0,0,0-1.222c-.153,3.591-.611,6.57-.84,9.7V294.5c-.764,5.042.153,1.528-.458,5.883.076-1.07,0-.688-.076-.917-.076,2.063-.458,4.737-.764,7.41s-.688,5.348-.993,7.334v-.153l-1.146,6.8c-.458,2.292-.84,4.66-1.3,7.1s-.153-.611-1.07,3.973c.306-.076-1.528,7.869-.688,5.195-.458,1.986-1.07,4.507-1.681,6.876l-1.452,5.883c.382-1.757-.84,1.834,0-1.452l-.84,2.445c0-.382.688-2.521.382-1.757s-1.528,6.417-1.986,7.869l-.993,4.66-.611,2.75-.917,3.285c.611-2.292-.688,1.222-.306-.382-.535,2.292-.993,4.584-1.6,6.876s-.306.306-.993,2.6a7.565,7.565,0,0,1-.382,1.681,69.59,69.59,0,0,1-2.674,7.258c-.458.611.84-2.6.153-.917-.993,2.9-.993,3.132-2.063,6.035h-.076c-.764,1.91-1.986,5.73-1.07,3.667s-.382.458.458-1.528a71.9,71.9,0,0,1-2.75,7.716,4.507,4.507,0,0,0,.306-1.375l-1.07,2.979-1.146,3.056c-.764,2.063-1.6,4.2-2.521,6.341.076.153.458-1.681.84-2.292-2.521,5.424-4.737,11.383-7.1,15.814.306-.764.382-.306.306-.306-1.222,2.6-1.375,2.368-2.139,4.125-.153.153-.993,2.139-1.833,3.9s-.306.458.458-1.07c-.535,1.222-1.986,4.278-3.743,7.64l-2.75,5.195-2.6,4.66a50.056,50.056,0,0,1-2.368,4.737l.153-.535c-.688,1.07-2.368,4.125-2.674,4.278-.688,1.375.764-1.222,2.139-3.667s2.6-4.813,1.681-2.979-2.6,5.119-2.368,4.278l-2.063,3.743a33.879,33.879,0,0,1-2.215,3.514c.458-.688.993-2.139-.153-.153-2.139,3.514-.535,1.07-2.215,3.9l-1.07,1.833c.076.229-1.986,3.056-.993,1.91-.382.382-3.132,5.042-3.132,4.507l.153-.611-.917,1.6-.382.764-.535.993h-2.063c-.306.306-4.2,0-6.264.229-3.667-.153-9.4,0-11.154-.229l-3.82.153H76.618l-.688-.993.688.917h.076l-.764-.993-.458-.611-1.07-1.452c.306.306-2.215-3.438-3.361-5.424s-1.3-1.375-1.528-1.528c-1.146-2.368-4.584-6.494-6.112-9.473.535.84,2.368,3.361,1.146,1.375s-2.979-4.278-5.042-7.945l.306.993c-.84-1.681-3.285-5.195-2.827-4.966-.84-1.146-2.368-4.278-2.445-3.743-3.285-6.035-8.251-14.515-9.7-18.488-.535-.84-1.528-3.056-1.452-2.521s1.146,1.986,1.3,2.6a3.132,3.132,0,0,0-.611-.993c-.917-1.91-1.6-3.438-.535-1.757-1.986-4.278-2.6-4.125-5.119-9.626.229.229.076-.229-.688-1.833L36.2,408.174c-1.6-3.591-.688-2.139-.535-2.292-.917-1.91-1.91-4.2-2.368-5.042l-.764-2.445c.535,1.757-.764-1.528-1.222-2.445l.382.917a39.122,39.122,0,0,0-1.528-3.743,39.876,39.876,0,0,0,1.375,3.82c-.458-.917-1.07-2.521-1.681-3.743.382.382-1.146-3.209-1.757-4.737a18.64,18.64,0,0,0-1.146-2.445c.076-.076-1.07-2.9-.458-1.528s.458,1.451.917,2.368a17.8,17.8,0,0,0-1.222-3.514c-.764-1.834-.153.611-1.375-2.9.382.917.535,1.07.84,1.757l-1.07-3.285h-.229c-.153-.458,0-.153-.076-.382a31.161,31.161,0,0,1-1.222-2.9,23.3,23.3,0,0,0-1.07-2.75c-.611-1.681-1.07-3.514-1.6-5.119l.153.306c-.535-1.986-1.452-4.584-2.063-6.188h.076l-.764-2.368c-.306-.917-.611-1.91-.84-2.521-.688-2.75.382-1.07-.764-4.049s-1.528-4.278-1.3-3.132c-.611-2.521-1.375-5.119-2.139-7.792s-1.3-5.195-1.757-7.563a8.632,8.632,0,0,1-.535-1.681c-1.6-7.41-3.591-15.585-4.278-21.62.458,2.139.229.153.306.076-.458-1.757-.229-2.139-.611-2.75s-.229,0,.076,2.139c-.917-4.431-1.834-11.23-2.063-13.751.076,1.222-.076.306-.229-.688.306.306-.076-3.056-.458-5.5l-.229-.306V288.69a13.216,13.216,0,0,1-.611-3.514,1.986,1.986,0,0,0,.076-.764c-.382-2.6-.917-6.188-1.07-9.015v-2.292c-.076-1.222-.382-3.209-.306-1.07L.833,266c-.076-1.6,0-2.75,0-3.514-.229-2.063-.382-4.355-.535-6.8s-.153-5.042-.229-7.64c-.229-5.271,0-10.7.076-15.508v.306c.153-2.6-.229-1.375-.076-3.132.076.84.306-1.986.382.076a57.894,57.894,0,0,0,.076-7.181c-.153-.382,0,1.91-.153,1.452s.382-5.119.153-5.73.229-.153.306.306c0-.764.076-1.528.076-2.292s.229.229.229,1.757.076,3.132.306,1.681a10.551,10.551,0,0,0,.076-2.063c.076-.688.153.382.153,1.375s0,1.528.153-1.07-.076-4.2-.382-2.215c.306-4.737-.382-2.215.076-7.334.229-1.375-.306,4.049,0,3.132.382-2.368.229-4.813.611-6.952-.382,2.368-.382.306-.229-1.222s0,1.681.458-1.986c-.076-.611.229-3.973-.229-1.07-.153-1.375.458-3.82.535-5.806s0,3.82.611-.153c-.306.611.458-4.966-.153-2.9.306-1.528.458-1.681.382-.535.458-2.215.382-5.5.917-6.188v-.764c.153-.688.382-1.681.688-2.827s.84-6.341,1.07-6.112l.382-2.6c.153-.993.229-1.681,0-.84-.688,2.75-.382,3.209-.993,4.737a44.539,44.539,0,0,0,.917-5.653l.153-.229c.153-.993.611-3.132.611-3.743-.076.764.076.382.229-.382v-1.07c.688-3.9.458-.84,1.222-4.66-.153.993-.306,1.91-.458,2.9.076-.611.535-1.91.917-3.667a9.447,9.447,0,0,0,.153-2.75C9.7,155,9.7,156.219,10,154.08l-.458,2.75a23.43,23.43,0,0,0,1.3-4.584c.611-2.827.84-4.66.076-1.834.382-1.375.993-3.361.764-2.215.764-3.209-.306.382.306-2.368.382-1.07,1.375-4.584,2.215-6.646-.153.993-.382,1.91-.535,2.9l.535-1.91c-.458,2.521.535-1.222.382.229.382-1.3.764-2.9,1.07-4.125-1.452,3.667.688-4.355.076-3.361,1.452-5.195,1.757-2.979,2.9-8.556-.382.84.153-1.757-.764,1.528a18.717,18.717,0,0,0,.764-2.827,16.579,16.579,0,0,1,.993-3.209c-.84,2.827,1.3-2.9.153,1.222a17.78,17.78,0,0,0-.993,2.827c.535-1.3.229.382,1.3-2.9.611-1.986,1.528-4.737,1.222-4.355s-.993,3.056-.764,1.681c1.3-3.973,1.757-4.507,1.986-6.264-.84,2.521-1.222,3.056-1.375,2.979l.917-2.9v.611c1.757-4.584.306-1.452,1.91-5.883L25.2,104.8c-.153,1.146-2.445,6.494-1.834,5.806,1.07-2.9,1.222-3.9,2.368-6.646l-.688,2.063a39.572,39.572,0,0,0,2.521-6.112c.764-2.139.076-.611,0-.688,1.757-4.66,2.215-6.035,3.438-9.015,0,.688,2.215-5.195,1.07-1.834a80.139,80.139,0,0,0-3.9,9.855c.917-1.6-1.452,3.591-1.528,4.737,1.452-3.743,1.681-3.438,2.063-3.973a11.07,11.07,0,0,0,.917-2.674c.153-.611-.535.84-.764.84l2.368-5.882c.688-1.834,1.3-3.361,1.681-4.584s.688-.84,0,.84c.993-2.445,2.139-4.966,3.209-7.41s2.292-4.889,3.361-7.1c-.84,1.375-.229.153.382-1.3s1.375-2.9.764-1.91c-1.222,2.368-2.368,4.431-1.91,2.979s.076.076.458-.535c.764-1.986,1.681-2.9,2.368-4.889-2.063,4.355-.076.993-.229,1.91,1.452-3.209.076.229,1.6-2.9.688-1.6,1.528-3.361,2.368-5.119l2.674-5.348c2.445-4.2,5.883-10.772,8.1-14.515,1.222-1.91.688-.458,1.986-2.521s-1.375,1.681.917-1.91l-.153.382c.611-1.146,4.2-6.57,4.584-7.869l-.458,1.3c.458-.688.764-1.3,1.146-1.91s.688-.688,0,.382c1.528-2.139,2.979-4.66,4.507-7.1L67.451,23.6c2.6-4.2,4.584-6.8,7.181-10.7v.229l1.528-2.368c-.229.688,1.3-1.375,2.063-2.674l-3.9,6.188c-1.222,1.6,1.07-1.91.229-.993A37.281,37.281,0,0,0,71.118,18.4c.917-1.375.993-1.452,1.681-2.6a27.983,27.983,0,0,1-1.528,2.9c.458-.764,1.222-1.757,1.3-1.91-.917,1.452-1.834,2.979-3.438,5.348.993-1.681-.688.764-.382.153s-1.375,2.6-3.361,5.577a41.481,41.481,0,0,0-2.6,4.049c-.917,1.6-1.91,3.438-3.056,5.195.688-1.528,1.681-3.438,2.9-5.653-1.452,2.139-1.528,2.445-2.9,4.584a46.221,46.221,0,0,1-2.368,4.966H57.29c-1.452,2.674-1.3,2.75-3.209,6.188s-3.285,5.806-4.813,8.633-2.827,5.424-4.049,7.716H44.99c-.993,2.674-4.049,8.48-5.5,11.994-2.9,5.806-5.577,12.911-7.1,15.89-4.278,10.619-7.64,20.016-11.383,31.246a18.191,18.191,0,0,0,.382-1.986c-.535,2.063-.535,1.3-1.146,3.285.917-2.215-.611,2.827-.917,4.278s-.917,2.6-1.3,3.973l-1.146,4.278c-.764,2.827-1.452,5.577-1.91,7.869l-.229.153c-.458,2.292-1.07,4.813-1.757,7.487l-2.063,8.556A20.627,20.627,0,0,0,10,163.935c-.382,3.209-.764,4.813-1.452,9.4l-1.07,6.112c-.382,2.215-.84,4.431-1.146,6.112-1.6,12.758-3.056,25.822-3.514,39.115l-.229.917c-.229,12.911-.458,28.878.382,39.879L2.59,264.4c.076,3.438.611,7.869.764,6.952.076,3.438.84,8.633.84,10.848.229,3.514.611,4.278.993,7.258.688,7.1,1.146,9.7,2.215,16.272l-.229-1.6c-.076-.535-.306-.764-.076.917s1.452,9.091,1.452,6.57c.458,3.514,1.375,7.64,2.215,11.689l1.375,5.959,1.146,5.5c-.076-.611.382,1.07.611,1.833l1.146,4.584,1.146,4.507,1.146,4.278c.382,1.375.84,2.674,1.222,3.82s-.611-1.452.076.993.153,0,.688,1.757c3.132,9.7,6.188,19.634,9.55,28.267a443.651,443.651,0,0,0,20.551,44.768l-.153-.153c2.75,4.507,5.653,11,8.174,14.439.535,1.146,2.368,4.125,1.834,3.361,2.292,3.514,5.959,10.161,9.55,15.05l-.84-1.222c1.6,2.6,3.209,4.966,4.889,7.41l2.521,3.667,1.3,1.91.688.993.229.382v.153l-.153-.153h-.076l-.229-.229-.535-.611.535.84.229.306.153.153h2.521a9.243,9.243,0,0,1,2.215.153c1.452,0,.993-.153.153-.153H103.2l2.75-4.278,3.056-4.813c1.986-3.209,3.973-6.494,5.806-9.779,2.75-4.507,2.979-4.584,2.979-4.431s-.153.535,1.757-3.209c.382-.535.153-.535.229-.535,1.452-2.9,2.75-4.2,3.667-6.264-.611.688.611-1.375.535-1.528,3.132-5.653,3.9-6.723,5.959-11.383v.382c1.222-2.75,2.521-5.653,3.82-8.48s2.445-5.577,3.285-7.945a409.789,409.789,0,0,0,27.732-92.592,405.89,405.89,0,0,0,5.5-94.579c-.153-3.743-.229-5.806-.382-7.945s-.153-2.139-.306-3.438l-.611-4.966c.076.306.153.84.153.306a42.872,42.872,0,0,0-.993-6.57c-1.452-11.841-3.285-22.613-5.806-34.607.458,1.91.84,2.827.306.535l-.688-2.292v-.382c-.382-1.528-.84-3.209-.611-1.6q-5.195-22.46-12.376-44.081a397.258,397.258,0,0,0-16.96-42.018c-2.979-6.494-7.64-15.585-11.459-22.384-5.424-10.161-11-19.634-16.96-28.878A328.268,328.268,0,0,0,83.8.6a27.347,27.347,0,0,1,1.986,1.91A97.089,97.089,0,0,1,92.2,10.226" transform="translate(0.007 -0.142)" fill="#60bcce"/>
    <path id="Path_6698" data-name="Path 6698" d="M105.245,7.483c-.611.611-2.215,2.75-1.07.917.229-.153,1.146-1.222,1.07-.917" transform="translate(-24.494 -1.753)" fill="#60bcce"/>
    <path id="Path_6699" data-name="Path 6699" d="M55.211,86.646a10.313,10.313,0,0,1-.611,1.07c.382-.764.688-1.6.993-2.215a4.507,4.507,0,0,0-.382,1.07" transform="translate(-12.888 -20.181)" fill="#60bcce"/>
    <path id="Path_6700" data-name="Path 6700" d="M45.2,106.935c0-.306,1.528-3.973,2.445-6.035-.84,1.986-1.681,4.049-2.445,6.035" transform="translate(-10.669 -23.816)" fill="#60bcce"/>
    <path id="Path_6701" data-name="Path 6701" d="M35.874,129.015c-.611,1.375-.535.917.229-.917.076-.076-.076.535-.229.917" transform="translate(-8.371 -30.234)" fill="#60bcce"/>
    <path id="Path_6702" data-name="Path 6702" d="M35.346,130.881a26.433,26.433,0,0,1-1.146,2.6c.076,0,1.146-3.132,1.146-2.6" transform="translate(-8.072 -30.878)" fill="#60bcce"/>
    <path id="Path_6703" data-name="Path 6703" d="M19.393,176.972a33.921,33.921,0,0,1-.993,3.514c.306-.84,1.07-4.2.993-3.514" transform="translate(-4.343 -41.75)" fill="#60bcce"/>
    <path id="Path_6704" data-name="Path 6704" d="M14.082,199a7.267,7.267,0,0,0-.306,1.375c-.076.611-.153-.076.076-.917Z" transform="translate(-3.234 -46.971)" fill="#60bcce"/>
    <path id="Path_6705" data-name="Path 6705" d="M80.17,594.9l-1.07-1.6.229.229Z" transform="translate(-18.671 -140.041)" fill="#60bcce"/>
    <path id="Path_6706" data-name="Path 6706" d="M188.3,526.151c.611-1.757.611-1.146.688-1.452-.611,1.6.076-.611-.688,1.452" transform="translate(-44.446 -123.849)" fill="#60bcce"/>
    <path id="Path_6707" data-name="Path 6707" d="M215.606,433.3l-.153.535-.153-.229Z" transform="translate(-50.819 -102.275)" fill="#60bcce"/>
    <path id="Path_6708" data-name="Path 6708" d="M102.367,42.77c-.076-1.6-.153.84-.076-1.07a1.91,1.91,0,0,1,.076,1.07" transform="translate(-24.137 -9.843)" fill="#60bcce"/>
    <path id="Path_6709" data-name="Path 6709" d="M106.141,470.177c-.611-5.118-.153-11.841-.535-17.418,0-.688.306.153.229-1.3-.535-5.424-.306-13.981-.076-20.551v.382c.076-1.222-.229-2.827-.229-4.125.076,0,.076.458.153.153a14.1,14.1,0,0,0-.229-2.979c-.153-.535.229-.458.306-1.146l-.229-.764c-.535-2.139,0-5.119-.306-8.022.076.153.076.458.153.229-.382-4.66-.382-10.466-.535-15.661.076.229.229.382.306.076s-.306-1.833-.382-3.285a33.893,33.893,0,0,1-.153-4.049v.153c-.229-1.222.153-1.757-.153-2.75l.153-.764c-.306-.535.153-1.757,0-2.75h-.076c-.076-.917.076-1.452,0-2.292h0c-.076-2.063.076-3.209-.153-3.209s.076,1.986.382.84c-.306-6.723-.382-13.675-.458-20.4a7.411,7.411,0,0,1,.229-1.452c-.076-.688-.076-2.521-.229-3.132s.153-.458.153-.764a10.61,10.61,0,0,1-.153-2.674c.076.535.153.688.229.535a39.036,39.036,0,0,1-.229-4.049c.076.229.076.535.153.458-.229-1.452,0-2.75-.153-4.049l.153.458c.153-2.139-.306-.611-.229-2.445.076.458.076.306.153.382a54.57,54.57,0,0,1-.306-6.112h.076c-.076-1.833,0-3.743-.153-5.806.076-.764.382.229.306-1.681-.306.076-.153-3.285-.458-2.139,0-1.681.076-4.278,0-5.424.153.764.306-.84.382.535l.153-1.07c.153.153,0,1.07.153.764s-.153-2.75-.076-3.361a30.025,30.025,0,0,1-.611-4.507c.153.993.306-.535.382.076l-.611-2.9c0-.688.229-.153.153-1.146s-.153-.382-.153-.688a15.068,15.068,0,0,1,.153-3.209c.229-.306.076,1.146.153.382a18.2,18.2,0,0,0-.153-2.6h0c0-.84-.153-2.521-.306-1.6s.153-.229.076.611a18.336,18.336,0,0,1-.229-3.361.917.917,0,0,0,.229.535c-.229-1.681-.306-3.514-.458-5.424-.153,0,.229.688.153.993.153-2.445-.306-5.118-.076-7.1,0,.306-.153.153-.153.153,0-1.222.229-1.146.153-1.91a7.945,7.945,0,0,0-.076-1.757c-.076-.382.076-.229.076.458a76.627,76.627,0,0,1-.153-8.1,9.4,9.4,0,0,1-.306-2.139l.153.229a19.332,19.332,0,0,1,.076-2.063c-.229-1.222.229,4.813.076,3.132.153-.458-.306-2.368-.076-1.986a23.607,23.607,0,0,1-.076-3.438c0,.306.229.993.229,0s-.076-.458-.153-1.833v-.84c-.153-.076,0-1.528-.153-.84s-.076-2.445.153-2.292l.229.229a9.779,9.779,0,0,0-.382-1.757c0-.076.076-.306.076-.229a14.27,14.27,0,0,0-.229-2.6,18.186,18.186,0,0,1,.153-4.584,23.53,23.53,0,0,1-.153-3.591,2.292,2.292,0,0,0,.153.688,7.029,7.029,0,0,0-.076-1.834c.076.153.153-1.681.306-2.6s-.306-.764-.382-.84a22.716,22.716,0,0,1,0-4.66c.076.382.153,1.681.229.764s-.306-2.139-.153-3.9l-.306.458c.153-.764-.153-2.521.076-2.368s.076-2.063-.229-1.834c.229-2.827-.229-6.876.229-8.556-.076-.382,0-1.375-.153-1.222s.153.917,0,1.222-.076-.458-.153-.458.076-1.6.306-.764c.153-1.986-.458-1.986-.382-4.507.076.076.153-.076.153-.84l-.229-1.375c0-1.6.229-.917.458-.993a12.071,12.071,0,0,0-.153-2.292l.229-1.07c-.153.764-.153-.688-.153-1.07v.382a8.479,8.479,0,0,0,0-1.681,6.953,6.953,0,0,0-.153,1.681c-.076-.458-.076-1.146-.153-1.681s.153-1.375.153-2.063a3.285,3.285,0,0,0-.153-1.146c.076,0,0-1.3.153-.688a6.57,6.57,0,0,0,0,1.07,3.132,3.132,0,0,0,.076-1.528c-.076-.84-.382.229-.229-1.3a5.268,5.268,0,0,0,.229.764v-1.451h-.153c.076-.229.076-.076.076-.153a10.728,10.728,0,0,0-.306-2.521c-.229-.306.076-1.528.076-2.215v.153a10.923,10.923,0,0,0-.076-2.674h0a14.21,14.21,0,0,0-.153-2.139c.153-1.146.611-.382.382-1.681s-.306-1.834-.458-1.375c.076-2.139-.229-4.507,0-6.494a1.91,1.91,0,0,1-.153-.764c0-3.132-.306-6.57,0-9.091.076.917.153.076.229.076s.153-.917-.153-1.146-.229,0-.306.917a45.918,45.918,0,0,1,0-5.73c-.076.535-.153.153-.153-.306a8.8,8.8,0,0,0,.153-2.292l-.153-.153.153-.688a2.6,2.6,0,0,1-.153-1.452.458.458,0,0,0,.153-.306,18.642,18.642,0,0,1-.229-3.743l.229-.917c0-.535-.153-1.3-.229-.458a27.424,27.424,0,0,1,.306-3.9,99.542,99.542,0,0,1-.611-12.376v.153c.076-1.07-.229-.535-.153-1.3s.229-.84.382,0a13.752,13.752,0,0,0-.306-2.979c-.153-.153.076.764-.076.611s.076-2.139-.153-2.368.229-.076.306.153l-.153-.917c.229-1.146.458,2.6.764,1.375v-.84c.229-.84.306,2.292.382.076-.153-.917-.458-1.757-.535-.917-.076-1.986-.535-.917-.535-2.979.153-.611.076,1.681.229,1.3a23.149,23.149,0,0,0-.076-2.827c-.076.993-.306.153-.382-.458s.229.688.229-.84c-.153-.229-.229-1.6-.306-.458-.306-.535.076-1.6-.153-2.368s.458,1.528.611-.076c-.229.229-.306-2.063-.535-1.146.076-.688.229-.688.306-.229.076-.917-.382-2.215,0-2.6l-.229-.306c.076-.306.076-.688.229-1.222s-.306-2.674,0-2.6-.076-2.139-.229-1.375.153,1.3-.076,1.986a5.883,5.883,0,0,0-.153-2.368h.153a8.709,8.709,0,0,0-.153-1.6c.076.306.153.153.153-.153l-.153-.382c-.076-1.6.306-.382.229-1.986l.153,1.222a15.05,15.05,0,0,0,.076-1.528l-.535-1.07c-.076-.917.153-.382,0-1.3l.229,1.146c.076.153.229-.764.229-1.986s-.306-1.91-.382-.764c0-.611.076-1.452.229-.993-.076-1.375-.153.153-.306-.993a8.628,8.628,0,0,1,.382-2.9l.306,1.222v-.84c.229,1.07.153-.535.382.076a10.62,10.62,0,0,0-.153-1.757c-.382,1.6-.535-1.834-.84-1.3-.153-2.215.84-1.375.229-3.667-.076.382-.382-.688-.229.688,0-1.375-.382-.917-.229-2.6.153,1.222.306-1.3.535.458-.076-.153-.076.993-.076,1.222s.306.076.306-1.3-.076-2.063-.229-1.834,0,1.3-.153.764c-.076-1.681.229-1.986-.153-2.75,0,1.07-.153,1.375-.306,1.375v-1.3l.153.229c.076-1.986-.229-.611-.229-2.521l.229-.917c.229.458-.076,2.827.306,2.521s-.153-1.681-.076-2.9c0,.306.076.611.076.917a5.653,5.653,0,0,0,.153-2.75c-.153-.917-.153-.229-.229-.306-.076-2.063-.229-2.674-.229-3.973.229.306,0-2.292.306-.84a15.891,15.891,0,0,0,.153,4.355c.306-.764,0,1.6.306,2.063,0-1.6.306-1.528.458-1.834a7.487,7.487,0,0,0-.076-1.146c-.153-.153-.153.382-.382.458a25.439,25.439,0,0,0-.306-4.584c.076-.611.306-.458.306.306-.076-2.215-.076-4.507-.076-6.57-.306,1.375-.076-2.292-.306-1.375s-.229,2.063-.382,1.452.153,0,.229-.306a5.24,5.24,0,0,0,0-2.215c.153,1.986.382.382.611.764-.153-1.452.153.076.153-1.375s-.306-3.209-.306-4.737a66.008,66.008,0,0,0-.076-6.876c.076-.917.382-.306.458-1.3s-.306.917-.153-.84v.153c-.076-.535.153-3.209-.229-3.743l.306.535a4.355,4.355,0,0,0-.076-.917c.076,0,.153-.382.229.153a19.1,19.1,0,0,0-.076-3.438l-.153.764c-.153-1.986,0-3.361-.076-5.348h.153V48.775c.153.306.229-.764.153-1.375l.458,2.979c-.076.84-.229-.917-.382-.382a6.952,6.952,0,0,0,.076,2.521,5.961,5.961,0,0,0-.076-1.3c.229-.229.229.84.382,1.375a4.2,4.2,0,0,0,0-.993,16.731,16.731,0,0,1,.153,2.6c-.076-.764-.153.458-.229.153a12.213,12.213,0,0,1,.229,2.674c-.076,1.452.153,2.75.153,4.431a12.6,12.6,0,0,1-.458-2.6c-.076,1.07,0,1.222-.076,2.292a6.876,6.876,0,0,1,.535,2.292h-.153a17.953,17.953,0,0,1,.306,2.827c-.076,2.75,0,5.577,0,7.716h-.153c.306,1.146.153,3.9.306,5.424a37.452,37.452,0,0,1-.076,7.181c.153,4.737.306,8.862.306,13.751l-.229-.84c.153.84-.153.535-.076,1.452.153-.993.229,1.222.382,1.757a46.83,46.83,0,0,0,.229,6.876h-.153a48.42,48.42,0,0,1,.076,6.723,4.813,4.813,0,0,0-.153,1.452,33.463,33.463,0,0,1,.458,3.973c0,1.375,0,3.667-.076,5.119.382,5.271.229,10.772.535,16.272l-.153.382c.458,5.348.153,11.918.382,16.5l-.306-.458c-.076,1.451.153,3.285.306,2.9a41.559,41.559,0,0,1-.076,4.507,26.433,26.433,0,0,0,.229,2.979,66.779,66.779,0,0,0,.076,6.8v-.688c-.076-.306-.229-.306-.229.382s-.076,3.82.306,2.75c-.153,2.979.229,6.876,0,9.779.076-.229.153.458.229.764,0,2.6-.153,5.348.076,7.41-.076.382-.153-.688-.153.382s.153,0,.229.764c.229,4.2-.076,8.48,0,12.3.229,6.8.229,13.9.382,20.4h-.076c.306,2.215-.229,5.119.229,6.876-.076.535,0,1.986-.153,1.6.229,1.757-.153,4.889.153,7.334a3.512,3.512,0,0,0-.076-.611c-.153,2.521.076,4.737,0,7.41a3.361,3.361,0,0,0-.153-.84c-.153,1.07.306,2.445,0,3.056s.153.382.153.076c-.076,5.882.229,12.147.382,18.182-.153,4.355-.611.306-.306,3.743-.076.306.153.229.076.229.153,1.3-.382,2.063-.153,2.979.229-.382.153.611.229.611a32.741,32.741,0,0,0-.153,5.348l-.153-.153c.382,2.445.229,5.348.611,7.41.229,13.6.535,26.662.764,39.955s.382,25.975.306,39.344a35.3,35.3,0,0,0-.076,6.8c-.076-.153-.076-.382-.076-.153a11.67,11.67,0,0,0,.306,2.75c0,4.966.153,9.473.153,14.515,0-.764-.229-1.222-.229-.229l.153.993v.153c.076.688.153,1.375.229.688.382,12.758,0,25.287.153,37.74-.076,2.979.076,7.181.153,10.39-.229,9.549-.382,18.182-.076,27.885,0,0-.688-1.222-.84-5.271" transform="translate(-23.557 -11.188)" fill="#60bcce"/>
    <path id="Path_6710" data-name="Path 6710" d="M102.363,45.556c-.153.306-.153,1.452-.382.535s.229-.688.382-.535" transform="translate(-24.056 -10.719)" fill="#60bcce"/>
    <path id="Path_6711" data-name="Path 6711" d="M101.152,84.258a1.833,1.833,0,0,1-.076.535A4.66,4.66,0,0,1,101,83.8a.84.84,0,0,0,.153.458" transform="translate(-23.839 -19.78)" fill="#60bcce"/>
    <path id="Path_6712" data-name="Path 6712" d="M101.129,93.474A14.057,14.057,0,0,1,100.9,90.8Z" transform="translate(-23.816 -21.432)" fill="#60bcce"/>
    <path id="Path_6713" data-name="Path 6713" d="M100.653,103.383c-.076.611-.153.458-.153-.382s.076.229.153.382" transform="translate(-23.722 -24.237)" fill="#60bcce"/>
    <path id="Path_6714" data-name="Path 6714" d="M100.976,104.192a4.507,4.507,0,0,1-.076,1.146c.076,0-.076-1.375.076-1.146" transform="translate(-23.816 -24.587)" fill="#60bcce"/>
    <path id="Path_6715" data-name="Path 6715" d="M100.783,124.292a5.806,5.806,0,0,1,0,1.528c.076-.382-.153-1.757,0-1.528" transform="translate(-23.776 -29.332)" fill="#60bcce"/>
    <path id="Path_6716" data-name="Path 6716" d="M101.053,133.6a2.979,2.979,0,0,0,0,.611c-.076.458-.153,0-.153-.382Z" transform="translate(-23.816 -31.535)" fill="#60bcce"/>
    <path id="Path_6717" data-name="Path 6717" d="M103.476,303.164l-.076-.764.153.076Z" transform="translate(-24.406 -71.378)" fill="#60bcce"/>
    <path id="Path_6718" data-name="Path 6718" d="M104.276,377.8c.076.764-.076.535-.076.688s.153.229.076-.688" transform="translate(-24.595 -89.175)" fill="#60bcce"/>
    <path id="Path_6719" data-name="Path 6719" d="M105.5,417.829V417.6l.229.076Z" transform="translate(-24.902 -98.569)" fill="#60bcce"/>
    <path id="Path_6720" data-name="Path 6720" d="M125.287,604.4c.076,1.6.153-.84.076,1.07a1.91,1.91,0,0,1-.076-1.07" transform="translate(-29.562 -142.661)" fill="#60bcce"/>
    <path id="Path_6721" data-name="Path 6721" d="M116.27,39c.688,5.119.153,11.994.611,17.648,0,.688-.306-.153-.229,1.3a186.193,186.193,0,0,1,.153,20.78v-.382c-.076,1.3.306,2.827.229,4.2-.076,0-.076-.458-.153-.153a22.03,22.03,0,0,0,.229,2.979c.076.535-.229.458-.306,1.146l.229.764c.535,2.139.076,5.195.382,8.1-.076-.153-.076-.458-.153-.229.382,4.66.382,10.543.611,15.814-.076-.229-.229-.382-.306-.076s.306,1.91.382,3.285a33.893,33.893,0,0,1,.153,4.049v-.153c.229,1.222-.076,1.834.153,2.827l-.153.764c.306.535-.153,1.757.076,2.75h.076c.076.917-.076,1.452,0,2.292h0c.153,2.063-.076,3.285.229,3.209s-.153-1.986-.382-.84c.382,6.8.458,13.828.535,20.627a7.565,7.565,0,0,1-.229,1.452c.076.688.076,2.6.229,3.209s-.153.458-.153.84a14.9,14.9,0,0,1,.229,2.75c-.076-.535-.153-.688-.229-.535a40.184,40.184,0,0,1,.306,4.125c-.076-.229-.076-.535-.153-.458.229,1.528,0,2.75.153,4.049l-.153-.458c-.153,2.139.306.611.229,2.445-.076-.458-.076-.306-.153-.382.306,1.681.229,4.507.382,6.188h-.229c.076,1.834,0,3.82.153,5.883-.076.764-.382-.229-.229,1.757.306-.076.153,3.361.458,2.215,0,1.681-.076,4.355,0,5.5-.153-.764-.306.84-.382-.535l-.153,1.07c-.153-.153,0-1.07-.153-.764a27.1,27.1,0,0,0,.153,3.361,30.635,30.635,0,0,1,.611,4.584c-.153-.993-.306.535-.382-.076l.611,2.9c0,.688-.229.153-.153,1.146s.153.382.229.688.153,2.9-.153,3.209-.076-1.146-.153-.382.153,1.375.153,2.674h0c0,.84.153,2.521.306,1.6s-.153.229-.076-.688a18.718,18.718,0,0,1,.229,3.361.917.917,0,0,0-.229-.535q.344,2.636.458,5.5c.153,0-.229-.688-.153-.993-.153,2.521.306,5.119.076,7.181,0-.306.153-.153.153-.153,0,1.222-.153,1.146-.076,1.91a8.175,8.175,0,0,0,.076,1.757c.076.382-.076.229-.076-.458a78.459,78.459,0,0,1,.229,8.174,9.626,9.626,0,0,1,.306,2.216l-.153-.229a19.56,19.56,0,0,1-.076,2.063c.229,1.3-.229-4.889-.076-3.209-.153.458.306,2.368.076,1.986a24.065,24.065,0,0,1,.076,3.514c0-.306-.229-.993-.229,0s.076.458.153,1.833v.84c.153.076,0,1.528.153.917s.153,2.445-.153,2.292l-.229-.229a9.931,9.931,0,0,0,.382,1.757c0,.076-.076.306-.076.229a10.8,10.8,0,0,0,.306,2.6,13.6,13.6,0,0,1-.153,4.66,23.989,23.989,0,0,1,.229,3.591,2.368,2.368,0,0,0-.153-.688,7.18,7.18,0,0,0,.076,1.833c-.076-.153-.153,1.681-.306,2.674s.306.764.382.917a22.834,22.834,0,0,1,0,4.66c-.076-.382-.229-1.681-.229-.764a26.639,26.639,0,0,1,.153,3.9l.306-.458c-.153.764.229,2.521-.076,2.368s-.076,2.063.229,1.834c-.153,2.827.229,6.952-.229,8.709.076.382,0,1.452.153,1.222s-.153-.917,0-1.222.076.458.153.458-.076,1.6-.306.764c-.153,1.986.458,2.063.458,4.507-.076-.076-.153.076-.153.84l.229,1.375c0,1.6-.229.917-.458.993a12.376,12.376,0,0,0,.229,2.292l-.229,1.07c.153-.764.153.688.153,1.146v-.382a8.481,8.481,0,0,0,0,1.681,7.029,7.029,0,0,0,.153-1.681c.076.458.076,1.146.153,1.681a10.824,10.824,0,0,1-.153,2.139,3.361,3.361,0,0,0,.153,1.146c-.076,0,0,1.3-.153.688a6.57,6.57,0,0,0,0-1.07,3.209,3.209,0,0,0-.076,1.528c.076.84.382-.229.306,1.3a5.271,5.271,0,0,0-.229-.764v1.452h.153c-.076.229-.076.076-.076.153a10.728,10.728,0,0,0,.306,2.521c.229.306-.076,1.528-.076,2.215v-.153a11.078,11.078,0,0,0,.153,2.674h-.076a14.362,14.362,0,0,0,.153,2.139c-.076,1.146-.611.382-.382,1.681s.306,1.833.458,1.375c-.076,2.139.229,4.584,0,6.57a1.91,1.91,0,0,1,.153.764c0,3.132.306,6.646,0,9.168-.076-.917-.153-.076-.306,0a1.091,1.091,0,0,0,.153,1.146c.306.229.229,0,.306-.917a46.826,46.826,0,0,1,0,5.806c.076-.535.153-.153.153.306a14.485,14.485,0,0,0-.153,2.292l.153.153-.153.688a2.674,2.674,0,0,1,.229,1.452.459.459,0,0,0-.153.306,19.022,19.022,0,0,1,.229,3.82l-.229.993c0,.535.153,1.375.229.458a28.341,28.341,0,0,1-.306,3.973,101.685,101.685,0,0,1,.611,12.453v-.153c-.076,1.069.229.535.153,1.3s-.229.84-.382,0a14.058,14.058,0,0,0,.306,2.979c.153.153-.076-.84.076-.611s-.076,2.139.153,2.368-.229.076-.306-.153l.153.917c-.229,1.146-.535-2.6-.84-1.375v.84c-.229.84-.306-2.292-.306-.076.153.917.458,1.757.535.917.076,1.986.535.917.535,3.056-.153.611-.076-1.681-.229-1.3a23.528,23.528,0,0,0,.076,2.9c.076-.993.306-.153.382.458s-.229-.687-.229.84c.153.229.229,1.681.306.458.306.535-.076,1.6.153,2.445s-.535-1.528-.611.076c.229-.306.306,2.063.611,1.146-.076.688-.229.764-.306.229-.076.917.382,2.292,0,2.6l.229.306c-.076.306-.076.688-.229,1.222s.306,2.674,0,2.6.076,2.139.229,1.452-.153-1.375.076-1.986a6.035,6.035,0,0,0,.153,2.368h-.229a8.859,8.859,0,0,0,.153,1.6c-.076-.306-.153-.153-.153.153l.153.458c.153,1.681-.306.382-.229,1.986l-.153-1.222a14.9,14.9,0,0,0-.076,1.6l.535,1.07c.076.917-.153.382,0,1.3l-.229-1.146c-.076-.153-.229.764-.229,1.986s.306,1.986.382.764c0,.611-.076,1.452-.229.993.076,1.375.153-.153.306.993a8.628,8.628,0,0,1-.382,2.9l-.306-1.222v.84c-.229-1.07-.153.535-.382-.076a10.923,10.923,0,0,0,.153,1.757c.382-1.6.535,1.834.84,1.375.153,2.216-.764,1.452-.229,3.743.076-.382.382.688.229-.688,0,1.375.382.917.229,2.6-.153-1.222-.306,1.3-.535-.458.076.153.076-.993,0-1.222s-.306-.076-.306,1.3.076,2.063.229,1.91-.076-1.3.153-.764c.076,1.757-.229,2.063.153,2.75-.076-1.07.153-1.375.306-1.375v1.3l-.153-.229c-.076,2.063.229.611.229,2.6l-.229.917c-.229-.458.076-2.9-.306-2.521s.229,1.681.153,2.9c0-.306-.076-.611-.076-.917a5.73,5.73,0,0,0-.153,2.75c.153.917.153.229.229.306.076,2.063.229,2.674.229,4.049-.229-.306,0,2.368-.306.917a16.272,16.272,0,0,0-.153-4.431c-.306.764,0-1.6-.306-2.063,0,1.681-.306,1.6-.458,1.834a7.563,7.563,0,0,0,.153,1.146c.153.229.153-.382.382-.458a25.821,25.821,0,0,0,.306,4.66c-.076.611-.306.458-.306-.306.076,2.216.076,4.584.076,6.646.306-1.375.076,2.368.382,1.375s.229-2.063.382-1.452-.153,0-.229.306a5.563,5.563,0,0,0,0,2.292c-.153-1.986-.382-.382-.611-.764.153,1.452-.153-.076-.153,1.375s.306,3.209.382,4.813a67.541,67.541,0,0,0,.153,6.876c-.076.917-.382.306-.382,1.3s.306-.917.153.917v-.153c.076.535-.153,3.285.229,3.743l-.306-.535a4.585,4.585,0,0,0,.076.917c-.076,0-.153.382-.229-.153a19.561,19.561,0,0,0,.076,3.514l.153-.764c.153,2.063,0,3.438.076,5.348h-.153l.153,1.146c-.153-.306-.229.764-.076,1.375l-.458-3.056c.076-.84.229.917.382.382a7.105,7.105,0,0,0-.076-2.6,6.036,6.036,0,0,0,.076,1.3c-.229.229-.229-.84-.382-1.375a4.354,4.354,0,0,0,0,.993,17.04,17.04,0,0,1-.153-2.674c.076.84.153-.458.229-.153a12.613,12.613,0,0,1-.229-2.75c.076-1.528-.229-2.75-.153-4.507a12.834,12.834,0,0,1,.535,2.6c.076-1.07,0-1.222.076-2.292a7.028,7.028,0,0,1-.535-2.292h.153a18.486,18.486,0,0,1-.306-2.9c0-2.75,0-5.653,0-7.792h.153c-.382-1.146-.153-3.9-.382-5.5a38.369,38.369,0,0,1,0-7.258c-.229-4.737-.382-8.938-.382-13.9l.229.84c-.153-.917.153-.611.076-1.452-.153.993-.229-1.222-.382-1.834a47.823,47.823,0,0,0-.306-6.952h.153a49.534,49.534,0,0,1-.076-6.8,4.89,4.89,0,0,0,.153-1.452,34.3,34.3,0,0,1-.458-3.973c0-1.452,0-3.743.076-5.195-.458-5.348-.306-10.848-.611-16.425l.153-.382c-.458-5.424-.229-12.071-.535-16.654l.306.458c.076-1.452-.153-3.285-.382-2.9.076-1.452-.229-3.591,0-4.507a27.27,27.27,0,0,0-.229-3.056c.076-2.979,0-4.049-.076-6.876v.688c.076.306.229.306.229-.382s0-3.82-.306-2.827c.153-2.979-.306-6.952-.076-9.855-.076.229-.153-.458-.229-.764-.076-2.6.153-5.348-.076-7.487.076-.382.153.688.153-.382s-.153,0-.229-.764c-.229-4.278.076-8.633-.076-12.453-.306-6.876-.306-14.057-.458-20.627h.076c-.306-2.215.229-5.195-.229-6.952.076-.535,0-1.986.153-1.6-.229-1.757.076-4.889-.153-7.487a3.59,3.59,0,0,0,.076.611c.153-2.6-.153-4.813,0-7.563a3.437,3.437,0,0,0,.153.84c.153-1.07-.382-2.445,0-3.056s-.153-.458-.153-.076c.076-5.959-.306-12.223-.458-18.412.153-4.431.611-.306.306-3.743.076-.306-.153-.229-.076-.229-.153-1.375.382-2.139.153-3.056-.229.382-.153-.611-.306-.611a31.879,31.879,0,0,0,.076-5.348l.153.153c-.382-2.521-.229-5.424-.611-7.487-.306-13.751-.688-26.968-.993-40.414s-.535-26.28-.535-39.726a35.982,35.982,0,0,0,.076-6.876c.076.153.076.382.076.153a11.669,11.669,0,0,0-.306-2.75c0-4.966-.153-9.55-.229-14.668.076.84.229,1.222.229.229l-.153-.993v-.153c-.076-.688-.153-1.375-.229-.688-.382-12.911-.153-25.593-.382-38.2.076-2.979-.076-7.258-.229-10.543.153-9.626.306-18.335-.076-28.19,0,0,.688,1.3.917,5.348" transform="translate(-27.191 -7.907)" fill="#60bcce"/>
    <path id="Path_6722" data-name="Path 6722" d="M125.2,601.614c.153-.382.153-1.452.382-.611s-.229.688-.382.611" transform="translate(-29.552 -141.785)" fill="#60bcce"/>
    <path id="Path_6723" data-name="Path 6723" d="M126.3,562.435a1.833,1.833,0,0,1,.076-.535,4.735,4.735,0,0,1,.076.993.917.917,0,0,0-.153-.458" transform="translate(-29.812 -132.629)" fill="#60bcce"/>
    <path id="Path_6724" data-name="Path 6724" d="M126.2,552.6a14.362,14.362,0,0,1,.229,2.75Z" transform="translate(-29.788 -130.434)" fill="#60bcce"/>
    <path id="Path_6725" data-name="Path 6725" d="M126.7,543.085c.076-.611.153-.458.153.382s-.076-.229-.153-.382" transform="translate(-29.906 -128.101)" fill="#60bcce"/>
    <path id="Path_6726" data-name="Path 6726" d="M126.3,542.246a4.582,4.582,0,0,1,.076-1.146c-.076,0,.076,1.375-.076,1.146" transform="translate(-29.809 -127.72)" fill="#60bcce"/>
    <path id="Path_6727" data-name="Path 6727" d="M126.385,521.828a5.882,5.882,0,0,1,0-1.528c-.076.382.153,1.834,0,1.528" transform="translate(-29.82 -122.81)" fill="#60bcce"/>
    <path id="Path_6728" data-name="Path 6728" d="M126.1,512.652a3.132,3.132,0,0,0,0-.611c.076-.458.153,0,.153.382Z" transform="translate(-29.764 -120.815)" fill="#60bcce"/>
    <path id="Path_6729" data-name="Path 6729" d="M122.776,341.3l.076.764-.153-.076Z" transform="translate(-28.962 -80.56)" fill="#60bcce"/>
    <path id="Path_6730" data-name="Path 6730" d="M121.593,265.859c-.076-.764.076-.535.076-.688s-.153-.229-.076.688" transform="translate(-28.696 -62.568)" fill="#60bcce"/>
    <path id="Path_6731" data-name="Path 6731" d="M120.129,225.6v.229l-.229-.076Z" transform="translate(-28.301 -53.25)" fill="#60bcce"/>
  </g>
</svg>
