<svg xmlns="http://www.w3.org/2000/svg" xmlns:xlink="http://www.w3.org/1999/xlink" width="425.574" height="663.729" viewBox="0 0 425.574 663.729">
  <defs>
    <clipPath id="clip-path">
      <rect id="Rectangle_235" data-name="Rectangle 235" width="225.705" height="624.175" fill="none"/>
    </clipPath>
  </defs>
  <g id="surfbord" transform="translate(213.48) rotate(20)" clip-path="url(#clip-path)">
    <path id="Path_8604" data-name="Path 8604" d="M109.3,2.7c3-3.995-1.8,2,1.9-2.7a14.181,14.181,0,0,1-1.9,2.7" transform="translate(-0.143)" fill="#dc4e3e"/>
    <path id="Path_8605" data-name="Path 8605" d="M120.543,13.283c5.093,6.292,10.486,13.982,15.779,21.971s10.287,16.379,14.98,23.869c1.1,1.8-.6-.3,1.8,3.8,4.494,7.29,9.987,16.978,15.08,27.264s9.987,21.272,13.882,31.059l-.6-1.1c1.6,3.7,3.7,8.089,5.293,11.984-.1.1-.6-1.2-.3-.3s2.9,7.091,3.7,8.689.3,1.5,1,3.6l1.1,2.2c1.4,3.1,2.8,6.891,4.294,11.086s2.8,8.689,4.294,12.983c-.2-.4-.5-1.2-.3-.5a458.418,458.418,0,0,1,13.183,47.538c-.2-.6-.5-1.2-.4-.2s1.7,5.693,2.5,9.987a38.25,38.25,0,0,0,1,5.093l.8,3.6a26.255,26.255,0,0,1,.6,3.895v-.4c.9,3.7.8,5.593,1.6,8.689l.2,2.4c.7,1.6.5,5.493,1.2,8.589h.1c.5,3,.5,4.494.9,7.29v.3c.8,6.392,1,10.187,1.3,9.987,0,2.3-.8-6.192-.8-2.7a470.186,470.186,0,0,1,3.1,64.616,41.653,41.653,0,0,1-.4,4.494c0,2.1-.3,8.089-.2,9.987a12.18,12.18,0,0,0-.3,2.5c-.4,3.895.1,4.294-.3,8.589,0-1.7,0-2.3-.2-1.7s-.1,3.995-.2,6.192l-.5,6.691a7.349,7.349,0,0,0,0-1.6c-.2,4.694-.8,8.589-1.1,12.684v-1.6c-1,6.591.2,2-.6,7.69.1-1.4,0-.9-.1-1.2-.1,2.7-.6,6.192-1,9.687s-.9,6.991-1.3,9.587v-.2l-1.5,8.888c-.6,3-1.1,6.092-1.7,9.288s-.2-.8-1.4,5.193c.4-.1-2,10.287-.9,6.791-.6,2.6-1.4,5.892-2.2,8.988l-1.9,7.69c.5-2.3-1.1,2.4,0-1.9l-1.1,3.2c0-.5.9-3.3.5-2.3s-2,8.389-2.6,10.287l-1.3,6.092-.8,3.6-1.2,4.294c.8-3-.9,1.6-.4-.5-.7,3-1.3,5.992-2.1,8.988s-.4.4-1.3,3.4a9.89,9.89,0,0,1-.5,2.2c-.2.8-2.9,8.689-3.5,9.488s1.1-3.4.2-1.2c-1.3,3.8-1.3,4.095-2.7,7.89h-.1c-1,2.5-2.6,7.49-1.4,4.794s-.5.6.6-2a94,94,0,0,1-3.6,10.087,5.891,5.891,0,0,0,.4-1.8l-1.4,3.895-1.5,3.995c-1,2.7-2.1,5.493-3.3,8.289.1.2.6-2.2,1.1-3-3.3,7.091-6.192,14.881-9.288,20.673.4-1,.5-.4.4-.4-1.6,3.4-1.8,3.1-2.8,5.393-.2.2-1.3,2.8-2.4,5.093s-.4.6.6-1.4c-.7,1.6-2.6,5.593-4.894,9.987l-3.6,6.791-3.4,6.092a65.441,65.441,0,0,1-3.1,6.192l.2-.7c-.9,1.4-3.1,5.393-3.5,5.593-.9,1.8,1-1.6,2.8-4.794s3.4-6.292,2.2-3.895-3.4,6.691-3.1,5.593l-2.7,4.894a44.283,44.283,0,0,1-2.9,4.594c.6-.9,1.3-2.8-.2-.2-2.8,4.594-.7,1.4-2.9,5.093l-1.4,2.4c.1.3-2.6,3.995-1.3,2.5-.5.5-4.095,6.591-4.095,5.892l.2-.8-1.2,2.1-.5,1-.7,1.3h-2.7c-.4.4-5.493,0-8.189.3-4.794-.2-12.284,0-14.581-.3l-4.993.2h-5.892l-.9-1.3.9,1.2h.1l-1-1.3-.6-.8-1.4-1.9c.4.4-2.9-4.494-4.394-7.091s-1.7-1.8-2-2c-1.5-3.1-5.992-8.489-7.99-12.384.7,1.1,3.1,4.394,1.5,1.8s-3.895-5.593-6.591-10.386l.4,1.3c-1.1-2.2-4.294-6.791-3.7-6.492-1.1-1.5-3.1-5.593-3.2-4.893-4.294-7.89-10.786-18.975-12.683-24.169-.7-1.1-2-3.995-1.9-3.3s1.5,2.6,1.7,3.4a4.094,4.094,0,0,0-.8-1.3c-1.2-2.5-2.1-4.494-.7-2.3-2.6-5.593-3.4-5.393-6.691-12.583.3.3.1-.3-.9-2.4l-2-3.895c-2.1-4.694-.9-2.8-.7-3-1.2-2.5-2.5-5.493-3.1-6.591l-1-3.2c.7,2.3-1-2-1.6-3.2l.5,1.2a51.147,51.147,0,0,0-2-4.894,52.127,52.127,0,0,0,1.8,4.994c-.6-1.2-1.4-3.3-2.2-4.894.5.5-1.5-4.195-2.3-6.192a24.365,24.365,0,0,0-1.5-3.2c.1-.1-1.4-3.8-.6-2s.6,1.9,1.2,3.1a23.27,23.27,0,0,0-1.6-4.594c-1-2.4-.2.8-1.8-3.8.5,1.2.7,1.4,1.1,2.3l-1.4-4.294h-.3c-.2-.6,0-.2-.1-.5a40.737,40.737,0,0,1-1.6-3.8,30.454,30.454,0,0,0-1.4-3.6c-.8-2.2-1.4-4.594-2.1-6.691l.2.4c-.7-2.6-1.9-5.992-2.7-8.089h.1l-1-3.1c-.4-1.2-.8-2.5-1.1-3.3-.9-3.6.5-1.4-1-5.293s-2-5.593-1.7-4.095c-.8-3.3-1.8-6.691-2.8-10.187s-1.7-6.791-2.3-9.887a11.284,11.284,0,0,1-.7-2.2c-2.1-9.687-4.694-20.373-5.593-28.263.6,2.8.3.2.4.1-.6-2.3-.3-2.8-.8-3.6s-.3,0,.1,2.8c-1.2-5.792-2.4-14.681-2.7-17.977.1,1.6-.1.4-.3-.9.4.4-.1-3.995-.6-7.191l-.3-.4v-2.2a17.277,17.277,0,0,1-.8-4.594,2.6,2.6,0,0,0,.1-1c-.5-3.4-1.2-8.089-1.4-11.785v-3c-.1-1.6-.5-4.194-.4-1.4l-.3-7.89c-.1-2.1,0-3.6,0-4.594-.3-2.7-.5-5.693-.7-8.888s-.2-6.591-.3-9.987C-.2,317.187.1,310.1.2,303.8v.4c.2-3.4-.3-1.8-.1-4.095.1,1.1.4-2.6.5.1a75.683,75.683,0,0,0,.1-9.388c-.2-.5,0,2.5-.2,1.9s.5-6.691.2-7.49.3-.2.4.4c0-1,.1-2,.1-3s.3.3.3,2.3.1,4.095.4,2.2a13.793,13.793,0,0,0,.1-2.7c.1-.9.2.5.2,1.8s0,2,.2-1.4-.1-5.493-.5-2.9c.4-6.192-.5-2.9.1-9.587.3-1.8-.4,5.293,0,4.095.5-3.1.3-6.292.8-9.088-.5,3.1-.5.4-.3-1.6s0,2.2.6-2.6c-.1-.8.3-5.193-.3-1.4-.2-1.8.6-4.993.7-7.59s0,4.993.8-.2c-.4.8.6-6.492-.2-3.8.4-2,.6-2.2.5-.7.6-2.9.5-7.191,1.2-8.089v-1c.2-.9.5-2.2.9-3.7s1.1-8.289,1.4-7.99l.5-3.4c.2-1.3.3-2.2,0-1.1-.9,3.6-.5,4.195-1.3,6.192a58.225,58.225,0,0,0,1.2-7.39l.2-.3c.2-1.3.8-4.095.8-4.894-.1,1,.1.5.3-.5v-1.4c.9-5.093.6-1.1,1.6-6.092-.2,1.3-.4,2.5-.6,3.8.1-.8.7-2.5,1.2-4.794a12.35,12.35,0,0,0,.2-3.6c.5-2.8.5-1.2.9-3.995l-.6,3.6a30.629,30.629,0,0,0,1.7-5.992c.8-3.7,1.1-6.092.1-2.4.5-1.8,1.3-4.394,1-2.9,1-4.195-.4.5.4-3.1.5-1.4,1.8-5.992,2.9-8.689-.2,1.3-.5,2.5-.7,3.8l.7-2.5c-.6,3.3.7-1.6.5.3.5-1.7,1-3.8,1.4-5.393-1.9,4.794.9-5.693.1-4.394,1.9-6.791,2.3-3.895,3.8-11.185-.5,1.1.2-2.3-1,2a24.468,24.468,0,0,0,1-3.7,21.672,21.672,0,0,1,1.3-4.195c-1.1,3.7,1.7-3.8.2,1.6a23.243,23.243,0,0,0-1.3,3.7c.7-1.7.3.5,1.7-3.8.8-2.6,2-6.192,1.6-5.693s-1.3,3.995-1,2.2c1.7-5.193,2.3-5.892,2.6-8.189-1.1,3.3-1.6,3.995-1.8,3.895l1.2-3.8v.8c2.3-5.992.4-1.9,2.5-7.69l1.6-2.7c-.2,1.5-3.2,8.489-2.4,7.59,1.4-3.8,1.6-5.093,3.1-8.689l-.9,2.7a51.731,51.731,0,0,0,3.3-7.99c1-2.8.1-.8,0-.9,2.3-6.092,2.9-7.89,4.494-11.785,0,.9,2.9-6.791,1.4-2.4a104.762,104.762,0,0,0-5.093,12.883c1.2-2.1-1.9,4.694-2,6.192,1.9-4.894,2.2-4.494,2.7-5.193a14.472,14.472,0,0,0,1.2-3.5c.2-.8-.7,1.1-1,1.1l3.1-7.69c.9-2.4,1.7-4.394,2.2-5.992s.9-1.1,0,1.1c1.3-3.2,2.8-6.492,4.195-9.687s3-6.392,4.394-9.288c-1.1,1.8-.3.2.5-1.7s1.8-3.8,1-2.5c-1.6,3.1-3.1,5.792-2.5,3.895s.1.1.6-.7c1-2.6,2.2-3.8,3.1-6.392-2.7,5.693-.1,1.3-.3,2.5,1.9-4.195.1.3,2.1-3.8.9-2.1,2-4.394,3.1-6.691l3.5-6.991c3.2-5.493,7.69-14.082,10.586-18.975,1.6-2.5.9-.6,2.6-3.3s-1.8,2.2,1.2-2.5l-.2.5c.8-1.5,5.493-8.589,5.992-10.287l-.6,1.7c.6-.9,1-1.7,1.5-2.5s.9-.9,0,.5c2-2.8,3.895-6.092,5.892-9.288l-1.5,1.9c3.4-5.493,5.992-8.888,9.388-13.982v.3l2-3.1c-.3.9,1.7-1.8,2.7-3.5l-5.093,8.089c-1.6,2.1,1.4-2.5.3-1.3a48.737,48.737,0,0,0-4.494,6.691c1.2-1.8,1.3-1.9,2.2-3.4s-1.2,2.3-2,3.8c.6-1,1.6-2.3,1.7-2.5-1.2,1.9-2.4,3.895-4.494,6.991,1.3-2.2-.9,1-.5.2s-1.8,3.4-4.394,7.29a54.225,54.225,0,0,0-3.4,5.293c-1.2,2.1-2.5,4.494-3.995,6.791.9-2,2.2-4.494,3.8-7.39-1.9,2.8-2,3.2-3.8,5.992A60.423,60.423,0,0,1,75,53.431h-.1c-1.9,3.5-1.7,3.6-4.195,8.089s-4.294,7.59-6.292,11.285-3.7,7.091-5.293,10.087h-.3c-1.3,3.5-5.293,11.086-7.191,15.68-3.8,7.59-7.29,16.878-9.288,20.773-5.593,13.882-9.987,26.166-14.881,40.847a23.78,23.78,0,0,0,.5-2.6c-.7,2.7-.7,1.7-1.5,4.294,1.2-2.9-.8,3.7-1.2,5.593s-1.2,3.4-1.7,5.193l-1.5,5.593c-1,3.7-1.9,7.29-2.5,10.287l-.3.2c-.6,3-1.4,6.292-2.3,9.787l-2.7,11.185a26.965,26.965,0,0,0-1.2,4.394c-.5,4.195-1,6.292-1.9,12.284l-1.4,7.99c-.5,2.9-1.1,5.792-1.5,7.99-2.1,16.678-3.995,33.756-4.594,51.133l-.3,1.2c-.3,16.878-.6,37.751.5,52.132l-.5-1.4c.1,4.494.8,10.286,1,9.088.1,4.494,1.1,11.285,1.1,14.181.3,4.594.8,5.593,1.3,9.488.9,9.288,1.5,12.683,2.9,21.272l-.3-2.1c-.1-.7-.4-1-.1,1.2s1.9,11.884,1.9,8.589c.6,4.594,1.8,9.987,2.9,15.28l1.8,7.79,1.5,7.191c-.1-.8.5,1.4.8,2.4l1.5,5.992,1.5,5.892,1.5,5.593c.5,1.8,1.1,3.5,1.6,4.994s-.8-1.9.1,1.3.2,0,.9,2.3c4.095,12.683,8.089,25.666,12.484,36.952a579.968,579.968,0,0,0,26.865,58.524l-.2-.2c3.6,5.892,7.39,14.381,10.686,18.875.7,1.5,3.1,5.393,2.4,4.394,3,4.594,7.79,13.283,12.484,19.674l-1.1-1.6c2.1,3.4,4.195,6.492,6.392,9.687l3.3,4.794,1.7,2.5.9,1.3.3.5v.2l-.2-.2h-.1l-.3-.3-.7-.8.7,1.1.3.4.2.2h3.3a12.083,12.083,0,0,1,2.9.2c1.9,0,1.3-.2.2-.2h27.165l3.6-5.593L142.514,610c2.6-4.194,5.193-8.489,7.59-12.783,3.6-5.892,3.895-5.992,3.895-5.792s-.2.7,2.3-4.195c.5-.7.2-.7.3-.7,1.9-3.795,3.6-5.493,4.794-8.189-.8.9.8-1.8.7-2,4.095-7.39,5.093-8.789,7.79-14.881v.5c1.6-3.6,3.3-7.39,4.993-11.086s3.2-7.29,4.294-10.386a535.7,535.7,0,0,0,36.253-121.042,530.6,530.6,0,0,0,7.191-123.639c-.2-4.894-.3-7.59-.5-10.386s-.2-2.8-.4-4.494l-.8-6.492c.1.4.2,1.1.2.4s-.8-7.59-1.3-8.589c-1.9-15.48-4.294-29.561-7.59-45.241.6,2.5,1.1,3.7.4.7l-.9-3v-.5c-.5-2-1.1-4.195-.8-2.1q-6.791-29.362-16.179-57.625a519.316,519.316,0,0,0-22.171-54.928c-3.895-8.489-9.987-20.373-14.98-29.262-7.091-13.283-14.381-25.666-22.171-37.751A429.133,429.133,0,0,0,109.557.6a35.75,35.75,0,0,1,2.6,2.5,126.918,126.918,0,0,1,8.389,10.087" transform="translate(0 -0.001)" fill="#dc4e3e"/>
    <path id="Path_8606" data-name="Path 8606" d="M105.7,7.5c-.8.8-2.9,3.6-1.4,1.2.3-.2,1.5-1.6,1.4-1.2" transform="translate(-0.135 -0.01)" fill="#dc4e3e"/>
    <path id="Path_8607" data-name="Path 8607" d="M55.4,87a13.483,13.483,0,0,1-.8,1.4c.5-1,.9-2.1,1.3-2.9a5.892,5.892,0,0,0-.5,1.4" transform="translate(-0.071 -0.111)" fill="#dc4e3e"/>
    <path id="Path_8608" data-name="Path 8608" d="M45.2,108.79c0-.4,2-5.193,3.2-7.89-1.1,2.6-2.2,5.293-3.2,7.89" transform="translate(-0.059 -0.132)" fill="#dc4e3e"/>
    <path id="Path_8609" data-name="Path 8609" d="M36,129.3c-.8,1.8-.7,1.2.3-1.2.1-.1-.1.7-.3,1.2" transform="translate(-0.046 -0.167)" fill="#dc4e3e"/>
    <path id="Path_8610" data-name="Path 8610" d="M35.7,130.9a34.557,34.557,0,0,1-1.5,3.4c.1,0,1.5-4.095,1.5-3.4" transform="translate(-0.045 -0.171)" fill="#dc4e3e"/>
    <path id="Path_8611" data-name="Path 8611" d="M19.7,177a44.344,44.344,0,0,1-1.3,4.594c.4-1.1,1.4-5.493,1.3-4.594" transform="translate(-0.024 -0.231)" fill="#dc4e3e"/>
    <path id="Path_8612" data-name="Path 8612" d="M14.2,199a9.5,9.5,0,0,0-.4,1.8c-.1.8-.2-.1.1-1.2Z" transform="translate(-0.018 -0.259)" fill="#dc4e3e"/>
    <path id="Path_8613" data-name="Path 8613" d="M80.5,595.4l-1.4-2.1.3.3Z" transform="translate(-0.103 -0.774)" fill="#dc4e3e"/>
    <path id="Path_8614" data-name="Path 8614" d="M188.3,526.6c.8-2.3.8-1.5.9-1.9-.8,2.1.1-.8-.9,1.9" transform="translate(-0.246 -0.684)" fill="#dc4e3e"/>
    <path id="Path_8615" data-name="Path 8615" d="M215.7,433.3l-.2.7-.2-.3Z" transform="translate(-0.281 -0.565)" fill="#dc4e3e"/>
    <path id="Path_8616" data-name="Path 8616" d="M102.4,43.1c-.1-2.1-.2,1.1-.1-1.4a2.5,2.5,0,0,1,.1,1.4" transform="translate(-0.133 -0.054)" fill="#dc4e3e"/>
    <path id="Path_8617" data-name="Path 8617" d="M108.089,600.078c-.8-6.691-.2-15.48-.7-22.77,0-.9.4.2.3-1.7-.7-7.091-.4-18.276-.1-26.865v.5c.1-1.6-.3-3.7-.3-5.393.1,0,.1.6.2.2a18.431,18.431,0,0,0-.3-3.895c-.2-.7.3-.6.4-1.5l-.3-1c-.7-2.8,0-6.691-.4-10.486.1.2.1.6.2.3-.5-6.092-.5-13.682-.7-20.473.1.3.3.5.4.1s-.4-2.4-.5-4.294a44.307,44.307,0,0,1-.2-5.293v.2c-.3-1.6.2-2.3-.2-3.6l.2-1c-.4-.7.2-2.3,0-3.6h-.1c-.1-1.2.1-1.9,0-3h0c-.1-2.7.1-4.194-.2-4.194s.1,2.6.5,1.1c-.4-8.788-.5-17.877-.6-26.665a9.688,9.688,0,0,1,.3-1.9c-.1-.9-.1-3.3-.3-4.095s.2-.6.2-1a13.87,13.87,0,0,1-.2-3.5c.1.7.2.9.3.7a51.028,51.028,0,0,1-.3-5.293c.1.3.1.7.2.6-.3-1.9,0-3.6-.2-5.293l.2.6c.2-2.8-.4-.8-.3-3.2.1.6.1.4.2.5a71.339,71.339,0,0,1-.4-7.99h.1c-.1-2.4,0-4.894-.2-7.59.1-1,.5.3.4-2.2-.4.1-.2-4.294-.6-2.8,0-2.2.1-5.593,0-7.091.2,1,.4-1.1.5.7l.2-1.4c.2.2,0,1.4.2,1s-.2-3.6-.1-4.394a39.249,39.249,0,0,1-.8-5.892c.2,1.3.4-.7.5.1l-.8-3.8c0-.9.3-.2.2-1.5s-.2-.5-.2-.9-.1-3.8.2-4.195.1,1.5.2.5a23.789,23.789,0,0,0-.2-3.4h0c0-1.1-.2-3.3-.4-2.1s.2-.3.1.8a23.97,23.97,0,0,1-.3-4.394,1.2,1.2,0,0,0,.3.7c-.3-2.2-.4-4.594-.6-7.091-.2,0,.3.9.2,1.3.2-3.2-.4-6.691-.1-9.288,0,.4-.2.2-.2.2,0-1.6.3-1.5.2-2.5a10.386,10.386,0,0,0-.1-2.3c-.1-.5.1-.3.1.6a100.172,100.172,0,0,1-.2-10.586,12.286,12.286,0,0,1-.4-2.8l.2.3a25.271,25.271,0,0,1,.1-2.7c-.3-1.6.3,6.292.1,4.095.2-.6-.4-3.1-.1-2.6a30.861,30.861,0,0,1-.1-4.494c0,.4.3,1.3.3,0s-.1-.6-.2-2.4v-1.1c-.2-.1,0-2-.2-1.1s-.1-3.2.2-3l.3.3a12.784,12.784,0,0,0-.5-2.3c0-.1.1-.4.1-.3a18.654,18.654,0,0,0-.3-3.4,23.775,23.775,0,0,1,.2-5.992,30.761,30.761,0,0,1-.2-4.694,3,3,0,0,0,.2.9,9.188,9.188,0,0,0-.1-2.4c.1.2.2-2.2.4-3.4s-.4-1-.5-1.1a29.7,29.7,0,0,1,0-6.092c.1.5.2,2.2.3,1s-.4-2.8-.2-5.093l-.4.6c.2-1-.2-3.3.1-3.1s.1-2.7-.3-2.4c.3-3.7-.3-8.988.3-11.185-.1-.5,0-1.8-.2-1.6s.2,1.2,0,1.6-.1-.6-.2-.6.1-2.1.4-1c.2-2.6-.6-2.6-.5-5.892.1.1.2-.1.2-1.1l-.3-1.8c0-2.1.3-1.2.6-1.3a15.78,15.78,0,0,0-.2-3l.3-1.4c-.2,1-.2-.9-.2-1.4v.5a11.084,11.084,0,0,0,0-2.2,9.09,9.09,0,0,0-.2,2.2c-.1-.6-.1-1.5-.2-2.2s.2-1.8.2-2.7a4.294,4.294,0,0,0-.2-1.5c.1,0,0-1.7.2-.9a8.589,8.589,0,0,0,0,1.4,4.1,4.1,0,0,0,.1-2c-.1-1.1-.5.3-.3-1.7a6.886,6.886,0,0,0,.3,1v-1.9h-.2c.1-.3.1-.1.1-.2a14.025,14.025,0,0,0-.4-3.3c-.3-.4.1-2,.1-2.9v.2a14.28,14.28,0,0,0-.1-3.5h0a18.577,18.577,0,0,0-.2-2.8c.2-1.5.8-.5.5-2.2s-.4-2.4-.6-1.8c.1-2.8-.3-5.892,0-8.489a2.5,2.5,0,0,1-.2-1c0-4.095-.4-8.589,0-11.884.1,1.2.2.1.3.1s.2-1.2-.2-1.5-.3,0-.4,1.2a60.027,60.027,0,0,1,0-7.49c-.1.7-.2.2-.2-.4a11.5,11.5,0,0,0,.2-3l-.2-.2.2-.9a3.4,3.4,0,0,1-.2-1.9.6.6,0,0,0,.2-.4,24.369,24.369,0,0,1-.3-4.894l.3-1.2c0-.7-.2-1.7-.3-.6a35.849,35.849,0,0,1,.4-5.093,130.127,130.127,0,0,1-.8-16.179v.2c.1-1.4-.3-.7-.2-1.7s.3-1.1.5,0a17.977,17.977,0,0,0-.4-3.895c-.2-.2.1,1-.1.8s.1-2.8-.2-3.1.3-.1.4.2l-.2-1.2c.3-1.5.6,3.4,1,1.8v-1.1c.3-1.1.4,3,.5.1-.2-1.2-.6-2.3-.7-1.2-.1-2.6-.7-1.2-.7-3.895.2-.8.1,2.2.3,1.7a30.259,30.259,0,0,0-.1-3.7c-.1,1.3-.4.2-.5-.6s.3.9.3-1.1c-.2-.3-.3-2.1-.4-.6-.4-.7.1-2.1-.2-3.1s.6,2,.8-.1c-.3.3-.4-2.7-.7-1.5.1-.9.3-.9.4-.3.1-1.2-.5-2.9,0-3.4l-.3-.4c.1-.4.1-.9.3-1.6s-.4-3.5,0-3.4-.1-2.8-.3-1.8.2,1.7-.1,2.6a7.69,7.69,0,0,0-.2-3.1h.2a11.386,11.386,0,0,0-.2-2.1c.1.4.2.2.2-.2l-.2-.5c-.1-2.1.4-.5.3-2.6l.2,1.6a19.675,19.675,0,0,0,.1-2l-.7-1.4c-.1-1.2.2-.5,0-1.7l.3,1.5c.1.2.3-1,.3-2.6s-.4-2.5-.5-1c0-.8.1-1.9.3-1.3-.1-1.8-.2.2-.4-1.3a11.279,11.279,0,0,1,.5-3.8l.4,1.6V127c.3,1.4.2-.7.5.1a13.882,13.882,0,0,0-.2-2.3c-.5,2.1-.7-2.4-1.1-1.7-.2-2.9,1.1-1.8.3-4.794-.1.5-.5-.9-.3.9,0-1.8-.5-1.2-.3-3.4.2,1.6.4-1.7.7.6-.1-.2-.1,1.3-.1,1.6s.4.1.4-1.7-.1-2.7-.3-2.4,0,1.7-.2,1c-.1-2.2.3-2.6-.2-3.6,0,1.4-.2,1.8-.4,1.8v-1.7l.2.3c.1-2.6-.3-.8-.3-3.3l.3-1.2c.3.6-.1,3.7.4,3.3s-.2-2.2-.1-3.8c0,.4.1.8.1,1.2a7.39,7.39,0,0,0,.2-3.6c-.2-1.2-.2-.3-.3-.4-.1-2.7-.3-3.5-.3-5.193.3.4,0-3,.4-1.1a20.773,20.773,0,0,0,.2,5.693c.4-1,0,2.1.4,2.7,0-2.1.4-2,.6-2.4a9.787,9.787,0,0,0-.1-1.5c-.2-.2-.2.5-.5.6a33.255,33.255,0,0,0-.4-5.992c.1-.8.4-.6.4.4-.1-2.9-.1-5.892-.1-8.589-.4,1.8-.1-3-.4-1.8s-.3,2.7-.5,1.9.2,0,.3-.4a6.849,6.849,0,0,0,0-2.9c.2,2.6.5.5.8,1-.2-1.9.2.1.2-1.8s-.4-4.195-.4-6.192a86.293,86.293,0,0,0-.1-8.988c.1-1.2.5-.4.6-1.7s-.4,1.2-.2-1.1v.2c-.1-.7.2-4.195-.3-4.894l.4.7a5.693,5.693,0,0,0-.1-1.2c.1,0,.2-.5.3.2a24.965,24.965,0,0,0-.1-4.494l-.2,1c-.2-2.6,0-4.394-.1-6.991h.2V49.2c.2.4.3-1,.2-1.8l.6,3.895c-.1,1.1-.3-1.2-.5-.5a9.088,9.088,0,0,0,.1,3.3,7.792,7.792,0,0,0-.1-1.7c.3-.3.3,1.1.5,1.8a5.492,5.492,0,0,0,0-1.3,21.871,21.871,0,0,1,.2,3.4c-.1-1-.2.6-.3.2a15.965,15.965,0,0,1,.3,3.5c-.1,1.9.2,3.6.2,5.792a16.477,16.477,0,0,1-.6-3.4c-.1,1.4,0,1.6-.1,3a8.989,8.989,0,0,1,.7,3h-.2a23.47,23.47,0,0,1,.4,3.7c-.1,3.6,0,7.29,0,10.087h-.2c.4,1.5.2,5.093.4,7.091a48.96,48.96,0,0,1-.1,9.388c.2,6.192.4,11.585.4,17.977l-.3-1.1c.2,1.1-.2.7-.1,1.9.2-1.3.3,1.6.5,2.3a61.217,61.217,0,0,0,.3,8.988h-.2c.4,2.6.1,5.593.1,8.789a6.292,6.292,0,0,0-.2,1.9,43.747,43.747,0,0,1,.6,5.193c0,1.8,0,4.794-.1,6.691.5,6.891.3,14.082.7,21.272l-.2.5c.6,6.991.2,15.58.5,21.572l-.4-.6c-.1,1.9.2,4.294.4,3.8-.1,1.9.2,4.694-.1,5.892a34.551,34.551,0,0,0,.3,3.895,87.3,87.3,0,0,0,.1,8.888v-.9c-.1-.4-.3-.4-.3.5s-.1,4.993.4,3.6c-.2,3.895.3,8.988,0,12.783.1-.3.2.6.3,1,0,3.4-.2,6.991.1,9.687-.1.5-.2-.9-.2.5s.2,0,.3,1c.3,5.493-.1,11.085,0,16.079.3,8.888.3,18.176.5,26.665h-.1c.4,2.9-.3,6.691.3,8.988-.1.7,0,2.6-.2,2.1.3,2.3-.2,6.392.2,9.588a4.591,4.591,0,0,0-.1-.8c-.2,3.3.1,6.192,0,9.687a4.394,4.394,0,0,0-.2-1.1c-.2,1.4.4,3.2,0,3.995s.2.5.2.1c-.1,7.69.3,15.879.5,23.769-.2,5.693-.8.4-.4,4.894-.1.4.2.3.1.3.2,1.7-.5,2.7-.2,3.895.3-.5.2.8.3.8a42.8,42.8,0,0,0-.2,6.991l-.2-.2c.5,3.2.3,6.991.8,9.687.3,17.777.7,34.855,1,52.232s.5,33.956.4,51.433a46.142,46.142,0,0,0-.1,8.888c-.1-.2-.1-.5-.1-.2a15.256,15.256,0,0,0,.4,3.6c0,6.492.2,12.384.2,18.975,0-1-.3-1.6-.3-.3l.2,1.3v.2c.1.9.2,1.8.3.9.5,16.678,0,33.057.2,49.336-.1,3.895.1,9.388.2,13.582-.3,12.484-.5,23.769-.1,36.453,0,0-.9-1.6-1.1-6.891" transform="translate(-0.13 -0.062)" fill="#dc4e3e"/>
    <path id="Path_8618" data-name="Path 8618" d="M102.5,45.6c-.2.4-.2,1.9-.5.7s.3-.9.5-.7" transform="translate(-0.133 -0.059)" fill="#dc4e3e"/>
    <path id="Path_8619" data-name="Path 8619" d="M101.2,84.4a2.4,2.4,0,0,1-.1.7,6.092,6.092,0,0,1-.1-1.3,1.1,1.1,0,0,0,.2.6" transform="translate(-0.132 -0.109)" fill="#dc4e3e"/>
    <path id="Path_8620" data-name="Path 8620" d="M101.2,94.3a18.376,18.376,0,0,1-.3-3.5Z" transform="translate(-0.132 -0.118)" fill="#dc4e3e"/>
    <path id="Path_8621" data-name="Path 8621" d="M100.7,103.6c-.1.8-.2.6-.2-.5s.1.3.2.5" transform="translate(-0.131 -0.134)" fill="#dc4e3e"/>
    <path id="Path_8622" data-name="Path 8622" d="M101,104.2a5.892,5.892,0,0,1-.1,1.5c.1,0-.1-1.8.1-1.5" transform="translate(-0.132 -0.136)" fill="#dc4e3e"/>
    <path id="Path_8623" data-name="Path 8623" d="M100.8,124.3a7.589,7.589,0,0,1,0,2c.1-.5-.2-2.3,0-2" transform="translate(-0.131 -0.162)" fill="#dc4e3e"/>
    <path id="Path_8624" data-name="Path 8624" d="M101.1,133.6a3.9,3.9,0,0,0,0,.8c-.1.6-.2,0-.2-.5Z" transform="translate(-0.132 -0.174)" fill="#dc4e3e"/>
    <path id="Path_8625" data-name="Path 8625" d="M103.5,303.4l-.1-1,.2.1Z" transform="translate(-0.135 -0.394)" fill="#dc4e3e"/>
    <path id="Path_8626" data-name="Path 8626" d="M104.3,377.8c.1,1-.1.7-.1.9s.2.3.1-.9" transform="translate(-0.136 -0.493)" fill="#dc4e3e"/>
    <path id="Path_8627" data-name="Path 8627" d="M105.5,417.9v-.3l.3.1Z" transform="translate(-0.138 -0.544)" fill="#dc4e3e"/>
    <path id="Path_8628" data-name="Path 8628" d="M125.3,604.4c.1,2.1.2-1.1.1,1.4a2.5,2.5,0,0,1-.1-1.4" transform="translate(-0.163 -0.788)" fill="#dc4e3e"/>
    <path id="Path_8629" data-name="Path 8629" d="M116.6,40.691c.9,6.691.2,15.68.8,23.07,0,.9-.4-.2-.3,1.7.7,7.191.5,18.476.2,27.165v-.5c-.1,1.7.4,3.7.3,5.493-.1,0-.1-.6-.2-.2a28.8,28.8,0,0,0,.3,3.895c.1.7-.3.6-.4,1.5l.3,1c.7,2.8.1,6.791.5,10.586-.1-.2-.1-.6-.2-.3.5,6.092.5,13.782.8,20.673-.1-.3-.3-.5-.4-.1s.4,2.5.5,4.294a44.31,44.31,0,0,1,.2,5.293v-.2c.3,1.6-.1,2.4.2,3.7l-.2,1c.4.7-.2,2.3.1,3.6h.1c.1,1.2-.1,1.9,0,3h0c.2,2.7-.1,4.294.3,4.195s-.2-2.6-.5-1.1c.5,8.888.6,18.076.7,26.965a9.889,9.889,0,0,1-.3,1.9c.1.9.1,3.4.3,4.194s-.2.6-.2,1.1a19.477,19.477,0,0,1,.3,3.6c-.1-.7-.2-.9-.3-.7a52.531,52.531,0,0,1,.4,5.393c-.1-.3-.1-.7-.2-.6.3,2,0,3.6.2,5.293l-.2-.6c-.2,2.8.4.8.3,3.2-.1-.6-.1-.4-.2-.5.4,2.2.3,5.892.5,8.089h-.3c.1,2.4,0,4.993.2,7.69-.1,1-.5-.3-.3,2.3.4-.1.2,4.394.6,2.9,0,2.2-.1,5.693,0,7.191-.2-1-.4,1.1-.5-.7l-.2,1.4c-.2-.2,0-1.4-.2-1s.2,3.6.2,4.394a40.044,40.044,0,0,1,.8,5.992c-.2-1.3-.4.7-.5-.1l.8,3.8c0,.9-.3.2-.2,1.5s.2.5.3.9.2,3.795-.2,4.194-.1-1.5-.2-.5.2,1.8.2,3.5h0c0,1.1.2,3.3.4,2.1s-.2.3-.1-.9a24.468,24.468,0,0,1,.3,4.394,1.2,1.2,0,0,0-.3-.7q.449,3.446.6,7.191c.2,0-.3-.9-.2-1.3-.2,3.3.4,6.691.1,9.388,0-.4.2-.2.2-.2,0,1.6-.2,1.5-.1,2.5a10.687,10.687,0,0,0,.1,2.3c.1.5-.1.3-.1-.6a102.566,102.566,0,0,1,.3,10.686,12.583,12.583,0,0,1,.4,2.9l-.2-.3a25.568,25.568,0,0,1-.1,2.7c.3,1.7-.3-6.392-.1-4.195-.2.6.4,3.1.1,2.6a31.459,31.459,0,0,1,.1,4.594c0-.4-.3-1.3-.3,0s.1.6.2,2.4v1.1c.2.1,0,2,.2,1.2s.2,3.2-.2,3l-.3-.3a12.983,12.983,0,0,0,.5,2.3c0,.1-.1.4-.1.3a14.117,14.117,0,0,0,.4,3.4c.4,1.1.1,5.093-.2,6.092a31.357,31.357,0,0,1,.3,4.694,3.1,3.1,0,0,0-.2-.9,9.386,9.386,0,0,0,.1,2.4c-.1-.2-.2,2.2-.4,3.5s.4,1,.5,1.2a29.849,29.849,0,0,1,0,6.092c-.1-.5-.3-2.2-.3-1a34.825,34.825,0,0,1,.2,5.093l.4-.6c-.2,1,.3,3.3-.1,3.1s-.1,2.7.3,2.4c-.2,3.7.3,9.088-.3,11.385.1.5,0,1.9.2,1.6s-.2-1.2,0-1.6.1.6.2.6-.1,2.1-.4,1c-.2,2.6.6,2.7.6,5.892-.1-.1-.2.1-.2,1.1l.3,1.8c0,2.1-.3,1.2-.6,1.3a16.178,16.178,0,0,0,.3,3l-.3,1.4c.2-1,.2.9.2,1.5v-.5a11.087,11.087,0,0,0,0,2.2,9.188,9.188,0,0,0,.2-2.2c.1.6.1,1.5.2,2.2a14.152,14.152,0,0,1-.2,2.8,4.394,4.394,0,0,0,.2,1.5c-.1,0,0,1.7-.2.9a8.587,8.587,0,0,0,0-1.4,4.2,4.2,0,0,0-.1,2c.1,1.1.5-.3.4,1.7a6.888,6.888,0,0,0-.3-1v1.9h.2c-.1.3-.1.1-.1.2a14.024,14.024,0,0,0,.4,3.3c.3.4-.1,2-.1,2.9v-.2a14.482,14.482,0,0,0,.2,3.5h-.1a18.774,18.774,0,0,0,.2,2.8c-.1,1.5-.8.5-.5,2.2s.4,2.4.6,1.8c-.1,2.8.3,5.992,0,8.589a2.5,2.5,0,0,1,.2,1c0,4.095.4,8.689,0,11.984-.1-1.2-.2-.1-.4,0a1.426,1.426,0,0,0,.2,1.5c.4.3.3,0,.4-1.2a61.211,61.211,0,0,1,0,7.59c.1-.7.2-.2.2.4a18.937,18.937,0,0,0-.2,3l.2.2-.2.9a3.5,3.5,0,0,1,.3,1.9.6.6,0,0,0-.2.4,24.868,24.868,0,0,1,.3,4.994l-.3,1.3c0,.7.2,1.8.3.6a37.052,37.052,0,0,1-.4,5.193,132.934,132.934,0,0,1,.8,16.279v-.2c-.1,1.4.3.7.2,1.7s-.3,1.1-.5,0a18.377,18.377,0,0,0,.4,3.895c.2.2-.1-1.1.1-.8s-.1,2.8.2,3.1-.3.1-.4-.2l.2,1.2c-.3,1.5-.7-3.4-1.1-1.8v1.1c-.3,1.1-.4-3-.4-.1.2,1.2.6,2.3.7,1.2.1,2.6.7,1.2.7,3.995-.2.8-.1-2.2-.3-1.7a30.757,30.757,0,0,0,.1,3.795c.1-1.3.4-.2.5.6s-.3-.9-.3,1.1c.2.3.3,2.2.4.6.4.7-.1,2.1.2,3.2s-.7-2-.8.1c.3-.4.4,2.7.8,1.5-.1.9-.3,1-.4.3-.1,1.2.5,3,0,3.4l.3.4c-.1.4-.1.9-.3,1.6s.4,3.5,0,3.4.1,2.8.3,1.9-.2-1.8.1-2.6a7.89,7.89,0,0,0,.2,3.1h-.3a11.581,11.581,0,0,0,.2,2.1c-.1-.4-.2-.2-.2.2l.2.6c.2,2.2-.4.5-.3,2.6l-.2-1.6a19.479,19.479,0,0,0-.1,2.1l.7,1.4c.1,1.2-.2.5,0,1.7l-.3-1.5c-.1-.2-.3,1-.3,2.6s.4,2.6.5,1c0,.8-.1,1.9-.3,1.3.1,1.8.2-.2.4,1.3a11.279,11.279,0,0,1-.5,3.8l-.4-1.6v1.1c-.3-1.4-.2.7-.5-.1a14.276,14.276,0,0,0,.2,2.3c.5-2.1.7,2.4,1.1,1.8.2,2.9-1,1.9-.3,4.894.1-.5.5.9.3-.9,0,1.8.5,1.2.3,3.4-.2-1.6-.4,1.7-.7-.6.1.2.1-1.3,0-1.6s-.4-.1-.4,1.7.1,2.7.3,2.5-.1-1.7.2-1c.1,2.3-.3,2.7.2,3.6-.1-1.4.2-1.8.4-1.8v1.7l-.2-.3c-.1,2.7.3.8.3,3.4l-.3,1.2c-.3-.6.1-3.8-.4-3.3s.3,2.2.2,3.795c0-.4-.1-.8-.1-1.2a7.49,7.49,0,0,0-.2,3.6c.2,1.2.2.3.3.4.1,2.7.3,3.5.3,5.293-.3-.4,0,3.1-.4,1.2a21.272,21.272,0,0,0-.2-5.792c-.4,1,0-2.1-.4-2.7,0,2.2-.4,2.1-.6,2.4a9.884,9.884,0,0,0,.2,1.5c.2.3.2-.5.5-.6a33.754,33.754,0,0,0,.4,6.092c-.1.8-.4.6-.4-.4.1,2.9.1,5.992.1,8.689.4-1.8.1,3.1.5,1.8s.3-2.7.5-1.9-.2,0-.3.4a7.272,7.272,0,0,0,0,3c-.2-2.6-.5-.5-.8-1,.2,1.9-.2-.1-.2,1.8s.4,4.195.5,6.292a88.292,88.292,0,0,0,.2,8.988c-.1,1.2-.5.4-.5,1.7s.4-1.2.2,1.2v-.2c.1.7-.2,4.294.3,4.894l-.4-.7a5.994,5.994,0,0,0,.1,1.2c-.1,0-.2.5-.3-.2a25.571,25.571,0,0,0,.1,4.594l.2-1c.2,2.7,0,4.494.1,6.991h-.2l.2,1.5c-.2-.4-.3,1-.1,1.8l-.6-3.995c.1-1.1.3,1.2.5.5a9.288,9.288,0,0,0-.1-3.4,7.891,7.891,0,0,0,.1,1.7c-.3.3-.3-1.1-.5-1.8a5.691,5.691,0,0,0,0,1.3,22.273,22.273,0,0,1-.2-3.5c.1,1.1.2-.6.3-.2a16.488,16.488,0,0,1-.3-3.6c.1-2-.3-3.6-.2-5.892a16.776,16.776,0,0,1,.7,3.4c.1-1.4,0-1.6.1-3a9.188,9.188,0,0,1-.7-3h.2a24.168,24.168,0,0,1-.4-3.795c0-3.6,0-7.391,0-10.187h.2c-.5-1.5-.2-5.093-.5-7.191a50.158,50.158,0,0,1,0-9.488c-.3-6.192-.5-11.685-.5-18.176l.3,1.1c-.2-1.2.2-.8.1-1.9-.2,1.3-.3-1.6-.5-2.4a62.515,62.515,0,0,0-.4-9.088h.2c-.4-2.6-.1-5.692-.1-8.888a6.393,6.393,0,0,0,.2-1.9,44.836,44.836,0,0,1-.6-5.193c0-1.9,0-4.894.1-6.791-.6-6.991-.4-14.182-.8-21.472l.2-.5c-.6-7.091-.3-15.779-.7-21.772l.4.6c.1-1.9-.2-4.294-.5-3.8.1-1.9-.3-4.694,0-5.892a35.646,35.646,0,0,0-.3-3.995c.1-3.895,0-5.293-.1-8.988v.9c.1.4.3.4.3-.5s0-4.994-.4-3.7c.2-3.895-.4-9.088-.1-12.883-.1.3-.2-.6-.3-1-.1-3.4.2-6.991-.1-9.787.1-.5.2.9.2-.5s-.2,0-.3-1c-.3-5.593.1-11.285-.1-16.279-.4-8.988-.4-18.376-.6-26.965h.1c-.4-2.9.3-6.791-.3-9.088.1-.7,0-2.6.2-2.1-.3-2.3.1-6.392-.2-9.787a4.692,4.692,0,0,0,.1.8c.2-3.4-.2-6.292,0-9.887a4.493,4.493,0,0,0,.2,1.1c.2-1.4-.5-3.2,0-3.995s-.2-.6-.2-.1c.1-7.79-.4-15.979-.6-24.069.2-5.792.8-.4.4-4.894.1-.4-.2-.3-.1-.3-.2-1.8.5-2.8.2-3.995-.3.5-.2-.8-.4-.8.1-3.5.4-4.195.1-6.991l.2.2c-.5-3.3-.3-7.091-.8-9.787-.4-17.977-.9-35.254-1.3-52.831s-.7-34.355-.7-51.932a47.037,47.037,0,0,0,.1-8.988c.1.2.1.5.1.2a15.254,15.254,0,0,0-.4-3.6c0-6.492-.2-12.484-.3-19.175.1,1.1.3,1.6.3.3l-.2-1.3v-.2c-.1-.9-.2-1.8-.3-.9-.5-16.878-.2-33.456-.5-49.935.1-3.895-.1-9.488-.3-13.782.2-12.584.4-23.969-.1-36.852,0,0,.9,1.7,1.2,6.991" transform="translate(-0.15 -0.044)" fill="#dc4e3e"/>
    <path id="Path_8630" data-name="Path 8630" d="M125.2,601.9c.2-.5.2-1.9.5-.8s-.3.9-.5.8" transform="translate(-0.163 -0.783)" fill="#dc4e3e"/>
    <path id="Path_8631" data-name="Path 8631" d="M126.3,562.6a2.4,2.4,0,0,1,.1-.7,6.19,6.19,0,0,1,.1,1.3,1.2,1.2,0,0,0-.2-.6" transform="translate(-0.165 -0.733)" fill="#dc4e3e"/>
    <path id="Path_8632" data-name="Path 8632" d="M126.2,552.6a18.775,18.775,0,0,1,.3,3.6Z" transform="translate(-0.165 -0.721)" fill="#dc4e3e"/>
    <path id="Path_8633" data-name="Path 8633" d="M126.7,543.2c.1-.8.2-.6.2.5s-.1-.3-.2-.5" transform="translate(-0.165 -0.708)" fill="#dc4e3e"/>
    <path id="Path_8634" data-name="Path 8634" d="M126.3,542.6a5.99,5.99,0,0,1,.1-1.5c-.1,0,.1,1.8-.1,1.5" transform="translate(-0.165 -0.706)" fill="#dc4e3e"/>
    <path id="Path_8635" data-name="Path 8635" d="M126.4,522.3a7.691,7.691,0,0,1,0-2c-.1.5.2,2.4,0,2" transform="translate(-0.165 -0.678)" fill="#dc4e3e"/>
    <path id="Path_8636" data-name="Path 8636" d="M126.1,512.9a4.093,4.093,0,0,0,0-.8c.1-.6.2,0,.2.5Z" transform="translate(-0.164 -0.667)" fill="#dc4e3e"/>
    <path id="Path_8637" data-name="Path 8637" d="M122.8,341.3l.1,1-.2-.1Z" transform="translate(-0.16 -0.445)" fill="#dc4e3e"/>
    <path id="Path_8638" data-name="Path 8638" d="M121.6,266.1c-.1-1,.1-.7.1-.9s-.2-.3-.1.9" transform="translate(-0.159 -0.346)" fill="#dc4e3e"/>
    <path id="Path_8639" data-name="Path 8639" d="M120.2,225.6v.3l-.3-.1Z" transform="translate(-0.156 -0.294)" fill="#dc4e3e"/>
  </g>
</svg>
