<svg xmlns="http://www.w3.org/2000/svg" xmlns:xlink="http://www.w3.org/1999/xlink" width="718.534" height="687.185" viewBox="0 0 718.534 687.185">
  <defs>
    <clipPath id="clip-path">
      <rect id="Rectangle_228" data-name="Rectangle 228" width="657.1" height="339.32" fill="none"/>
    </clipPath>
  </defs>
  <g id="handdoek" transform="translate(222.614) rotate(41)" clip-path="url(#clip-path)">
    <path id="Path_7992" data-name="Path 7992" d="M5.8,41.3c-6.8.2,3.6.2-4.4.2a25.4,25.4,0,0,1,4.4-.2" fill="#0160aa"/>
    <path id="Path_7993" data-name="Path 7993" d="M5.8,63.9c2.6,10.6,4.9,23,6.9,35.7s3.9,25.7,5.6,37.6c.4,2.8-.5-.7.4,5.6,1.7,11.4,3.3,26.3,4.3,41.8s1.7,31.6,1.9,45.7l-.2-1.7c.1,5.4.6,11.9.6,17.6-.1,0-.1-1.8-.2-.5s.2,10.3.4,12.7-.3,2-.4,4.9l.2,3.3c.6,9.1-.4,22-.7,34.3,0-.6,0-1.8-.1-.8-.1,5.6-.4,11.6-.7,17.8-.2,3.1-.4,6.3-.6,9.4l-.7,9.5,29.7-2.5c-.9.2-1.7.4-.4.4s7.9-1,13.8-1.5c2.7.1,10.1-1.1,17.1-1.5h-.6c5.1-.7,7.6-.4,11.8-1.1h3.3c2.2-.6,7.4-.4,11.7-.9h-.1c4-.4,6.1-.4,9.8-.8h.4c8.7-.8,13.8-1,13.5-1.3,3.1,0-8.4.8-3.6.8,28.6-2.6,58-4.9,86.8-7.3l6.1-.2c2.9-.3,10.8-.9,13.4-1.3h3.4c5.2-.3,5.7-.8,11.5-1.1-2.3.3-3,.4-2.3.5,4.9-.6,11.4-1.1,17.2-1.7-.9.1-2.3.3-2.1.4,6.3-.8,11.6-.9,17.1-1.5l-2.1.4c9-.5,2.6-.6,10.4-1.1-1.9.2-1.2.2-1.5.3,7.2-.9,18.9-1.7,26.1-2.4h-.3c7.8-.7,16-1.2,24.7-2.1,3.1-.2-1,.5,7.3-.2-.3-.3,14.1-1.3,9.1-1.3,7.1-.5,18.3-1.3,23-1.8-3.2.4,3.5.2-2.4.7h4.5c-.6.2-4.6.3-3.2.4l14.2-1.2c5.4-.7,10.4-1.5,19.3-2.3-4.2.5,2.4.2-.4.5l12.3-1.7c2.9-.3.7.2,4.9-.2a17.5,17.5,0,0,1,2.9-.5c1.1,0,12.2-1.1,13.6-.8s-4.8.5-1.5.3l11.1-1h.1c3.6-.2,10.6-1,6.7-.9s1,.1-2.7.3c2.5-.4,8.8-1,14.3-1.4a10.4,10.4,0,0,0-2.4.4c7.3-.9,15-1.6,23.2-2.4.1-.2-3,.6-4.2.6,10.5-.6,21.6-2.1,30.3-2.4-1.4.1-.8-.2-.7-.1,5-.4,4.8-.1,8.1-.5.3.1,4.1-.4,7.5-.7,1.7-.2.9,0-2.1.3,4.7-.5,23.5-2.3,34.5-2.9-.2-.1,6.7-.9,9.2-1.1l-1,.3c2.3,0,8.4-.7,8.8-.5,5.3-.7-20.6,1.9-13.4,1.1,1.9,0,10-1.2,8.5-.7,5-.4,9.9-1.1,14.7-1.2-1.4.1-4.1.6,0,.3,7.1-.6,2-.3,7.8-.8l3.6-.4c.2-.2,6.4-.5,3.7-.5.9.1,10.4-.9,9.7-.5l-1,.4c3.1-.3,5-.7,7.5-1h1.1c.5-.5,7.4-.6,11-1.2l11.1-.8,5.1-.4h3.3l-.2-.9v-.5l-.2-.8-.8-3.4c-.5-2.3-1-4.6-1.5-7.3.3,1.1.6,2.6.7,2.9-.6-3.5-.9-4.4-1.5-7.6.2.7-1.1-7.1-1.7-11s-1-3.1-1.2-3.6c-.4-4.6-2.7-13.8-3.3-19.5.3,1.7,1.4,7.1.8,3s-1.8-9-2.8-16.3V222c-.3-3.3-1.9-10.6-1.4-9.9-.5-2.4-1.1-8.6-1.4-7.7-1.5-12-4.2-29-4.4-36.4-.3-1.7-.7-6-.8-5.1.1,2.9.6,4,.6,5a7.3,7.3,0,0,0-.4-2c-.4-3.7-.7-6.7,0-3.2-.7-8.3-1.6-8.5-2.5-19,.2.5.2-.3-.2-3.4l-.8-5.8c-.6-6.8,0-3.9.2-4.1-.4-3.6-.8-8.1-1.1-9.7v-4.5c0,3.2-.4-3-.6-4.7l.2,1.7c.1-.7-.3-4.9-.5-7-.1.5.2,4.8.3,7.2-.3-1.9-.5-4.8-.8-7.2.3.8-.2-6-.4-8.9a44.684,44.684,0,0,0-.5-4.7c.1-.1-.3-5.4,0-2.9s0,2.6.3,4.5a42.206,42.206,0,0,0-.3-6.5c-.3-3.4-.4.9-.7-5.6.2,1.7.3,2,.4,3.3l-.2-6.1-.2-.2c0-.8.1-.3.1-.6s-.6-9.3-.9-10.7c-.2-3.1-.1-6.5-.2-9.4V59c0-3.6-.3-8.4-.5-11.4v.2c-.1-2-.2-6.6-.4-9.1,0-5,.8-1.7.4-7.2s-.5-7.9-.7-5.9c0-3.8-.1-7.8-.1-11.8,0-2,0-4-.1-6a25.793,25.793,0,0,1,0-2.9V3.3h-2.8a24.2,24.2,0,0,1-3.1.5c-13.1,1.6-27.8,3.4-38.4,4,3.8-.5.2-.2.1-.4-3.1.5-3.8.2-4.9.6s0,.3,3.8,0c-7.9.9-19.9,2.1-24.3,2.3,2.2-.1.5.1-1.2.3.5-.4-5.3.1-9.7.7l-.6.3H541a33.3,33.3,0,0,1-6.2.8h-1.3c-4.5.6-10.9,1.4-15.9,1.7h-4.1c-2.1.2-5.6.7-1.9.5-8.5.6-13.9,1.1-16.6,1-7.2,1-16.1,1.9-25.3,2.7l-27.2,2.3.5-.2c-4.6.2-2.3.4-5.5.6,1.5-.3-3.5,0,.1-.5-6.5.4-8.4.9-12.6,1.3-.6.2,3.4-.4,2.6-.1s-9,.6-10,.9-.4-.3.5-.5l-4,.4c-4.9,0,11-1.5,5.9-1.5l-3.7.3c-3.5,0,9.7-1.1.5-.5-4,.5-7.4,1.1-3.8,1-8.3.7-3.8,1-12.7,1.7-2.5,0,7.1-.6,5.4-.7-4.2.1-8.4.8-12.2,1,4.2-.2.7.4-2,.6-4.6.2,2.9-.5-3.5,0-1,.2-7,.8-1.8.5-2.3.6-6.7.4-10.2.9s6.6-1.1-.5-.7c1.1.2-8.7,1-4.9,1.1-2.8.1-3.1-.1-1.1-.4-4,.1-9.6,1.2-10.9.7l-1.3.4h-5.1c-3.5.2-11.2,1.1-10.9.7s-9.1.6-6,.7c5-.2,5.7-.6,8.5-.4a81,81,0,0,0-10,.8h-.5c-1.7.2-5.6.4-6.7.6,1.3-.2.6-.2-.7-.2l-1.8.4c-6.9.6-1.7-.3-8.4.2l5.1-.5c-1.1.1-3.4,0-6.6.3l-4.6.9c-3.8.3-1.7-.1-5.4.3l4.9-.6a65.809,65.809,0,0,0-8.4.2c-3.2.3-8.3.9-3.1.7-2.6.2-6.1.2-4.1,0-5.8.4.8.2-4.2.6l-12.2.2,5.2-.7-3.5.2c4.5-.5-2.3-.1.2-.5l-7.5.6c6.9.1-7.7,1.1-5.7,1.4-9.4.7-6-.7-15.8.5,1.6,0-3,.6,2.9.2-5.9.3-4,.7-10.9.9,5.1-.5-5.5-.1,1.9-.8a42.2,42.2,0,0,0,5.3-.2c-2.4,0,.5-.5-5.5-.1-3.7.2-8.7.5-8,.7s5.6-.3,3.3.1c-7.3.5-8.5.2-11.6.8,4.6-.3,5.8-.1,5.7.1l-5.4.4,1-.2c-8.6.3-2.5.4-10.9.8h-3.9c2-.4,12.2-.5,10.6-.9-5.4.3-7.2.6-12.3.7l3.8-.3a78,78,0,0,0-11.6.3c-4,.3-1.1.2-1.1.4l-16.9,1.1c1.1-.4-9.9.4-3.7-.2,2.9.1,15.5-.5,18.5-1-3.2-.2,6.8-.3,8.7-.8-7,.3-6.7-.1-7.8-.3l-5,.4c-.8.3,1.7.2,1.9.4-7.8.3-15.3.8-19.6,1.2-2.6,0-1.8-.3,1.3-.4l-28,1.2c5.7.2-9.8.5-5.9.7s8.8,0,6.2.3.1-.2-1.2-.2c-3.8.4-5.9-.1-9.5.4,8.5-.5,1.6-.6,3.2-.9-6.1.4.3-.2-5.8,0l-20.3,1.2c-8.5,0-21.5.8-29.2,1-4,0-1.3-.5-5.6-.4s3.8.3-3.7.3h.7c-2.3.2-13.8.2-16,.8l2.3-.5-3.8.2c-.1-.1-1.7-.2.6-.3-4.6-.1-9.7.3-14.7.5h3c-8.6.4-14.4.3-22.7.6l.2-.2-4.9.3c1.2-.2-3.3-.3-6,0l12.9-.9c3.6,0-3.9.4-1.6.5a94.7,94.7,0,0,0,10.9-.4l-5.4.2c-1-.3,3.5-.4,5.7-.7H38c3-.2,6.1-.3,11.2-.5-3.4.2,1.9.1.6.3.4-.3,5.2-.5,11.5-.6,4.5.2,11.7-.6,19-.7-2.9.4-6.7.7-11.1,1l9.6-.2a90.107,90.107,0,0,1,9.7-1l.3.2c5.4-.3,5.4-.6,12.2-.8l32.7-1.1.3.2c5-.6,16.6-.8,23.3-1.3,11.4-.3,24.7-1.3,30.6-1.2l58.5-3.2-3.5.5c3.7-.4,2.4,0,6.1-.2-4.2,0,5.1-.6,7.6-.9,9.3-.3,21.2-1.2,29.4-1.9l.3.2c8.3-.9,18.2-1.1,28.6-1.8,1.2,0,3.1.1,6.2-.1,5.6-.7,8.5-.8,16.7-1.6l21.9-1.3c22.6-2,45.7-3.5,69.1-5.6h1.7c22.7-2.3,50.7-4.2,70.1-6.2l-1.8.6c6.1-.4,13.9-1.4,12.3-1.5,6.1-.4,15.2-1.6,19.1-1.6,6.2-.5,7.6-.9,12.8-1.4,12.5-1,17.1-1.5,28.9-2.8l-2.9.3c-1.3.2-1.4.4,1.6.1S586.4,4.9,582,4.8c12.6-1,29.2-3.2,41.5-4.1h.6l4-.5V19.1c0,5.8.1,10.5.3,14.9,0,1.8-.3-2.8-.2,1.7.1,2.7.2.1.3,3.3.7,17.9,1,36.3,2.1,52.5,2.1,28.9,4.9,59,8.4,86.5v-.3c1.5,9.2,2.5,21.7,4.1,28.9.2,2.2,1.2,8.3.8,6.7,1.4,7.3,3,20.5,5.2,31-.2-1-.3-1.5-.5-2.6,1.6,10.7,3.7,20,5.7,31.2-.3-1.1-.7-3.2-.9-3.5.7,4.4,2.4,10.2,2.5,12.6l.3,1.3c.1.4.2.6.2.5a3,3,0,0,0-.1-.7l-.2-1,1,5-19.8,1.6-18.5,1.6-37.3,3.2c-18.6,1.2-1.2-.7-15.8.8-1.2,0-.9.2-1.1.2-5.7.6-8.9.2-12.8.8,1.6.2-2.6.4-2.7.6-11.4.7-13.7.7-22.6,1.6l.7-.2c-10.5,1.3-22.7,2-31.5,3.2l-170,14.1c-55.9,4.4-110.5,9-167.2,13.3-13.3.7-14.3.8-28.9,2.1.6-.1,1.5-.2.5-.2s-10.3.9-11.6,1.3l-61.8,5c3.4-.3,5.1-.7,1-.4l-4.2.5h-.7c-2.8.3-5.8.7-2.9.6L20,339.3l.9-11,.6-8.4q.6-8.4,1-16.7.9-16.7,1.1-33.4c.4-22.2,0-44.4-1.3-66.4-.5-12.6-2-30.5-3.5-44.2-.9-10.1-2-20-3.2-29.7s-2.6-19.3-4.1-28.9C8.4,81.5,4.7,62.3,0,42.2c0,0,.5,1.3,1.5,4.6.5,1.7,1.1,3.9,1.8,6.7s1.5,6.3,2.4,10.4" fill="#0160aa"/>
    <path id="Path_7994" data-name="Path 7994" d="M13.9,41c1.5.1,6.2.1,2.4.4-.5-.1-2.9-.3-2.4-.4" fill="#0160aa"/>
    <path id="Path_7995" data-name="Path 7995" d="M140.4,38.7h2.2a33.175,33.175,0,0,1-4.3.2,10.5,10.5,0,0,0,2.1-.2" fill="#0160aa"/>
    <path id="Path_7996" data-name="Path 7996" d="M172.7,37.4c-.5.2-7.4.6-11.5.8Z" fill="#0160aa"/>
    <path id="Path_7997" data-name="Path 7997" d="M202.8,36.6c2.6,0,1.9.1-1.6.3-.3-.1.9-.2,1.6-.3" fill="#0160aa"/>
    <path id="Path_7998" data-name="Path 7998" d="M204.9,36.2h5c-.1-.1-5.8.4-5,.1" fill="#0160aa"/>
    <path id="Path_7999" data-name="Path 7999" d="M270.3,33.1c1.6-.1,5-.4,6.4-.3-1.6,0-7.6.6-6.4.3" fill="#0160aa"/>
    <path id="Path_8000" data-name="Path 8000" d="M300.6,31.1l2.5-.2c1.8,0-.1.2-1.6.3Z" fill="#0160aa"/>
    <path id="Path_8001" data-name="Path 8001" d="M643.4,227.3l-.6-3.2.2.4Z" fill="#0160aa"/>
    <path id="Path_8002" data-name="Path 8002" d="M473.2,299.5c-3.3.4-2.3,0-2.8.1,3-.3-1.1.3,2.8-.1" fill="#0160aa"/>
    <path id="Path_8003" data-name="Path 8003" d="M343,310.7l1-.1-.3.3Z" fill="#0160aa"/>
    <path id="Path_8004" data-name="Path 8004" d="M48.1,59.3c-.4-.9,0,.6-.3-.5a.6.6,0,0,1,.3.5" fill="#0160aa"/>
    <path id="Path_8005" data-name="Path 8005" d="M77.3,316.8c-.2-3.2,1.2-7.2,1.2-10.7,0-.4.4.2.4-.8-.1-3.4,1-8.5,1.9-12.5v.3a22.534,22.534,0,0,0,0-2.6c.1-.9.1.3.2.1a4.2,4.2,0,0,0-.1-1.9c-.2-.4.3-.3.5-.7l-.2-.5c-.5-1.4.4-3.2.2-5,.1.1.1.3.2.1-.1-2.9.3-6.4.4-9.6.1.1.3.3.4.1s-.3-1.2-.3-2a7.178,7.178,0,0,1,.1-2.5h.1c-.2-.8.3-1.1-.1-1.7l.3-.5c-.4-.4.3-1.1.1-1.7h-.1c-.1-.6.2-.9.1-1.4h.1c0-1.3.2-2-.1-2s0,1.2.5.6,0-4.2,0-6.3.1-4.2.2-6.3a2.186,2.186,0,0,1,.3-.9,12.3,12.3,0,0,0-.2-2c0,.1.2-.3.2-.5a4.95,4.95,0,0,1-.2-1.7c.1-.9.2.4.3.3a11.6,11.6,0,0,1-.3-2.5c.1.1.1.3.2.3a7.388,7.388,0,0,0-.1-2.5l.2.3c.2-1.3-.4-.4-.2-1.5s.1.2.2.2a25.7,25.7,0,0,1-.3-3.8h.1c-.1-1.1,0-2.3-.1-3.6s.5.1.4-1.1-.2-2-.6-1.3a19.5,19.5,0,0,0,0-3.3c.2.5.4-.5.5.3l.2-.7c.2.1,0,.7.2.5a19.3,19.3,0,0,1-.2-2.1,9.4,9.4,0,0,1-.8-2.8c.2.6.4-.4.5.1l-.8-1.8c0-.4.3-.1.2-.7s-.2-.2-.3-.4-.2-1.8.2-2,.1.7.2.2-.2-.8-.2-1.6h0c0-.5-.2-1.5-.4-.9s.2-.1.1.4a5.5,5.5,0,0,1-.4-2.1c.1.3.2.2.3.3a22.7,22.7,0,0,1-.7-3.3c-.2,0,.3.4.3.6.1-1.5-.5-3.1-.3-4.4s-.2.1-.2.1a3.137,3.137,0,0,0,.1-1.2c-.1-.5-.1-.6-.2-1.1s.1-.1.1.3a22.4,22.4,0,0,1-.6-5,3,3,0,0,1-.5-1.3h.2c.1-.3-.1-1.2.1-1.3s.5,2.9.2,1.9-.5-1.4-.2-1.2a6.8,6.8,0,0,1-.2-2.1c0,.2.4.6.3,0a9.683,9.683,0,0,0-.3-1.1v-.5c-.2,0-.1-.9-.3-.5s-.3-1.5.1-1.4h.3a3.328,3.328,0,0,0-.6-1v-.2c-.4,0-.1-1.1-.5-1.6a3.862,3.862,0,0,1,0-2.8,6.9,6.9,0,0,1-.4-2.2c.1.2.1.4.2.4a2.1,2.1,0,0,0-.2-1.1,9.9,9.9,0,0,0,.2-1.6c-.2-.7-.4-.4-.6-.5a4.6,4.6,0,0,1-.3-2.8c.3-.8.4,1,.4.4s-.5-1.3-.4-2.3l-.3.3c.2-.5-.4-1.5,0-1.5s-.1-1.2-.4-1.1c.1-1.8-.7-4.1-.3-5.3s-.1-.9-.3-.7.2.5.1.7-.2-.2-.2-.3,0-1,.3-.5c0-1.2-.8-1.1-.9-2.7.2,0,.2-.1.1-.5l-.4-.8c-.1-1,.2-.6.5-.7a3.6,3.6,0,0,0-.4-1.4l.2-.7c-.1.5-.2-.4-.3-.6v.2c.1-.1-.1-.7-.2-1s-.1.7-.1,1.1-.2-.7-.4-1,0-.9,0-1.3-.3-.5-.3-.6-.1-.8.1-.4-.1.4.1.6.3-.3,0-.9-.5.2-.5-.7l.3.4v-.9h-.1c-.3-.2-.3-1.3-.6-1.5a12.7,12.7,0,0,1-.1-1.4h0a3.2,3.2,0,0,0-.4-1.6h.1a4.2,4.2,0,0,0-.4-1.3c0-.7.8-.4.4-1.1s-.6-1-.7-.7c-.1-1.3-.8-2.7-.7-3.9s-.2,0-.3-.4c-.3-1.9-1.1-3.9-1-5.5.2.5.2,0,.3-.1a.5.5,0,0,0-.3-.7c-.4-.1-.3.1-.3.6a13.2,13.2,0,0,1-.7-3.4c0,.3-.1.1-.2-.1s.2-.8-.1-1.4h-.2v-.4c-.1-.2-.5-.2-.4-.8l.2-.2a5.7,5.7,0,0,1-.8-2.2v-.6c-.1-.3-.4-.7-.3-.2a8.3,8.3,0,0,1-.2-2.4,31.2,31.2,0,0,1-2.5-7.2h.2c0-.7-.3-.3-.4-.7s.2-.6.5-.1-.6-1.1-.8-1.7.2.4,0,.4-.2-1.3-.5-1.4.3-.1.4,0l-.3-.5c.1-.8,1,1.4,1.2.6l-.2-.5c.2-.6.7,1.3.5-.1s-.8-.9-.8-.4c-.4-1.1-.8-.3-1.1-1.6s.3,1,.5.7-.4-1.1-.5-1.7-.4.2-.5-.2.4.3.2-.6-.6-.9-.5-.1-.2-1-.6-1.4.9.7.7-.3-.7-1.1-.9-.5.1-.5.4-.3-.8-1.2-.4-1.5h0a2.485,2.485,0,0,1,.1-.8c.1-.3-.8-1.5-.4-1.5s-.4-1.2-.5-.7.4.7.2,1.2-.3-1-.5-1.3H62c-.1-.2-.3-.8-.5-.9s.2,0,.2-.2l-.3-.2c-.4-.9.3-.3,0-1.3l.4.7c-.1-.1,0-.5-.2-.9l-.8-.5c-.3-.5.2-.3-.2-.8l.5.6c.1.1.2-.6,0-1.3s-.7-1-.6-.3-.1-.9.1-.6-.2.2-.5-.5,0-1.3,0-1.8l.6.6v-.5c.5.5.1-.4.5-.1a3.1,3.1,0,0,0-.5-1c-.2,1.1-1-.9-1.3-.4-.5-1.3.7-1.1-.4-2.3s-.6-.3-.2.5c-.2-.8-.6-.4-.7-1.4.4.6.2-.9.8,0s.1.6.2.7.4-.1.2-.9-.4-1.2-.6-1,.3.8-.1.5-.1-1.3-.7-1.5.1.9-.1.9l-.3-.7h.2c-.3-1.2-.4-.2-.7-1.4v-.6c.4.2.4,1.7.8,1.3s-.5-.9-.7-1.7l.3.5c-.1-.3.4-.7-.3-1.7s-.2-.1-.4,0-.8-1.5-1.1-2.2-.4-1.4.2-.6a4.7,4.7,0,0,0,1,2.5c.2-.6.3.9.8,1.1s.1-1,.3-1.3a2.3,2.3,0,0,0-.4-.6c-.3,0-.1.3-.4.4a7.5,7.5,0,0,0-1.2-2.6c0-.4.3-.4.4,0A38.3,38.3,0,0,1,55,78.5c-.1.9-.6-1.3-.7-.7s.1,1.3-.2,1,.2,0,.2-.2a1.654,1.654,0,0,0-.5-1.3c-.5-.4.5.1.9.2s.2,0-.1-.9q-.887-.759-1.7-1.6a17.4,17.4,0,0,0-1.5-3.9c-.1-.6.4-.4.2-1s-.2.6-.4-.4h.1c-.2-.3-.5-1.9-1.1-2l.5.2a1.3,1.3,0,0,0-.3-.5c.1-.1.1-.3.3,0s-.6-1.3-.8-2v.5c-.6-1.1-.7-1.9-1.3-3h.2l-.4-.6c.3.1.1-.6-.2-.9l1.2,1.5c.1.5-.5-.4-.5,0a2.1,2.1,0,0,0,.7,1.4,1.8,1.8,0,0,0-.4-.7c.2-.2.5.4.8.6s-.1-.5-.2-.5a5,5,0,0,1,.8,1.4c-.3-.4-.1.3-.2.2a5.006,5.006,0,0,1,.9,1.4c.3.8.8,1.5,1.1,2.5a4.3,4.3,0,0,1-1.2-1.3c.1.7.3.7.4,1.3a2.6,2.6,0,0,1,1.1,1.1h-.2c.4.7.7.6,1,1.5L55,76.3h-.2c.7.5,1,2.2,1.5,3a10.8,10.8,0,0,1,1.3,4.2,79.3,79.3,0,0,1,3,7.9l-.4-.4c.4.4,0,.4.2.9s.5.6.8.9a15,15,0,0,0,1.5,4h-.2c.7,1,.8,2.5,1.2,4a1.6,1.6,0,0,0,0,.9,9.2,9.2,0,0,1,1.2,2.2,26.8,26.8,0,0,1,.7,3.1c1.4,3,2,6.3,3.2,9.5l-.2.3c1.4,3,1.9,7.1,2.9,9.8l-.5-.2c.1.9.6,1.9.8,1.6s.7,2.1.5,2.7.4,1,.7,1.8a25.7,25.7,0,0,0,.9,4.1v-.4c-.1-.2-.3-.1-.2.3s.4,2.3.8,1.6c.1,1.8,1.1,4.1,1.1,5.9.1-.2.2.3.3.4a32.8,32.8,0,0,0,.9,4.5c0,.3-.3-.4-.2.3s.2,0,.3.4c.7,2.5.7,5.2,1.2,7.5,1,4.1,1.5,8.4,2.2,12.4h-.1c.6,1.3.1,3.2.8,4.2s.1,1.2-.1,1,.2,3,.7,4.5a1.1,1.1,0,0,0-.1-.4c0,1.6.5,2.9.4,4.6-.1-.2-.1-.5-.2-.5s.6,1.5.2,1.9.3.2.2,0c.2,3.6,1,7.4,1.4,11.2s-.8.2-.2,2.3c-.1.2.2.1.1.1a2.744,2.744,0,0,0-.1,1.9c.3.6.2.4.4.4a10,10,0,0,0,0,3.3h-.2c.5,1.5.4,3.3,1,4.5.6,8.4,1.2,16.5,1.3,24.7s.1,16.1-.5,24.3a11,11,0,0,0-.4,4.2c-.1-.1-.1-.2-.1-.1s-.1,1.5.2,1.7l-.6,9c0-.5-.2-.8-.3-.2l.2.6h-.1c0,.4.1.9.3.4-.3,7.9-1.8,15.5-2.7,23.2a62.126,62.126,0,0,0-.8,6.4,162.276,162.276,0,0,0-3.2,16.9s-.7-.9-.5-3.4" fill="#0160aa"/>
    <path id="Path_8006" data-name="Path 8006" d="M48.6,60.4c-.1.3.1.9-.3.5s.1-.5.3-.5" fill="#0160aa"/>
    <path id="Path_8007" data-name="Path 8007" d="M53.7,78c.1,0,0,.3,0,.3a1.628,1.628,0,0,1-.3-.6c0-.2.2.1.3.2" fill="#0160aa"/>
    <path id="Path_8008" data-name="Path 8008" d="M55.2,82.4c-.2,0-.6-.9-.8-1.5Z" fill="#0160aa"/>
    <path id="Path_8009" data-name="Path 8009" d="M56.1,86.6c0,.4-.1.3-.3-.2l.3.2" fill="#0160aa"/>
    <path id="Path_8010" data-name="Path 8010" d="M56.5,86.8a1.4,1.4,0,0,1,.1.7c.1-.1-.4-.8-.1-.7" fill="#0160aa"/>
    <path id="Path_8011" data-name="Path 8011" d="M59.1,95.9a2.39,2.39,0,0,1,.3.9c0,.3-.5-1-.3-.9" fill="#0160aa"/>
    <path id="Path_8012" data-name="Path 8012" d="M60.6,100a.9.9,0,0,0,.1.3c0,.3-.2,0-.2-.2Z" fill="#0160aa"/>
    <path id="Path_8013" data-name="Path 8013" d="M78.5,177.5l-.1-.5.1.1Z" fill="#0160aa"/>
    <path id="Path_8014" data-name="Path 8014" d="M81.8,212.2c.1.5-.1.3-.1.4s.2.1.1-.4" fill="#0160aa"/>
    <path id="Path_8015" data-name="Path 8015" d="M83.2,231v-.1h.3Z" fill="#0160aa"/>
    <path id="Path_8016" data-name="Path 8016" d="M82.1,56.4c-.3-.9-.1.6-.3-.6a.6.6,0,0,1,.3.6" fill="#0160aa"/>
    <path id="Path_8017" data-name="Path 8017" d="M100.2,314.8c-.3-3.2.9-7.2.9-10.6,0-.4.4.2.4-.8-.2-3.4.7-8.5,1.5-12.5v.3a20.852,20.852,0,0,0,0-2.5c.1-.8.1.3.2.1a5.6,5.6,0,0,0-.1-1.8c-.1-.3.3-.3.4-.7l-.2-.5c-.5-1.3.3-3.1.1-4.9.1.1.1.3.2.1-.1-2.9.2-6.4.2-9.6.1.1.3.3.4.1s-.3-1.2-.3-2a10.417,10.417,0,0,1,0-2.5h.1c-.3-.8.2-1.1-.1-1.7l.3-.5c-.4-.3.3-1.1.1-1.7h-.1c-.1-.6.2-.9.1-1.4h.1c0-1.3.2-2-.1-2s.1,1.2.5.5c-.1-4.1.1-8.4.2-12.5a2.186,2.186,0,0,1,.3-.9,12.3,12.3,0,0,0-.2-1.9c0,.1.2-.3.2-.5a4.95,4.95,0,0,1-.2-1.7c.1-.9.2.4.3.3a11.4,11.4,0,0,1-.2-2.5c.1.1.1.3.2.3a7.388,7.388,0,0,0-.1-2.5l.2.3c.2-1.3-.4-.4-.2-1.5s.1.2.2.2a21.4,21.4,0,0,1-.3-3.8h.1a20.765,20.765,0,0,0-.1-3.5c-.2-1.2.5.1.4-1s-.2-2-.6-1.3a20.3,20.3,0,0,0,0-3.3c.1.5.5-.5.5.3l.2-.6c.2.1,0,.7.1.5a19.1,19.1,0,0,1-.1-2,9.3,9.3,0,0,1-.7-2.8c.2.6.4-.3.5.1l-.8-1.8c0-.4.3-.1.2-.7s-.2-.2-.2-.4-.1-1.8.2-2,.1.7.2.2-.1-.8-.2-1.6h0c0-.5-.2-1.5-.4-1s.2-.1.1.4a5.4,5.4,0,0,1-.3-2c.1.3.2.2.3.3a24.7,24.7,0,0,1-.6-3.3c-.2,0,.3.4.2.6.2-1.5-.5-3.1-.2-4.4s-.2.1-.2.1a3.137,3.137,0,0,0,.1-1.2,4.1,4.1,0,0,1-.1-1.1c0-.5.1-.1.1.3a24.3,24.3,0,0,1-.4-4.9,3,3,0,0,1-.4-1.3h.2c.1-.3-.1-1.2.1-1.3s.4,2.9.1,1.9-.4-1.4-.1-1.2a6.8,6.8,0,0,1-.2-2.1c0,.2.3.6.3,0s-.1-.3-.2-1.1v-.5c-.2,0,0-.9-.2-.5s-.2-1.5.2-1.4h.3a1.905,1.905,0,0,0-.5-1v-.2c-.4,0,0-1.1-.4-1.6a3.852,3.852,0,0,1,.1-2.8,6.8,6.8,0,0,1-.4-2.2c.1.2.1.4.2.4a2,2,0,0,0-.1-1.1,10.1,10.1,0,0,0,.3-1.6c-.2-.7-.4-.4-.6-.5a4.926,4.926,0,0,1-.1-2.8c.3-.8.3,1,.4.4s-.4-1.3-.3-2.3l-.3.3c.2-.5-.3-1.5,0-1.4s0-1.2-.3-1.1c.1-1.7-.6-4.2,0-5.3s-.1-.9-.2-.7.2.6.1.7-.1-.3-.2-.3,0-1,.4-.5c.1-1.2-.7-1.2-.7-2.7.2.1.2-.1.1-.5l-.3-.8c0-1,.3-.6.5-.6a3.6,3.6,0,0,0-.4-1.4l.2-.7c-.2.5-.2-.4-.3-.7v.2c.1-.1,0-.7-.1-1s-.1.7-.1,1.1-.2-.7-.3-1a6.151,6.151,0,0,1,.1-1.3c0-.4-.3-.5-.3-.6s-.1-.8.1-.4-.1.4.1.6.3-.3,0-.9-.5.2-.4-.8.2.3.3.4v-.9h-.1c-.3-.2-.2-1.3-.5-1.5a12.3,12.3,0,0,1,0-1.4h0a3.1,3.1,0,0,0-.3-1.6h.1a4.1,4.1,0,0,0-.3-1.3c.1-.7.8-.3.4-1.1s-.6-1.1-.7-.8c0-1.3-.6-2.7-.4-3.9s-.2,0-.3-.4c-.2-1.9-.8-3.9-.6-5.5.2.5.2,0,.3,0s.1-.6-.2-.7-.3,0-.3.6a13.8,13.8,0,0,1-.4-3.5c0,.3-.1.1-.2-.1s.3-.8,0-1.4h-.2v-.4c-.1-.2-.4-.2-.4-.9l.2-.2a5.5,5.5,0,0,1-.6-2.2l.2-.6c-.1-.3-.3-.8-.3-.2a8.2,8.2,0,0,1,0-2.4,30.7,30.7,0,0,1-1.9-7.3h.2c0-.7-.3-.3-.3-.8s.2-.5.5-.1-.5-1.1-.6-1.7.2.5-.1.4-.1-1.3-.4-1.4.3-.1.5,0l-.2-.5c.2-.7.9,1.5,1.2.7V114c.2-.5.6,1.3.5,0s-.8-.9-.8-.4c-.3-1.2-.8-.4-1-1.7s.2,1,.4.7-.4-1.2-.4-1.7-.4.2-.5-.2.3.4.2-.5-.5-.9-.5-.2-.1-1-.5-1.4.8.8.7-.2-.6-1.2-.9-.6.2-.5.4-.2-.7-1.3-.3-1.5h-.3c0-.2.1-.5.1-.8s-.7-1.5-.3-1.5-.3-1.3-.5-.8.4.8.1,1.2-.2-1-.4-1.4h.1c-.1-.2-.2-.8-.4-.9s.2,0,.2-.2l-.3-.2c-.3-.9.4-.3.1-1.2l.3.7c-.1-.1.1-.5-.1-1l-.8-.5c-.2-.5.2-.3-.1-.8l.4.6c.1.1.2-.5.1-1.2s-.6-1.1-.6-.3-.1-.9.2-.6-.2.2-.5-.5.1-1.2.2-1.8l.5.7v-.5c.4.6.1-.4.5-.1a3.1,3.1,0,0,0-.4-1c-.3,1.1-.9-.9-1.3-.6-.4-1.3.9-1.1-.1-2.3s-.5-.3-.2.5c-.1-.8-.6-.5-.6-1.5.3.7.3-.9.8.1s0,.6.1.8.4,0,.3-.9-.3-1.2-.5-1.1.2.8-.1.5,0-1.3-.5-1.6,0,.9-.2.9l-.3-.7h.2c-.2-1.2-.4-.3-.6-1.5l.2-.6c.3.2.3,1.7.7,1.4s-.4-1-.5-1.7l.2.5c0-.3.5-.7-.1-1.7s-.2-.1-.4-.1-.6-1.5-.8-2.3-.3-1.4.2-.6a4.6,4.6,0,0,0,.7,2.6c.3-.5.2,1,.6,1.1s.2-1,.4-1.2a2.2,2.2,0,0,0-.3-.7c-.3-.1-.2.3-.4.4a7.4,7.4,0,0,0-.9-2.7c0-.4.3-.3.4.1a38.5,38.5,0,0,1-.9-3.9c-.2.9-.4-1.3-.6-.7s-.1,1.3-.3,1,.2,0,.2-.2A1.745,1.745,0,0,0,85,76c.4,1.1.5.1.9.3s.2,0,0-.9a27.3,27.3,0,0,1-1.1-2.7,18.9,18.9,0,0,0-1-4c0-.6.4-.3.3-.9s-.2.6-.3-.5H84c-.2-.3-.3-2-.8-2.1l.5.2a1.4,1.4,0,0,0-.2-.5c.1,0,.2-.3.3,0s-.4-1.3-.6-2v.5c-.5-1.1-.5-2-.9-3.1h.2l-.3-.6c.3.1.2-.6-.1-.9l1,1.6c0,.5-.4-.5-.5-.1a2.1,2.1,0,0,0,.5,1.5,1.8,1.8,0,0,0-.3-.7c.3-.2.4.4.7.7s-.1-.5-.2-.6a4.7,4.7,0,0,1,.6,1.5c-.2-.4-.1.3-.2.2a4.766,4.766,0,0,1,.7,1.5c.2.9.6,1.6.8,2.6a4.3,4.3,0,0,1-1-1.4c0,.7.2.7.2,1.4a2.6,2.6,0,0,1,1,1.2h-.2c.3.7.6.6.8,1.6s.8,3.3,1,4.6h-.2c.6.6.7,2.3,1.1,3.2a13.233,13.233,0,0,1,.9,4.3c.8,2.8,1.5,5.2,2.1,8.1l-.4-.4c.3.5-.1.4.1.9s.5.6.7,1a14.3,14.3,0,0,0,1.1,4.1h-.2a12.362,12.362,0,0,1,.8,4,1.6,1.6,0,0,0-.1.9,10.2,10.2,0,0,1,1,2.3,26.3,26.3,0,0,1,.4,3.1c1.1,3.1,1.4,6.4,2.3,9.7l-.2.3c1.1,3.1,1.3,7.2,2,9.9l-.4-.2c0,.9.4,2,.7,1.7s.5,2.1.3,2.7a7.9,7.9,0,0,0,.5,1.8,25.4,25.4,0,0,0,.6,4.1v-.4c-.1-.2-.3-.2-.3.3s.2,2.3.6,1.6c0,1.8.8,4.2.7,6,.1-.2.2.3.3.4a31.6,31.6,0,0,0,.5,4.5c0,.3-.3-.4-.2.3s.2,0,.3.4c.6,2.5.4,5.2.7,7.5s.6,4.2.9,6.3l.6,6.2h-.1c.5,1.3-.1,3.2.6,4.2s.1,1.2-.1,1,0,3,.5,4.5a1.1,1.1,0,0,0-.1-.4c-.1,1.6.3,2.9.2,4.6-.1-.2-.1-.5-.2-.5s.5,1.5.1,1.8.3.2.2,0c.1,3.6.6,7.4.9,11.1s-.8.2-.3,2.3c-.1.2.2.1.1.1a2.611,2.611,0,0,0-.2,1.9c.3.6.2.4.4.4-.1,1.6-.4,2-.1,3.3h-.2c.5,1.5.3,3.3.9,4.5l.5,12.3c.1,4.1.3,8.1.3,12.2s-.1,8-.2,12c0,2-.1,4-.2,6s-.2,4-.4,6.1a10.7,10.7,0,0,0-.4,4.2c-.1-.1-.1-.2-.1-.1s0,1.5.3,1.7c-.2,3-.3,5.8-.5,8.9,0-.5-.3-.8-.3-.2l.2.6h-.1c0,.4.2.8.3.4-.2,7.8-1.6,15.4-2.2,23.1a63.251,63.251,0,0,0-.6,6.4,159.6,159.6,0,0,0-2.6,16.9s-.7-.9-.6-3.3" fill="#0160aa"/>
    <path id="Path_8018" data-name="Path 8018" d="M82.4,57.5c-.1.2,0,.9-.4.5s.2-.5.4-.5" fill="#0160aa"/>
    <path id="Path_8019" data-name="Path 8019" d="M85.4,75.4c.1,0,0,.3,0,.3a2.015,2.015,0,0,1-.2-.6c0-.2.1.2.2.2" fill="#0160aa"/>
    <path id="Path_8020" data-name="Path 8020" d="M86.4,80a4.2,4.2,0,0,1-.7-1.5Z" fill="#0160aa"/>
    <path id="Path_8021" data-name="Path 8021" d="M86.8,84.3c0,.4-.1.3-.2-.2s.1.1.2.2" fill="#0160aa"/>
    <path id="Path_8022" data-name="Path 8022" d="M87.2,84.5a1.4,1.4,0,0,1,0,.7c.1,0-.3-.8,0-.7" fill="#0160aa"/>
    <path id="Path_8023" data-name="Path 8023" d="M88.9,93.7c.1.2.3.7.2.9s-.4-1-.2-.9" fill="#0160aa"/>
    <path id="Path_8024" data-name="Path 8024" d="M90,97.9a.9.9,0,0,0,.1.4c0,.3-.2,0-.2-.2Z" fill="#0160aa"/>
    <path id="Path_8025" data-name="Path 8025" d="M102.1,176.1l-.1-.4h.1Z" fill="#0160aa"/>
    <path id="Path_8026" data-name="Path 8026" d="M104.1,210.8c.1.5-.1.3-.1.4s.2.2.1-.4" fill="#0160aa"/>
    <path id="Path_8027" data-name="Path 8027" d="M105.1,229.5v-.2l.3.1Z" fill="#0160aa"/>
    <path id="Path_8028" data-name="Path 8028" d="M588.9,25.5c0-.9-.3.5-.1-.6a.5.5,0,0,1,.1.6" fill="#0160aa"/>
    <path id="Path_8029" data-name="Path 8029" d="M610.2,267.9c-1.3-2.7-1.3-6.6-2.4-9.7-.1-.4.4,0,.2-.8-1.2-2.9-1.7-7.8-1.9-11.6l.2.2c0-.7-.6-1.5-.7-2.3s.2.2.2,0a3.977,3.977,0,0,0-.6-1.6c-.3-.3.2-.3.3-.7l-.3-.4c-.8-1.1-.5-2.9-1.1-4.5.1.1.2.2.2.1-.8-2.6-1.3-5.9-1.9-8.8.1.1.3.2.4,0s-.5-1-.7-1.8a7.788,7.788,0,0,1-.5-2.3h.1c-.4-.6,0-1-.4-1.5l.2-.5c-.5-.2.1-1-.2-1.6H601c-.2-.5,0-.8-.2-1.3h0c-.3-1.1-.2-1.8-.5-1.8s.3,1.1.6.4c-.9-3.8-1.4-7.7-2-11.5a4.116,4.116,0,0,1,.2-.9,10.9,10.9,0,0,0-.5-1.8c0,.1.1-.3.1-.5a3.023,3.023,0,0,1-.4-1.5c.1-.8.2.4.3.3a10,10,0,0,1-.6-2.3c.1.1.1.3.2.3a6.29,6.29,0,0,0-.4-2.3l.2.3c.1-1.2-.4-.3-.4-1.4s.2.1.2.2a18.7,18.7,0,0,1-.8-3.4h.1c-.2-1-.2-2.1-.5-3.3s.5.1.3-1-.4-1.9-.7-1.2a17.9,17.9,0,0,0-.3-3.1c.2.4.4-.5.5.3V184c.2.1,0,.6.2.4a17.3,17.3,0,0,1-.3-1.9,8.2,8.2,0,0,1-1-2.5c.2.5.4-.4.5,0l-.9-1.6c-.1-.4.3-.1.1-.7s-.2-.2-.3-.4-.3-1.6.1-1.8.1.6.2.2-.2-.7-.3-1.5h0c0-.5-.3-1.4-.5-.9s.2-.2.2.4a4.8,4.8,0,0,1-.5-1.9c.1.2.2.2.3.3a16.893,16.893,0,0,1-.8-3.1c-.2,0,.4.4.3.5.1-1.4-.6-2.9-.4-4.1s-.2.1-.2.1a2.814,2.814,0,0,0,.1-1.1c-.1-.4-.1-.5-.2-1s.1-.1.1.3a18.5,18.5,0,0,1-.6-4.6,4.781,4.781,0,0,1-.5-1.2h.2c.1-.3-.1-1.1.1-1.2s.5,2.7.2,1.8-.5-1.3-.2-1.1a5.9,5.9,0,0,1-.2-2c0,.2.4.5.3,0a9.258,9.258,0,0,0-.3-1v-.5c-.2,0-.1-.9-.3-.5s-.2-1.4.1-1.3h.3c-.1-.4-.4-.6-.5-1v-.2c-.5,0-.1-1-.4-1.5a3.851,3.851,0,0,1,.1-2.6,6,6,0,0,1-.4-2c.1.1.1.4.2.4a1.8,1.8,0,0,0-.1-1,8.9,8.9,0,0,0,.3-1.5c-.2-.7-.4-.4-.6-.5a3.648,3.648,0,0,1-.1-2.6c.4-.7.3,1,.4.4s-.4-1.2-.3-2.2l-.3.3c.2-.5-.3-1.4.1-1.4s0-1.2-.3-1c.2-1.6-.5-3.9.1-4.9s-.1-.8-.2-.7.2.5.1.7-.1-.2-.2-.3,0-.9.4-.5c.1-1.1-.7-1.1-.6-2.5s.2-.1.1-.5l-.3-.8c0-.9.3-.5.5-.6a3.2,3.2,0,0,0-.3-1.3l.3-.6c-.2.4-.2-.4-.3-.6v.2c.1-.1,0-.7-.1-.9s-.2.7-.2,1-.1-.6-.3-1,.1-.8.1-1.2-.3-.5-.3-.6,0-.7.2-.4-.1.4,0,.6.3-.3.1-.9-.5.1-.4-.7.2.3.3.4v-.8h-.1c-.2-.2-.1-1.2-.4-1.4a10.687,10.687,0,0,1,.1-1.3h0a2.8,2.8,0,0,0-.2-1.5h0a3.6,3.6,0,0,0-.2-1.2c.1-.7.8-.3.5-1s-.5-1-.6-.8c.1-1.2-.4-2.6-.1-3.7s-.2-.1-.2-.4-.5-3.8-.1-5.2c.1.5.2,0,.4,0s.2-.5-.2-.7-.3,0-.4.5a11.3,11.3,0,0,1-.1-3.3c-.1.3-.2.1-.2-.2s.3-.7.2-1.3h-.2l.2-.4c-.1-.2-.4-.2-.3-.8l.2-.2a4.7,4.7,0,0,1-.4-2.1l.3-.6c0-.3-.2-.8-.3-.3a7.4,7.4,0,0,1,.4-2.2,24.7,24.7,0,0,1-.8-7.1h.2c.1-.6-.3-.3-.2-.7s.3-.5.5,0-.3-1.1-.4-1.7.1.5-.1.4.1-1.2-.2-1.3.3-.1.4.1l-.2-.5c.3-.7.6,1.5,1,.8v-.5c.3-.5.4,1.3.4.1s-.6-1-.7-.5c-.1-1.1-.7-.5-.7-1.7s.1,1,.3.7-.2-1.1-.1-1.6-.4.1-.5-.3.3.4.3-.5-.3-.9-.4-.2.1-.9-.2-1.4.6.9.8-.1-.4-1.2-.7-.7.3-.4.4-.1-.5-1.3,0-1.5l-.3-.2.3-.7c0-.5-.4-1.5,0-1.5s0-1.2-.3-.8.2.8-.2,1.1-.1-1-.2-1.3h.2c-.1-.2,0-.8-.2-.9s.2.1.2-.1l-.2-.2c-.1-.9.4-.2.3-1.1l.2.7a1.973,1.973,0,0,0,.1-.9l-.6-.6c-.1-.5.2-.2,0-.7l.3.7c.1.1.3-.4.3-1.1s-.4-1.1-.5-.4.1-.8.3-.6-.2.1-.4-.6.3-1.1.5-1.6l.4.7v-.5c.3.6.2-.3.5,0a2.8,2.8,0,0,0-.1-1c-.5.9-.7-1-1.1-.8-.1-1.3,1.1-.8.4-2.1-.1.2-.5-.4-.3.4,0-.8-.4-.5-.3-1.5.2.7.4-.7.7.3s-.1.6-.1.7.4.1.4-.7-.1-1.2-.3-1.1,0,.8-.2.4.3-1.1-.2-1.6-.2.8-.4.8v-.7h.2c.1-1.2-.3-.3-.3-1.5l.3-.5c.3.3-.1,1.6.3,1.4s-.2-1-.1-1.7v.5c0-.3.6-.5.3-1.6s-.2-.1-.3-.2A18.829,18.829,0,0,1,586,49c-.1-.8,0-1.3.4-.5a4.1,4.1,0,0,0,.1,2.5c.4-.4-.1.9.4,1.2s.4-.9.7-1a2,2,0,0,0-.1-.7c-.2-.1-.2.2-.5.3a6.5,6.5,0,0,0-.3-2.6c.1-.3.4-.2.4.2a30.187,30.187,0,0,1,0-3.8c-.4.8-.1-1.3-.4-.8s-.4,1.2-.6.8.2,0,.3-.2a1.192,1.192,0,0,0,0-1.3c.1,1.1.5.2.8.4s.2,0,.2-.8A20.484,20.484,0,0,1,587,40a16.6,16.6,0,0,0,0-3.9c.2-.5.5-.2.6-.7s-.4.5-.2-.5h.1c-.1-.3.3-1.8-.2-2.1l.4.3a1.2,1.2,0,0,0-.1-.5c.1,0,.2-.2.3.1a11.486,11.486,0,0,0,0-2l-.2.4a29.224,29.224,0,0,1,0-3h.2v-.7c.2.2.4-.4.2-.8l.5,1.7c-.1.5-.3-.5-.5-.2a1.8,1.8,0,0,0,.1,1.5,1.5,1.5,0,0,0-.1-.7c.3-.1.3.5.5.8s.1-.5,0-.5a4.4,4.4,0,0,1,.2,1.5c-.1-.5-.2.2-.3.1a8.018,8.018,0,0,1,.3,1.5,20.076,20.076,0,0,1,.1,2.5,3.8,3.8,0,0,1-.6-1.5c-.1.6,0,.7-.1,1.3a2.4,2.4,0,0,1,.6,1.3h-.2c.1.7.4.7.3,1.6s-.1,3.2-.2,4.4h-.2c.4.7.2,2.2.3,3.1a11.23,11.23,0,0,1-.2,4.1c.2,2.7.3,5.1.3,7.9l-.3-.5c.2.5-.2.3-.1.8a2.345,2.345,0,0,0,.5,1,11.8,11.8,0,0,0,.3,3.9h-.2c.4,1.1.1,2.4,0,3.8a1.4,1.4,0,0,0-.2.8,9,9,0,0,1,.5,2.2,24.1,24.1,0,0,1-.1,2.9c.5,3,.3,6.1.7,9.3l-.2.2c.6,3,.3,6.8.6,9.4l-.4-.2c-.1.8.2,1.9.5,1.6s.3,2,0,2.6.2,1,.3,1.7a21.7,21.7,0,0,0,.1,3.9V100c-.1-.2-.3-.2-.3.2s0,2.2.5,1.6c-.2,1.7.4,3.9.1,5.6.1-.1.2.3.3.4a27.1,27.1,0,0,0,.2,4.2c-.1.2-.2-.4-.2.2s.2,0,.3.4c.4,2.4,0,4.9.2,7,.5,3.9.6,7.9,1,11.6h-.1c.5,1.2-.2,2.9.5,3.9s0,1.1-.2.9,0,2.8.4,4.2a.9.9,0,0,0-.1-.4c-.1,1.5.3,2.7.3,4.3-.1-.2-.1-.4-.2-.5s.5,1.4.1,1.7.3.2.2,0a90.283,90.283,0,0,0,1.2,10.3c.5,3.4-.8.2-.2,2.2-.1.2.2.1.1.1a2.243,2.243,0,0,0-.1,1.7c.3.5.2.3.4.3,0,1.5-.3,1.9.1,3h-.2c.6,1.4.5,3,1.1,4.1.9,7.7,2.1,15.1,3.1,22.6s2.1,14.7,3,22.3a8.9,8.9,0,0,0,.3,3.9c-.1-.1-.1-.2-.1-.1s.2,1.4.6,1.5c.4,2.8.9,5.3,1.3,8.2-.1-.4-.4-.6-.3-.1l.3.5h-.1c.1.4.3.7.4.3,1.5,7.1,2,14.3,3.4,21.3a53.791,53.791,0,0,0,1.1,5.8,104.2,104.2,0,0,0,2.6,15.7s-1-.5-1.6-2.7" fill="#0160aa"/>
    <path id="Path_8030" data-name="Path 8030" d="M588.9,26.6c-.2.2-.3.8-.5.3s.3-.4.5-.3" fill="#0160aa"/>
    <path id="Path_8031" data-name="Path 8031" d="M587,43.5a1.007,1.007,0,0,0-.1.3,2.18,2.18,0,0,1-.1-.6c0-.2.1.2.2.3" fill="#0160aa"/>
    <path id="Path_8032" data-name="Path 8032" d="M586.9,47.9a3.6,3.6,0,0,1-.3-1.5Z" fill="#0160aa"/>
    <path id="Path_8033" data-name="Path 8033" d="M586.3,51.9c-.1.4-.2.3-.2-.2s.1.1.2.2" fill="#0160aa"/>
    <path id="Path_8034" data-name="Path 8034" d="M586.7,52.2a1.2,1.2,0,0,1-.2.7c.1,0-.1-.8.2-.7" fill="#0160aa"/>
    <path id="Path_8035" data-name="Path 8035" d="M586.3,61a2.719,2.719,0,0,1,0,.9c-.1.2-.2-1,0-.9" fill="#0160aa"/>
    <path id="Path_8036" data-name="Path 8036" d="M586.6,65.1a.8.8,0,0,0,0,.3c-.1.2-.2,0-.2-.2Z" fill="#0160aa"/>
    <path id="Path_8037" data-name="Path 8037" d="M590.7,139.3l-.1-.4h.1Z" fill="#0160aa"/>
    <path id="Path_8038" data-name="Path 8038" d="M593.8,171.7c.1.4-.1.3-.1.4s.2.1.1-.4" fill="#0160aa"/>
    <path id="Path_8039" data-name="Path 8039" d="M596.6,189.1v-.2h.3Z" fill="#0160aa"/>
    <path id="Path_8040" data-name="Path 8040" d="M567.8,18.6c0-1-.3.5,0-.6a.6.6,0,0,1,0,.6" fill="#0160aa"/>
    <path id="Path_8041" data-name="Path 8041" d="M592.7,276.7c-1.7-2.7-2.2-6.9-3.7-10.1-.1-.4.4,0,.1-.9-1.5-3-2.7-8.2-3.3-12.2l.2.2c-.1-.8-.8-1.6-.9-2.4s.2.2.2,0a5.146,5.146,0,0,0-.8-1.7c-.3-.3.2-.4.2-.8l-.4-.4c-1-1.1-.8-3.1-1.5-4.7.1.1.2.2.2.1a95.572,95.572,0,0,1-2.8-9.2c.1.1.3.2.4,0s-.6-1-.9-1.8a8.433,8.433,0,0,1-.7-2.4h.1c-.5-.7-.1-1.1-.6-1.6v-.5c-.5-.2,0-1.1-.4-1.6H578c-.2-.5-.1-.9-.3-1.4h0c-.4-1.2-.3-2-.6-1.9s.4,1.2.6.4c-1.2-4-2.1-8.1-2.9-12.2,0-.5,0-.8.1-.9a12.5,12.5,0,0,0-.6-1.9c0,.1.1-.3.1-.5a4.132,4.132,0,0,1-.5-1.6c0-.9.3.4.4.3a10.9,10.9,0,0,1-.8-2.4c.1.1.1.3.2.3a6.155,6.155,0,0,0-.6-2.4l.2.3c0-1.3-.5-.3-.5-1.4s.2.1.2.2a21.6,21.6,0,0,1-1-3.6h.1c-.2-1.1-.4-2.3-.7-3.5s.5.1.2-1.1-.5-2-.8-1.2a20.592,20.592,0,0,0-.5-3.3c.2.4.4-.6.5.3v-.7c.2.1.1.7.2.4a19.8,19.8,0,0,1-.4-2,8.6,8.6,0,0,1-1.1-2.6c.2.6.4-.4.5,0l-1-1.7c-.1-.4.3-.1.1-.7s-.2-.2-.3-.4-.4-1.7,0-2,.2.7.2.2a7.322,7.322,0,0,0-.4-1.6h0c0-.5-.4-1.5-.5-.9s.2-.2.2.4a5.4,5.4,0,0,1-.6-2c.1.3.2.2.3.3a20.2,20.2,0,0,1-.9-3.3c-.2,0,.4.4.3.6,0-1.5-.8-3.1-.6-4.4s-.2.1-.2.1a2.211,2.211,0,0,0,0-1.2,4.254,4.254,0,0,1-.2-1.1c-.1-.5.1-.1.1.3a20.3,20.3,0,0,1-.7-4.9,3,3,0,0,1-.5-1.3h.2c.1-.3-.2-1.2,0-1.3s.6,2.9.2,1.9-.5-1.4-.2-1.2a6.9,6.9,0,0,1-.3-2.1c0,.2.4.6.3,0a9.689,9.689,0,0,0-.3-1.1l-.2-.5c-.2,0-.1-.9-.3-.5s-.3-1.5.1-1.4h.3a9.293,9.293,0,0,0-.5-1v-.2c-.4,0-.1-1.1-.5-1.6a4.465,4.465,0,0,1,0-2.8,6.9,6.9,0,0,1-.4-2.2c.1.2.1.4.2.4a2.1,2.1,0,0,0-.2-1.1,10.1,10.1,0,0,0,.3-1.6c-.2-.7-.4-.4-.6-.5a4.926,4.926,0,0,1-.1-2.8c.3-.8.3,1,.4.4s-.4-1.3-.3-2.4l-.3.3c.2-.5-.3-1.5,0-1.5s0-1.2-.3-1.1c.2-1.8-.5-4.2.1-5.3s-.1-.9-.2-.7.2.6.1.7-.1-.3-.2-.3,0-1,.4-.5c.1-1.2-.7-1.2-.6-2.7.2.1.2-.1.1-.5l-.3-.8c0-1,.3-.6.5-.6a3.7,3.7,0,0,0-.3-1.4l.3-.7c-.2.5-.2-.4-.2-.7v.2c.1-.1,0-.7,0-1s-.2.7-.2,1-.1-.7-.3-1,.1-.9.1-1.3-.2-.5-.2-.7,0-.8.2-.4-.1.4,0,.6.3-.3.1-.9-.5.2-.4-.8.2.3.3.5V119H562c-.2-.3-.1-1.3-.4-1.5a10.391,10.391,0,0,1,.1-1.4h0a3.2,3.2,0,0,0-.2-1.6h0a4.1,4.1,0,0,0-.2-1.3c.1-.7.8-.3.5-1.1s-.4-1.1-.6-.8c.1-1.3-.3-2.8,0-4s-.1-.1-.2-.4c0-1.9-.4-4,0-5.6.1.6.2,0,.4,0s.2-.6-.1-.7-.3,0-.4.5a13.2,13.2,0,0,1,0-3.5c-.1.3-.2.1-.2-.2s.4-.8.2-1.4h-.2l.2-.4c-.1-.2-.4-.3-.2-.9l.2-.2a5.3,5.3,0,0,1-.3-2.3l.3-.6c0-.3-.2-.8-.3-.3a8.4,8.4,0,0,1,.4-2.4,27.2,27.2,0,0,1-.5-7.6h.1c.1-.7-.3-.3-.1-.8s.3-.5.5,0-.2-1.2-.3-1.8.1.5-.1.4.2-1.3-.1-1.5.3,0,.4.1v-.6c.4-.7.6,1.6,1,.9v-.5c.3-.5.3,1.4.4.1s-.5-1.1-.7-.6c0-1.2-.7-.6-.6-1.9s0,1,.3.8-.1-1.2,0-1.8-.4.1-.4-.3.3.4.3-.5-.3-1-.4-.3.1-1-.2-1.5.6,1,.8,0-.3-1.3-.7-.7.3-.4.4-.1-.4-1.4.1-1.6l-.3-.2.3-.7c0-.5-.3-1.6.1-1.6s0-1.3-.3-.9.2.8-.2,1.2,0-1-.1-1.5h.2c-.1-.2,0-.8-.2-1s.2.1.2-.1l-.2-.3c-.1-1,.4-.2.4-1.2v.7a5.628,5.628,0,0,0,.2-1l-.6-.7c-.1-.6.3-.2.1-.8l.2.7c.1.1.4-.5.4-1.2s-.3-1.2-.5-.5.2-.9.3-.6-.2.1-.3-.6.4-1.2.6-1.7l.3.8v-.5c.3.7.2-.3.5.1a3.2,3.2,0,0,0-.1-1.1c-.5,1-.6-1.2-1.1-.9,0-1.4,1.1-.8.5-2.3-.1.2-.4-.5-.3.4.1-.8-.4-.6-.2-1.6.1.8.5-.8.7.3s-.1.6-.1.8.4.1.5-.8,0-1.3-.2-1.2,0,.8-.3.5.4-1.2,0-1.7-.3.8-.4.8v-.8l.2.2c.2-1.2-.3-.4-.1-1.6l.4-.5c.3.3-.3,1.7.2,1.6a10.7,10.7,0,0,1,0-1.8,1.269,1.269,0,0,0,.1.6c.1.2.7-.5.4-1.7s-.2-.2-.3-.2a14.282,14.282,0,0,1-.1-2.5c0-.9.1-1.4.4-.5a4.7,4.7,0,0,0-.1,2.7c.4-.4-.1,1,.3,1.3s.5-.9.7-1.1a2.3,2.3,0,0,0-.1-.7c-.2-.1-.3.2-.5.2a7.5,7.5,0,0,0-.1-2.8c.1-.4.4-.2.4.2a35.6,35.6,0,0,1,.4-4c-.5.8,0-1.4-.4-.9s-.5,1.2-.6.8.2,0,.3-.1a1.507,1.507,0,0,0,.1-1.4c0,1.2.5.3.8.5s.2.1.3-.8a22.1,22.1,0,0,1-.1-3,19.2,19.2,0,0,0,.4-4.2c.2-.6.5-.1.7-.7s-.4.5-.2-.6h.1c0-.3.4-1.9,0-2.3l.3.4a1.4,1.4,0,0,0,0-.6c.1,0,.3-.2.3.1s.1-1.4.2-2.1l-.3.4a30.711,30.711,0,0,1,.3-3.3h.2v-.7c.2.2.4-.4.3-.8l.3,1.9c-.2.5-.2-.6-.5-.3a2.1,2.1,0,0,0-.1,1.6,1.8,1.8,0,0,0,0-.8c.3-.1.2.5.4.9s.1-.5.1-.6a5.1,5.1,0,0,1,0,1.6c-.1-.5-.2.2-.3.1a4.975,4.975,0,0,1,.1,1.7c-.2.9,0,1.7-.2,2.7a4.3,4.3,0,0,1-.4-1.6c-.2.6-.1.7-.3,1.4a2.6,2.6,0,0,1,.5,1.5h-.2c0,.8.3.8.2,1.8s-.4,3.4-.6,4.7H565c.4.8,0,2.4.1,3.4a12.676,12.676,0,0,1-.5,4.4c-.1,2.9-.1,5.4-.4,8.4l-.3-.5c.2.5-.2.3-.2.9s.3.7.4,1.1a12.9,12.9,0,0,0,0,4.2h-.2c.3,1.2-.1,2.6-.2,4.1a1.6,1.6,0,0,0-.3.9,10.3,10.3,0,0,1,.4,2.4,26.3,26.3,0,0,1-.3,3.1c.3,3.3,0,6.6.2,10l-.2.2c.5,3.3-.1,7.3.2,10.1l-.4-.3c-.1.9.1,2,.4,1.8s.2,2.2-.1,2.8a7.8,7.8,0,0,0,.3,1.8,25.2,25.2,0,0,0,0,4.2v-.4c-.1-.2-.3-.2-.3.2s-.1,2.3.4,1.7c-.2,1.8.3,4.2,0,6,.1-.2.2.3.3.5a29.494,29.494,0,0,0,.1,4.5c-.1.3-.2-.4-.2.3s.2,0,.3.5c.3,2.6,0,5.2.1,7.6.4,4.1.6,8.5.9,12.5h.5c.5,1.3-.1,3.1.5,4.2s0,1.2-.2,1,0,3,.4,4.5a1,1,0,0,0-.1-.4c-.1,1.6.3,2.9.3,4.6-.1-.2-.1-.5-.2-.5s.6,1.5.1,1.8.3.2.2,0a106.511,106.511,0,0,0,1.4,11.1c0,2.7-.8.3-.2,2.3-.1.2.2.1.1.1a2.743,2.743,0,0,0-.1,1.9c.3.6.2.4.4.4,0,1.6-.2,2,.2,3.3h-.2c.6,1.4.6,3.2,1.3,4.4,1.2,8.3,2.7,16.1,4.2,24.1s3,15.6,4.6,23.6a10.1,10.1,0,0,0,.7,4.1c-.1-.1-.1-.2-.2,0a2.83,2.83,0,0,0,.7,1.6c.6,2.9,1.3,5.6,2.1,8.7-.2-.5-.5-.6-.3-.1l.4.5H582c.1.4.4.8.4.3,2.1,7.5,3.5,15.1,5.7,22.4A53.035,53.035,0,0,0,590,263a108.8,108.8,0,0,0,4.7,16.4s-1-.5-2-2.7" fill="#0160aa"/>
    <path id="Path_8042" data-name="Path 8042" d="M567.7,19.8c-.2.2-.4.9-.5.3s.4-.4.5-.3" fill="#0160aa"/>
    <path id="Path_8043" data-name="Path 8043" d="M564.2,37.7l-.1.3a1.146,1.146,0,0,1,0-.6c.1-.2.1.2.1.3" fill="#0160aa"/>
    <path id="Path_8044" data-name="Path 8044" d="M563.7,42.3a4.2,4.2,0,0,1-.1-1.7Z" fill="#0160aa"/>
    <path id="Path_8045" data-name="Path 8045" d="M562.8,46.6c-.2.4-.2.3-.2-.2s.1.1.2.2" fill="#0160aa"/>
    <path id="Path_8046" data-name="Path 8046" d="M563.1,47a1.4,1.4,0,0,1-.2.7c.1,0,0-.8.2-.7" fill="#0160aa"/>
    <path id="Path_8047" data-name="Path 8047" d="M562,56.3c0,.2.1.7-.1.9s-.1-1.1.1-.9" fill="#0160aa"/>
    <path id="Path_8048" data-name="Path 8048" d="M562,60.7a.9.9,0,0,0,0,.4c-.1.3-.2,0-.2-.2Z" fill="#0160aa"/>
    <path id="Path_8049" data-name="Path 8049" d="M563.9,140.5l-.1-.5.1.1Z" fill="#0160aa"/>
    <path id="Path_8050" data-name="Path 8050" d="M567.8,175.2c.2.5-.1.3-.1.4s.2.1.1-.4" fill="#0160aa"/>
    <path id="Path_8051" data-name="Path 8051" d="M571.4,193.7v-.2h.3Z" fill="#0160aa"/>
  </g>
</svg>
