<svg xmlns="http://www.w3.org/2000/svg" xmlns:xlink="http://www.w3.org/1999/xlink" width="271.477" height="252.46" viewBox="0 0 271.477 252.46">
  <defs>
    <clipPath id="clip-path">
      <rect id="Rectangle_206" data-name="Rectangle 206" width="271.477" height="252.46" fill="none"/>
    </clipPath>
  </defs>
  <g id="band" clip-path="url(#clip-path)">
    <path id="Path_6528" data-name="Path 6528" d="M82.7,15.983c2.556-1.475-1.573.59,1.672-.983a5.113,5.113,0,0,1-1.672.983" transform="translate(-1.385 -0.251)" fill="#009ca4"/>
    <path id="Path_6529" data-name="Path 6529" d="M91.936,10.422C100.589,6,112.978,3.048,123.4,1.179c1.18-.2-.295.492,2.458,0A82.5,82.5,0,0,1,144.442.1,93.41,93.41,0,0,1,164.4,3.244h-.787l3.736.688,3.835.983c0,.1-.787-.1-.295.1a14.258,14.258,0,0,1,2.556.59l2.851.885c.885.393.787.59,1.967,1.082l1.475.2a38.249,38.249,0,0,1,6.588,2.458L189.966,12l1.868.885,1.868.885c-.295-.1-.787-.295-.393,0l3.048,1.475,1.573.787,1.573.885c2.065,1.18,4.228,2.458,6.391,3.933l3.146,2.163,3.048,2.261,3.048,2.261,2.95,2.36c-.393-.2-.787-.295-.393.2a8.358,8.358,0,0,1,1.967,1.18l2.95,2.458a13.765,13.765,0,0,0,2.261,2.065,35.39,35.39,0,0,1,3.343,3.048h-.2a14.453,14.453,0,0,1,2.065,1.868,10.717,10.717,0,0,0,1.77,1.672l.787,1.18c.983.492,2.163,2.556,3.441,3.835h0c1.18,1.278,1.672,2.163,2.753,3.343v.2c2.458,2.95,3.638,4.916,3.835,4.621.59,1.18-2.36-2.851-1.377-.983s3.933,5.015,5.8,7.669l2.655,4.031,1.278,2.065L252.3,70.4l2.458,4.228,2.261,4.326a34.892,34.892,0,0,1,2.065,4.326c.59,1.475,1.377,2.95,1.967,4.425a20.161,20.161,0,0,1,.787,2.655l1.18,2.753c.492,1.082.885,2.163,1.082,2.753s.1.787.295,1.475c.688,2.261,1.18,2.261,1.77,4.818q-.59-1.475-.59-.885c0,.393.787,2.261,1.18,3.441l.59,1.868.492,1.868c-.1-.393-.3-.983-.393-.885a31.657,31.657,0,0,1,.983,3.835l.393,1.77a11.443,11.443,0,0,0,.393,1.77l-.295-.885c.492,3.933.59,1.082,1.082,4.523-.2-.787-.2-.492-.3-.688a36.971,36.971,0,0,1,1.082,5.7c.1,1.082.295,2.065.393,3.048l.2,2.753c0-.2-.1-.1-.1-.1l.2,2.655v2.753q0,2.753.1,5.6c-.2,1.377-.393-.492-.59,3.245.2-.1.1,1.475.1,2.851s-.2,2.36.2,1.278l-.787,5.506c-.295,1.868-.688,3.638-.787,4.621.1-1.377-.688,1.377-.295-1.18l-.59,1.868c-.1-.295.393-1.967.1-1.377l-.492,3.146c-.295,1.18-.59,2.458-.787,2.95l-.59,3.736a47.689,47.689,0,0,1-1.278,4.72c.492-1.77-.688.885-.393-.393-.2.885-.393,1.77-.59,2.753l-.688,2.655c-.492,1.18-.393.2-.983,1.967.1,0-.1.688-.295,1.278s-2.261,5.015-2.851,5.31.983-1.868.1-.688-1.082,2.261-2.261,4.425h-.1c-.885,1.377-2.36,4.13-1.278,2.753s-.393.295.59-1.082a32.058,32.058,0,0,1-3.245,5.506,2.261,2.261,0,0,0,.393-.983,67.65,67.65,0,0,1-5.8,8.653c.1.1.688-1.18,1.082-1.573-3.146,3.441-6.1,7.571-9.144,10.029.393-.492.393-.1.393-.1-1.672,1.573-1.77,1.278-2.753,2.36a22.411,22.411,0,0,0-2.458,2.261c-.492.59-.295.2.59-.688a78.167,78.167,0,0,1-12.094,9.538,21.434,21.434,0,0,1-3.245,2.556l.295-.393c-.983.393-3.146,1.967-3.441,1.967s.983-.492,2.851-1.77,3.441-2.458,2.262-1.475-3.638,2.753-3.146,2.065l-2.753,1.868a24.29,24.29,0,0,1-2.851,1.573c.59-.3,1.475-1.18-.1-.3s-.688.59-2.95,1.868l-1.377.787c0,.2-2.556,1.278-1.377.983-.393,0-4.13,2.065-4.031,1.672l.295-.492c-1.18.59-1.868,1.278-2.851,1.77h-.492c0,.492-3.048,1.278-4.425,2.163a83.683,83.683,0,0,1-8.259,2.753A49.951,49.951,0,0,1,182,245.518l1.278-.492a19.666,19.666,0,0,0-3.245.983l-1.672.295-3.245.59c-2.065.688-1.278.688-1.475.885-2.065,0-6,1.672-8.653,1.672.787-.2,3.146-.787,1.278-.59a10.618,10.618,0,0,0-3.146.59,24.884,24.884,0,0,1-4.031.787l.885.2c-1.475,0-4.72.885-4.425.492l-2.261.295c-.787.1-1.377.2-1.18.295-5.31.393-12.979,1.18-16.322.492-.787.1-2.655,0-2.261.2s1.77-.2,2.261,0-.885.1-.885.2c-1.672-.1-2.95-.1-1.377-.393-3.638-.295-3.835.59-8.554.1.2-.1-.1-.2-1.475-.295h-2.655c-3.048-.393-1.672-.492-1.77-.787a40.9,40.9,0,0,0-4.326-.393l-1.868-.59c1.377.393-1.377-.1-2.065-.1h.787a26.639,26.639,0,0,0-3.048-.492,16.916,16.916,0,0,0,3.146.787l-3.245-.295c.393-.2-2.556-.59-3.835-.885a8.948,8.948,0,0,0-2.065-.2c0-.1-2.36-.492-1.18-.492a17.4,17.4,0,0,0,1.967.393,9.341,9.341,0,0,0-2.753-.787c-1.475-.2.295.59-2.556-.2h1.475l-2.655-.688-.2.2-.295-.2c-.885,0-4.031-.885-4.72-.885l-4.031-1.278h.2a34.408,34.408,0,0,0-4.916-1.377h.1l-3.835-1.18c-2.065-.885-.393-1.082-2.851-1.573s-3.441-.885-2.655-.393c-3.736-1.672-8.063-3.146-11.307-5.113a5.013,5.013,0,0,1-1.377-.492c-5.211-2.753-11.111-5.8-14.847-8.849,1.475.885.2-.1.295-.2a4.33,4.33,0,0,0-1.868-1.18c-.59-.1-.2.295,1.18,1.278-1.475-.983-3.343-2.262-4.916-3.441s-2.95-2.458-3.736-3.146.1.295-.59-.2-1.573-1.868-3.048-3.048h-.295l-.787-.983a6.1,6.1,0,0,1-2.163-1.77,1.082,1.082,0,0,0-.295-.59l-2.655-2.36a30.191,30.191,0,0,1-2.458-2.753l-.983-1.573c-.59-.688-1.77-1.868-.787-.492l-2.753-3.835a14.745,14.745,0,0,1-1.377-2.36,61.355,61.355,0,0,1-6.391-9.439c-.983-1.868-1.967-3.736-2.851-5.6s-1.672-3.736-2.36-5.506l.2.2c-.59-1.967-.59-.885-.983-2.262.393.59-.2-1.573.492-.1-.787-2.753-1.475-3.441-2.065-5.31-.295-.2.492,1.475.2,1.18s-.983-3.933-1.377-4.326.295-.2.492.1a11.449,11.449,0,0,0-.59-1.671c-.2-.59.295.1.787,1.18s.983,2.261.885,1.082l-.492-1.573c-.1-1.573,1.475,4.031.492.1-.59-1.672-1.278-3.048-1.082-1.475-1.278-3.638-1.475-1.475-2.262-5.408-.1-1.082.688,3.146.787,2.36s-.787-3.736-.983-5.408c.2,1.868-.393.393-.59-.885s.492,1.278.1-1.573c-.295-.492-.59-3.048-.492-.787-.492-.983-.2-3.048-.59-4.523s.885,2.95.688-.295c-.1.295-.295-.688-.393-1.573S.2,146.308.1,147.094c0-1.278.2-1.377.393-.492.1-1.77-.59-4.326-.1-4.916l-.2-.59c.1-.59.2-1.377.295-2.261s0-2.065,0-3.146.1-1.868.295-1.77.295-4.031-.1-2.753,0,2.556-.492,3.736a16.715,16.715,0,0,0,.2-4.523l.2-.2c0-.787.295-2.556.2-3.048s.2.295.295-.295v-.787c.295-3.146.492-.688.885-3.638-.1.787-.1,1.573-.2,2.261s.295-1.475.59-2.95-.2-1.672-.2-2.163a11.656,11.656,0,0,0,.492-2.36l-.2,2.261a13.855,13.855,0,0,0,1.082-3.638c.492-2.261.492-3.736-.2-1.475.295-1.082.787-2.655.688-1.77.492-2.556-.295.295.1-1.966L6.1,105.5l-.295,2.36.393-1.475c-.295,1.967.492-.885.492.295.295-.983.59-2.261.885-3.245-1.475,2.753.492-3.441-.2-2.753,1.278-4.031,1.868-2.163,2.753-6.489-.393.59.1-1.475-.787,1.082a9.046,9.046,0,0,0,.688-2.163,7.866,7.866,0,0,1,.983-2.458c-.787,2.163,1.377-2.065.295,1.082-.1-.295-.787,1.672-.983,2.163s.295.393,1.278-2.163,1.475-3.54,1.18-3.343S11.8,90.656,12,89.672c1.18-3.048,1.77-3.343,1.967-4.818-.885,1.868-1.278,2.261-1.475,2.163l.885-2.261v.492c1.77-3.441.2-1.18,1.868-4.523l1.082-1.377c-.2.885-2.556,4.818-1.868,4.425a48.966,48.966,0,0,1,2.261-4.916l-.688,1.573a15.633,15.633,0,0,0,2.655-4.425c.688-1.672.1-.492,0-.59,1.868-3.441,2.36-4.523,3.638-6.686,0,.59,2.458-3.736,1.18-1.18a36.381,36.381,0,0,0-4.13,7.178c.59-.492.1.1-.393,1.082a10.127,10.127,0,0,0-1.18,2.556c1.475-2.753,1.77-2.458,2.261-2.753a21.632,21.632,0,0,0,.983-1.967c0-.393-.59.492-.885.492l2.556-4.326c.787-1.278,1.377-2.458,1.868-3.343s.688-.492,0,.688L26.255,64.5l1.77-2.556a49.525,49.525,0,0,1,3.736-4.916c-1.868,1.77,2.556-3.54,1.278-2.36s-2.655,2.851-2.065,1.868.1.1.492-.295A16.121,16.121,0,0,0,34.121,52.9c-2.261,3.048-.1.885-.295,1.573,1.573-2.261.1.2,1.77-1.868l2.655-3.54,2.95-3.54c2.753-2.655,6.588-6.883,9.144-9.243s.787,0,2.163-1.278-1.475.787,1.082-1.278l-.2.295,2.655-2.261A13.667,13.667,0,0,0,58.6,29.3l-.59.983,1.278-1.18c.1.1.688-.295,0,.393a19.467,19.467,0,0,0,2.556-1.967L64.5,25.466l-1.278.688a49.044,49.044,0,0,1,4.13-3.048l4.13-2.753v.2l1.77-1.278c-.393.492,1.475-.492,2.36-1.18-1.573,1.18-3.146,2.261-4.523,3.441s1.278-1.18.393-.787A19.272,19.272,0,0,0,67.551,23.5a16.419,16.419,0,0,0,1.967-1.377c.492,0-1.082,1.082-1.868,1.77a11.6,11.6,0,0,0,1.475-.983l-1.672,1.278-2.261,1.672c1.18-.983-.787.295-.393-.1s-.393.59-1.082,1.18L60.963,29.1a19.566,19.566,0,0,0-2.95,2.261c-1.082.983-2.163,2.163-3.441,3.146a26.941,26.941,0,0,1,3.343-3.638c-1.672,1.18-1.672,1.475-3.343,2.655a22.025,22.025,0,0,1-2.753,3.343h-.2c-1.672,1.672-1.475,1.868-3.638,3.933a129.66,129.66,0,0,0-9.833,10.521h-.295a36.282,36.282,0,0,1-2.851,3.933c-1.18,1.573-2.458,3.146-3.245,4.326s-3.146,4.228-4.425,6.293A53.29,53.29,0,0,1,24.091,70.7,181.906,181.906,0,0,0,12.391,93.7c.1-.492.2-.983.295-1.573-.492,1.573-.59.885-1.082,2.458.885-1.672-.492,2.163-.787,3.343a27.236,27.236,0,0,0-1.18,3.048l-1.082,3.245c-.688,2.163-1.082,4.326-1.475,6.1h-.2a52.31,52.31,0,0,1-1.278,5.8,18.723,18.723,0,0,0-.688,3.146l-.688,3.343a9.636,9.636,0,0,0-.688,2.655c0,2.458-.295,3.736-.295,7.374s-.393,6.883-.59,9.636c.59,9.931,1.672,20.058,5.015,29.793v.787l1.377,3.54.688,1.868.787,1.868,1.573,3.736,1.868,3.638.885,1.77.983,1.672,1.967,3.343a33.113,33.113,0,0,0,2.065,3.048l1.967,2.753-.787-.393c1.475,2.262,3.835,4.72,3.638,4.031l1.377,1.672,1.573,1.77,1.475,1.672,1.082,1.278,2.163,2.065.885.787,1.082.885a62.442,62.442,0,0,0,4.818,4.326c1.475,1.18,2.851,2.261,4.916,3.736l-.983-.787c-.492-.295-.688-.2.393.59l3.343,2.36c1.082.688,1.77,1.082,1.18.393,1.082.787,2.36,1.672,3.638,2.458l4.13,2.36,4.13,2.261,3.835,2.065c-.393-.295.885.295,1.377.393,4.425,1.967,9.046,4.228,12.782,5.31.688.295-1.18-.2.59.492s.1-.1,1.475.295c7.473,2.36,15.142,4.916,22.222,6.293s12.684,2.163,19.075,2.851c3.245.295,6.391.59,9.538.59h9.144c4.031-.492,9.538-.295,12.782-1.18.983,0,3.638-.393,2.95-.2,3.146-.688,9.046-1.18,13.569-2.458l-1.18.295c4.72-.787,8.653-2.065,13.569-3.343l-1.475.59c1.967-.295,4.228-1.672,5.408-1.573s.688-.492,0-.2a126.648,126.648,0,0,0,15.732-6.1,153.3,153.3,0,0,0,15.142-8.161c3.54-2.065,3.736-1.967,3.736-1.77s-.2.393,2.36-1.573c.492-.2.2-.393.393-.295,1.967-1.475,3.441-1.868,4.72-3.048-.787.2.787-.787.787-.983l4.326-3.146a36.487,36.487,0,0,0,3.441-3.048v.295l2.458-2.556,2.556-2.655a41.98,41.98,0,0,0,4.228-5.113,97.735,97.735,0,0,0,18.485-32.152l1.475-4.326,1.18-4.425.59-2.261c.2-.787.295-1.475.492-2.261l.885-4.523.59-4.523.295-2.261v-2.261c.1-1.573.2-3.048.295-4.621v-4.621c0-1.475-.1-3.048-.2-4.523s-.1-3.048-.295-4.523c-.393-3.048-.688-6-1.278-8.948a123.988,123.988,0,0,0-4.425-17.6l-1.967-4.72c-.492-1.475-1.082-2.851-1.672-4.228s-2.36-5.6-3.638-8.358a157.415,157.415,0,0,0-8.948-16.125,50.051,50.051,0,0,0-3.146-5.211,61.849,61.849,0,0,0-3.933-5.211c.2.2.492.492.295.1s-2.753-3.54-3.441-3.835a146.9,146.9,0,0,0-18.977-19.37c1.18.885,1.868,1.278.59.1l-1.573-.983-.2-.295c-.983-.688-2.065-1.475-1.18-.59a148.177,148.177,0,0,0-29.891-18.878A107.47,107.47,0,0,0,152.5,2.556a86.432,86.432,0,0,0-9.439-.688c-3.441-.1-6.883.1-9.833.2A116.81,116.81,0,0,0,107.766,5.9,114.943,114.943,0,0,0,83.48,15.338a13.176,13.176,0,0,1,1.672-1.377,43.951,43.951,0,0,1,6.883-3.736" transform="translate(-0.002 0)" fill="#009ca4"/>
    <path id="Path_6530" data-name="Path 6530" d="M79.472,17.692c-.688.1-2.458,1.18-1.18.1s1.278-.393,1.18-.1" transform="translate(-1.304 -0.288)" fill="#009ca4"/>
    <path id="Path_6531" data-name="Path 6531" d="M35.388,53.387l-.688.688A13.274,13.274,0,0,1,35.88,52.6a2.163,2.163,0,0,0-.492.787" transform="translate(-0.581 -0.881)" fill="#009ca4"/>
    <path id="Path_6532" data-name="Path 6532" d="M26.5,64.926A39.035,39.035,0,0,1,29.253,60.6Z" transform="translate(-0.444 -1.015)" fill="#009ca4"/>
    <path id="Path_6533" data-name="Path 6533" d="M18.792,76.379c-.688.983-.59.688.2-.688s-.1.393-.2.688" transform="translate(-0.307 -1.259)" fill="#009ca4"/>
    <path id="Path_6534" data-name="Path 6534" d="M18.68,77.4a12.488,12.488,0,0,1-1.18,1.868c.1,0,1.18-2.36,1.18-1.868" transform="translate(-0.293 -1.295)" fill="#009ca4"/>
    <path id="Path_6535" data-name="Path 6535" d="M6.385,104.4a25.172,25.172,0,0,1-.885,2.753c.295-.688.885-3.343.885-2.753" transform="translate(-0.092 -1.747)" fill="#009ca4"/>
    <path id="Path_6536" data-name="Path 6536" d="M2.994,117.9a6.784,6.784,0,0,0-.2,1.082c-.2.787-.2-.1,0-.787Z" transform="translate(-0.044 -1.974)" fill="#009ca4"/>
    <path id="Path_6537" data-name="Path 6537" d="M164.575,254.2l-1.475.295.2-.1Z" transform="translate(-2.731 -4.257)" fill="#009ca4"/>
    <path id="Path_6538" data-name="Path 6538" d="M257.5,200.68c.787-1.278.688-.787.885-.983s.1-.492-.885.983" transform="translate(-4.312 -3.341)" fill="#009ca4"/>
    <path id="Path_6539" data-name="Path 6539" d="M275.995,145.3v.393l-.295-.2Z" transform="translate(-4.617 -2.433)" fill="#009ca4"/>
    <path id="Path_6540" data-name="Path 6540" d="M108.8,63.288c1.672-.983-1.082.295,1.082-.688a2.261,2.261,0,0,1-1.082.688" transform="translate(-1.822 -1.048)" fill="#009ca4"/>
    <path id="Path_6541" data-name="Path 6541" d="M114.845,59.783a45.033,45.033,0,0,1,9.833-3.638c3.638-.983,7.374-1.672,10.717-2.36.787-.1-.2.393,1.672.1,6.588-1.573,17.305-1.18,25.171,1.082h-.492c1.475.393,3.441.393,5.015.885,0,.1-.492,0-.2.2a30.09,30.09,0,0,1,3.54.787c.59.295.492.492,1.278.787h.983A14.749,14.749,0,0,1,176.79,59c1.573.688,3.146,1.573,4.818,2.163-.2,0-.492-.1-.295.1a81,81,0,0,1,16.617,9.833c-.295-.1-.59-.1-.295.2a39.557,39.557,0,0,1,3.343,2.163,26.943,26.943,0,0,1,3.835,3.245h-.2c1.278.787,1.475,1.672,2.655,2.261l.492.885c.787.2,1.377,1.672,2.36,2.458h0c.885.787,1.082,1.377,1.868,2.163h0c1.77,1.77,2.458,3.146,2.655,2.851s-1.672-1.868-1.082-.492a82.491,82.491,0,0,1,7.669,10.029,96.753,96.753,0,0,1,6.1,11.111,6.588,6.588,0,0,1,.492,1.77c.393.787,1.278,2.851,1.672,3.54s0,.59.2.983a12.379,12.379,0,0,1,1.278,3.048c-.295-.59-.492-.787-.492-.492a35.893,35.893,0,0,1,1.672,4.72c-.1-.2-.2-.59-.295-.492.688,1.672.787,3.245,1.278,4.818l-.295-.59c.295,2.556.492.688.787,2.95-.2-.492-.2-.295-.3-.393a10.255,10.255,0,0,0,.492,1.672,11.794,11.794,0,0,1,.295,1.966c.1.688.393,2.753.492,3.736h-.1c.1,1.18.2,2.261.2,3.54s0,2.458.1,3.638-.393-.295-.492,2.065c.2,0,.2.983.1,1.868s-.1,1.573.2.885l-.59,3.54c-.2,1.278-.492,2.36-.59,3.048,0-.983-.59.885-.295-.787l-.492,1.18c-.1-.2.3-1.278,0-.885l-.295,2.065-.492,1.967c-.1.393-.2,1.573-.3,2.458a21.528,21.528,0,0,1-.787,3.146c.295-1.18-.59.492-.393-.3-.2,1.18-.393,2.36-.688,3.638s-.295.1-.787,1.278-.1.492-.2.885-1.475,3.245-2.065,3.441.59-1.278,0-.492-.688,1.475-1.475,2.851h-.1c-.59.885-1.573,2.655-.787,1.868s-.295.1.295-.787a9.536,9.536,0,0,1-.787,1.573l-1.377,1.966a1.18,1.18,0,0,0,.2-.688,23.5,23.5,0,0,1-1.77,2.851c-.688.885-1.377,1.868-2.065,2.851s.393-.885.688-1.082c-2.163,2.163-4.031,4.916-6.195,6.391.295-.295.295,0,.295,0a15.092,15.092,0,0,0-1.868,1.475c-.688.688-.885.787-1.672,1.475s-.2.1.393-.492a42.672,42.672,0,0,1-8.063,6.1,9.634,9.634,0,0,1-2.065,1.77v-.295c-.688.2-2.065,1.278-2.36,1.18s.688-.295,1.868-1.082,2.261-1.671,1.475-.983-2.36,1.868-2.065,1.377a21.04,21.04,0,0,1-3.736,2.163c.393-.2.885-.885-.1-.295a20.2,20.2,0,0,1-1.967,1.18l-.885.59c0,.2-1.672.787-.885.688s-2.753,1.377-2.655.983l.2-.393a16.218,16.218,0,0,0-1.868,1.278h-.295c0,.492-1.967.787-2.851,1.475a43.171,43.171,0,0,1-5.506,1.672,23.892,23.892,0,0,1-4.228,1.475l.787-.393a8.455,8.455,0,0,0-2.163.688l-3.245.393c-1.377.492-.885.59-.983.787a18.014,18.014,0,0,1-5.7,1.082c.492-.2,2.065-.59.885-.492s-2.556.787-4.72.885l.59.295c-.983-.1-3.048.688-2.95.3s-2.556.2-2.261.492c-3.54.1-8.554.885-10.717.2-.492.1-1.77,0-1.475.2s1.18-.2,1.475,0-.59.1-.59.2-1.967-.1-.885-.393c-2.458-.295-2.556.59-5.6.295.2-.1-.1-.2-.983-.295h-1.278c-1.967-.295-1.082-.393-1.082-.688a16.32,16.32,0,0,0-2.851-.1l-1.278-.492c.885.393-.885,0-1.377,0h.492l-2.065-.295a8.062,8.062,0,0,0,2.065.59h-2.163c.295-.2-1.672-.492-2.556-.59a4.229,4.229,0,0,0-1.377-.1c0-.1-1.573-.295-.787-.393a7.867,7.867,0,0,0,1.278.3,3.736,3.736,0,0,0-1.868-.492c-.983-.1.2.492-1.672,0h.983l-1.672-.492v.2h-.2c-.59.1-2.655-.59-3.146-.393s-1.77-.59-2.655-.885h.2a14.847,14.847,0,0,0-3.245-.787h.1l-2.556-.688c-1.377-.59-.2-.885-1.77-1.18s-2.262-.393-1.77-.1c-2.458-.983-5.408-1.868-7.473-3.146a2.262,2.262,0,0,1-.885-.2c-3.54-1.672-7.473-3.441-9.931-5.506.983.492.2-.1.2-.295a1.489,1.489,0,0,0-1.278-.688c-.492.1-.2.3.688.885l-1.672-.983-1.77-1.77-1.475-1.082-.983-.885c.492.492,0,.2-.393-.1a21.753,21.753,0,0,0-2.065-1.967H76.3l-.492-.688c-.393-.295-.688-.1-1.573-1.082a.688.688,0,0,0-.1-.393,18.19,18.19,0,0,1-3.54-3.146l-.59-1.082c-.492-.393-1.278-1.082-.59-.2-.787-.983-1.377-1.77-1.868-2.458a8.849,8.849,0,0,1-.983-1.573,32.19,32.19,0,0,1-2.36-2.655c-.787-.983-1.475-2.163-2.261-3.245a49.362,49.362,0,0,1-3.736-7.178h.2c-.393-1.278-.492-.492-.787-1.475s-.1-1.082.492-.1a17.108,17.108,0,0,0-1.573-3.441c-.2-.1.492.885.2.787s-.688-2.556-1.082-2.753.295-.2.492,0l-.492-1.082c-.1-1.475,1.475,2.95,1.475,1.377l-.393-.983c0-1.082,1.082,2.655.492,0-.492-1.082-1.18-1.966-.983-.885-.688-2.36-.983-.885-1.475-3.54,0-.787.492,2.065.59,1.475s-.688-2.36-.787-3.54c.1,1.278-.393.295-.492-.492s.393.787.1-1.082c-.2-.3-.59-1.967-.492-.492-.492-.59-.1-1.967-.492-2.95s.787,1.868.688-.2c-.2.393-.59-2.556-.885-1.377,0-.787.2-.885.393-.295.1-1.18-.59-2.851-.1-3.245L53,144.048q.147-.59.295-1.475c.1-.59-.295-3.343.1-3.245s.2-2.655-.1-1.77,0,1.672-.393,2.458a8.161,8.161,0,0,0,.1-2.95h.2a16.027,16.027,0,0,0,0-1.966c0,.393.2.2.295-.2l-.2-.59c.2-2.065.492-.393.688-2.458v1.573c0-.295.295-.983.393-1.967s-.295-1.082-.393-1.475.295-.492.295-1.573v1.475a6.245,6.245,0,0,0,.787-2.36c.295-1.475.2-2.458-.295-.983.2-.688.59-1.77.59-1.082.295-1.672-.295.2,0-1.278l1.475-3.343v1.573l.295-.983c-.1,1.377.393-.59.492.2a17.109,17.109,0,0,0,.492-2.163c-1.082,1.77.1-2.36-.492-1.967.787-2.655,1.573-1.278,1.967-4.228-.295.393-.1-.983-.59.688.688-1.573,0-1.278.983-3.048-.492,1.475,1.082-1.278.393.787-.1-.2-.59,1.082-.688,1.377s.295.295.983-1.278.983-2.36.688-2.261-.688,1.475-.59.787,1.278-2.163,1.278-3.146c-.59,1.18-.885,1.475-1.082,1.377l.59-1.475v.393c1.278-2.163.1-.787,1.278-2.95l.885-.885c-.1.59-1.77,3.146-1.18,2.95a26.255,26.255,0,0,1,1.573-3.245l-.492.983a6.883,6.883,0,0,0,1.868-2.851c.492-1.082,0-.393-.1-.492,1.278-2.261,1.573-2.95,2.36-4.326.1.492,1.672-2.36.885-.688a16.814,16.814,0,0,0-2.753,4.621c.787-.59-1.082,1.672-.983,2.36.983-1.77,1.278-1.475,1.672-1.672A9.537,9.537,0,0,0,67.256,100c-.1-.295-.492.295-.688.2l1.672-2.753a22.127,22.127,0,0,0,1.18-2.163c.492-.59.59-.2.1.492L70.6,94l1.278-1.672c.787-1.082,1.672-2.163,2.458-3.146-1.377,1.082,1.77-2.262.787-1.573s-1.868,1.77-1.573,1.082.1.1.393-.1a7.306,7.306,0,0,0,1.77-2.163c-1.475,1.967.1.688,0,1.18.983-1.475.1.2,1.278-1.18l1.77-2.36,1.967-2.36c1.868-1.573,4.425-4.425,6.1-5.9s.59.1,1.573-.688-1.082.393.688-.885v.2l1.77-1.475c.787-.59,1.573-1.278,1.672-1.672l-.295.688.787-.787c.1.1.492-.1.1.393a8.653,8.653,0,0,0,1.672-1.18l1.672-1.377-.885.393a60.174,60.174,0,0,1,5.6-3.638v.2l1.18-.885c-.2.393.983-.2,1.573-.688l-2.95,2.36c-.983.492.787-.787.2-.688a8.26,8.26,0,0,0-2.655,1.77,7.077,7.077,0,0,0,1.278-.885c.393.1-.688.787-1.082,1.278s.983-.492.983-.688l-2.556,1.967c.787-.688-.59.2-.295-.1A30.307,30.307,0,0,1,94.3,71.582c-1.475,1.082-2.556,2.163-4.228,3.441a12.291,12.291,0,0,1,2.065-2.458,19.2,19.2,0,0,0-2.261,1.672A9.046,9.046,0,0,1,88.3,76.6h-.2a21.536,21.536,0,0,1-2.36,2.655,90.748,90.748,0,0,0-6.588,6.686h-.2a14.356,14.356,0,0,1-1.868,2.556c-.787.983-1.573,1.966-2.163,2.851a47.1,47.1,0,0,0-2.95,4.031,22.124,22.124,0,0,1-2.262,3.048,124.582,124.582,0,0,0-7.669,14.945c0-.393.1-.688.1-1.082s-.393.59-.787,1.573c.688-1.082-.295,1.475-.393,2.261a28.809,28.809,0,0,0-1.475,4.031c-.393,1.475-.688,2.851-.885,4.031h-.2a22.122,22.122,0,0,1-.787,3.835c-.295,1.377-.688,2.753-.983,4.228a5.605,5.605,0,0,0-.492,1.672,17.9,17.9,0,0,1,0,2.163v2.655c0,1.18-.2,1.967-.2,3.146s-.2,2.262-.2,3.146c.59,6.391,1.377,12.979,3.933,19.173v.492c1.278,2.95,2.851,6.195,4.523,9.243a47.494,47.494,0,0,0,5.506,7.866l-.688-.2a15.142,15.142,0,0,0,1.672,1.966c.59.492.983.688.885.492l1.967,2.163A9.439,9.439,0,0,1,75.22,188.1a7.178,7.178,0,0,0,1.475,1.278l1.377.983a42.473,42.473,0,0,0,6.588,5.015l-.688-.492c-.393-.1-.492,0,.2.492s3.835,2.556,3.048,1.475c2.95,2.163,7.374,3.835,10.422,5.6-.2-.2.59.1.983.2a57.814,57.814,0,0,0,8.358,3.245c.492.2-.787,0,.393.393s.1-.2.983.1c4.916,1.377,9.931,3.048,14.552,3.835a120.388,120.388,0,0,0,12.487,1.573q3.1.295,6.195.295h5.8c2.655-.492,6.293,0,8.259-.787s2.36-.3,1.967,0l4.13-.59a28.02,28.02,0,0,0,4.72-.983l-.787.2c3.048-.393,5.7-1.377,8.849-2.065l-.983.393c1.278-.1,2.753-1.18,3.54-.983s.393-.393,0-.2a87.509,87.509,0,0,0,20.157-8.948c4.72-2.458.688.59,4.031-1.966.295-.1.1-.295.2-.2a8.682,8.682,0,0,0,3.146-1.868c.787-.885.492-.59.492-.688,2.753-1.77,3.343-1.967,5.211-3.835v.2l3.245-3.343a21.727,21.727,0,0,0,2.753-3.343,61.453,61.453,0,0,0,12.389-20.943l.983-2.851c.295-.983.492-1.868.787-2.851l.393-1.475.295-1.475.59-2.95a71.19,71.19,0,0,0,.688-11.8,66.272,66.272,0,0,0-1.278-11.7l-.295-1.475-.393-1.475-.688-2.851c-.59-1.868-1.082-3.736-1.77-5.6a89.466,89.466,0,0,0-4.72-10.816,109.05,109.05,0,0,0-6.1-10.324,28.516,28.516,0,0,0-4.818-6.686c.2.1.295.295.2,0s-.688-.59-1.18-1.082-.983-1.18-1.278-1.18A93.41,93.41,0,0,0,197.34,73.451c.787.59,1.377.688.393,0l-1.082-.59v-.2c-.688-.492-1.377-.885-.885-.295q-4.609-3.382-9.538-6.293A92.717,92.717,0,0,0,176.1,60.865a69.909,69.909,0,0,0-21.73-5.7,60.766,60.766,0,0,0-12.487-.1,78.07,78.07,0,0,0-16.617,2.261,72.761,72.761,0,0,0-15.929,6,6,6,0,0,1,1.082-.983,21.239,21.239,0,0,1,4.425-2.556" transform="translate(-0.886 -0.886)" fill="#009ca4"/>
    <path id="Path_6542" data-name="Path 6542" d="M106.681,64.492c-.492,0-1.672.688-.787-.1s.885-.1.787.1" transform="translate(-1.768 -1.072)" fill="#009ca4"/>
    <path id="Path_6543" data-name="Path 6543" d="M76.892,86.69l-.492.393a5.7,5.7,0,0,1,.787-.983,1.521,1.521,0,0,0-.295.59" transform="translate(-1.279 -1.442)" fill="#009ca4"/>
    <path id="Path_6544" data-name="Path 6544" d="M70.9,94.151A16.814,16.814,0,0,1,72.67,91.3Z" transform="translate(-1.187 -1.529)" fill="#009ca4"/>
    <path id="Path_6545" data-name="Path 6545" d="M65.495,101.386c-.492.59-.393.393.1-.492s0,.295-.1.492" transform="translate(-1.091 -1.684)" fill="#009ca4"/>
    <path id="Path_6546" data-name="Path 6546" d="M65.485,102.1a5.507,5.507,0,0,1-.885,1.18c.1,0,.787-1.573.885-1.18" transform="translate(-1.082 -1.709)" fill="#009ca4"/>
    <path id="Path_6547" data-name="Path 6547" d="M56.99,119.8a9.341,9.341,0,0,1-.59,1.77c.2-.393.492-2.262.59-1.77" transform="translate(-0.944 -2.005)" fill="#009ca4"/>
    <path id="Path_6548" data-name="Path 6548" d="M54.8,128.6a3.441,3.441,0,0,0-.1.688c-.2.492-.2-.1-.1-.492Z" transform="translate(-0.913 -2.154)" fill="#009ca4"/>
    <path id="Path_6549" data-name="Path 6549" d="M163.685,215.6l-.885.295.1-.2Z" transform="translate(-2.726 -3.61)" fill="#009ca4"/>
    <path id="Path_6550" data-name="Path 6550" d="M225.5,181.588c.492-.885.492-.492.59-.59s0-.393-.59.59" transform="translate(-3.776 -3.029)" fill="#009ca4"/>
    <path id="Path_6551" data-name="Path 6551" d="M237.9,145.4v.295l-.295-.1Z" transform="translate(-3.979 -2.435)" fill="#009ca4"/>
    <path id="Path_6552" data-name="Path 6552" d="M90.5,16.1c-.2,0-.1.295-.2,0s.2-.1.2,0" transform="translate(-1.512 -0.267)" fill="#009ca4"/>
    <path id="Path_6553" data-name="Path 6553" d="M110.26,54.355c-.688-.59.1-1.278-.393-1.868s.393,0,.295-.1a2.91,2.91,0,0,1,.2-2.163h.1c.1-.1-.295-.295-.295-.393h.2c-.2,0-.1-.295-.295-.295h.1c-.688-.2,0-.59-.295-.787h.2a5.14,5.14,0,0,1-.59-1.573h.393a.393.393,0,0,1-.492-.295c.295-.1-.295-.2-.2-.393h.1c-.295-.1.1-.2-.2-.295h.2c-.393,0,.2-.2,0-.295h-.1c-.1-.1.1-.2,0-.2h0c-.1-.2.1-.393-.295-.295s.2.2.492,0a5.506,5.506,0,0,1-.688-2.065l.295-.2c-.1-.1-.1-.295-.295-.295h.2c.1-.2-.393-.1-.295-.2h.295a.668.668,0,0,1-.393-.295h.2c-.295-.1,0-.295-.2-.393h.2c.2-.295-.393,0-.295-.2h.2c-.393-.1-.295-.393-.492-.492h.1c-.1-.2-.1-.393-.295-.59s.393-.1.295-.295-.2-.295-.59-.1.1-.492-.1-.59.393-.2.492-.1l.2-.2c.2,0,0,.1.2,0s-.2-.2-.2-.295-.688,0-.787-.2.393-.2.492-.1h-.787c0-.1.295-.1.1-.2h-.2s-.2-.295.1-.393.1.1.2,0l-.2-.2h0c0-.1-.2-.2-.393,0s.2-.1.1,0a.393.393,0,0,1-.393-.2h.295a1.377,1.377,0,0,1-.688-.295h.2c.1-.295-.492-.393-.295-.688h-.2c0-.1.2-.2.1-.295s-.1-.1-.2-.1h.1c-.2-.1-.59-.393-.492-.688h-.2c.1-.1-.1-.2.1-.295s.393.393.2.295-.393-.1-.1-.2-.295-.1-.2-.295.295,0,.295-.1-.1,0-.2-.1h-.1c-.2.1,0-.2-.2,0s-.2-.2.1-.295h-.1c-.393.2,0-.2-.393-.1s-.2-.393,0-.59-.393-.1-.295-.2h.2c.1-.1,0-.1-.1-.1s.1-.295.2-.393-.393.1-.492.2-.393-.2-.1-.492.295,0,.295-.1-.393,0-.295-.295l-.295.2c.2-.2-.295-.1,0-.295s0-.2-.295,0-.492-.492-.1-.983-.1-.1-.2,0,.2,0,.1.1h-.2c0-.1,0-.2.295-.295s-.59.1-.59-.1.2-.1.1-.2h-.295c0-.2.2-.295.393-.393s-.1-.2-.295-.1l.2-.295c-.1.2-.2,0-.2,0h.1c.1-.1,0-.1-.1-.1a.3.3,0,0,0-.1.295H102.1c.2-.1.1-.2,0-.295h-.2c.1-.1-.1-.1.1-.2s-.1.1,0,.1.2-.2,0-.2-.393.295-.295.1H102v-.2h-.1c-.2.1-.2-.1-.393,0s0-.2,0-.295h0c.1-.1-.1-.2-.2-.2h-.2c.1-.2.688-.492.295-.492s-.393.1-.492.2-.492-.2-.295-.59h-.2c-.1-.295-.59-.393-.393-.787s.2-.1.295-.2.1-.2-.2,0-.2.2-.2.295-.393-.295-.295-.492h-.2c.295-.2.2-.295,0-.295h-.2v-.2c-.1,0-.295.2-.295,0v-.983c-.2,0-.492.1-.492-.1l.2-.295c-.1,0-.2,0-.2.2s-.1-.393.1-.59a1.18,1.18,0,0,1-1.278-.492h.1c0-.2-.2.1-.2,0a.443.443,0,0,1,.295-.295h-.393c-.1,0,.1,0,0,.1s0-.295-.295-.1l.295-.295h-.2c.2-.295.59-.2.787-.59h-.1c.2-.295.393-.1.295-.295s-.492.295-.59.393-.59.393-.688.2.2.1.295-.1-.2-.1-.2-.2-.295.295-.393.295.2-.1.2-.295-.295.1-.295.295,0-.2-.295,0,.492-.295.492-.492-.393.1-.59.393l.295-.295c0-.2-.492.2-.2-.2l-.2.2v-.295c-.1-.1-.393.1-.2-.2s-.2-.1-.295.1.2-.1,0,.295-.2-.1-.295-.1h-.2v-.2h-.2c-.2,0,.295-.295.1-.393h.2s.1-.2,0-.2l-.492.393c-.1,0,.1-.2-.1-.1h.295c.1,0,.2-.295.1-.393s-.393.2-.393.295,0-.2.1-.295-.1.2-.295.2.1-.393.1-.59l.295-.2h.492c.295-.1.1-.2.295-.393h-.2c-.2.492-.59.393-.787.688s.59-.885,0-.492-.295.295-.2.295-.393.295-.393,0,.2-.393.492-.492,0,.2.1.1.295-.295.2-.393-.2-.1-.295.1.1.1-.1.2,0-.393-.295-.1,0,.295-.2.393h0c-.1-.2-.2.2-.393,0v-.59c.2-.2.1.295.393-.1s-.295.1-.295-.1h.1s.295-.59,0-.393-.1.1-.2.2H92.66c.2-.295-.2-.2.2-.393s.2.393.393.2.1.1.393-.1.1-.393.295-.59h-.2l-.295.393c-.1-.2-.295-.2-.59-.1s.2-.295.295-.295a1.082,1.082,0,0,1-.492-.393c-.1.393-.2-.1-.393.295a.59.59,0,0,1-.2.492c0-.1.1-.1.1-.2s.1-.393-.2-.1.295-.393.492-.59.1-.2,0-.295h-.59c0-.393-.393-.295-.59-.393s.295-.393.2-.492-.1.393-.2.1h.1c-.1,0-.1-.393-.492,0l.295-.295h-.1l.2-.295c.1-.295-.2-.1-.295-.2v.2c-.295,0-.295-.2-.492-.295v-.2h-.2c.1-.2.1-.295,0-.2l.59-.295c0,.2-.2.2-.295.393s.1.2.295.1h-.2c.1-.295.2-.2.393-.295s0-.1-.1,0h.295a.3.3,0,0,0-.1.2s.295-.2.393-.1.393,0,.492.2l-.59.295c0,.2.1.1.1.2s.393-.393.59-.393v.2c.2,0,.295-.295.492-.1l.59.59v.2c.393-.295.393.1.688.1a.458.458,0,0,1,.492.59,3.146,3.146,0,0,1,1.278.787l-.295.2c.2-.1-.1.2,0,.2a1.661,1.661,0,0,0,.492-.2c.2-.1.393.295.688.295v.2c.393-.1.393.295.492.492a.215.215,0,0,1-.1.295,1.082,1.082,0,0,1,.688-.1.983.983,0,0,1,.295.492c.688.1.983.688,1.573.885v.2c.787.1.885.885,1.377,1.082l-.295.2c0,.2.295.2.492,0s.393.2.2.492.295,0,.393.1a.885.885,0,0,0,.393.59h0a.211.211,0,0,0-.2.2c0,.1.2.393.492,0s.688.492.492.885h.295c.2.2.1.59.492.688s-.2.1-.2.2h.295c.492.2.295.885.59,1.18a6.785,6.785,0,0,1,1.377,1.77h-.1c.492,0,0,.688.492.59s.1.2-.1.295,0,.59.492.688h-.1c-.1.295.295.393.295.787h-.2c-.1.2.492,0,.1.295h.2c.1.688.688,1.082,1.082,1.672s-.688.393-.2.59h.1c.2.1-.393.393-.1.393s.2,0,.295-.1-.295.492,0,.59h-.1c.492.1.393.492.983.492a34.9,34.9,0,0,1,1.868,4.031,20.649,20.649,0,0,1,.885,4.228c-.295.393-.295.393-.1.787h-.1c.295,0,.1.295.393.2s.2.983.295,1.573-.295-.1-.295,0h.492c.492,1.377-.1,2.753,0,4.13a2.36,2.36,0,0,0,.1,1.18,4.916,4.916,0,0,0-.59,3.048s-.787-.2-.983-.59" transform="translate(-1.512 -0.276)" fill="#009ca4"/>
    <path id="Path_6554" data-name="Path 6554" d="M90.7,16.2c-.1.2,0,.295-.2.393l.2-.393" transform="translate(-1.515 -0.271)" fill="#009ca4"/>
    <path id="Path_6555" data-name="Path 6555" d="M92.4,19.4v.1h0" transform="translate(-1.547 -0.325)" fill="#009ca4"/>
    <path id="Path_6556" data-name="Path 6556" d="M92.9,19.9Z" transform="translate(-1.556 -0.333)" fill="#009ca4"/>
    <path id="Path_6557" data-name="Path 6557" d="M93.1,20.9c0,.1-.1.2-.1.1h.1" transform="translate(-1.557 -0.35)" fill="#009ca4"/>
    <path id="Path_6558" data-name="Path 6558" d="M93.4,20.6v.2c0,.1-.2,0,0-.2" transform="translate(-1.563 -0.345)" fill="#009ca4"/>
    <path id="Path_6559" data-name="Path 6559" d="M94.3,22s.2,0,.1.1-.295,0-.1-.1" transform="translate(-1.578 -0.368)" fill="#009ca4"/>
    <path id="Path_6560" data-name="Path 6560" d="M95,22.3h0Z" transform="translate(-1.589 -0.373)" fill="#009ca4"/>
    <path id="Path_6561" data-name="Path 6561" d="M103.8,32.3h-.1l.1-.1Z" transform="translate(-1.737 -0.539)" fill="#009ca4"/>
    <path id="Path_6562" data-name="Path 6562" d="M106.3,37.6c.1,0-.1.1-.1.1s.2,0,.1-.1" transform="translate(-1.778 -0.63)" fill="#009ca4"/>
    <path id="Path_6563" data-name="Path 6563" d="M108,40.4h0l.295-.1Z" transform="translate(-1.809 -0.675)" fill="#009ca4"/>
    <path id="Path_6564" data-name="Path 6564" d="M122.7,1.4c-.2-.1-.2.2-.2-.1s.2-.1.2.1" transform="translate(-2.051 -0.019)" fill="#009ca4"/>
    <path id="Path_6565" data-name="Path 6565" d="M138.225,51.952c-.787-.59-.1-1.475-.59-2.163s.393,0,.295-.2a4.35,4.35,0,0,1,0-2.556h.1c.1-.2-.295-.295-.295-.492h.2c-.2,0-.1-.295-.295-.295l.393-.2h-.295c-.688-.2,0-.688-.393-.983h.2a5.7,5.7,0,0,1-.688-1.868h.393c-.295,0-.393-.2-.492-.393s-.295-.295-.2-.492h.1c-.295-.1.1-.2-.2-.295h.2c-.393,0,.2-.2,0-.295h-.1c-.1-.1.1-.2,0-.295h0c-.1-.2.1-.393-.295-.393s.2.2.492,0a7.373,7.373,0,0,1-.688-2.458l.295-.2c-.1-.1-.1-.295-.295-.393h.2c.1-.2-.393-.1-.295-.295h.295c-.295-.1-.295-.295-.393-.492h.2c-.295-.1,0-.295-.2-.492h.2c.2-.295-.393,0-.295-.295h.2c-.393-.1-.295-.492-.492-.688h.1c-.1-.2,0-.492-.2-.688s.393-.1.295-.295-.2-.393-.59-.1.1-.59-.1-.688.393-.2.492,0l.2-.2c.2,0,0,.1.2.1s-.2-.295-.2-.393-.688-.2-.787-.393.393-.2.492-.1l-.787-.2c0-.1.295-.1.2-.2h-.295s-.2-.295.2-.492.1.1.2,0l-.2-.295h0a.223.223,0,0,0-.393-.1c-.2.2.2-.1.1.1A.393.393,0,0,1,134,31.5h.295a1.672,1.672,0,0,1-.688-.492h.2c.2-.393-.492-.492-.2-.885h-.2c0-.2.2-.2.1-.295s-.1-.1-.1-.2h.1a1.081,1.081,0,0,1-.393-.885l-.393-.2h.2c.1-.1-.1-.2.1-.295s.393.492.1.393-.393-.2-.1-.2-.295-.2-.2-.393.295,0,.295-.1-.1,0-.2-.2h-.1c-.2.1,0-.2-.2,0s-.2-.295.2-.295h-.1c-.393.1,0-.2-.393-.2s-.1-.492.1-.59-.393-.2-.295-.393h.2c.1-.1,0-.1-.1-.2s.2-.295.295-.393-.393,0-.492.1-.393-.295-.1-.59.295.1.295,0-.393-.2-.295-.393l-.295.2c.2-.2-.295-.2.1-.295s0-.295-.295-.1-.393-.787.1-1.18-.1-.2-.2-.1.2.1.1.1h-.2c0-.1,0-.2.393-.2s-.688,0-.59-.393.2-.1.1-.2h-.295c0-.2.295-.2.492-.295s-.1-.2-.295-.2l.295-.2c-.2.2-.2,0-.2-.1h.1c.1-.1,0-.2-.1-.2a.393.393,0,0,0-.2.295h-.3c.2-.1.1-.2.1-.295s-.2,0-.2-.1,0-.2.2-.1-.1.1,0,.1.295-.2.1-.2-.393.2-.393,0h.295v-.2h-.1c-.2,0-.2-.2-.393-.2s.1-.2.1-.295h0c.1-.1,0-.2-.2-.295h0a.3.3,0,0,0-.2-.2c.1-.2.787-.393.393-.393s-.492-.1-.59,0-.393-.393-.2-.787h-.2c-.1-.393-.59-.688-.295-1.082s.2-.1.295-.1.1-.2-.2-.1-.295.1-.295.2-.295-.492-.2-.688h-.2c.295-.1.295-.295.1-.393h-.2l.2-.2c-.1,0-.393.1-.295-.1h.2c-.2-.1-.492-.1-.393-.295l.2-.2c-.1,0-.295-.1-.295.1s0-.492.2-.59a1.573,1.573,0,0,1-1.18-1.18h.1c.1-.2-.295,0-.2-.1a.511.511,0,0,1,.393-.2c.2,0-.295-.1-.393-.2s.2,0-.1.1,0-.295-.295-.2l.393-.2h-.2c.2-.295.688,0,.983-.295h-.1c.2-.2.393.1.393-.2s-.59,0-.688.2-.688.2-.787-.1.1.2.295,0-.2-.2-.2-.295-.393.2-.393.1.295,0,.2-.2a.211.211,0,0,0-.393.1c0,.2,0-.2-.295-.2s.59-.1.688-.295-.393-.1-.688.2l.393-.2c.1-.2-.492,0-.1-.295h-.295l.2-.295c0-.1-.492-.1-.1-.295s-.1-.2-.295,0,.295.1,0,.295-.1-.2-.295-.2h.1c-.1,0-.1-.1-.295-.1h0c-.2-.1.295-.2.2-.393h.2s.1-.2,0-.2l-.59.2c-.1-.1.2-.2-.1-.2h.295a.29.29,0,0,0,.2-.393c-.1-.2-.492,0-.492.1s0-.2.2-.2-.2.1-.393.1l.295-.59h.295c.295,0,.2-.2.492-.2h-.2c-.295.393-.688.1-1.082.393s.885-.688.1-.59-.393.1-.2.2-.393.1-.393-.2.295-.393.688-.295,0,.2,0,.2.393-.2.295-.393-.2-.2-.393-.1.1.1-.2.2.1-.393-.295-.2-.1.295-.295.295h0c0-.295-.295.1-.393-.2l.2-.295c.295-.1.1.393.393.1s-.295-.1-.295-.295h.1c0-.1.492-.393.1-.393s-.2.1-.295.1L122.985,8c.295-.1-.1-.295.295-.295s.1.492.393.393,0,.2.393.1.295-.393.492-.492h-.2L123.968,8a.492.492,0,0,0-.492-.393l.393-.2a1.573,1.573,0,0,1-.393-.688c-.295.295-.2-.2-.492.1a.492.492,0,0,1-.393.393c0-.1.2-.1.2-.2s.2-.295-.1-.2.393-.2.688-.295.2-.1.1-.295l-.59-.295c.1-.393-.295-.59-.393-.688s.393-.295.393-.393-.295.295-.2,0h.1c-.1,0,0-.492-.492-.295h.492c.2-.295-.2-.2-.295-.393V2.986c-.295-.1-.2-.393-.393-.59h0c.2-.1.295-.295.1-.2h.688c-.1.2-.295,0-.393.2s0,.295.2.2h-.2c.295-.2.295-.1.492-.1s0-.1-.1-.1a.3.3,0,0,1,.295.2c-.2,0-.1.1-.2.2s.393,0,.393.2.393.2.393.393h-.688c0,.2.1.1,0,.295s.492-.2.688-.1h-.2c.2.1.393-.1.492.1a5.409,5.409,0,0,0,.393.885h-.2c.492-.1.393.393.688.393s.492.59.295.885a4.326,4.326,0,0,1,.983,1.377h-.295c.2,0-.1.1,0,.2s.295,0,.492,0,.295.59.59.688h-.2c.492.1.295.492.393.787s-.2.2-.1.295.393.1.688.2a1.278,1.278,0,0,1,.1.688c.688.393.787,1.18,1.278,1.672h-.2c.787.393.688,1.377,1.18,1.77h-.3c0,.2.295.295.492.2s.393.295.1.59.295.1.393.295a1.18,1.18,0,0,0,.295.787h0l-.2.2c.2.1.1.492.492.2s.59.688.295,1.18h.295c.1.295,0,.688.295.885s-.2,0-.2.1h.295c.393.393.1,1.082.393,1.573a9.734,9.734,0,0,1,.983,2.36h-.1c.393.1-.1.688.492.787s0,.295-.2.295,0,.688.393.885h-.1c-.1.393.295.59.2.983h-.2c-.1.2.492.2.1.393h.2a7.08,7.08,0,0,0,.885,2.163c-.1.59-.787.295-.295.59h.1c.2.1-.393.393-.2.393h.295c.1,0-.295.492,0,.688h-.2c.492.2.393.59.885.688.492,1.672,1.18,3.245,1.573,4.818a34.911,34.911,0,0,1,.787,4.916c-.3.492-.3.492-.1.885h-.1c.295,0,.1.295.393.295s.2,1.18.295,1.868-.295-.1-.295,0h.1a.184.184,0,0,0,.295,0c.492,1.573,0,3.245.295,4.818a2.95,2.95,0,0,0,.2,1.278,6.293,6.293,0,0,0-.295,3.54s-.885-.1-1.082-.59" transform="translate(-2.045 -0.036)" fill="#009ca4"/>
    <path id="Path_6566" data-name="Path 6566" d="M122.793,1.6c-.1.1-.1.295-.393.295l.393-.295" transform="translate(-2.05 -0.027)" fill="#009ca4"/>
    <path id="Path_6567" data-name="Path 6567" d="M123.3,5.7h-.1s-.2,0-.1-.1h.2" transform="translate(-2.061 -0.094)" fill="#009ca4"/>
    <path id="Path_6568" data-name="Path 6568" d="M123.693,6.5c-.1.1-.295-.1-.393-.2Z" transform="translate(-2.065 -0.105)" fill="#009ca4"/>
    <path id="Path_6569" data-name="Path 6569" d="M123.6,7.6c-.1.1-.1.1-.2,0h.2" transform="translate(-2.066 -0.127)" fill="#009ca4"/>
    <path id="Path_6570" data-name="Path 6570" d="M123.9,7.5c0,.1,0,.1-.1.2s-.2-.1.1-.2" transform="translate(-2.071 -0.126)" fill="#009ca4"/>
    <path id="Path_6571" data-name="Path 6571" d="M124.4,9.4s.2.1.1.2a.112.112,0,1,1-.1-.2" transform="translate(-2.082 -0.157)" fill="#009ca4"/>
    <path id="Path_6572" data-name="Path 6572" d="M125,10.1Z" transform="translate(-2.093 -0.169)" fill="#009ca4"/>
    <path id="Path_6573" data-name="Path 6573" d="M131.8,24.9l-.1-.1h.1Z" transform="translate(-2.205 -0.415)" fill="#009ca4"/>
    <path id="Path_6574" data-name="Path 6574" d="M133.8,31.7c.1.1-.1.1-.1.1s.2,0,.1-.1" transform="translate(-2.239 -0.531)" fill="#009ca4"/>
    <path id="Path_6575" data-name="Path 6575" d="M135.4,35.3Z" transform="translate(-2.267 -0.591)" fill="#009ca4"/>
    <path id="Path_6576" data-name="Path 6576" d="M213.7,23.6c-.1-.2-.2.1-.1-.1s.2,0,.1.1" transform="translate(-3.576 -0.392)" fill="#009ca4"/>
    <path id="Path_6577" data-name="Path 6577" d="M210.7,72.278c-.492-.787.393-1.278.1-2.065s.393.1.3-.1a3.48,3.48,0,0,1,.885-2.261h.1c.1-.1-.2-.393-.1-.492h.2c-.2-.1,0-.295-.2-.393h.393l-.2-.2c-.59-.393.2-.59-.1-.983h.2a4.918,4.918,0,0,1,0-1.868h.393a.492.492,0,0,1-.295-.492c.295,0-.2-.295,0-.492h.1c-.295-.2.2-.2-.1-.393h.2c-.393-.1.295-.2.1-.295h-.1c-.1-.1.1-.1.1-.295h0c-.1-.295.2-.295-.1-.393s.1.295.492.2a6.194,6.194,0,0,1,.2-2.36h.295a.393.393,0,0,0-.2-.393h.2c.1-.1-.295-.2-.2-.295h.295a.541.541,0,0,1-.2-.492h.2c-.295-.2.1-.295,0-.492h.2c.295-.2-.393-.1-.2-.295h.2c-.295-.2-.1-.492-.2-.787h.1a1.606,1.606,0,0,0,0-.688c-.1-.295.393.1.393-.1s-.1-.393-.492-.295.295-.492.2-.59.492,0,.492.1h.2c.1,0-.1.1.1.1s-.1-.295,0-.393-.59-.393-.59-.59.393,0,.492.1l-.688-.393c0-.1.295,0,.2-.1h-.2s-.1-.295.295-.295.1.1.2.1-.1-.2-.1-.295h0c.1-.1-.1-.295-.295-.2s.2,0,.1.1a.393.393,0,0,1-.2-.393h.295a1.475,1.475,0,0,1-.393-.688h.2c.295-.295-.295-.59.1-.787h-.2c0-.1.295-.1.2-.2s0-.1-.1-.2h.1a.885.885,0,0,1,0-.885l-.295-.295h.2c.1-.1,0-.2.2-.2s.2.59,0,.393-.295-.295,0-.2-.2-.295,0-.393.295.1.295,0-.1-.1-.2-.2h-.1c-.2,0,0-.2-.2-.1s-.1-.295.295-.2h.295l-.393-.2h.1c-.393,0,.1-.2-.295-.295s0-.393.295-.492-.295-.295-.2-.393h.1c.1-.1,0-.1,0-.2l.393-.295c-.1-.1-.393-.1-.492-.1a.263.263,0,0,1,.1-.492c.393-.1.2.2.3.1s-.3-.295-.1-.492h-.393c.2-.1-.2-.295.2-.295s.1-.2-.2-.2-.2-.787.492-.983,0-.2-.2-.1.1.1,0,.1h-.2c.1-.1.1-.2.393-.1s-.59-.2-.492-.492h.2l-.2-.2c.1-.2.295-.1.59-.1s0-.2-.2-.295h.295c-.2.1-.1-.1-.2-.1h.1c.1,0,0-.1,0-.2a.3.3,0,0,0-.295.2l-.2-.2a.193.193,0,0,0,.2-.2l-.2-.1s0-.1.2-.1-.1.1,0,.1.295-.1.2-.2-.492,0-.295-.2h.2v-.2h-.393c-.2,0-.1-.295-.295-.295s.2-.2.2-.295h0c.1-.1,0-.2-.1-.295h0a.2.2,0,0,0-.2-.2c.2-.1.787-.1.59-.2a1.4,1.4,0,0,0-.59-.2c-.2,0-.2-.492.1-.787h-.2c.1-.393-.295-.787.1-1.082s.2,0,.393,0,.2-.1-.1-.1h-.393a.606.606,0,0,1,.1-.688h-.2c.295,0,.393-.2.2-.295h0c-.1,0-.393,0-.2-.2h.2c-.2-.1-.393-.295-.295-.393h.295c0-.1-.2-.1-.295,0s.2-.393.393-.492a1.377,1.377,0,0,1-.688-1.377h.1c.1-.1-.295,0-.2-.1h.492c.1-.2-.3-.2-.3-.295s.1.1-.1.1.1-.295-.2-.295h.295c.3-.2.59.295.983.1h-.1c.295-.1.393.2.393,0a.787.787,0,0,0-.688-.1c-.1-.2-.688,0-.688-.295s.1.2.295.1-.1-.2-.1-.295-.393.1-.492,0,.295.1.295-.1-.295-.2-.393,0,.1-.2-.2-.295.59.1.688-.1-.393-.2-.688-.1h.393c.1-.1-.492-.2,0-.295h-.295l.295-.2c0-.1-.393-.295,0-.295s0-.2-.295-.1.2.1-.1.2-.1-.2-.2-.295h.2c-.1,0,0-.1-.2-.2h0c-.1-.2.393-.1.295-.295h.2s.2-.1.1-.2h-.59c-.1-.1.2-.1,0-.1h.295a.314.314,0,0,0,.295-.295c0-.2-.393-.2-.492,0s.1-.2.295-.1-.2,0-.393-.1l.492-.393h.393c.3.1.2-.1.492-.1s-.1-.1-.2-.2a1.94,1.94,0,0,0-1.082,0c-.393.1.983-.295.295-.492s-.492,0-.295.1-.492-.1-.295-.295.393-.2.688,0-.1.1-.1.1.393,0,.393-.2-.1-.2-.295-.2,0,.1-.2.1.295-.295-.2-.295-.2.2-.393.2h0c.1-.2-.295,0-.295-.295h.295c.295,0-.1.295.393.2s-.2-.2-.1-.295h.1c0-.1.59-.2.2-.295h-.295c-.1-.2-.295-.295-.295-.393s0-.295.393-.2-.1.393.2.492,0,.2.393.2.393-.2.59-.295h-.59a.5.5,0,0,0-.393-.492h.393a1.278,1.278,0,0,1-.1-.787c-.393.2-.1-.295-.393-.1a.59.59,0,0,1-.492.2h.295c-.2-.1.295-.2,0-.295s.492,0,.787,0,.2,0,.2-.2l-.492-.492c.295-.295-.1-.59-.1-.787s.492-.1.492-.2-.393.2-.2-.1h.1c-.1,0,.2-.393-.295-.393h.59c.2-.2-.1-.295-.1-.393h-.2c-.2-.2,0-.393-.1-.59h.1c.2,0,.295-.2.1-.2l.59.295c-.1.1-.295-.1-.492,0s-.1.295.1.295h-.1c.295-.1.295,0,.492.1s.1-.1,0-.1a.3.3,0,0,1,.2.295c-.1-.1-.2.1-.295.1s.393.1.295.295.295.295.2.492l-.59-.2c-.1.1,0,.1-.1.295s.492,0,.688.2h-.1c.1.1.393.1.393.295a4.917,4.917,0,0,0,0,.885h-.2c.393.1.2.393.393.59s.295.688,0,.885a3.835,3.835,0,0,1,.393,1.573h-.295c.2.1-.2.1-.1.2s.295.1.492.2.1.59.295.787h-.2c.393.2.1.492.1.787s-.3.1-.2.2a5.825,5.825,0,0,0,.59.393,1.18,1.18,0,0,1-.1.59c.492.59.295,1.278.59,1.868h-.2c.59.59.1,1.377.393,1.868h-.393c-.1.2.1.393.393.295s.2.393-.1.492.2.2.295.295a.983.983,0,0,0,0,.787H216.2c.1.1-.1.492.393.295s.295.787-.1,1.18h.295c0,.295-.295.59,0,.885s-.2-.1-.2.1h.295c.295.492-.295.983-.2,1.475a8.259,8.259,0,0,1,.1,2.36h-.1c.393.295-.393.59.2.787s-.1.2-.2.2a.7.7,0,0,0,0,.885h0c-.2.295.1.59-.2.885h-.2c-.2.1.393.295-.1.393h.2a5.6,5.6,0,0,0,.1,2.163c-.295.492-.787,0-.492.393h.1c.1.2-.492.2-.295.295s.2.1.295.1-.492.295-.295.59h-.1c.393.295.1.59.59.885s0,3.146-.2,4.72a30.289,30.289,0,0,1-.885,4.523c-.492.295-.492.295-.393.787h-.1c.295.1,0,.295.295.393s-.2,1.082-.295,1.672-.3-.2-.3-.1l.2.2h-.1a.188.188,0,0,0,.295.1c-.1,1.573-1.082,2.851-1.377,4.228a2.655,2.655,0,0,0-.295,1.18,5.309,5.309,0,0,0-1.377,2.95s-.787-.393-.787-.885" transform="translate(-3.526 -0.402)" fill="#009ca4"/>
    <path id="Path_6578" data-name="Path 6578" d="M213.792,23.8c-.2.1-.2.2-.492.2l.492-.2" transform="translate(-3.572 -0.399)" fill="#009ca4"/>
    <path id="Path_6579" data-name="Path 6579" d="M212.7,27.5h-.1s-.2-.1-.1-.1h.2" transform="translate(-3.558 -0.459)" fill="#009ca4"/>
    <path id="Path_6580" data-name="Path 6580" d="M212.695,28.295A.443.443,0,0,1,212.4,28Z" transform="translate(-3.557 -0.469)" fill="#009ca4"/>
    <path id="Path_6581" data-name="Path 6581" d="M212.2,29.2h0" transform="translate(-3.553 -0.489)" fill="#009ca4"/>
    <path id="Path_6582" data-name="Path 6582" d="M212.6,29.2v.2c.1,0-.1-.1.1-.2" transform="translate(-3.56 -0.489)" fill="#009ca4"/>
    <path id="Path_6583" data-name="Path 6583" d="M212.4,31.1a.136.136,0,0,1,0,.2c-.1.1-.2-.2,0-.2" transform="translate(-3.555 -0.521)" fill="#009ca4"/>
    <path id="Path_6584" data-name="Path 6584" d="M212.7,31.8v.1h0Z" transform="translate(-3.562 -0.532)" fill="#009ca4"/>
    <path id="Path_6585" data-name="Path 6585" d="M213.8,46.8l-.1-.1h.2Z" transform="translate(-3.579 -0.782)" fill="#009ca4"/>
    <path id="Path_6586" data-name="Path 6586" d="M213.3,53.3c.1.1-.1,0-.2.1s.2,0,.2-.1" transform="translate(-3.568 -0.893)" fill="#009ca4"/>
    <path id="Path_6587" data-name="Path 6587" d="M213.6,57v-.1l.295.1Z" transform="translate(-3.577 -0.953)" fill="#009ca4"/>
    <path id="Path_6588" data-name="Path 6588" d="M235.7,51.6c-.1-.2-.2.1-.1-.1s.2,0,.1.1" transform="translate(-3.944 -0.861)" fill="#009ca4"/>
    <path id="Path_6589" data-name="Path 6589" d="M219.8,89.857c-.1-.885.885-.787.983-1.475s.295.295.295.1a2.411,2.411,0,0,1,1.573-1.278h.1c.2,0,0-.393.1-.492l.2.2c-.1-.2.1-.295,0-.393l.393.2v-.295c-.295-.59.393-.393.295-.787h.1c0-.59.492-.983.688-1.475l.3.2a.393.393,0,0,1-.1-.492c.295.1-.1-.393.2-.393h0c-.2-.295.3,0,0-.295h.2c-.3-.295.295,0,.2-.2h-.1c0-.1.2,0,.2-.2h0c0-.2.3-.2,0-.393s0,.2.3.393a4.916,4.916,0,0,1,.983-1.77h.295c0-.1.1-.2,0-.393h.2c.2,0-.2-.295,0-.295l.2.2c-.1-.2,0-.295,0-.492h.1c-.2-.295.2-.2.1-.393h.1c.295-.1-.295-.295-.1-.295h.2c-.2-.295.1-.492,0-.688h.1c.1-.2.295-.295.2-.492s.393.295.393.1,0-.393-.393-.492.393-.295.295-.393.393.2.393.295h.2c.1.1-.1.1.1.1s0-.295.1-.295-.393-.492-.393-.688.393.2.393.2l-.492-.59c0-.1.295.1.2,0l-.2-.2c.1,0,.1-.295.393-.1s0,.1.2.1,0-.2,0-.295h0c.1-.1,0-.295-.2-.295s.2.1.1.1a.393.393,0,0,1-.1-.393l.2.2a1.377,1.377,0,0,1-.2-.688c-.2-.1.2.2.2.2s-.1-.59.3-.59h-.2c.1-.1.295,0,.2-.1s0-.1,0-.2h.1a.642.642,0,0,1,.2-.787v.295h.2c.1,0,.1-.2.2-.1s0,.492-.1.295-.2-.393,0-.2-.1-.295.1-.295.2.2.295.1-.1-.1-.1-.2h-.1c-.2-.1.1-.1-.2-.2s0-.295.295-.1h.295l-.295-.295h.1c-.393-.2.1-.1-.2-.393s.2-.295.393-.295-.2-.295-.1-.393h.1c.2,0,.1-.1,0-.2h.492c-.1-.2-.3-.2-.492-.295s-.1-.393.295-.393.1.2.3.2-.2-.295,0-.393h-.393c.2,0-.1-.295.2-.2s.2-.1-.2-.295.1-.688.688-.688,0-.1-.1-.2.1.1,0,.1h-.1c.1-.1.2-.1.393.1s-.492-.393-.295-.59h.2l-.2-.2c.1-.1.295,0,.59.1s0-.2-.1-.295h.295c-.2,0-.1-.1-.2-.2h0c.1,0,.1-.1.1-.2h-.295l-.2-.2c.2.1.2-.1.295-.1s-.2-.1-.2-.2.1-.1.2,0-.1,0,0,.1.3,0,.2-.1-.492-.1-.295-.2h.295c-.2-.1,0-.2-.295-.295l.2-.2h0c.1,0,.1-.2,0-.295h0s0-.2-.1-.2.787.2.59,0-.295-.295-.492-.295-.1-.492.295-.59h-.2c.2-.295-.1-.688.393-.787h.3c-.2-.1.2,0-.1-.1h0a.393.393,0,0,1,.2-.492h-.2c.295.1.393,0,.295-.2h0c-.1-.1-.393-.1-.2-.2h.2c-.1-.1-.393-.295-.2-.393h.295a.188.188,0,0,0-.295-.1.726.726,0,0,1,.492-.295,1.082,1.082,0,0,1-.393-1.278h.1c.2-.1-.2-.1-.1-.1h.492c.2-.1-.2-.2-.3-.295s.1.1-.1,0,.2-.2-.1-.2h.295c.393-.1.59.295.983.295h0c.295,0,.295.295.393.1a.983.983,0,0,0-.688-.2c-.1-.2-.688-.2-.59-.393s0,.2.295.2-.1-.2,0-.295-.393,0-.393-.1.295.1.295,0-.295-.2-.393-.1.1-.1-.2-.295.59.2.787.1-.295-.2-.688-.2h.393c.2-.1-.393-.295.1-.2h0c0-.1-.295-.295.1-.2s0-.2-.295-.2.2.1-.2.2,0-.2-.1-.2h.2c-.1,0,0-.1-.2-.2h0c-.1-.2.393,0,.393-.2h.2s.2-.1.1-.1l-.59-.2c-.1-.1.2,0,0-.1h.2c.1,0,.393-.1.393-.2s-.393-.2-.492-.1h.295c-.1-.1-.2,0-.393-.1l.59-.2h.393c.295.1.2,0,.492,0s-.1-.1-.1-.2-.688-.2-1.082-.2,1.082-.1.393-.295-.393-.1-.295.1-.393-.1-.2-.295a.486.486,0,0,1,.688.1c.2.2-.1.1-.1.1s.393,0,.393-.1,0-.2-.295-.2,0,.1-.2.1.295-.2-.1-.295-.2.1-.393.1h.1c.1-.2-.295-.1-.295-.295h.295c.295.1-.1.295.295.295s-.2-.2-.1-.295h.1s.59-.1.295-.295h-.295c0-.2-.2-.295-.295-.393s0-.2.393-.1-.2.393.1.393-.1.2.295.2.393-.1.688-.2h-.59c.1-.2-.1-.393-.295-.492h.393a.983.983,0,0,1,0-.688c-.393.1-.1-.2-.393-.1a.59.59,0,0,1-.59.1h.3c-.2-.1.295-.1,0-.2s.492,0,.787.1.2,0,.2-.1l-.393-.492c.295-.2,0-.492,0-.688l.59-.2c0-.1-.393.1-.2-.1h.1c-.1,0,.2-.295-.295-.393h.59c.295-.1-.1-.2-.1-.295h-.2c-.2-.2,0-.295-.1-.492h.1c.2,0,.295-.1.2-.2l.59.295h-.492c-.2.1-.1.2.1.295h-.1c.295,0,.295.1.492.1s.1-.1,0-.1a.3.3,0,0,1,.2.295h-.295q.442,0,.295.295c-.1.2.2.295.1.492l-.59-.2c-.1.1,0,.1-.1.2l.688.2h-.2c.1.1.393.1.393.295a3.638,3.638,0,0,0-.1.787h-.2c.393.1.2.393.393.59a.4.4,0,0,1-.2.688,2.852,2.852,0,0,1,.2,1.377h-.295c.2.1-.2.1-.1.1a1.662,1.662,0,0,1,.492.2c.2.1,0,.492.2.688h-.2c.393.2,0,.393-.1.688h-.295a2.144,2.144,0,0,1,.492.393.885.885,0,0,1-.295.492c.393.59,0,1.082.295,1.672h-.2c.393.59-.1,1.18,0,1.672h-.393c-.2.1,0,.393.295.393s.1.393-.2.393.1.2.2.393a.787.787,0,0,0-.2.688h-.295c.1.1-.2.393.295.393s.1.787-.393.983h.2c-.1.295-.393.492-.2.688s-.2-.1-.2,0h.2c.1.492-.492.787-.492,1.18a6,6,0,0,1-.492,2.065h-.1c.3.295-.492.393-.1.688s-.1.2-.295.1-.393.393-.2.787h0c-.295.2-.1.492-.393.688h-.1c-.2,0,.3.393-.2.295h.2a5.114,5.114,0,0,0-.492,1.77c-.393.295-.688-.295-.59.2h.1c.1.2-.59,0-.393.2s.1.1.295.2-.492.1-.393.393h-.1c.3.393-.1.59.3.983l-.787,1.967a14.163,14.163,0,0,1-.885,1.868,19.959,19.959,0,0,1-2.458,3.343c-.492,0-.492,0-.59.393h-.492c.2.2-.1.2.1.393l-.885,1.18c0-.1-.2-.295-.2-.2v.2h0a.3.3,0,0,0,.2.295c-.688,1.18-1.966,1.77-2.851,2.753s-.492.492-.688.787a4.326,4.326,0,0,0-2.458,1.573s-.492-.688-.295-1.082" transform="translate(-3.68 -0.872)" fill="#009ca4"/>
    <path id="Path_6590" data-name="Path 6590" d="M235.792,51.8c-.2,0-.2.2-.492.1h.492" transform="translate(-3.94 -0.867)" fill="#009ca4"/>
    <path id="Path_6591" data-name="Path 6591" d="M234.2,54.8h-.1s-.2-.1-.1-.1h.2" transform="translate(-3.918 -0.916)" fill="#009ca4"/>
    <path id="Path_6592" data-name="Path 6592" d="M234.1,55.595a.393.393,0,0,1-.295-.295Z" transform="translate(-3.915 -0.926)" fill="#009ca4"/>
    <path id="Path_6593" data-name="Path 6593" d="M233.5,56.3h0" transform="translate(-3.91 -0.943)" fill="#009ca4"/>
    <path id="Path_6594" data-name="Path 6594" d="M233.8,56.3h-.2c.1,0-.1-.1.2-.1" transform="translate(-3.912 -0.941)" fill="#009ca4"/>
    <path id="Path_6595" data-name="Path 6595" d="M233.4,57.8s.1.1,0,.1-.2-.2,0-.1" transform="translate(-3.906 -0.967)" fill="#009ca4"/>
    <path id="Path_6596" data-name="Path 6596" d="M233.5,58.5v.1h0Z" transform="translate(-3.91 -0.98)" fill="#009ca4"/>
    <path id="Path_6597" data-name="Path 6597" d="M231.5,71.1l-.1-.1h.2Z" transform="translate(-3.875 -1.189)" fill="#009ca4"/>
    <path id="Path_6598" data-name="Path 6598" d="M229.2,76.2c0,.1-.1,0-.2,0h.2" transform="translate(-3.835 -1.276)" fill="#009ca4"/>
    <path id="Path_6599" data-name="Path 6599" d="M228.3,79.2h0l.295.1Z" transform="translate(-3.823 -1.326)" fill="#009ca4"/>
    <path id="Path_6600" data-name="Path 6600" d="M237.4,141c-.1,0,0,.3-.1.1s.1-.2.1-.1" transform="translate(-3.973 -2.36)" fill="#009ca4"/>
    <path id="Path_6601" data-name="Path 6601" d="M270.039,132.569c.2.885-.688.688-.688,1.377s-.295-.295-.295-.2a2,2,0,0,1-1.475.983h0c-.1,0,0,.393-.1.393v-.2c.1.2-.1.2,0,.393l-.295-.2v.295c.295.59-.393.2-.393.59h-.1c-.1.59-.492.787-.787,1.18l-.2-.295a.393.393,0,0,1,0,.492c-.2-.2,0,.295-.2.295h0c.1.295-.2-.1-.1.295l-.2-.2c.2.393-.2-.1-.2.1h0c0,.1-.2,0-.2.1h0c-.1.2-.295.1-.1.295s.1-.2-.2-.492a3.048,3.048,0,0,1-1.377,1.082l-.295-.2c0,.1-.2.2-.1.3h-.2c-.2-.1.1.393-.1.295v-.295c0,.295-.1.295-.2.393v-.492c0,.295-.2.1-.2.295v-.2c-.295-.1.1.393-.1.295v-.2c0,.393-.2.393-.295.492h0c-.1.1-.295.1-.393.295s-.2-.393-.295-.295-.2.295.1.59-.393,0-.492.1-.2-.393-.2-.492l-.2-.2c-.1-.1.1,0,0-.2s-.1.2-.2.2.1.688-.1.787-.2-.393-.2-.393v.787s-.1-.3-.2-.1a.589.589,0,0,1,0,.2s-.2.2-.393-.1.1-.1,0-.2l-.2.2h0c-.1,0-.1.2,0,.393s-.1-.2,0-.1a.3.3,0,0,1-.2.393.689.689,0,0,0,0-.295,1.179,1.179,0,0,1-.295.59c.1.2-.1-.295,0-.2s-.295.492-.59.2v.2c-.1,0-.2-.2-.2-.1a.1.1,0,0,1-.1.1v-.1s-.393.492-.59.295,0,.393-.1.393v-.2c-.1-.1-.2.1-.2-.1s.295-.393.295-.1-.1.393-.2.1-.1.295-.295.1,0-.295-.1-.295,0,.1-.1.2h0c.1.2-.1,0,0,.2s-.2.2-.295-.2v-.295c-.1,0,0,.295,0,.492h-.1c.1.393-.2,0-.1.393s-.3.1-.492-.2-.1.295-.3.295a.2.2,0,0,0,0-.2c-.1-.1-.1,0-.1.1l-.295-.295c-.1.2,0,.393,0,.492s-.2.295-.393,0,.1-.2,0-.295-.1.393-.3.2v.295c-.1-.2-.2.2-.2-.1s-.2-.1-.1.295-.59.295-.787-.295-.1,0-.1.2.1-.2.1,0v.2c0,.1-.2-.1-.1-.393s-.1.59-.295.492,0-.2-.1-.2v.295c-.1,0-.1-.295-.2-.59s-.2.1-.2.2v-.295c.1.2,0,.2-.1.2h0c0-.1-.1,0-.1,0a.393.393,0,0,0,.2.2v.2c0-.2-.1-.2-.2-.2s0,.2-.1.2-.1,0-.1-.2.1.1.1,0-.1-.295-.2-.1.1.492-.1.295a1.473,1.473,0,0,0,0-.295h-.1v.2h0c0,.2-.2.1-.2.393l-.2-.2h0c-.1-.1-.2,0-.2.1h0l-.2.2c-.1-.2-.1-.787-.2-.492a1.461,1.461,0,0,0-.1.59c0,.2-.393.3-.59-.1s0,.1-.1.2-.59.295-.787-.1,0-.2,0-.295-.1-.2-.1.1,0,.295.1.393a.295.295,0,0,1-.492-.1.2.2,0,0,1,0,.2c0-.295-.1-.393-.2-.2h0c0,.1,0,.393-.1.2v-.2c-.1.2-.2.393-.295.295v-.295s-.1.2,0,.295-.295-.2-.393-.393a.885.885,0,0,1-1.082.59h0c-.1-.1-.1.295-.1.2s-.1-.3,0-.492-.2.2-.295.295.1-.1,0,.1-.2-.2-.2.1a1.182,1.182,0,0,1,0-.393h-.1c-.1-.295.3-.59.2-.983h-.1c-.1-.295.2-.295,0-.393a1.081,1.081,0,0,0-.1.688c-.2.1-.1.688-.295.688s.2,0,.1-.295-.2.1-.295,0a.492.492,0,0,1-.1.492c-.1-.1.1-.295-.1-.295s-.2.295-.1.393-.1-.1-.2.2.2-.59,0-.787-.2.295-.2.688a.591.591,0,0,1,0-.393c-.1-.2-.2.492-.2-.1h0c-.1,0-.295.295-.2-.1s-.2,0-.2.295.1-.2.2.2-.2,0-.2.1v-.2c0,.1-.1,0-.2.2a.3.3,0,0,0,0-.2v.2c-.2.1,0-.393-.1-.393v-.2s-.1-.2-.1-.1l-.2.59c-.1.1,0-.2-.1,0v-.2c0-.1,0-.393-.1-.393s-.2.393-.1.492-.1-.1-.1-.295,0,.2-.1.295l-.2-.59.2-.295h-.1c.1-.295,0-.2.1-.492h-.2c.1.492-.2.59-.295,1.082s0-1.082-.295-.393-.1.393,0,.295-.1.393-.295.2,0-.492.1-.688.1.1.1.1.1-.393,0-.492-.2,0-.2.295.1,0,0,.2-.1-.295-.295.1.1.2.1.393h-.1v-.2c-.2-.1-.1.295-.295.2v-.295c.1-.295.2.2.295-.295s-.2.2-.295.1h.1s0-.59-.2-.295,0,.2-.1.295l-.393.2c.1-.295-.2-.1,0-.393s.295.2.393-.1.1.1.2-.295-.1-.393,0-.688h-.1a4.041,4.041,0,0,0,0,.492c-.1-.1-.295,0-.492.2s0-.393.1-.393h-.491c0,.393-.2.1-.2.393a.688.688,0,0,1,0,.59c-.1,0,0-.2,0-.295s0-.393-.2,0,.1-.492.2-.787.1-.2-.1-.2l-.492.295c-.1-.295-.393-.1-.59-.1s.1-.492,0-.59,0,.393-.1.2h0c-.1.1-.2-.295-.393.2v-.393h-.1a.361.361,0,0,1,.1-.295c.1-.1-.2,0-.3,0v.2c-.2.1-.295-.1-.492-.1v-.2h-.1c.1-.2,0-.393-.1-.2l.393-.492c0,.1-.1.2-.2.492s.2.2.2,0h-.1a2.525,2.525,0,0,1,.2-.492h.2c-.1.1,0,.2-.1.295s.2-.295.295-.2.295-.1.393,0l-.393.492.2.2a3.28,3.28,0,0,1,.295-.59v.2c.1-.1.2-.393.295-.295l.59.295v.2c.2-.393.393-.1.492-.295s.492-.1.59.295a2.163,2.163,0,0,1,1.18,0v.295c.1-.2,0,.2.1.1s.1-.295.2-.492.393,0,.59-.2v.2c.2-.393.393,0,.59.1s0,.295.1.295.2-.295.393-.492l.393.2c.492-.393.885-.1,1.377-.393v.2c.492-.492.983,0,1.377-.295v.393c.1.1.295-.1.2-.393s.295-.2.393.1.1-.2.2-.295a.492.492,0,0,0,.59,0h-.1v.295s.295.1.2-.393.492-.295.787.1,0-.2,0-.295.492.2.59,0,0,.2.1.2,0-.2,0-.295.688.2.983.1a5.507,5.507,0,0,1,1.573-.393h0c.1-.393.492.295.492-.295s.2,0,.2.2.393.2.59-.2h0c.295.2.393-.2.59,0a.294.294,0,0,0,0,.2c.1.2.1-.393.295,0s0-.2-.1-.2a13.1,13.1,0,0,1,1.377-.59c.492-.2.295.787.393.295s0-.2,0-.1.295.393.295.2,0-.2-.1-.295.393.295.492.1h0c0-.492.295-.295.295-.885l1.377-.787,1.377-.787c.983-.393,1.77-1.082,2.753-1.377s.393.2.59-.1h.1c-.2-.295.1-.1,0-.393l.983-.688c0,.1.1.3.1.2v-.2h.1a.3.3,0,0,0-.1-.295c.688-.787,1.868-.885,2.556-1.573l.59-.59c.2-.2,1.573-.393,1.967-1.18s.492.688.393.983" transform="translate(-3.97 -2.19)" fill="#009ca4"/>
    <path id="Path_6602" data-name="Path 6602" d="M237.6,141.1a.886.886,0,0,1-.1.492,3.738,3.738,0,0,1,.1-.492" transform="translate(-3.977 -2.363)" fill="#009ca4"/>
    <path id="Path_6603" data-name="Path 6603" d="M239.6,143.3h0" transform="translate(-4.012 -2.4)" fill="#009ca4"/>
    <path id="Path_6604" data-name="Path 6604" d="M240.295,143.5a.3.3,0,0,1-.295.2Z" transform="translate(-4.019 -2.403)" fill="#009ca4"/>
    <path id="Path_6605" data-name="Path 6605" d="M240.8,144.2c0,.1,0,.2-.1.2v-.2" transform="translate(-4.031 -2.415)" fill="#009ca4"/>
    <path id="Path_6606" data-name="Path 6606" d="M240.9,143.9c.1,0,.1.1.1.2s-.1.1-.1-.2" transform="translate(-4.034 -2.41)" fill="#009ca4"/>
    <path id="Path_6607" data-name="Path 6607" d="M242.2,144.6s.1-.1.1,0-.2.2-.1,0" transform="translate(-4.055 -2.421)" fill="#009ca4"/>
    <path id="Path_6608" data-name="Path 6608" d="M242.8,144.4h.1a.2.2,0,0,1-.1.2Z" transform="translate(-4.066 -2.418)" fill="#009ca4"/>
    <path id="Path_6609" data-name="Path 6609" d="M254.3,143.2v.1l-.1-.1Z" transform="translate(-4.257 -2.398)" fill="#009ca4"/>
    <path id="Path_6610" data-name="Path 6610" d="M259.1,141.8c0-.1.1.1.1.1s0-.2-.1-.1" transform="translate(-4.339 -2.374)" fill="#009ca4"/>
    <path id="Path_6611" data-name="Path 6611" d="M261.3,140v.1l-.2-.295Z" transform="translate(-4.372 -2.341)" fill="#009ca4"/>
    <path id="Path_6612" data-name="Path 6612" d="M233.3,165c-.2,0,0,.295-.1.1s.1-.2.1-.1" transform="translate(-3.905 -2.762)" fill="#009ca4"/>
    <path id="Path_6613" data-name="Path 6613" d="M268.994,155.578c.1.885-.787.688-.885,1.377s-.2-.3-.3-.2-.885.983-1.573.885h0c-.1,0,0,.393-.2.393v-.2c.1.2-.1.2-.1.393l-.295-.295v.295c.2.59-.393.2-.492.59v-.2c-.1.59-.59.787-.983,1.18l-.2-.3a.393.393,0,0,1,0,.492c-.2-.2-.1.295-.295.295h0c.1.295-.2-.1-.1.295l-.2-.2c.2.393-.2-.1-.2.1h0c0,.1-.2,0-.2.1h0c-.1.2-.295,0-.2.295s.1-.2-.2-.492a3.44,3.44,0,0,1-1.475,1.082l-.2-.2c0,.1-.2.2-.2.3h-.2c-.2-.1,0,.393-.1.295a.492.492,0,0,0-.1-.295c0,.295-.1.295-.2.393a.3.3,0,0,0,0-.2c0,.295-.295.1-.295.295v-.2c-.295-.1.1.393-.1.295s0-.1-.1-.2-.295.393-.393.59h0c-.1.1-.295.1-.492.295s-.2-.393-.295-.295a.43.43,0,0,0,0,.59c.2.295-.393,0-.492.1s-.2-.393-.1-.492l-.2-.2c0-.1.1,0,0-.2l-.2.2a1.69,1.69,0,0,1-.1.787c-.1.1-.2-.393-.2-.393v.787c-.1,0-.1-.295-.2-.1a.492.492,0,0,1,0,.2s-.2.2-.393-.1.1-.1,0-.2l-.2.2h0c-.1,0-.2.2,0,.393s-.1-.2,0-.1a.3.3,0,0,1-.2.393.689.689,0,0,0,0-.295,1.18,1.18,0,0,1-.295.59c.1.2,0-.295,0-.2s-.295.492-.59.2v.2c-.1,0-.2-.2-.2-.1a.1.1,0,0,1-.1.1v-.1s-.393.492-.688.393,0,.393-.1.393v-.2c-.1-.1-.2.1-.2-.1s.393-.393.3-.1-.1.393-.2.1-.1.295-.3.1,0-.3-.1-.3,0,.1-.1.2h0c.1.2-.1,0,0,.2s-.2.2-.3-.2v-.295c-.1,0,0,.295,0,.492h-.1c.1.393-.2,0-.2.393s-.393.1-.492-.2-.1.295-.3.295a.2.2,0,0,0,0-.2c-.1-.1-.1,0-.2.1l-.295-.295c-.1.2,0,.393,0,.492s-.2.295-.393,0,.1-.2,0-.3-.1.393-.295.2v.295c-.1-.2-.2.295-.295-.1s-.2-.1-.1.295-.59.295-.885-.295-.1,0-.1.2.1-.2.1,0v.2c0,.1-.2-.1-.1-.393s-.1.59-.295.492,0-.2-.1-.2v.295c-.2,0-.1-.295-.2-.59s-.2.1-.2.295l-.2-.295c.1.2,0,.2-.1.2h0c0-.1-.1,0-.2,0a.393.393,0,0,0,.2.2v.2a.193.193,0,0,0-.2-.2s0,.2-.1.2-.1,0-.1-.2.1.1.1,0-.1-.295-.2-.1.1.492-.1.295a1.377,1.377,0,0,0,0-.295h-.2v.2h0c0,.2-.2.1-.2.393h-.2c-.1-.1-.2,0-.2.1h0s-.1,0-.2.2-.2-.787-.2-.492-.1.393-.1.59-.393.295-.59-.1,0,.1,0,.2a.629.629,0,0,1-.885-.1c-.295-.393,0-.2,0-.295s-.1-.2-.1.1,0,.295.1.393a.393.393,0,0,1-.492,0,.2.2,0,0,1,0,.2c0-.295-.1-.393-.2-.2h0c0,.1,0,.393-.1.2v-.2c-.1.2-.2.492-.295.295v-.295s-.1.2,0,.295-.295-.2-.393-.393a.983.983,0,0,1-1.082.59h0c-.1-.1,0,.295-.1.2a.439.439,0,0,1,0-.492c.1-.2-.2.3-.3.3s.1-.1.1.1-.2-.1-.2.1a1.18,1.18,0,0,1,0-.393h-.393c-.1-.295.2-.59.1-.983h-.1c-.1-.295.2-.295,0-.393a.983.983,0,0,0-.1.688c-.2.1-.1.688-.295.688s.2,0,.1-.295-.2.1-.3.1a.492.492,0,0,1,0,.492c-.1-.1.1-.295-.1-.295s-.2.295,0,.393-.2-.1-.2.2.1-.59,0-.787-.2.295-.1.688a.591.591,0,0,1,0-.393c-.1-.2-.2.492-.2,0h0c-.1,0-.295.393-.2,0s-.2,0-.1.3.1-.2.2.2-.2,0-.2.1v-.2c0,.1-.1,0-.2.2a.3.3,0,0,0,0-.2v.2c-.2.1,0-.393-.2-.295v-.2s-.1-.2-.1-.1v.59c-.1.1,0-.2-.1,0v-.885c0-.1-.1-.393-.2-.393s-.2.393-.1.492-.1-.1-.1-.295,0,.2-.1.393l-.2-.59v-.393h-.2c.1-.295,0-.2,0-.492h-.2c.1.492-.2.688-.2,1.082s-.1-1.082-.295-.393-.1.393,0,.295-.1.393-.3.2a.486.486,0,0,1,.1-.688c.2-.2.1.1.1.1s0-.393-.1-.393-.2,0-.2.295.1,0,.1.2-.2-.295-.295.1.1.2.1.393h-.1v.1c-.2-.1-.1.295-.3.2v-.3c.1-.295.3.1.3-.295s-.2.2-.3.1h.1s0-.59-.2-.295,0,.2-.1.295l-.393.2c.1-.295-.2-.1,0-.393s.295.2.393-.1.1.1.2-.295-.1-.393-.1-.688h-.1a4.028,4.028,0,0,0,0,.492c-.2-.1-.295,0-.492.295s0-.393.1-.393h-.59c.1.393-.2.1-.2.393a.59.59,0,0,1,.1.59c-.1,0,0-.2,0-.295s-.1-.393-.2,0a5.181,5.181,0,0,1,.2-.787c.1-.295,0-.2-.1-.2l-.492.295c-.1-.295-.492-.1-.59-.1s0-.492,0-.59,0,.393-.1.2h0c-.1.1-.3-.295-.393.2V165.9h-.1a.361.361,0,0,1,.1-.295c.1-.1-.2,0-.295,0v.2c-.2.1-.3-.1-.492,0v-.2h-.1c.1-.2,0-.393-.1-.2l.393-.492c.1.1-.1.295-.1.492s.2.2.2,0h-.1c0-.295.1-.295.2-.492h.2c-.1.1,0,.2,0,.295s.2-.295.3-.2.295-.2.393-.1l-.3.59.2.2a3.276,3.276,0,0,1,.295-.59v.2c.1-.1.2-.393.295-.295l.688.2v.2c.2-.393.393-.1.492-.3s.492-.1.59.2a2.458,2.458,0,0,1,1.278-.1v.295c.1-.2,0,.2.1.1s.1-.295.2-.492.393,0,.59-.2v.2c.2-.393.393,0,.59,0s.1.3.1.3a3.842,3.842,0,0,1,.393-.492l.492.2c.492-.492.983-.2,1.377-.492v.2c.492-.492,1.082-.1,1.475-.393v.393c.1.1.3-.1.2-.393s.295-.2.393.1.1-.2.2-.295a.59.59,0,0,0,.59,0H245c0,.1,0,.295.1.295s.295.1.2-.393.59-.295.885.1,0-.2,0-.295.492.2.688,0,0,.2.1.2,0-.2,0-.295.787.1,1.082,0a6,6,0,0,1,1.672-.492h0c.1-.393.492.295.59-.295s.2,0,.2.2.492.1.59-.2h0c.3.2.393-.2.688,0a.3.3,0,0,0,0,.2c.1.2.1-.492.295,0s0-.2-.1-.2.983-.393,1.475-.688.295.787.393.295,0-.2,0-.1.295.492.295.2v-.3c0-.1.393.3.492.1h0c.1-.492.393-.295.393-.885s2.065-1.18,3.048-1.672a17.008,17.008,0,0,1,3.048-1.377c1.082-.295.393.2.59-.1h.1c-.1-.295.2-.1,0-.393a6.585,6.585,0,0,0,1.082-.688.99.99,0,0,0,.1.295v.2h.1a.3.3,0,0,0-.1-.295c.787-.787,2.065-.885,2.851-1.573s.492-.393.688-.59a2.753,2.753,0,0,0,2.163-1.18s.492.688.295,1.082" transform="translate(-3.909 -2.584)" fill="#009ca4"/>
    <path id="Path_6614" data-name="Path 6614" d="M233.5,165c0,.2.1.295,0,.492a3.641,3.641,0,0,1,0-.492" transform="translate(-3.91 -2.763)" fill="#009ca4"/>
    <path id="Path_6615" data-name="Path 6615" d="M236,167.1h-.1v-.2" transform="translate(-3.95 -2.795)" fill="#009ca4"/>
    <path id="Path_6616" data-name="Path 6616" d="M236.695,167.2a.393.393,0,0,1-.295.295Z" transform="translate(-3.959 -2.8)" fill="#009ca4"/>
    <path id="Path_6617" data-name="Path 6617" d="M237.3,167.9c0,.1,0,.2-.1.2v-.2" transform="translate(-3.972 -2.812)" fill="#009ca4"/>
    <path id="Path_6618" data-name="Path 6618" d="M237.4,167.6v.2c0-.1-.1.1-.1-.2" transform="translate(-3.974 -2.807)" fill="#009ca4"/>
    <path id="Path_6619" data-name="Path 6619" d="M238.8,168.1s.1-.1.1,0-.2.2-.1,0" transform="translate(-3.999 -2.814)" fill="#009ca4"/>
    <path id="Path_6620" data-name="Path 6620" d="M239.5,167.9h.1a.2.2,0,0,1,0,.2Z" transform="translate(-4.011 -2.812)" fill="#009ca4"/>
    <path id="Path_6621" data-name="Path 6621" d="M251.6,166.1l-.1.1v-.1Z" transform="translate(-4.211 -2.782)" fill="#009ca4"/>
    <path id="Path_6622" data-name="Path 6622" d="M256.7,164.6c0-.1.1.1.1.1s0-.2-.1-.1" transform="translate(-4.298 -2.756)" fill="#009ca4"/>
    <path id="Path_6623" data-name="Path 6623" d="M259.1,162.895h0l-.2-.295Z" transform="translate(-4.335 -2.723)" fill="#009ca4"/>
    <path id="Path_6624" data-name="Path 6624" d="M204.7,199.6c-.1-.1-.295.1-.1-.1h.1" transform="translate(-3.425 -3.341)" fill="#009ca4"/>
    <path id="Path_6625" data-name="Path 6625" d="M215.864,225.6c-.787.3-.59-.59-1.18-.492s.295-.295.2-.295a1.486,1.486,0,0,1-.885-1.18h.1c0-.1-.393.1-.393,0h.2c-.2.1-.2,0-.295,0l.2-.295h-.2c-.59.295-.2-.295-.59-.2h.1c-.492,0-.688-.295-1.082-.492l.295-.2a.393.393,0,0,1-.492.1c.2-.2-.3,0-.3-.2h.1c-.295.1.1-.2-.295,0v-.2c-.3.2.1-.2-.1-.2h-.1c-.1,0,0-.1-.1-.2h0c-.2,0,0-.295-.295-.1s.2,0,.393-.295-.787-.59-1.082-.983l.2-.295h-.295v-.2c0-.1-.3.1-.3,0h.3c-.3.1-.3,0-.393-.1h.2c-.295.1-.1-.2-.295-.2h.2c.1-.2-.295.2-.295,0h.2c-.295.1-.393-.1-.492-.2h.1c-.1-.1-.1-.295-.295-.295s.393-.2.295-.295-.295-.1-.59.2,0-.393-.1-.393.393-.295.393-.2l.2-.2h-.1c-.2,0-.59.2-.787.1l.393-.2-.688.2s.2-.2.1-.2h-.2s-.2-.1.1-.3h0c0-.1-.2-.1-.393.1h.1c-.2.1-.3,0-.393-.1h-.1c.1-.295-.492-.2-.2-.492h-.2c0-.1.2-.2.1-.2s-.1,0-.1-.1h.1c-.1,0-.492-.2-.393-.492h-.2c.1-.1-.1-.1.1-.2s.393.2.1.2-.393,0-.1-.1-.295,0-.2-.2h-.1c-.2.1,0-.1-.2,0s-.2-.1.2-.295h-.1c-.393.2,0-.1-.393,0s-.1-.3.1-.393-.3,0-.3-.2h.2c.1-.1,0-.1-.1-.1l.3-.3h-.492c.393-.2-.393-.1,0-.393h.295c.393-.2-.393,0-.2-.2l-.295.2c.2-.1-.3-.1.1-.2s.1-.2-.3,0-.295-.393.2-.688h-.2c-.2.1.2,0,0,.1h-.2c.1-.1.1-.1.393-.2s-.59.1-.492-.1h-.1c0-.1.295-.2.492-.295h-.295l.295-.2c-.2.1-.2,0-.2,0h.1c.1,0,0-.1,0-.1l-.2.2h-.2c.2-.1.1-.2.1-.2h-.2c.1,0,0-.1.2-.1s-.1.1,0,.1.295-.1.1-.2-.492.2-.295,0h.2c-.2,0-.1-.1-.393-.1s.1-.2.1-.2h0c.1-.1,0-.2-.2-.2h-.1c.1-.1.787-.295.492-.295h-.59c.1-.2-.295-.295,0-.492h-.2c0-.2-.393-.393,0-.688h.295c-.2,0,.2-.1-.2,0l-.393.2a.3.3,0,0,1,0-.393h-.2c.295-.1.295-.2.2-.2h0c-.1,0-.393.1-.2-.1h.2c-.2,0-.492-.1-.295-.2h0c.1-.2.1-.295.393-.393s-.688-.492-.787-.787h.1c.1-.1-.295,0-.2-.1h.492c.1-.1-.295-.1-.393-.2s.1,0-.1.1.1-.2-.2-.1h.295c.295-.1.59.1.983-.1h-.1c.295-.1.393.1.393-.1h-.688c-.1-.1-.688.1-.688-.1s.1.1.295,0-.2-.1-.1-.2h.2c.1-.1.295,0,.295-.1h-.393c-.393,0,.1-.1-.2-.1s.59,0,.688-.1-.393-.1-.688,0h.393c.1-.1-.492-.1,0-.2h0c0-.1-.393-.1,0-.2s0-.2-.295-.1.2.1-.1.2-.1-.1-.2-.2h-.1c-.1-.1.393-.1.295-.2h.2s.2-.1.1-.1h-.59c-.1-.1.2-.1,0-.1h.295l.295-.2c-.1,0-.393-.1-.492,0h-.1l.492-.3h.688c-.492.2-.688-.1-1.082,0s1.082-.2.393-.295-.492,0-.295.1-.393,0-.295-.2.393-.1.688,0-.1.1-.1.1.393,0,.393-.1-.1-.1-.295-.1,0,.1-.2.1.295-.2-.2-.2h-.295c.1-.2-.295,0-.295-.2h.295c.295,0-.1.2.393.2s-.2-.1-.1-.2h.1s.59-.1.295-.2h-.295l-.295-.295c.295,0,0-.2.393-.1s-.2.295.2.295,0,.1.393.1.393-.1.688-.2h-.59c.1-.1-.1-.295-.295-.295h.393a.492.492,0,0,1,0-.492c-.393.1-.1-.2-.393-.1h-.295c-.2-.1.295-.1,0-.2s.492,0,.787,0,.2,0,.2-.1l-.393-.295c.295-.2,0-.393,0-.492h.59c0-.1-.393.1-.2-.1h.1c-.1,0,.2-.2-.3-.295h.59c.295-.1,0-.2-.1-.2h-.2c-.2-.1,0-.2,0-.393h.1c.2,0,.393,0,.2-.1l.492.2h-.492c-.2,0-.1.2.1.2h.393s.1-.1,0-.1l.2.2h-.295c.295,0,.393.1.295.2s.2.2.1.295l-.59-.2v.2l.59.2h-.2c.1.1.393.1.393.2a1.475,1.475,0,0,0-.1.492h-.2c.393.1.2.295.393.393s.2.393-.1.492a1.475,1.475,0,0,1,.295.885h-.295c.2,0-.2.1-.1.1a4.256,4.256,0,0,0,.492.1c.2,0,.1.295.295.393h-.2c.393.1.1.295,0,.492h-.2l.492.2a.492.492,0,0,1-.2.393c.492.295.295.688.59.983h-.2c.59.295.2.787.492.983h-.787c-.1.1.2.2.393.1s.2.2-.1.295.2.1.295.1a.295.295,0,0,0,.1.492h-.3c.1,0,0,.295.393.1s.295.393,0,.688h.295c0,.2-.2.393.1.492h0c.295.2-.1.59.1.787a6.545,6.545,0,0,1,.59,1.18h-.1c.393,0-.2.492.295.393s0,.1-.2.2-.1.393.295.393H208c-.1.2.2.295.1.492h-.2c-.1.1.393,0,0,.2h.2c0,.393.393.688.688.983s-.688.393-.295.393h.1c.2,0-.393.393-.2.3h.3c-.1.2-.3.393,0,.393h-.1c.492,0,.295.2.787.1s1.18,1.377,1.672,2.065a22.7,22.7,0,0,1,1.377,2.163c-.2.393-.2.393.1.492h-.1c.295-.2.1.1.393-.1a4.03,4.03,0,0,0,.59.688l-.2.2h.1l.295-.2c.787.393.787,1.475,1.475,1.967s.3.295.492.393.393,1.377,1.082,1.573-.59.59-.983.59" transform="translate(-3.383 -3.386)" fill="#009ca4"/>
    <path id="Path_6626" data-name="Path 6626" d="M204.7,199.8h0" transform="translate(-3.428 -3.346)" fill="#009ca4"/>
    <path id="Path_6627" data-name="Path 6627" d="M203.1,201.9H203s-.2,0-.1-.1h.2" transform="translate(-3.397 -3.379)" fill="#009ca4"/>
    <path id="Path_6628" data-name="Path 6628" d="M202.995,202.4l-.295-.2Z" transform="translate(-3.394 -3.386)" fill="#009ca4"/>
    <path id="Path_6629" data-name="Path 6629" d="M202.4,203h0" transform="translate(-3.389 -3.399)" fill="#009ca4"/>
    <path id="Path_6630" data-name="Path 6630" d="M202.8,203h-.2c.1,0-.1-.1.2-.1" transform="translate(-3.393 -3.398)" fill="#009ca4"/>
    <path id="Path_6631" data-name="Path 6631" d="M202.4,204.2s.1.1,0,.1-.2-.1,0-.1" transform="translate(-3.387 -3.419)" fill="#009ca4"/>
    <path id="Path_6632" data-name="Path 6632" d="M202.7,204.7Z" transform="translate(-3.394 -3.428)" fill="#009ca4"/>
    <path id="Path_6633" data-name="Path 6633" d="M205.6,213.7h0Z" transform="translate(-3.441 -3.579)" fill="#009ca4"/>
    <path id="Path_6634" data-name="Path 6634" d="M207.4,217.5c.1,0-.1.1-.1.1s.2-.1.1-.1" transform="translate(-3.471 -3.642)" fill="#009ca4"/>
    <path id="Path_6635" data-name="Path 6635" d="M209.2,219h0l.2-.1Z" transform="translate(-3.503 -3.666)" fill="#009ca4"/>
    <path id="Path_6636" data-name="Path 6636" d="M183.7,209.6c-.1-.1-.295.1-.1-.1h.1" transform="translate(-3.073 -3.508)" fill="#009ca4"/>
    <path id="Path_6637" data-name="Path 6637" d="M194.864,236.588c-.787.295-.59-.59-1.18-.492s.295-.3.2-.3a1.69,1.69,0,0,1-.885-1.18h.1c0-.1-.393.1-.393-.1h.2c-.2.1-.2-.1-.393,0l.2-.295h-.2c-.59.295-.2-.295-.59-.2h.1c-.492,0-.688-.393-1.082-.59l.295-.2a.393.393,0,0,1-.492.1c.2-.2-.3,0-.3-.2h.1c-.3.1.1-.2-.3,0v-.2c-.295.2.1-.2-.1-.2h-.1c-.1,0,0-.1-.1-.2h0c-.2-.1,0-.295-.295-.1s.2,0,.393-.2-.787-.59-1.082-.983l.2-.2h-.3v-.2c.1-.1-.295.1-.295,0h.295c-.295.1-.295,0-.393-.1h.2c-.295.1-.1-.2-.295-.2h.2c.1-.2-.295.2-.295,0h.2c-.393.1-.393-.1-.492-.2h.1c-.1-.1-.1-.295-.295-.295s.393-.2.295-.295-.295-.1-.59.2,0-.393-.1-.393.393-.295.393-.2l.2-.2h.1l-.2-.2c-.2,0-.688.2-.787.1l.393-.2-.688.2s.295-.2.1-.2h-.2s-.2-.1.1-.295h0c0-.1-.2-.1-.393.1s.2-.1.1,0-.295,0-.393-.1h-.1c.1-.3-.492-.2-.2-.492h-.2c0-.1.2-.2.1-.2s-.1,0-.1-.1h.1a.4.4,0,0,1-.393-.492h-.2c.1-.1-.1-.1.1-.2s.393.2.1.2-.393,0-.1-.1-.295,0-.2-.2h-.1c-.2.1,0-.1-.2,0s-.2-.1.2-.295h-.1c-.393.2,0-.1-.393-.1s-.1-.295.1-.393-.295,0-.295-.2h.2c.1-.1,0-.1-.1-.1l.295-.295h-.492c.393-.2-.393-.1,0-.393h.295c.393-.2-.393,0-.2-.2l-.295.2c.2-.1-.295-.1.1-.2s.1-.2-.295,0-.295-.393.2-.787h-.2c-.2.1.2,0,0,.1h-.2c.1-.1.1-.1.393-.2s-.59.1-.59-.2h-.1c0-.1.3-.2.492-.295h-.295l.295-.2c-.2.1-.2,0-.2,0h.1c.1,0,0-.1,0-.1l-.2.2h-.2c.2-.1.1-.2.1-.2h-.2c.1,0,0-.1.2-.1s-.1.1,0,.1.295-.1.1-.2-.492.2-.295,0h.2c-.2,0-.1-.1-.393-.1s.1-.2.1-.2h0c.1-.1,0-.2-.2-.2h-.1c.1-.1.787-.295.492-.295h-.59c.1-.2-.3-.295,0-.492h-.2c0-.2-.393-.393,0-.688h.3c-.2,0,.2-.1-.2-.1l-.393.2a.3.3,0,0,1,0-.393h-.2c.3-.1.3-.2.2-.2h0c-.1,0-.393.1-.2-.1h.2c-.2,0-.492-.1-.3-.2h0c.1-.2.1-.295.393-.393s-.688-.492-.688-.787h.1c.1-.1-.295,0-.2-.1h.492c.1-.1-.295-.1-.393-.2s.1,0-.1.1.1-.2-.2-.2h.295c.3-.1.59.1.983-.1h-.1c.295-.1.393.1.393-.1h-.688c-.1-.1-.688,0-.688-.1s.1.1.295.1-.2-.1-.1-.2h.295c.1-.1.295,0,.295-.1s-.295-.1-.393,0,.1-.1-.2-.2.59,0,.688-.1-.393-.1-.688,0h.393c.1-.1-.492-.1,0-.2h0c0-.1-.393-.2,0-.2s0-.2-.295-.1.2.1-.1.2-.1-.1-.2-.2h-.1c-.1-.1.393-.1.295-.2h.2s.2-.1.1-.1h-.59c-.1-.1.2-.1,0-.1h.295l.295-.2c-.1,0-.393-.1-.492,0h-.1l.492-.295h.688c-.492.2-.688-.1-1.082,0s1.082-.2.393-.295-.492,0-.295.1-.393,0-.3-.2.393-.1.688,0-.1.1-.1.1.393,0,.393-.1-.1-.1-.295-.1,0,.1-.2.1.295-.2-.2-.2h-.295c.1-.2-.295,0-.295-.2h.295c.295,0-.1.2.393.2s-.2-.1-.1-.2h.1s.59-.1.295-.2h-.295l-.295-.295c.295,0,0-.2.393-.1s-.2.295.2.295,0,.1.393.1.393-.1.688-.2h-.59c.1-.1-.1-.3-.295-.3h.393a.59.59,0,0,1,0-.492c-.393.1-.1-.2-.393-.1h-.295c-.2-.1.295-.1,0-.2s.492,0,.787,0,.2,0,.2-.1l-.393-.295c.3-.2,0-.393,0-.492h.59c0-.1-.393.1-.2-.1h.1c-.1,0,.2-.2-.295-.295h.59c.295-.1,0-.2-.1-.295h-.2c-.2-.1,0-.2,0-.393h.1c.2,0,.393,0,.2-.1l.492.2h-.492c-.2,0-.1.2.1.2h.393s.1-.1,0-.1.2.1.2.2h-.295c.295,0,.393.1.295.2s.2.2.1.295l-.59-.2v.2l.59.2h-.2c.1.1.393.1.393.2a1.574,1.574,0,0,0-.1.59h-.2c.393.1.2.295.393.393s.2.393-.1.492a1.573,1.573,0,0,1,.295.983h-.295c.2,0-.2.1-.1.1a4.257,4.257,0,0,0,.492.1c.2,0,.1.295.295.492h-.2c.393.1.1.295,0,.492h-.2l.492.2a.492.492,0,0,1-.2.393c.492.295.3.688.59,1.082h-.2c.59.295.2.787.492,1.082h-.787c-.1.1.2.2.393.1s.2.2-.1.295.2.1.295.2-.1.3.1.492h-.295c.1,0,0,.295.393.1s.295.393,0,.688h.295c.1.2-.2.393.1.492h0c.295.2-.1.59.1.885s.393.885.59,1.278h-.1c.393,0-.2.492.295.393s0,.1-.2.2-.1.393.295.393H187c-.1.2.2.3.1.492h-.2c-.1.1.393,0,0,.2h.2c0,.492.393.688.688,1.082s-.688.393-.295.393h.1c.2,0-.393.393-.2.295h.3c-.1.295-.3.393,0,.393h-.1c.492,0,.393.2.885.1s1.18,1.377,1.672,2.163a23.594,23.594,0,0,1,1.377,2.261c-.2.393-.2.393.1.492h-.1c.295-.2.1.1.393-.1a4.23,4.23,0,0,0,.59.787l-.2.2h.1l.295-.2c.787.492.787,1.573,1.475,2.065s.295.393.492.492.393,1.475,1.082,1.672-.59.59-.983.492" transform="translate(-3.031 -3.557)" fill="#009ca4"/>
    <path id="Path_6638" data-name="Path 6638" d="M183.7,209.8h0" transform="translate(-3.076 -3.513)" fill="#009ca4"/>
    <path id="Path_6639" data-name="Path 6639" d="M182.1,211.9H182s-.2,0-.1-.1h.2" transform="translate(-3.046 -3.547)" fill="#009ca4"/>
    <path id="Path_6640" data-name="Path 6640" d="M181.995,212.5l-.295-.2Z" transform="translate(-3.043 -3.555)" fill="#009ca4"/>
    <path id="Path_6641" data-name="Path 6641" d="M181.4,213.1h0" transform="translate(-3.038 -3.568)" fill="#009ca4"/>
    <path id="Path_6642" data-name="Path 6642" d="M181.7,213.1h-.2c.1,0-.1-.1.2-.1" transform="translate(-3.039 -3.567)" fill="#009ca4"/>
    <path id="Path_6643" data-name="Path 6643" d="M181.4,214.3s.1.1,0,.1-.2-.1,0-.1" transform="translate(-3.036 -3.589)" fill="#009ca4"/>
    <path id="Path_6644" data-name="Path 6644" d="M181.7,214.8Z" transform="translate(-3.043 -3.597)" fill="#009ca4"/>
    <path id="Path_6645" data-name="Path 6645" d="M184.6,224.2l-.1-.1h.1Z" transform="translate(-3.09 -3.753)" fill="#009ca4"/>
    <path id="Path_6646" data-name="Path 6646" d="M186.4,228c.1,0-.1.1-.1.1s.2-.1.1-.1" transform="translate(-3.12 -3.818)" fill="#009ca4"/>
    <path id="Path_6647" data-name="Path 6647" d="M188.1,229.6h0l.295-.1Z" transform="translate(-3.15 -3.843)" fill="#009ca4"/>
    <path id="Path_6648" data-name="Path 6648" d="M107.5,210c0-.1-.2-.1,0-.1s.1.2,0,.1" transform="translate(-1.799 -3.515)" fill="#009ca4"/>
    <path id="Path_6649" data-name="Path 6649" d="M95.488,243.516c-.787-.393,0-.983-.492-1.475s.393,0,.295-.1a2.4,2.4,0,0,1,.2-1.77h.1c.1-.1-.295-.2-.2-.393h.2c-.2,0-.1-.2-.295-.295h.1c-.59-.2.1-.393-.295-.688h.2c-.393-.393-.295-.885-.393-1.377h.393a.393.393,0,0,1-.393-.295c.295,0-.2-.2-.1-.393H95c-.295-.1.2-.1-.2-.295H95c-.393-.1.2-.1,0-.2h0c-.1-.1.1-.1.1-.2h0c-.1-.2.1-.295-.2-.295s.1.2.492.1a3.245,3.245,0,0,1,0-1.77h.295c-.1-.1,0-.2-.2-.295h.2c.1-.1-.295-.2-.2-.295h.295a.393.393,0,0,1-.2-.393h.2c-.295-.2.1-.2-.1-.393h.2c.295-.1-.393-.1-.2-.295h.2c-.295-.2-.2-.393-.2-.59h.1c0-.2.1-.295,0-.492s.393.1.393-.1-.1-.295-.492-.295.295-.295.2-.492.492,0,.492.2h.2c.1,0-.1.1.1.1s-.1-.295,0-.295-.59-.393-.59-.492h.492l-.59-.393c0-.1.295.1.2-.1h-.2a.2.2,0,0,1,.295-.2h.2c0-.1-.1-.1-.1-.295h0c.1-.1-.1-.295-.295-.2s.2,0,.1.1a.295.295,0,0,1-.2-.393h.2a1.18,1.18,0,0,1-.393-.59h.2c.295-.1-.2-.492.2-.59h-.2c.1-.1.295,0,.2-.1s0-.1,0-.2h.1c-.1-.1-.2-.59.1-.688l-.295-.295h.2c.1,0,0-.2.2-.1s.1.492-.1.295-.295-.295,0-.2-.2-.295,0-.295h.295c0-.2-.1-.1-.1-.2h-.1c-.2-.1.1-.1-.2-.1s0-.2.295-.1h.295l-.393-.3h.1c-.393-.2.1-.1-.2-.295s.1-.295.393-.295-.2-.295-.1-.393h.1c.1,0,0-.1,0-.2h.492l-.492-.295c.393.1-.2-.393.2-.393s.2.2.295.2-.2-.295,0-.393h-.393c.2,0-.1-.295.2-.1s.2-.1-.2-.2.1-.59.688-.492,0-.1-.1-.2.1.1,0,.1h-.1c.1,0,.2-.1.393.1s-.492-.393-.295-.492h.2l-.2-.2c.1-.1.295.1.59.2s0-.2-.1-.295h.295c-.2,0-.1-.1-.2-.2h0a.1.1,0,0,0,.1-.1h-.295v-.2c.2.1.2,0,.295-.1s-.2-.2-.2-.2a.136.136,0,0,1,.2,0c.1.1-.1,0,0,.1s.295.1.2-.1-.393-.2-.2-.2l.2.2h.1c-.2-.1,0-.2-.2-.295h.295c.2,0,.1-.1,0-.295h0a.3.3,0,0,0-.1-.2c-.1-.1.787.295.59.1s-.295-.3-.393-.3,0-.492.393-.492h-.1c.2-.2,0-.688.492-.688l.295.2c-.1-.1.2,0-.1-.2h-.393c0-.2.1-.393.295-.393h-.2c.295.2.393.1.295-.1h0c0-.1-.295-.2-.1-.2h.2c-.1-.2-.295-.393-.1-.393h.295a.212.212,0,0,0-.2-.2c-.1,0,.295-.2.59-.1a.983.983,0,0,1,.1-1.278h.1c.2,0-.2-.2-.1-.2l.393.2c.2,0-.1-.295-.1-.393s.1.1-.1,0,.2-.1,0-.295l.393.2h-.1c.295.1.393.492.787.59h0c.295.1.2.295.393.2a1.082,1.082,0,0,0-.59-.393c0-.2-.492-.393-.393-.59s0,.1.2.2,0-.2.1-.2-.393-.2-.393-.295.2.2.295.1-.2-.295-.295-.295.2-.1,0-.295.492.393.59.393-.2-.295-.59-.492l.393.2c.2,0-.295-.393.2-.2l-.2-.2h.295c0-.1-.2-.393.2-.2s.1-.2-.2-.3.1.2-.2.1.1-.1,0-.295h.1c0-.1,0-.1-.1-.2h.2l-.2-.2c0-.2.393.2.393,0v.2s.2,0,.2-.1l-.492-.393c0-.1.2.1.1-.1l.2.2h.393c0-.1-.2-.393-.393-.295h.295c0-.1-.2-.1-.2-.3h.59l.2.3h0c.2.2.2.1.393.295s0-.1,0-.2-.492-.492-.787-.688.983.492.492-.1-.295-.295-.295-.1-.295-.295-.1-.295.393.2.59.393-.1,0-.1.1.393.295.393.2.1-.2-.1-.295,0,.1-.2-.1.295,0,0-.295-.295,0-.393-.1v.688h.1c.2-.1-.2-.2-.1-.295h.295c.2.2-.295.1.1.393s-.1-.295.1-.295h0s.59.295.393,0l-.295-.2c.1-.2,0-.295,0-.393s.2-.1.393.2-.295.2-.1.393-.1.1.2.393.393.1.59.295,0-.1,0-.2l-.393-.295c.2-.1.1-.295,0-.492l.295.295a.787.787,0,0,1,.393-.393c-.393-.1.1-.2-.295-.393a.688.688,0,0,1-.492-.2h.2c-.1-.2.393.1.1-.2s.393.295.59.492.2.1.2,0a1.18,1.18,0,0,1,0-.59c.295,0,.295-.295.393-.492l.492.295c.1-.1-.295-.2-.1-.2h0c0-.1.393-.1,0-.393l.295.3v-.1l.2.2c.295.1.1-.2.2-.295h-.2c0-.3.2-.2.295-.393h.2v-.2c.1.2.295.2.2,0l.2.59c-.1,0-.2-.2-.295-.295s-.2.1-.1.2,0-.1,0-.2.2.2.295.393.1,0,0-.1a.2.2,0,0,1,0,.295l-.2-.2c.2.2.2.295.1.393s0,.295-.2.393l-.295-.59h-.2c.1.2.393.393.393.59h-.2c0,.2.2.295.1.393l-.492.393h-.2c.295.295-.1.393,0,.59s-.1.492-.492.393a2.262,2.262,0,0,1-.492,1.082l-.2-.2c.1.2-.2-.1-.2,0s.2.295.295.393-.2.393-.2.59h-.2c.2.393-.2.295-.295.492h-.295a1.18,1.18,0,0,1,.2.59l-.393.295c.1.59-.295.885-.393,1.377h-.3c.2.688-.492.885-.393,1.377l-.295-.2c-.2,0,0,.295.2.393s0,.393-.295.295.1.2.1.295-.295.2-.295.492h-.2c.1.1-.2.2.2.393s-.1.59-.492.688l.2.2c-.1.2-.393.295-.295.492H100.9l.2.2c.1.393-.492.492-.59.885a5.212,5.212,0,0,1-.492,1.672h-.1c.295.3-.492.3,0,.59s-.1.1-.295,0-.393.295-.1.59h0c-.295.1-.1.393-.295.59h-.1c-.2,0,.295.295-.1.2h.2c-.295.393-.2.983-.295,1.475s-.787-.2-.492.2h.1c.1.1-.59,0-.295.2h.295c-.2.2-.492.1-.295.393h-.1c.393.295.1.492.492.787s-.2,2.261-.393,3.343a16.263,16.263,0,0,1-.688,3.146c-.393.983-.393.2-.295.492h-.295c.295,0,0,.2.295.295a6.489,6.489,0,0,0-.1,1.18h.1c.2,1.082-.492,2.065-.393,3.146a1.278,1.278,0,0,0,.1.885,2.655,2.655,0,0,0-.393,2.36s-.885-.1-1.082-.393" transform="translate(-1.587 -3.503)" fill="#009ca4"/>
    <path id="Path_6650" data-name="Path 6650" d="M107.393,210.1c-.1-.1-.295-.1-.393-.295l.393.295" transform="translate(-1.792 -3.513)" fill="#009ca4"/>
    <path id="Path_6651" data-name="Path 6651" d="M104.5,211.1h-.1s-.1-.1,0-.1h.1" transform="translate(-1.748 -3.533)" fill="#009ca4"/>
    <path id="Path_6652" data-name="Path 6652" d="M104,211.493a.3.3,0,0,1-.1-.393Z" transform="translate(-1.739 -3.535)" fill="#009ca4"/>
    <path id="Path_6653" data-name="Path 6653" d="M103.1,211.7c-.1,0-.2-.1-.1-.1h.1" transform="translate(-1.724 -3.543)" fill="#009ca4"/>
    <path id="Path_6654" data-name="Path 6654" d="M103.3,211.9h-.2c.1.1,0-.1.2,0" transform="translate(-1.726 -3.548)" fill="#009ca4"/>
    <path id="Path_6655" data-name="Path 6655" d="M102.2,212.8s0,.2-.1.1-.1-.2.1-.1" transform="translate(-1.709 -3.563)" fill="#009ca4"/>
    <path id="Path_6656" data-name="Path 6656" d="M102,213.5Z" transform="translate(-1.708 -3.575)" fill="#009ca4"/>
    <path id="Path_6657" data-name="Path 6657" d="M97.1,224.1V224l.1.1Z" transform="translate(-1.626 -3.751)" fill="#009ca4"/>
    <path id="Path_6658" data-name="Path 6658" d="M95.6,229h0" transform="translate(-1.601 -3.835)" fill="#009ca4"/>
    <path id="Path_6659" data-name="Path 6659" d="M95.7,231.8Z" transform="translate(-1.603 -3.882)" fill="#009ca4"/>
    <path id="Path_6660" data-name="Path 6660" d="M83.5,202.9c0-.2-.295-.1,0-.1s.1.2,0,.1" transform="translate(-1.396 -3.396)" fill="#009ca4"/>
    <path id="Path_6661" data-name="Path 6661" d="M76.365,237.4c-.787-.295-.2-.983-.787-1.377s.393-.1.295-.2a2.048,2.048,0,0,1-.1-1.77h.1c.1-.1-.295-.2-.295-.295h.2c-.2,0-.1-.2-.295-.2l.393-.2h-.295c-.688-.1,0-.492-.393-.688h.2c-.393-.393-.393-.885-.59-1.278h.393a.393.393,0,0,1-.393-.2c.295-.1-.295-.2-.1-.295h.1c-.295-.1.2-.2-.2-.2h.2c-.393,0,.2-.2,0-.2h-.1c-.1-.1.1-.1,0-.2h0c-.1-.2.1-.295-.2-.295s.1.2.492,0a3.245,3.245,0,0,1-.295-1.77h.295c-.1-.1-.1-.2-.2-.295h.2c.1-.1-.393-.1-.2-.2h.2c-.2-.1-.2-.2-.295-.393h.2c-.295-.1.1-.2-.1-.393h.2c.2-.2-.393-.1-.2-.2h.2c-.295-.2-.2-.393-.295-.492h.1c0-.2.1-.3-.1-.492s.393,0,.393-.1-.1-.295-.59-.2.2-.393.1-.492.492,0,.492.1h.2c.2,0-.1.1.1.1s-.1-.2-.1-.295-.59-.295-.688-.393h.492l-.688-.295c0-.1.295,0,.2-.1h-.2s-.1-.295.295-.295h.2c0-.1-.1-.1-.1-.2h0c.1-.1-.1-.2-.295-.2s.2,0,.1.1a.3.3,0,0,1-.2-.295h.295a1.18,1.18,0,0,1-.393-.492h.2c.295-.2-.295-.492.1-.59h-.2c0-.1.295-.1.2-.1s0-.1-.1-.2h.1c-.1-.1-.295-.492,0-.688l-.295-.2h.2c.1,0,0-.2.2-.2s.2.492,0,.295-.295-.295,0-.2-.2-.2,0-.295h.295c0-.2-.1-.1-.2-.2h-.1c-.2,0,.1-.1-.2-.1s-.1-.2.295-.2h.295l-.393-.2h.1c-.393-.1.1-.1-.295-.295s.1-.3.393-.3-.295-.295-.1-.393h.1c.1,0,0-.1,0-.2h.492l-.492-.2c.492,0-.2-.3.2-.393s.2.2.295.1-.295-.295,0-.393h-.393c.2,0-.2-.295.2-.2s.2-.1-.2-.2,0-.59.59-.59,0-.1-.1-.1.1.1,0,.1h-.1c.1-.1.1-.1.393,0s-.492-.3-.295-.492h.2l-.2-.2c.1-.1.295,0,.59.1s0-.2-.2-.295h.1c-.2,0-.1-.1-.2-.2h0a.1.1,0,0,0,.1-.1h-.295l-.2-.2c.2.1.2-.1.2-.1s-.2-.1-.2-.2.1-.1.2,0-.1,0,0,.1.295.1.2-.1-.492-.1-.295-.2h.295c-.2-.1,0-.2-.295-.295h.2c.1,0,.1-.2,0-.295h0a.3.3,0,0,0-.1-.2c-.1-.1.787.2.59,0s-.295-.3-.492-.3-.1-.492.295-.492h0c.2-.2,0-.688.393-.688h.295c-.2-.1.2,0-.1-.1h-.393c0-.2,0-.393.295-.492h-.2c.295.1.393,0,.295-.1h0c0-.1-.393-.2-.2-.2h.2c-.1-.1-.295-.393-.1-.393h.295c0-.1-.1-.2-.2-.1s.295-.2.492-.2a.983.983,0,0,1-.1-1.278h.1c.2,0-.2-.2-.1-.2l.393.2c.2-.1-.2-.295-.2-.393s.1.1-.1,0,.2-.1,0-.295l.393.2h-.1c.393,0,.492.492.885.492h0c.295.1.2.3.393.2a1.082,1.082,0,0,0-.59-.393c0-.2-.59-.393-.492-.492s0,.2.2.2,0-.2.1-.295-.393-.2-.393-.2.2.2.295.1-.2-.295-.393-.2.2-.1-.1-.295.492.393.688.295-.2-.295-.59-.393l.393.2c.2,0-.295-.393.1-.2h.1c0-.1-.2-.393.1-.2s.1-.2-.2-.2.1.2-.2.1,0-.2,0-.295h.295c0-.1,0-.1-.1-.2h0c0-.2.393.2.393,0v.2s.2,0,.2-.1l-.492-.787c0-.1.2.1.1-.1l.2.2h.393c0-.1-.295-.295-.393-.295h.295c0-.1-.2-.1-.295-.2h.59l.295.3h0c.2.2.2.1.492.295s0-.1,0-.2a1.682,1.682,0,0,0-.885-.59c-.393-.1.983.393.492-.1s-.393-.295-.295-.1-.295-.3-.1-.3a.711.711,0,0,1,.59.393c.2.295-.1,0-.1.1s.393.2.393.1,0-.2-.2-.295,0,.1-.2-.1.295,0,0-.3-.295,0-.393-.1v-.2h0c.2-.1-.2-.2-.1-.295h.295c.2.2-.2.2.2.393s-.1-.2,0-.295h0s.59.2.393-.1l-.295-.2c0-.2-.1-.295,0-.393s.1-.2.393.1-.295.2-.1.393-.1.1.2.3.393.1.688.2,0-.1-.1-.2l-.393-.2c.1-.1.1-.295-.1-.492l.295.2a.787.787,0,0,1,.295-.492c-.393-.1,0-.2-.295-.295a.688.688,0,0,1-.492-.2H80c-.1-.2.393.1.1-.2s.393.295.59.492.2.1.295,0a1.18,1.18,0,0,1-.1-.59c.295,0,.295-.393.295-.492l.492.2c.1-.1-.393-.1-.1-.2h0c0-.1.393-.1,0-.393l.295.295v-.1l.295.2c.295.1.1-.2.1-.295h-.2c0-.2.2-.2.2-.393h.2v-.2c.2.1.295.1.2,0l.295.492c-.2,0-.2-.2-.393-.295s-.2.1-.1.2,0-.1,0-.2.2.2.295.393.1,0,0-.1.1.2,0,.295h-.2c.2.2.2.295.1.295s0,.3-.1.393l-.393-.492h-.2c.1.2.393.393.393.492h-.2c0,.1.295.295.2.393l-.492.492h0c.295.295,0,.393,0,.59s-.1.492-.492.393a2.261,2.261,0,0,1-.393,1.082l-.1.3c.2.2-.2,0-.2,0l.393.393c.2.2-.2.393-.1.59h-.2c.295.295-.1.295-.295.492H80.2a1.081,1.081,0,0,1,.295.492l-.393.3c.2.59-.295.885-.2,1.377h-.2c.295.59-.393.885-.295,1.377l-.393-.2c-.2.1,0,.295.295.393s.1.393-.295.3.1.2.1.295a.492.492,0,0,0-.2.492h-.2c.1.1-.2.295.295.393s0,.59-.393.688h.2c-.1.2-.393.295-.2.59h0c.1.393-.492.59-.492.885a5.31,5.31,0,0,1-.295,1.672h-.1c.295.295-.492.295,0,.59s-.1.2-.295.1-.295.295-.1.59h0c-.295.2,0,.393-.2.59h-.2c-.2,0,.393.295-.1.2h.2c-.295.492-.1.983-.1,1.573s-.787-.1-.492.2h.1c.1.1-.492.1-.295.2h.295c-.2.2-.492.2-.295.393h-.1c.393.295.1.492.59.688s.1,2.262.2,3.343a11.97,11.97,0,0,1-.1,3.245c-.2,1.082-.393.295-.2.59h-.1c.295,0,0,.2.393.2a5.9,5.9,0,0,0,.1,1.18h.2c.393.983-.1,2.065.1,3.146a1.278,1.278,0,0,0,.2.885,2.557,2.557,0,0,0,0,2.36s-.787.1-1.082-.2" transform="translate(-1.244 -3.386)" fill="#009ca4"/>
    <path id="Path_6662" data-name="Path 6662" d="M83.493,203.1c-.2-.1-.295,0-.393-.2l.393.2" transform="translate(-1.392 -3.398)" fill="#009ca4"/>
    <path id="Path_6663" data-name="Path 6663" d="M80.6,204.3h-.1s-.1-.1,0-.1h.1" transform="translate(-1.347 -3.419)" fill="#009ca4"/>
    <path id="Path_6664" data-name="Path 6664" d="M80.2,204.793a.3.3,0,0,1-.1-.393Z" transform="translate(-1.341 -3.423)" fill="#009ca4"/>
    <path id="Path_6665" data-name="Path 6665" d="M79.3,205.1c-.1,0-.2-.1-.1-.1h.1" transform="translate(-1.326 -3.433)" fill="#009ca4"/>
    <path id="Path_6666" data-name="Path 6666" d="M79.6,205.3h-.2c.1.1,0-.1.2,0" transform="translate(-1.33 -3.437)" fill="#009ca4"/>
    <path id="Path_6667" data-name="Path 6667" d="M78.5,206.3s.1.2-.1.1-.1-.2.1-.1" transform="translate(-1.311 -3.454)" fill="#009ca4"/>
    <path id="Path_6668" data-name="Path 6668" d="M78.4,207v.1h0Z" transform="translate(-1.313 -3.466)" fill="#009ca4"/>
    <path id="Path_6669" data-name="Path 6669" d="M74.9,218.1l-.1-.1.2.1Z" transform="translate(-1.253 -3.651)" fill="#009ca4"/>
    <path id="Path_6670" data-name="Path 6670" d="M74.1,223.1c.1.1-.1,0-.2,0h.2" transform="translate(-1.238 -3.736)" fill="#009ca4"/>
    <path id="Path_6671" data-name="Path 6671" d="M74.6,225.9Z" transform="translate(-1.249 -3.783)" fill="#009ca4"/>
    <path id="Path_6672" data-name="Path 6672" d="M50.8,149c.2,0,0-.295.1-.1s-.1.2-.1.1" transform="translate(-0.851 -2.492)" fill="#009ca4"/>
    <path id="Path_6673" data-name="Path 6673" d="M8.8,147.6c.2-.885,1.082-.393,1.475-1.082s.1.393.2.295a3.3,3.3,0,0,1,2.065-.492h0c.1,0,.2-.393.295-.393s0,.1.1.2.2-.2.2-.393l.2.295v-.1c0-.688.492-.1.688-.492s0,.1,0,.2a12.625,12.625,0,0,0,1.377-.885.885.885,0,0,0,.1.393.393.393,0,0,1,.2-.492c.1.295.2-.295.393-.2h0c0-.295.2.1.2-.295v.2c0-.393.2.2.295-.1h0c.1-.1.2.1.2,0h0c.2-.2.393,0,.295-.295s-.2.2,0,.492a4.228,4.228,0,0,1,1.967-.688l.2.295c.1-.1.2-.1.295-.295v.2c.1.1.1-.393.2-.2a.393.393,0,0,0,0,.295c.1-.295.2-.2.393-.393a.3.3,0,0,0,0,.2c.1-.295.295,0,.393-.2v.2c.2.2,0-.393.2-.295s0,.1,0,.2.393-.295.59-.393a.3.3,0,0,0,0,.1c.2-.1.393,0,.59-.2s0,.492.2.393.295-.2.2-.59.492.1.59,0,.1.393,0,.492v.2c0,.2-.1,0-.1.1h.295c.1-.2.2-.688.393-.688s.1.393,0,.492l.2-.688c.1,0,0,.295.1.2a.491.491,0,0,1,.1-.2s.295-.1.295.2-.1.1,0,.2l.295-.2h0c.1,0,.2-.2.1-.393s0,.2-.1.1a.3.3,0,0,1,.295-.295.59.59,0,0,0,0,.295,1.278,1.278,0,0,1,.492-.492c0-.2-.1.295-.1.2s.492-.393.688,0,0-.2,0-.2.1.295.2.2.1-.1.2-.1,0,.1,0,.1.59-.393.787-.1.2-.393.2-.393v.2c.1.1.2,0,.2.2s-.492.2-.295,0,.2-.393.2-.1.2-.295.393-.1-.1.295,0,.295.1-.1.2-.2h.1c0-.2.2,0,.1-.2s.295-.1.2.295v.295c.1,0,.1-.295.2-.393h0c0-.393.2,0,.295-.295s.393,0,.492.295.2-.295.393-.2h-.1c.1.1.1,0,.2-.1l.295.393c.1-.1.1-.393.1-.492a.263.263,0,0,1,.492.1c.1.393-.2.2-.1.295s.2-.295.393-.1V141.9c.1.2.295-.2.2.2s.2.1.2-.2.688-.1.885.492.1,0,.1-.2-.1.1-.1,0V142c.1.1.2.1,0,.393s.295-.59.492-.393,0,.2.1.2l.2-.2c.2.1.1.295,0,.59s.2,0,.295-.2v.295c-.1-.2.1-.1.1-.2h0c0,.1.1.1.2,0a.3.3,0,0,0-.1-.295l.2-.2c0,.2.1.2.2.2s.1-.2.1-.2.1,0,0,.2,0-.1-.1,0,0,.295.1.2,0-.492.2-.295v.2h.1v-.1s.2,0,.295-.295l.2.2h0c.1.1.2.1.295-.1h.2c.1.2-.1.787.1.59s.295-.393.2-.492.492-.1.688.2v-.2c.295.1.688-.1.885.295s0,.2-.1.295.1.2.1-.1.1-.295,0-.393.492,0,.59.2a.2.2,0,0,1,.1-.2c-.1.295.1.393.2.295h0c.1-.1.1-.393.2-.2a.885.885,0,0,0,0,.2c.1-.1.393-.393.393-.2v.295a.188.188,0,0,0,.1-.295c-.1-.1.295.295.295.492a1.18,1.18,0,0,1,1.377-.295h0c.1.2.1-.2.2-.1s0,.295-.1.492.295-.2.393-.2-.1.1,0-.1.2.2.295-.1a1.082,1.082,0,0,1-.1.393h.1c0,.393-.393.492-.393.983h.1c0,.295-.295.295-.1.393a.885.885,0,0,0,.295-.59c.2,0,.295-.59.492-.59s-.2,0-.2.2.2-.1.295,0,.1-.393.2-.393-.1.2,0,.295.2-.2.2-.393.1.1.295-.1-.295.59-.2.688.295-.295.295-.688a.492.492,0,0,1-.1.393c0,.2.393-.393.2.1v.1c.1,0,.393-.295.2.1s.2,0,.2-.2-.2.2-.2-.2.2,0,.295-.1v.2c.1,0,.1,0,.2-.1a.3.3,0,0,0-.1.2v-.2c.2-.1-.1.393.1.393h-.2s0,.2.1.2l.295-.59c.1-.1,0,.2.1.1l-.2.2c0,.1,0,.393.1.393a.407.407,0,0,0,.2-.492c-.1-.2.1.2,0,.295s.1-.2.2-.295.1.393.1.59l-.2.295h.1c-.2.2,0,.2-.2.492h.2c0-.492.393-.59.492-.983s-.2,1.082.2.492.2-.393,0-.295.2-.393.295-.2a.575.575,0,0,1-.295.688c-.295.2-.1-.1-.1-.1s-.2.393,0,.492.2,0,.295-.2-.1,0,0-.2.1.393.295,0-.1-.295,0-.393h.1c.2.2.2-.295.295-.2v.295c-.1.295-.2-.2-.393.2s.2-.1.295,0h-.1s-.1.59.2.393.1-.1.1-.295h.492c-.1.295.2.1-.1.393s-.295-.295-.492,0-.1-.1-.295.295,0,.393-.1.688h1.377c.1-.2,0-.2.1-.492s.393.1.59-.1-.1.393-.2.295l.59.295c0-.393.295,0,.295-.295a.59.59,0,0,1,.1-.59c.1.1-.1.2-.1.295s0,.393.2.1-.2.393-.393.688-.1.2,0,.295l.59-.2c.1.295.492.2.688.295s-.2.492-.1.59.1-.393.2-.2h0c.1-.1.2.393.492-.1l-.2.295h.1a.361.361,0,0,0-.1.295c0,.1.2.1.295.1v-.2c.295-.1.295.2.492.2v.2h.2c-.1.2-.1.393.1.2l-.492.393c0-.2.2-.2.2-.393s-.2-.2-.295,0h.2c-.1.295-.2.2-.295.393h-.2c.1-.1,0-.2.1-.295s-.295.295-.393.1-.295.1-.492-.1l.492-.393c0-.2-.1,0-.2-.2s-.295.393-.492.492v.295c-.2,0-.295.295-.393.2l-.688-.393v-.2c-.295.393-.393,0-.59.1a.418.418,0,0,1-.59-.393,3.048,3.048,0,0,1-1.377-.295l.2-.295c-.2.2,0-.2-.1-.2s-.2.295-.295.393-.492-.1-.688,0v-.2c-.295.295-.393-.1-.59-.2s0-.295-.1-.295-.295.2-.492.393l-.393-.295c-.59.295-1.082-.1-1.672,0v-.2c-.59.393-1.18-.2-1.672-.1v-.393c-.1-.2-.295,0-.393.295s-.393.1-.393-.2-.2.1-.295.2a.688.688,0,0,0-.688-.2h.1c0-.1.1-.295,0-.295s-.393-.2-.295.295-.688.1-.885-.295-.1.1-.1.2-.492-.295-.688-.2.1-.2,0-.2,0,.2-.1.2-.787-.393-1.18-.295a7.667,7.667,0,0,1-1.967,0h0c-.2.393-.492-.393-.688.1s-.2-.1-.1-.2-.492-.295-.688,0h0c-.2-.2-.492.1-.688-.1v-.2c-.1-.2-.295.393-.295-.1v.2a3.441,3.441,0,0,0-1.77.2c-.393-.295,0-.787-.393-.393s0,.2,0,.1-.2-.492-.295-.295-.1.2-.1.295-.295-.393-.492-.2v-.2c-.2.393-.492.2-.688.688s-2.556.492-3.835.787a16.242,16.242,0,0,1-3.736.492c-1.278,0-.393-.295-.688-.1s0-.1,0-.1a.426.426,0,0,0-.2.393l-1.377.393c.1-.1,0-.295,0-.295v.2h0a.3.3,0,0,0,0,.295c-1.082.59-2.458.295-3.638.787a1.671,1.671,0,0,0-.983.393,3.441,3.441,0,0,0-2.753.59,1.72,1.72,0,0,1,.1-1.18" transform="translate(-0.145 -2.374)" fill="#009ca4"/>
    <path id="Path_6674" data-name="Path 6674" d="M50.6,148.892a.541.541,0,0,1,.2-.492l-.2.492" transform="translate(-0.847 -2.485)" fill="#009ca4"/>
    <path id="Path_6675" data-name="Path 6675" d="M48.5,146.1V146h0" transform="translate(-0.812 -2.445)" fill="#009ca4"/>
    <path id="Path_6676" data-name="Path 6676" d="M47.8,145.8a.393.393,0,0,1,.393-.2Z" transform="translate(-0.8 -2.438)" fill="#009ca4"/>
    <path id="Path_6677" data-name="Path 6677" d="M47.3,144.9c0-.1,0-.2.1-.2v.2" transform="translate(-0.792 -2.423)" fill="#009ca4"/>
    <path id="Path_6678" data-name="Path 6678" d="M47.2,145.2c-.1,0-.1-.1-.1-.2s.2,0,.1.2" transform="translate(-0.789 -2.427)" fill="#009ca4"/>
    <path id="Path_6679" data-name="Path 6679" d="M45.8,144.3s-.2.1-.1-.1.2-.1.1.1" transform="translate(-0.765 -2.413)" fill="#009ca4"/>
    <path id="Path_6680" data-name="Path 6680" d="M45,144.2h-.1a.11.11,0,1,1,.1-.2Z" transform="translate(-0.751 -2.411)" fill="#009ca4"/>
    <path id="Path_6681" data-name="Path 6681" d="M31.5,142.3h.1v.1Z" transform="translate(-0.527 -2.383)" fill="#009ca4"/>
    <path id="Path_6682" data-name="Path 6682" d="M25.6,142.3c-.1.1-.1-.1-.1-.2s0,.2.1.2" transform="translate(-0.427 -2.379)" fill="#009ca4"/>
    <path id="Path_6683" data-name="Path 6683" d="M22.4,143.4l.1-.1v.295Z" transform="translate(-0.375 -2.4)" fill="#009ca4"/>
    <path id="Path_6684" data-name="Path 6684" d="M53.7,123.9c.2.1.1-.295.2,0s-.2.1-.2,0" transform="translate(-0.899 -2.073)" fill="#009ca4"/>
    <path id="Path_6685" data-name="Path 6685" d="M8.895,119.494c.2-.885,1.18-.59,1.573-1.278s.2.393.295.2a3.483,3.483,0,0,1,2.163-.688h0c.2,0,.2-.393.295-.393s0,.1.1.2.2-.2.2-.393l.295.295v-.295c0-.688.59-.1.787-.59s0,.1,0,.2.983-.688,1.573-.983a.787.787,0,0,0,.1.393.492.492,0,0,1,.2-.492c.1.295.2-.295.393-.2h0c.1-.295.2.1.295-.295v.2c0-.393.2.2.295-.1h0c.1-.1.2.1.295,0h0c.2-.2.393,0,.295-.295s-.2.2,0,.492a4.916,4.916,0,0,1,2.163-.787l.2.295c.1-.1.295-.1.295-.295v.2c.2.1.1-.393.295-.295a.393.393,0,0,0,0,.295c.1-.295.295-.295.393-.393a.3.3,0,0,0,0,.2c.1-.295.295,0,.393-.2v.2c.295.2,0-.393.2-.295s0,.1,0,.2.492-.295.59-.393a.2.2,0,0,0,0,.1c.2-.1.393,0,.59-.2s0,.492.2.393.393-.2.2-.59.492.1.59,0,.1.393,0,.492v.2c0,.2-.1,0-.1.1h.688c.1-.2.2-.688.492-.688s.1.393,0,.492l.295-.688c.1,0,0,.295.1.2a.492.492,0,0,1,.1-.2s.295-.1.393.295-.1.1,0,.2H26.4a.29.29,0,0,0,.2-.393c-.1-.2,0,.2-.1.1a.393.393,0,0,1,.393-.295.361.361,0,0,1-.1.295,1.278,1.278,0,0,1,.59-.492c0-.2-.1.295-.1.2s.59-.295.787,0,0-.2,0-.2.1.295.2.2.1,0,.2-.1,0,.1-.1.1.59-.393.885-.1.2-.295.295-.295v.2c.1.1.2,0,.2.2s-.59.2-.393,0,.295-.295.2,0,.295-.2.393,0-.1.295,0,.295.1-.1.2-.2h.1c0-.2.2,0,.1-.2s.295-.1.2.295v.295c.1,0,.2-.295.2-.393h0c0-.393.2,0,.295-.295s.393,0,.492.295.295-.295.393-.2h-.1c.1.1.1,0,.2,0s.2.295.295.492.1-.393.2-.492.393-.2.492.2-.2.2-.1.295.295-.295.492-.1v-.393c.1.2.295-.2.2.2s.2.1.2-.2.787-.1.885.59.2,0,.2-.2-.1.1-.1,0h.1c.1.1.2.1,0,.393s.295-.59.59-.393,0,.2.1.2l.2-.2c.2.1,0,.295,0,.59s.2,0,.295-.2v.295c0-.2.1-.1.2-.2h-.1c0,.1.1.1.2,0a.3.3,0,0,0-.1-.295l.2-.2c-.1.2.1.2.2.2s.1-.2.2-.2.1.1,0,.2,0-.1-.1,0,0,.295.1.2.1-.492.2-.295v.295a.43.43,0,0,0,.393-.295l.2.2h0a.184.184,0,0,0,.295,0H38.2c.1.2-.2.787,0,.59s.295-.295.295-.492.59-.1.688.295v-.2c.295.2.787,0,.983.492s-.1.2-.1.295,0,.2.2-.1.1-.295,0-.393.59.1.59.295,0-.2.1-.2,0,.393.2.295h0c.1,0,.2-.393.2-.2v.2c.2-.1.393-.295.492-.1v.295c.1,0,.2-.1.1-.295s.295.295.295.59a1.377,1.377,0,0,1,1.573,0h-.1c.1.2.2-.2.2-.1a.393.393,0,0,1-.2.393c-.2.1.295-.1.393-.2s-.1.1,0-.1.2.2.295,0a.983.983,0,0,1-.2.393h.2c0,.393-.492.393-.59.885h.1c0,.295-.393.2-.2.393s.393-.393.393-.59.393-.59.59-.492-.2,0-.2.2.295,0,.295.1.1-.393.2-.393-.2.2,0,.295.295-.2.2-.393.1.2.295-.1-.393.492-.295.688.393-.2.393-.59a.492.492,0,0,1-.2.393c0,.2.393-.295.295.2v.1c0,.1.393-.2.295.2s.2.1.295-.2-.2.1-.1-.295.2.1.295,0h.2a.2.2,0,0,0-.1.2v-.2c.2,0-.1.393.1.393h-.2s0,.2.1.2l.393-.492c.1,0-.1.2.1.1l-.2.2c0,.1-.1.393,0,.393s.393-.2.295-.393.1.2,0,.295.1-.2.295-.295,0,.393,0,.59l-.295.2h.1c-.2.2,0,.2-.295.492h.2c.1-.492.492-.492.688-.885s-.393.983.2.492.295-.393.1-.295.295-.295.393-.1-.1.492-.393.59,0-.2-.1-.1-.2.393-.1.492.2.1.295-.1-.1-.1,0-.2.1.393.295,0,0-.295.1-.393h.1c.1.2.2-.2.393-.1v.295c-.2.2-.2-.295-.393.1s.295-.1.295.1h-.1s-.2.59.1.393.1-.1.2-.295H49.7c-.2.295.2.2-.1.393s-.295-.393-.492-.1-.1-.1-.393.2-.1.393-.2.688h.2l.2-.393a.492.492,0,0,0,.59,0c0,.1-.2.295-.2.295a1.278,1.278,0,0,1,.59.393c.1-.393.295.1.393-.295a.59.59,0,0,1,.2-.59c.1.1-.1.1-.1.2s-.1.393.2.1-.295.393-.492.59-.1.2,0,.295h.688c0,.393.492.295.688.393s-.295.393-.2.59.1-.393.2-.1h-.1c.1,0,.2.393.492,0l-.295.295h.1l-.2.295c-.1.295.2.1.295.2v-.2c.295,0,.295.295.492.295v.2h.2c-.2.2-.1.295,0,.2l-.59.2c0-.2.2-.2.295-.393s-.1-.295-.295-.1h.2c-.2.295-.295.2-.393.295s0,.1.1.1H51.47c.1,0,.1-.2.2-.2s-.295.2-.393,0-.393,0-.492-.2l.59-.295c0-.2-.1-.1-.1-.295s-.393.393-.59.393v-.2c-.2,0-.295.295-.492.1l.1.393v-.2c-.295.295-.492-.1-.688,0s-.59-.2-.59-.59a3.737,3.737,0,0,1-1.377-.59l.2-.2c-.2.1,0-.2-.1-.2s-.295.2-.393.295-.492-.2-.787-.2v-.2c-.393.2-.393-.2-.688-.393s.1-.295,0-.295-.295.2-.59.295l-.393-.393c-.688.2-1.082-.295-1.77-.295v-.2c-.688.2-1.18-.393-1.77-.393l.2-.393c-.1-.2-.393,0-.393.295s-.393.1-.393-.295-.2.1-.393.1a.787.787,0,0,0-.688-.295h.1a.184.184,0,0,0,0-.295c-.1-.1-.393-.2-.393.295s-.787,0-.983-.393-.1.1-.2.2-.492-.393-.787-.2.1-.2,0-.2v.2c-.492.1-.787-.492-1.278-.492a7.669,7.669,0,0,1-2.163-.2h0c-.295.295-.492-.492-.787.1s-.2-.1-.1-.2-.492-.295-.787,0h.295c-.2-.2-.492,0-.787-.2v-.2c-.1-.2-.295.393-.295-.1s-.1.2,0,.2a4.425,4.425,0,0,0-1.967.1c-.492-.295,0-.787-.393-.492s0,.2,0,.1-.2-.492-.295-.295-.1.2-.1.295-.295-.393-.59-.2v-.2c-.295.393-.59.2-.787.688s-2.851.492-4.228.688-2.655.492-4.13.59-.393-.295-.787,0,0-.1,0-.1a.426.426,0,0,0-.2.393l-1.475.393a.188.188,0,0,0-.1-.295v.2h0a.3.3,0,0,0,0,.295c-1.18.59-2.655.492-3.933.983a2.065,2.065,0,0,0-.983.492,3.933,3.933,0,0,0-2.851.787s-.295-.787.1-1.18" transform="translate(-0.144 -1.897)" fill="#009ca4"/>
    <path id="Path_6686" data-name="Path 6686" d="M53.5,123.793c.1-.2,0-.295.2-.393l-.2.393" transform="translate(-0.896 -2.066)" fill="#009ca4"/>
    <path id="Path_6687" data-name="Path 6687" d="M51.8,120.5v-.1h0" transform="translate(-0.867 -2.016)" fill="#009ca4"/>
    <path id="Path_6688" data-name="Path 6688" d="M51.1,119.9a.393.393,0,0,1,.393-.1Z" transform="translate(-0.856 -2.006)" fill="#009ca4"/>
    <path id="Path_6689" data-name="Path 6689" d="M50.7,119c0-.1.1-.2.1-.1h-.1" transform="translate(-0.849 -1.99)" fill="#009ca4"/>
    <path id="Path_6690" data-name="Path 6690" d="M50.5,119.2c-.1,0,0-.1,0-.2s.2,0,0,.2" transform="translate(-0.845 -1.992)" fill="#009ca4"/>
    <path id="Path_6691" data-name="Path 6691" d="M49.1,118s-.2.1-.1-.1.295-.1.1.1" transform="translate(-0.82 -1.972)" fill="#009ca4"/>
    <path id="Path_6692" data-name="Path 6692" d="M48.3,117.8h0Z" transform="translate(-0.809 -1.973)" fill="#009ca4"/>
    <path id="Path_6693" data-name="Path 6693" d="M33.7,113.9l.1-.1v.1Z" transform="translate(-0.564 -1.906)" fill="#009ca4"/>
    <path id="Path_6694" data-name="Path 6694" d="M27.2,113.5c-.1.1-.1-.1-.1-.2s0,.2.1.2" transform="translate(-0.454 -1.897)" fill="#009ca4"/>
    <path id="Path_6695" data-name="Path 6695" d="M23.7,114.5h0l.1.295Z" transform="translate(-0.397 -1.917)" fill="#009ca4"/>
  </g>
</svg>
